<svg version="1.1" id="Layer_1" xmlns="http://www.w3.org/2000/svg" xmlns:xlink="http://www.w3.org/1999/xlink" x="0" y="0" viewBox="0 0 1600 500" style="enable-background:new 0 0 1600 500" xml:space="preserve"><style>.st1{opacity:.7;clip-path:url(#SVGID_00000089573448113054329300000018047779666445886354_)}.st2{fill:#ffd300}.st3{fill:url(#SVGID_00000109751887396364194400000001019520705584979861_)}</style><linearGradient id="SVGID_1_" gradientUnits="userSpaceOnUse" x1="796.622" y1="271.534" x2="746.179" y2="593.11"><stop offset="0" style="stop-color:#001e5a"/><stop offset=".26" style="stop-color:#02205a"/><stop offset=".397" style="stop-color:#0a265a"/><stop offset=".506" style="stop-color:#18305a"/><stop offset=".6" style="stop-color:#2b3e5a"/><stop offset=".684" style="stop-color:#44515a"/><stop offset=".761" style="stop-color:#63675a"/><stop offset=".833" style="stop-color:#87835a"/><stop offset=".901" style="stop-color:#b1a25a"/><stop offset=".964" style="stop-color:#e0c55a"/><stop offset="1" style="stop-color:#ffdc5a"/></linearGradient><path style="fill:url(#SVGID_1_)" d="M0 0h1600v500H0z"/><defs><path id="SVGID_00000001632204493879880650000012443139492545581448_" d="M0 0h1600v500H0z"/></defs><clipPath id="SVGID_00000111165215435171983030000001324854706987602822_"><use xlink:href="#SVGID_00000001632204493879880650000012443139492545581448_" style="overflow:visible"/></clipPath><g style="opacity:.7;clip-path:url(#SVGID_00000111165215435171983030000001324854706987602822_)"><circle class="st2" cx="1299.71" cy="405.02" r="367.2"/><linearGradient id="SVGID_00000018236412477114139100000011766344564883927205_" gradientUnits="userSpaceOnUse" x1="1299.461" y1="759.944" x2="1299.461" y2="50.008"><stop offset="0" style="stop-color:#0073b1"/><stop offset=".282" style="stop-color:#006fae"/><stop offset=".539" style="stop-color:#0064a4"/><stop offset=".784" style="stop-color:#015295"/><stop offset="1" style="stop-color:#013b81"/></linearGradient><path style="fill:url(#SVGID_00000018236412477114139100000011766344564883927205_)" d="M1309.88 759.79c-195.96 5.75-359.48-148.44-365.23-344.4-5.75-195.96 148.44-359.47 344.4-365.23 195.96-5.75 359.47 148.44 365.23 344.4 5.75 195.96-148.45 359.48-344.4 365.23z"/><path class="st2" d="M1290.54 679.62c9.11-24.47 6.88-100.32 6.62-109.4-.77-27.41-1.18-43.38-3.73-64.28-1.4-11.5-5.13-39.7-17.7-42.1-1.67-.32-5.06-.41-8.06 1.68-4.03 2.82-8.14 10.84-9.79 17.45-2.5 10-3.96 25.49-3.96 25.49-1 11.24-1.11 14.64-1.28 56.72-.16 40.63 1.37 50.95 3.45 75.18 0 0 .6 10.36 5.86 30.02 2.54 9.49 7.56 16.45 12.53 19.55 1.56.97 5.89 1.67 8.46-.06 4.52-3.08 6.61-7.6 7.6-10.25zm-12.94-27.27c-2.83-8.87-3.26-10.71-6.48-26.23-2.57-12.36-4.08-21.33-6.12-36.2-3.18-23.12-1.71-20.84-4.78-45.39 0 0-4.16-33.18-.11-56 .28-1.59.87-4.32 2.17-4.64 1.87-.46 4.19 4.26 5.9 8.13 6.46 14.63 9.12 28.54 9.61 31.18 3.16 16.97 4.74 25.45 5.35 29.39 3.84 24.73 5.33 42.72 5.64 46.6.83 10.24 1.22 17.5 1.55 27.18.53 15.69.66 17.75.61 21.25 0 0 .05 7.26-1.52 18.96-.19 1.44-1.1 4.94-2.15 5.18-1.19.28-2.56-2.13-3.69-4.35-4.78-9.38-5.98-15.06-5.98-15.06z"/><path class="st2" d="M1299.37 449.82c2.7 25.52 5.04 56.15 5.78 67.73 2.73 42.53 2.43 57.4 2.21 120.53-.09 26.41-5.23 57.41-19.77 89.63 15.12-25.6 32.19-37.38 38.89-41.09-.97-14.97.27-29.23 1.11-44.21l10.77-227.46c2.57-45.14 10.48-50.54 13.77-54.83 10.41-13.6 13.51-26.17 12.71-26.68-.55-.35-3.08 5.9-10.33 11.55-6.5 5.05-12.19 6.89-20.26 7.27l-.34 25.99c.02-.01.03-.02.05-.02-.44 28.22-2.59 75.46-3.03 92.17-2.52 66.03-7.4 136.94-11.47 204.87l-3.66-286.06c.01-.01.03-.01.04-.02l-.31-36.3c-12.57.59-22.77 1.87-32.93 5.25-10.62 3.54-31.39 13.04-37.94 44.7 8.92-13.72 18.01-21.35 28.56-21.35 10.14-.01 20.62 14.6 26.15 68.33zM1199.22 695.94c-2.63-.89-4.86-1.02-6.69-.37s-3.09 1.99-3.79 4.05c-.68 1.99-.54 3.73.42 5.21.95 1.48 2.69 2.64 5.2 3.5l6.19 2.1-1.73 5.11-12.46-4.23-1.1 3.23 16.32 5.54 7.1-20.92-9.46-3.22zm2.33 11.49-5.38-1.83c-3.05-1.04-4.21-2.63-3.48-4.78.37-1.1 1.04-1.8 2.02-2.12.97-.31 2.21-.22 3.7.29l5.38 1.83-2.24 6.61zM1178.94 687.99c-1.07-.5-2.08-.65-3.02-.47-.95.19-1.87.7-2.77 1.55-.9.84-1.81 1.97-2.72 3.38-.91 1.41-1.86 3.08-2.85 5.01l-2.5 4.93-7.87-3.66 7.85-16.89-3.69-1.72-9.32 20.03 14.74 6.86 4.13-8.14c.96-1.85 1.83-3.37 2.64-4.55.8-1.18 1.59-1.99 2.36-2.42.77-.43 1.56-.46 2.38-.07.31.14.57.31.81.51l1.78-3.14c-.34-.27-.66-.51-.98-.7-.33-.19-.65-.36-.97-.51zM1141.78 675.18l-9.43-5.76.8-5.5-3.69-2.25-2.99 24.06 3.45 2.1 20-13.68-3.58-2.19-4.56 3.22zm-2.86 2.03-8.58 6.09 1.5-10.41 7.08 4.32zM1104.44 666.52l-8.73-6.63-2.12 2.75 11.96 9.09 13.37-17.6-3.25-2.46zM1095.61 639.34c-.09-1.49-.48-2.93-1.17-4.34-.69-1.41-1.66-2.69-2.91-3.85-1.25-1.16-2.6-2.02-4.05-2.6a10.88 10.88 0 0 0-4.39-.81c-1.48.04-2.9.36-4.27.97-1.37.61-2.61 1.52-3.72 2.73-1.11 1.21-1.93 2.52-2.44 3.94a10.78 10.78 0 0 0-.63 4.34c.09 1.47.48 2.9 1.16 4.3.69 1.39 1.66 2.67 2.91 3.83 1.27 1.17 2.63 2.04 4.08 2.61 1.45.57 2.92.84 4.4.82 1.48-.02 2.91-.34 4.27-.95 1.37-.61 2.61-1.52 3.72-2.73 1.1-1.19 1.9-2.49 2.4-3.9.52-1.43.73-2.88.64-4.36zm-4.38 2.78c-.35.97-.9 1.86-1.66 2.68-.77.83-1.62 1.46-2.55 1.88-.93.42-1.89.65-2.88.69-.99.05-1.96-.12-2.92-.49s-1.85-.94-2.67-1.69c-.82-.76-1.44-1.59-1.87-2.51-.43-.91-.67-1.86-.72-2.85-.05-.99.11-1.96.48-2.91.36-.95.93-1.85 1.7-2.68.77-.83 1.62-1.47 2.55-1.9.93-.43 1.88-.67 2.87-.7.98-.04 1.94.12 2.89.48.94.36 1.83.91 2.65 1.67.82.76 1.45 1.6 1.9 2.53.45.93.69 1.89.72 2.88.02.98-.14 1.96-.49 2.92zM1072.44 617.84l6.21-5.32-2.5-2.89-3.56 3.07-11.08-12.83 3.56-3.07-2.48-2.87-6.19 5.34 2.08 2.41-14.09 12.17 10.59 12.25 5.44-4.37c1.32-1.05 2.56-1.99 3.73-2.8 1.17-.82 2.25-1.46 3.24-1.92.99-.46 1.87-.69 2.65-.68.78.01 1.42.33 1.92.95l.48.56zm-4.97-4.55c-.82.15-1.71.49-2.67 1.01-.96.53-1.99 1.17-3.07 1.92-1.08.76-2.2 1.6-3.34 2.53l-3.07 2.44-5.65-6.55 11.47-9.9 7.34 8.5a3.89 3.89 0 0 0-1.01.05z"/><path transform="rotate(-35.708 1040.879 590.885)" class="st2" d="M1029.83 588.9h22.1v4.07h-22.1z"/><path class="st2" d="m1037.75 566.45-19.5-2.25 13.49-7.95-2.07-3.51-19.04 11.23 1.94 3.29 19.55 2.25-13.52 7.97 2.07 3.51 19.03-11.23zM1011.18 570.17c-1.18-.43-2.4-.28-3.66.44l1.44 2.45c.68-.38 1.33-.45 1.96-.22.62.23 1.17.74 1.63 1.51.46.78.64 1.49.53 2.14-.11.65-.49 1.18-1.15 1.59l1.44 2.45c1.24-.76 1.96-1.75 2.16-2.98.2-1.23-.18-2.66-1.14-4.29s-2.03-2.66-3.21-3.09zM1020.84 535.04l-8.66 3.84-4.63-10.45 8.66-3.83-1.65-3.73-20.2 8.95 1.65 3.72 8.34-3.69 4.62 10.45-8.34 3.69 1.67 3.75 20.2-8.94zM1007.89 502.49l-18.46-6.66 14.95-4.65-1.21-3.89-21.1 6.56 1.13 3.65 18.51 6.68-14.98 4.65 1.2 3.89 21.1-6.55zM998.68 468.28l-17.57-8.74 15.39-2.89-.75-4-21.72 4.07.7 3.76 17.61 8.77-15.42 2.89.76 4 21.71-4.07zM972.43 462.74c-.96-.8-2.16-1.08-3.59-.83l.52 2.79c.77-.12 1.41.03 1.92.46.51.43.85 1.09 1.01 1.98.17.89.09 1.62-.23 2.2-.32.57-.86.94-1.62 1.11l.52 2.79c1.42-.29 2.44-.98 3.05-2.07.61-1.09.74-2.56.39-4.43-.35-1.86-1.01-3.19-1.97-4zM969.31 408.97l2.26-.01c.12 2.16.48 4.06 1.12 5.66.77 1.94 1.87 3.43 3.32 4.45 1.45 1.02 3.2 1.53 5.26 1.52 2.06-.01 3.81-.53 5.23-1.57 1.43-1.04 2.51-2.53 3.24-4.48.61-1.6.94-3.51 1.04-5.67l2.39-.01-.02-3.79-2.38.01c-.11-2.23-.46-4.17-1.11-5.79-.76-1.9-1.86-3.35-3.32-4.34-1.46-.99-3.2-1.48-5.22-1.47-2.06.01-3.81.52-5.25 1.54s-2.53 2.49-3.28 4.42c-.62 1.61-.97 3.53-1.06 5.73l-2.26.01.04 3.79zm17.67 3.23c-.47 1.41-1.18 2.49-2.15 3.25-.96.75-2.16 1.13-3.59 1.14-1.45.01-2.66-.34-3.62-1.04s-1.68-1.76-2.16-3.18c-.33-.97-.51-2.15-.61-3.42l12.71-.06c-.1 1.22-.26 2.36-.58 3.31zm-11.55-10.55c.48-1.37 1.19-2.42 2.13-3.14.94-.72 2.12-1.08 3.53-1.09 1.43-.01 2.63.34 3.6 1.04.97.7 1.71 1.74 2.21 3.11.36.98.55 2.19.65 3.52l-12.73.07c.09-1.31.26-2.52.61-3.51zM974.33 375.74c.89 1.18 1.98 2.15 3.28 2.89 1.3.75 2.77 1.21 4.4 1.4 1.61.19 3.13.07 4.57-.36 1.44-.42 2.73-1.11 3.88-2.06s2.09-2.11 2.82-3.5c.73-1.39 1.2-2.93 1.4-4.62.2-1.69.1-3.29-.28-4.8-.39-1.51-1.03-2.85-1.93-4.02-.9-1.17-2-2.14-3.3-2.88-1.3-.74-2.77-1.21-4.4-1.4-1.63-.19-3.17-.07-4.62.35-1.45.42-2.74 1.11-3.88 2.04a11.07 11.07 0 0 0-2.79 3.47c-.72 1.38-1.18 2.91-1.38 4.61-.2 1.71-.1 3.33.29 4.83.41 1.52 1.05 2.86 1.94 4.05zm1.35-8.46c.13-1.11.44-2.11.92-2.99.49-.89 1.11-1.64 1.88-2.26.77-.62 1.65-1.06 2.64-1.33.98-.27 2.04-.33 3.17-.2s2.14.45 3.04.94c.9.5 1.65 1.13 2.26 1.9a7.28 7.28 0 0 1 1.32 2.62c.27.97.34 2.01.21 3.12-.13 1.11-.44 2.12-.93 3.02-.49.91-1.12 1.66-1.9 2.27-.78.61-1.67 1.06-2.65 1.34-.99.29-2.03.37-3.14.24-1.13-.13-2.13-.45-3.02-.96a7.864 7.864 0 0 1-2.25-1.92 7.198 7.198 0 0 1-1.33-2.65c-.28-.98-.35-2.03-.22-3.14zM999.24 339.87l-9.21-2.18 2.62-11.12 9.22 2.18.94-3.96-21.51-5.08-.93 3.96 8.87 2.1-2.62 11.12-8.88-2.1-.95 3.99 21.51 5.09zM998.04 304.55c1.29.62 2.37 1.25 3.26 1.88.89.63 1.52 1.29 1.89 1.97.37.68.41 1.39.12 2.14l-.25.68 7.68 2.8 1.3-3.59-4.42-1.6 5.75-15.95 4.42 1.6 1.29-3.56-7.69-2.77-1.08 3-17.52-6.32-5.49 15.23 6.48 2.6c1.55.64 2.98 1.27 4.26 1.89zm-3.36-14.74 14.25 5.14-3.81 10.56c-.13-.29-.3-.57-.53-.85-.53-.64-1.26-1.25-2.19-1.83a35.04 35.04 0 0 0-3.18-1.74c-1.19-.57-2.47-1.13-3.84-1.67l-3.63-1.48 2.93-8.13zM1020.49 247.15l-7.54-4.42-1.61 2.93 7.77 4.01zM1017.56 252.49l-7.54-4.42-1.61 2.93 7.77 4.01zM1025.86 228.38c.34-1.01.78-1.91 1.31-2.71s1.11-1.45 1.72-1.96c.62-.51 1.25-.83 1.88-.95.64-.12 1.23.01 1.8.38.75.5 1.14 1.17 1.16 2.01.02.84-.31 1.77-1 2.81l-2.68 4.02 2.71 1.8 2.84-4.26c.79-1.19 1.62-1.98 2.49-2.36.86-.38 1.7-.31 2.5.23.67.44 1.07 1.05 1.22 1.82.15.77.08 1.61-.19 2.53-.27.92-.72 1.83-1.34 2.73-.62.9-1.4 1.72-2.32 2.48-.92.75-1.91 1.34-2.98 1.77l1.79 2.78c1.28-.56 2.47-1.29 3.56-2.18 1.09-.89 2.03-1.88 2.82-2.98.79-1.09 1.41-2.21 1.86-3.37.45-1.15.72-2.29.79-3.4.07-1.11-.09-2.13-.48-3.03-.39-.91-1.04-1.66-1.93-2.25-.95-.63-1.95-.94-3-.94-1.05.01-2.08.33-3.09.96-.25.16-.47.39-.71.58.02-.1.07-.2.08-.3.16-1.06.05-2.03-.32-2.93-.38-.9-1-1.64-1.88-2.22-.98-.65-2.01-.93-3.09-.83-1.08.1-2.16.48-3.23 1.15-1.07.66-2.06 1.55-2.96 2.67-.9 1.12-1.65 2.39-2.25 3.81a14.9 14.9 0 0 0-1.11 4.53l3.43.77c.05-1.1.25-2.15.6-3.16zM1057.9 215.22l-2.53-4.96 7.06-8.5 5.33 1.58 2.76-3.33-23.37-6.44-2.58 3.11 10.65 21.76 2.68-3.22zm-4.13-8.08-4.79-9.37 10.08 2.99-5.29 6.38zM1082.35 187.81l-6.57-6.83 8.24-7.92 6.56 6.83 2.94-2.83-15.32-15.92-2.93 2.82 6.32 6.58-8.23 7.92-6.33-6.58-2.96 2.85 15.32 15.92zM1097.4 159.04c.98 1.29 2.13 2.3 3.43 3.04 1.3.74 2.7 1.19 4.17 1.36 1.48.17 2.97.04 4.48-.4 1.51-.43 2.94-1.17 4.29-2.2 1.36-1.03 2.44-2.21 3.26-3.54a10.99 10.99 0 0 0 1.33-8.56c-.37-1.45-1.05-2.83-2.04-4.14-.99-1.31-2.15-2.33-3.46-3.08s-2.7-1.2-4.16-1.37c-1.46-.17-2.94-.03-4.44.4-1.49.44-2.92 1.17-4.27 2.21-1.37 1.05-2.46 2.24-3.27 3.57-.81 1.33-1.33 2.73-1.57 4.19-.23 1.46-.17 2.92.2 4.37.38 1.46 1.06 2.84 2.05 4.15zm1.67-8.28c.12-.98.45-1.91.98-2.8.53-.88 1.24-1.66 2.13-2.34.89-.68 1.82-1.15 2.79-1.41.97-.27 1.95-.34 2.93-.21.98.13 1.91.45 2.79.97.88.52 1.66 1.24 2.35 2.14.69.9 1.17 1.85 1.43 2.84.26.99.33 1.97.2 2.94s-.45 1.89-.97 2.76c-.52.87-1.22 1.64-2.1 2.32-.89.68-1.83 1.15-2.82 1.43-.99.28-1.98.35-2.96.21-.98-.14-1.92-.46-2.81-.98a7.778 7.778 0 0 1-2.35-2.1c-.69-.9-1.16-1.85-1.41-2.84-.24-.96-.3-1.95-.18-2.93zM1143.76 140.29c2.38-1.43 3.9-2.96 4.56-4.62.65-1.65.48-3.31-.51-4.97-.96-1.61-2.27-2.48-3.92-2.62-.81-.07-1.67.04-2.59.3.31-.43.59-.87.78-1.34.63-1.51.48-3.04-.44-4.58-.95-1.59-2.27-2.45-3.97-2.58-1.69-.13-3.62.45-5.77 1.74l-8.48 5.07 11.34 18.97 9-5.37zm-15.22-12.97 4.71-2.82c1.14-.68 2.14-.97 3.01-.88.87.1 1.56.59 2.09 1.47.53.89.63 1.73.3 2.54s-1.06 1.55-2.2 2.23l-4.71 2.82-3.2-5.36zm10.14 4.71c1.25-.75 2.32-1.07 3.22-.99.9.09 1.62.59 2.17 1.51.58.98.7 1.88.35 2.71-.35.83-1.14 1.62-2.39 2.37l-5.39 3.22-3.35-5.61 5.39-3.21zM1160.11 123.76c1.11 1.01 2.36 1.77 3.76 2.26 1.4.5 2.89.7 4.45.61 1.57-.09 3.13-.48 4.68-1.18 1.55-.7 2.87-1.61 3.97-2.72 1.09-1.11 1.91-2.35 2.45-3.73.54-1.38.8-2.82.77-4.32-.03-1.5-.39-3-1.06-4.49-.68-1.5-1.57-2.75-2.68-3.78a10.816 10.816 0 0 0-3.75-2.27c-1.39-.49-2.86-.69-4.41-.6-1.55.09-3.11.49-4.66 1.19-1.57.71-2.9 1.63-3.99 2.74-1.09 1.12-1.91 2.36-2.47 3.73-.56 1.37-.82 2.81-.79 4.31.03 1.5.39 3 1.06 4.49.68 1.5 1.56 2.75 2.67 3.76zm.82-11.43c.34-.93.87-1.76 1.59-2.5.72-.74 1.58-1.34 2.6-1.8 1.02-.46 2.03-.71 3.04-.75 1.01-.04 1.98.11 2.91.45s1.76.87 2.5 1.57c.74.71 1.34 1.58 1.81 2.61.47 1.03.72 2.06.76 3.09.04 1.02-.12 1.99-.46 2.91a7.43 7.43 0 0 1-1.56 2.48c-.7.73-1.55 1.33-2.57 1.79s-2.04.72-3.07.77c-1.03.05-2-.1-2.93-.46-.92-.36-1.76-.88-2.52-1.58-.76-.7-1.36-1.55-1.82-2.57a7.935 7.935 0 0 1-.74-3.08c-.04-1.03.12-2 .46-2.93zM1199.58 100.43l-2.61-8.35-3.16 1.09 3.05 8.2zM1193.81 102.41l-2.6-8.35-3.16 1.09 3.05 8.2zM1419.05 98.21c-1.19-1.09-2.64-1.95-4.34-2.57-1.6-.58-3.17-.86-4.71-.82-1.54.03-2.98.35-4.34.95-1.36.6-2.55 1.45-3.57 2.53-1.02 1.08-1.82 2.41-2.39 3.97-.57 1.56-.81 3.09-.72 4.57.09 1.49.45 2.9 1.1 4.23.65 1.33 1.55 2.51 2.7 3.52 1.15 1.01 2.53 1.81 4.13 2.4 1.72.63 3.39.9 5.01.82 1.62-.08 3.12-.52 4.51-1.31l-1.64-3.25c-1.07.55-2.15.86-3.23.93-1.08.07-2.15-.09-3.22-.48-1.09-.4-2.02-.94-2.79-1.62a7.215 7.215 0 0 1-1.79-2.37c-.42-.89-.66-1.85-.72-2.88-.05-1.03.12-2.07.51-3.14.39-1.07.93-1.98 1.63-2.73.7-.75 1.5-1.34 2.4-1.75.9-.41 1.86-.63 2.89-.66 1.03-.03 2.09.16 3.18.55 1.07.39 1.99.95 2.77 1.7.78.74 1.41 1.66 1.89 2.75l3.34-1.44a9.61 9.61 0 0 0-2.6-3.9zM1451.34 112.09l-4.05 8.18-10.24-5.07 4.04-8.17-3.67-1.82-9.8 19.8 3.68 1.82 4.2-8.49 10.24 5.07-4.2 8.49 3.65 1.8 9.8-19.8zM1464.15 138.84l9.3 5.97-.92 5.48 3.64 2.34 3.55-23.98-3.4-2.18-20.31 13.22 3.53 2.27 4.61-3.12zm2.91-1.96 8.72-5.89-1.75 10.37-6.97-4.48zM1505.91 163.08c1.32-.43 2.48-1.27 3.5-2.53 1.03-1.28 1.62-2.61 1.77-4.01.15-1.39-.12-2.77-.82-4.13-.7-1.36-1.81-2.66-3.33-3.89l-7.08-5.71-13.87 17.2 3.19 2.58 4.04-5.01 3.88 3.13c.23.19.46.34.69.51l-.55 7.87 3.44 2.77.6-8.84c.11.03.23.08.34.11 1.49.39 2.89.37 4.2-.05zm-10.47-8.13 5.53-6.85 3.73 3.01c1.41 1.14 2.23 2.29 2.46 3.46.23 1.17-.09 2.3-.96 3.38s-1.91 1.64-3.11 1.67c-1.2.03-2.51-.52-3.91-1.66l-3.74-3.01z"/><path transform="rotate(-46.224 1520.158 174.732)" class="st2" d="M1509.01 172.67h22.1v4.1h-22.1z"/><path class="st2" d="m1527.89 198.61 2.74 3.06 13.86-12.44 4.89 5.45 2.58-2.32-12.52-13.96-2.59 2.32 4.9 5.45zM1543.41 217.01l5.42-1.26 6.54 8.91-2.83 4.79 2.56 3.49 11.91-21.12-2.39-3.26-23.7 5.06 2.49 3.39zm8.83-2.05 10.25-2.38-5.35 9.06-4.9-6.68zM1567.25 252.88c1.42 2.46 2.95 4.05 4.58 4.77 1.63.72 3.27.61 4.91-.34 1.11-.64 1.9-1.43 2.36-2.35.46-.92.64-1.93.54-3.01-.03-.29-.12-.58-.19-.87.83.53 1.72.84 2.68.89.99.06 2-.21 3.02-.8 1.51-.87 2.37-2.17 2.58-3.9.21-1.72-.35-3.72-1.67-6l-5.2-8.99-19.12 11.07 5.51 9.53zm7.79.67c-.97.56-1.87.61-2.72.15-.85-.46-1.65-1.34-2.41-2.65l-3.34-5.76 5.52-3.2 3.34 5.76c.76 1.31 1.12 2.45 1.09 3.42-.05.97-.54 1.73-1.48 2.28zm7.99-11.08c.71 1.22 1.04 2.29.99 3.22-.05.93-.52 1.65-1.41 2.17-.87.51-1.72.55-2.55.13-.83-.42-1.59-1.24-2.3-2.46l-2.91-5.03 5.27-3.05 2.91 5.02zM1584.18 287.12l3.16-1.42-4.74-10.54 16.98-7.65-1.69-3.74-20.14 9.08zM1594.12 314.8l3.29-1.11-4-11.81 5.74-1.94 3.42 10.1 3.2-1.08-3.42-10.11 5.42-1.83 3.85 11.4 3.29-1.12-5.17-15.28-20.93 7.08zM1602.62 350.53l8.38-1.41 1.77 10.52 3.36-.57-1.77-10.52 6.63-1.12 2 11.86 3.42-.58-2.68-15.91-21.79 3.68zM1608.59 378.08c-1.59 1.82-2.29 4.23-2.1 7.23.19 3.02 1.19 5.34 3 6.94s4.33 2.3 7.57 2.1l12.41-.79-.25-4.03-12.29.78c-2.27.14-3.95-.23-5.04-1.14-1.09-.9-1.69-2.24-1.8-4.03-.11-1.79.31-3.2 1.28-4.24s2.58-1.63 4.85-1.78l12.29-.78-.26-4.1-12.41.79c-3.24.22-5.65 1.23-7.25 3.05zM1629.6 411.3l-22.07-1.09-.2 4.07 14.97.73-15.56 11.41-.17 3.37 22.07 1.09.2-4.04-14.97-.74 15.57-11.43zM1603.37 454.75c-.38 2.33-.27 4.46.34 6.41.61 1.94 1.65 3.55 3.13 4.82 1.48 1.27 3.3 2.08 5.48 2.44 2.18.36 4.17.18 5.98-.55 1.8-.73 3.31-1.91 4.51-3.56 1.2-1.65 1.99-3.63 2.37-5.96l1.58-9.56-21.8-3.59-1.59 9.55zm3.47.31.87-5.26 14.95 2.46-.87 5.26c-.27 1.64-.82 3.01-1.64 4.1a7.207 7.207 0 0 1-3.05 2.38c-1.21.49-2.59.61-4.12.36-1.49-.25-2.75-.8-3.76-1.66a7.017 7.017 0 0 1-2.15-3.23c-.43-1.3-.5-2.77-.23-4.41zM1605.16 503.97l8.23 2.97 1.04-3.18-8.37-2.52zM1603.26 509.76l8.23 2.97 1.04-3.18-8.37-2.52zM1583.92 523.1l5.91 2.56-1.98 4.58c-.12.27-.21.53-.31.8l-7.73 1.57-1.75 4.06 8.68-1.79c0 .12-.02.24-.02.36.02 1.53.42 2.88 1.18 4.03.76 1.15 1.89 2.05 3.37 2.7 1.51.65 2.95.86 4.33.64 1.38-.23 2.64-.86 3.76-1.9 1.13-1.04 2.08-2.46 2.85-4.25l3.61-8.34-20.28-8.77-1.62 3.75zm15.2 11.79c-.72 1.66-1.61 2.76-2.68 3.29-1.07.54-2.24.53-3.51-.02-1.27-.55-2.09-1.4-2.44-2.55-.35-1.15-.17-2.56.55-4.22l1.9-4.4 8.08 3.49-1.9 4.41zM1563.72 563.38l3.02 1.7 6.11-10.88 5.28 2.97-5.22 9.3 2.94 1.66 5.23-9.3 4.98 2.79-5.89 10.49 3.03 1.7 7.9-14.06-19.27-10.82zM1553.83 578.63l12.2 8.7-19.26 1.19-1.96 2.75 17.99 12.83 2.35-3.29-12.21-8.7 19.28-1.22 1.96-2.75-17.99-12.83zM1544.39 609.58c-1.2-1.09-2.51-1.88-3.93-2.36-1.42-.49-2.87-.68-4.35-.58-1.48.1-2.93.51-4.33 1.21s-2.68 1.69-3.82 2.95c-1.14 1.26-2 2.62-2.56 4.07-.56 1.45-.82 2.92-.76 4.4.05 1.48.39 2.9 1.02 4.26.63 1.36 1.55 2.59 2.77 3.69s2.54 1.9 3.96 2.39c1.43.49 2.87.69 4.34.59 1.47-.1 2.9-.51 4.29-1.21 1.39-.7 2.65-1.69 3.8-2.95 1.16-1.28 2.01-2.65 2.57-4.11.55-1.46.81-2.93.77-4.41-.04-1.48-.37-2.9-1-4.26-.63-1.35-1.55-2.58-2.77-3.68zm-.58 11.37c-.36.96-.92 1.86-1.66 2.69-.75.83-1.58 1.46-2.49 1.9-.91.44-1.86.69-2.85.75-.99.06-1.96-.09-2.92-.45-.96-.35-1.86-.91-2.7-1.67a8.362 8.362 0 0 1-1.93-2.53c-.44-.92-.69-1.88-.73-2.86-.05-.98.1-1.95.45-2.89.35-.95.9-1.84 1.64-2.66.75-.83 1.58-1.47 2.51-1.92.92-.46 1.88-.7 2.87-.75.99-.04 1.97.11 2.94.45s1.87.88 2.7 1.63c.84.76 1.48 1.61 1.9 2.53.43.92.67 1.88.72 2.87.06.97-.09 1.94-.45 2.91zM1502.8 636.03l7.6 22.87 3.03-2.72-5.8-17.64 16.82 7.75 3.31-2.97-21.95-9.99zM1485.93 649.93l1.21 5.43-8.96 6.47-4.77-2.87-3.51 2.53 21.02 12.08 3.28-2.36-4.87-23.74-3.4 2.46zm1.98 8.85 2.29 10.27-9.01-5.42 6.72-4.85zM1465.8 685.79l-9.39-16.09-3.54 2.07 9.39 16.08-6.33 3.69 1.75 3 16.2-9.45-1.75-2.99zM1420.2 688.16l1.45 3.15 11.33-5.21 2.53 5.51-9.69 4.46 1.41 3.07 9.7-4.46 2.38 5.19-10.92 5.02 1.45 3.16 14.65-6.74-9.23-20.08zM1409.63 706.53l2.71 8.32 3.15-1.13-3.15-8.16zM1403.9 708.58l2.7 8.32 3.15-1.13-3.15-8.16zM1287.57 85.76l-.14-3.45c4.23-.17 8.45-.26 12.55-.26 3.9 0 7.92.08 11.97.24l-.14 3.45c-4-.16-7.98-.24-11.83-.24-4.06.01-8.23.09-12.41.26z"/><path class="st2" d="m1287.57 85.76-.14-3.45c4.23-.17 8.45-.26 12.55-.26 3.9 0 7.92.08 11.97.24l-.14 3.45c-4-.16-7.98-.24-11.83-.24-4.06.01-8.23.09-12.41.26zM1170.49 319.8a51.598 51.598 0 0 0-9.27 13.41c-.86 1.82-1.56 3.57-2.14 5.23-2.14-20.13-3.05-50.19.68-76.09 3.47-24.12 10.18-47.83 19.93-70.48 7.02-16.31 15.66-32.15 25.68-47.07.8-1.2.62-2.77-.44-3.75a2.887 2.887 0 0 0-3.77-.14c-22.57 17.95-41.16 41.09-53.77 66.91a193.027 193.027 0 0 0-13.08 35.03v-.72c-.14-16.11-3.69-29.81-6.65-38.47-2.99-8.74-6.86-16.55-9.02-18.16-1.14-.85-2.22-.71-2.77-.56-.78.22-1.42.74-1.81 1.46-.73 1.34-.37 2.5.59 5.59 1.84 5.92 5.66 18.22 3.82 33.49-1.67 13.86-7.11 22.16-12.87 30.95-3.95 6.03-8.04 12.27-11.08 20.51-3.7 10.01-4.69 20.14-4.24 29.5a124.91 124.91 0 0 0-6.26-9.93c-10.38-14.82-24.3-27.09-29.34-27.76-1.4-.18-2.33.31-2.86.76-1.04.87-1.91 2.53-.22 5.5.62 1.1 1.59 2.49 2.81 4.24 4.29 6.16 12.28 17.64 16.71 33.67 2.15 7.8 2.22 12.07 2.31 17.47.09 5.44.19 11.6 2.3 22.75 2.38 12.54 5.67 22.63 7.93 29.44-2.22-2.91-5.01-6.43-8.43-10.14-9.25-10.06-18.84-16.99-25.25-21.03-4.39-2.77-12.63-7.39-15.68-7.21-1.35.08-2.08.84-2.4 1.28-.47.66-.66 1.46-.52 2.26.25 1.5 1.26 2.21 3.7 3.91 4.27 2.99 13.16 9.22 20.04 20.35 4.77 7.73 5.62 13.02 6.7 19.73.98 6.13 2.1 13.08 6.31 23.41 5.04 12.36 13.66 24.5 19.96 33.37 1.64 2.3 3.47 4.89 4.91 7.07-.14-.04-.28-.07-.42-.1-2.02-1.27-4.71-3.15-8.17-5.87-6.46-5.08-12.63-10.76-16.09-14.85-4.96-5.85-6.18-8.84-7.59-12.3-1.44-3.55-3.08-7.57-8.67-14.76-1.26-1.62-2.59-3.37-4.01-5.22-10.62-13.94-14.43-18.32-17.56-18.64-1-.1-1.96.2-2.69.84-2.47 2.17-.83 5.62-.22 6.92.9 1.91 2.39 4.36 4.11 7.2 3.08 5.09 6.92 11.42 10.01 18.71 7.76 18.31 8.65 27.15 9.69 37.4.68 6.66 1.44 14.2 4.23 25.13 6.8 26.65 24.96 48.34 36.97 62.69 3.27 3.91 6.1 7.28 8.05 9.99 1.42 1.97 2.07 3.18 2.37 3.9-.72-.03-1.68-.1-2.68-.18-2.48-.19-6.22-.48-11.6-.59-3.39-.07-9.7-.19-15.32.05-8.1.36-12.61 1.21-13.23 4.64-.11.6-.2 2.16 1.33 3.52.53.47 1.21.9 2.16 1.34 1.43.67 3.36 1.34 5.79 2.19 4.78 1.67 11.34 3.95 17.79 7.62 13.77 7.83 19.4 15.17 25.91 23.67 2.24 2.92 4.54 5.92 7.28 9.1 7.2 9.03 7.06 7.63 7.6 7.36 1.26-.62.22-4.76-.09-5.82-.24-.78-.47-1.6-.7-2.43l.05-.04c-.03-.03-.06-.06-.08-.09-10.26-37.16-17.77-125.96-19.96-132.92-.05-.15-.48-1.92-.19-1.59 0 0 1.1.98 3.65 4.09.14.17.39.61.59.99.45.86 1.42 3.29 1.45 3.41.75 2.94 12.15 57.05 18.45 95.54.47 2.89.77 4.91 1.07 7.19 2.5 19.66 2.2 31.79 2.12 33.45-.07 1.52-.35 4.34-.31 4.63l3.57 1.98c3.93 2.2 15.09 8.08 15.09 8.08l-.26-.77c-.88-2.65-1.61-5.35-2.21-8.08-1.07-4.91-3.26-14.03-3.53-15.4-.34-1.71-9.82-65.99-15.01-93.35-1.01-5.32-1.87-11.69-6.29-35.68-.02-.1-.45-.78-.29-1.58.1-.52.4-.86.44-.91 5.21-6.5 5.09-26.41 5.09-26.41-.16-25.86-2.66-39.52-2.66-39.52-6.85-37.39-19.66-65.88-24.74-76.58-1.44-3.03-2.88-5.94-4.33-8.74-.11-.28-.27-.73-.38-1.02-.49-2.05-.93-4.19-1.32-6.42-2.44-14.11-1.54-27.04 2.67-38.44 2.82-7.63 6.72-13.59 10.5-19.35 5.87-8.96 11.94-18.22 13.77-33.42.54-4.49.62-8.76.41-12.72 2.18 8.19 3.88 18.03 3.97 28.74.16 18.7-4.57 33.83-7.11 41.96-.2.63-.38 1.2-.54 1.74-.44 1.35-.75 2.42-.89 3.13-.02.08-.03.16-.04.24-.04.19-.07.37-.1.54-2.21 12.73.93 30.06 5.39 49.92 4.34 19.3 5.35 39.21 8.9 58.67 2.98 16.33 3.38 21.59 17.21 159.54 1.16 11.6 3.34 21.28 3.54 35.25.09 6.55.21 37.96.02 38.82l-.13.67 1.33.36s25.13 6.29 30.64 7.42l1.98-47.2c-3.56 6.14-7.13 12.74-10.62 19.81-2.65 5.36-5.06 10.58-7.25 15.64-.44-11.46-.96-23.03-1.57-34.68-1.8-34.46-4.31-67.75-7.36-100.45.47.57.93 1.16 1.39 1.77 2.63 3.48 4.96 7.75 7.05 11.59 3.42 6.28 7.06 12.13 10.29 18.76-.28-9.17-1.14-19.49-1.42-28.67-4.15-1.47-8.29-1.72-12.44-3.27-1.94-2.57-3.44-4.56-5.38-7.12-2.55-30.51-4.66-55.6-6.32-86.17-.78-14.39-1.8-31.89-2.97-46.81l3.5 11.17c4.7 13.3 9.58 29.19 13.53 42.72 4.5 15.44 7.73 29.69 11.84 44.69-.09-10.53.06-36.97.12-50.09-10.26-15.44-16-33.01-16-51.8-.02-10.59 1.86-20.82 5.32-30.51zm-97.06 93.16c-3.96-9.71-5.02-16.32-5.96-22.15-1.13-7.05-2.11-13.13-7.48-21.84a67.382 67.382 0 0 0-5.14-7.21c5.22 3.92 10.84 8.78 16.14 14.55.17.19.34.37.51.56a51.379 51.379 0 0 1 6.87 18.49c.13 1 .27 2.03.42 3.09 1.64 11.64 4.25 26.23 7.2 36.99-4.63-6.88-9.39-14.7-12.56-22.48zm23.55 126.07c-11.68-13.95-29.33-35.04-35.81-60.42-2.68-10.51-3.4-17.52-4.08-24.29-1.04-10.26-2.03-19.95-10.12-39.06-2.22-5.23-4.84-10.06-7.24-14.18 1.34 1.73 2.63 3.42 3.73 4.86 1.42 1.87 2.77 3.63 4.04 5.27 5.1 6.56 6.52 10.04 7.89 13.4 1.53 3.76 2.97 7.31 8.53 13.85 3.55 4.18 9.61 9.83 16.04 14.95 6.11 6.12 11.86 14.29 13.46 21.36l4.29 19.67c2.69 17.99 5.18 38.95 6.9 53.99-1.99-2.66-4.58-5.76-7.63-9.4zm9.3 24.88-.14 6.83c.16 3.66-2.84 6.13-9.33 3.68a93.422 93.422 0 0 0-6.73-4.19c-6.91-3.92-13.74-6.31-18.74-8.05l-.93-.33c1.29-.11 2.89-.2 4.87-.26 5-.16 10.41-.05 13.32.01 5.21.1 8.71.37 11.27.57 2.78.21 4.76.36 6.24-.19.06.64.12 1.28.17 1.93zm-3.5-202.14c3.27 15.8 5.15 22.72 6.04 28.84 1.51 10.41.94 8.4 2.99 23.21 1.44 10.39 2.99 20.41 3.9 31.24.25 3.03.86 10.32.03 19.26-.13 1.41-.56 2.52-.75 3.25-2.15-.88-6.17-2.5-8.32-3.38-7.6-51.16-15.2-99.45-22.8-150.61 1.77 2.39 6.17 9.01 8.38 13.74 3.07 6.56 6.18 13.38 10.53 34.45zm51.3-100.23c-3.43 23.83-3.02 51.08-1.31 71.22.01.33.04 1.42.18 3.16a112.44 112.44 0 0 1-10.68-17.48c-8.42-17.15-9.65-44.35-2.76-72.74a187.67 187.67 0 0 1 13.05-35.35c9.41-19.26 22.25-36.99 37.64-52.07a294.313 294.313 0 0 0-15.78 31.33c-9.95 23.1-16.8 47.31-20.34 71.93z"/><path class="st2" d="m1239.58 484.97.78 152.38c-4.28-28.31-6.57-54.63-10.94-82.92-5.39-34.89-9.98-70.77-15.5-107.54-.32-4.78 1.6-7.85 4.89-9.18-11.5-7.04-21.55-15.56-29.76-25.19.63 4.54 1.25 9.08 1.95 14.34 1.76 56.28 3.04 120.57 4.71 178.37.35 11.96-.3 23.91-1.93 35.77l-.59 4.3c1.41 1.75 3.55 3.27 5.28 5.12 2.09 2.23 7.76 6.08 9.73 7.85-.54-3.5-1.28-7.17-2.1-10.91-3.15-14.39-4.83-29.06-5.37-43.78-1.95-53.32-3.9-105.19-5.64-158.66 11.83 77.11 21.83 152.41 33.66 229.52 3.42 1.79 7.1 3.58 11.05 5.31 2.91 1.27 5.73 2.42 8.47 3.45l-3.56-29.8-.52-160.34c-.02-5.47.58-12.83 1.52-18.22.42-2.39 1.22-6.38 1.84-8.45 1.39-4.64 2.8-9.53 8.24-12.73-6.17-1.73-12.13-3.81-17.85-6.22.96 15.12 1.64 37.53 1.64 37.53zM1349.8 466.02c.77 4.52 1.17 9.36.92 13.91-3.37 60.68-7.37 113.86-12.98 174.59-.97 10.48-2.07 19.04-3.49 29.33 2.61-1.03 9.08-3.51 11.69-4.54-.51-9.12-1.56-17.26-2.07-26.38 1.55-17.19 2.43-31.29 3.98-48.49 5.79-12.61 11.81-23.22 17.59-35.83.49 25.05.89 46.98 1.38 72.03-.35 10.93-.61 20.73-.97 31.66 4.38-1.34 9.73-3.65 14.55-6.08 3.91-1.96 9.62-4.83 13.08-7.42-2.75-.3-5.55-5.39-6.06-8.02-.07-.34-.13-.68-.2-1.03-2.65-13.71-3.42-27.64-3.94-41.59-.79-21.51-.86-42.24-1.04-54.59-.58-39.2-.42-54.38-1.24-85.42-.32-11.92.47-22.38 1.55-31.84-10.95 7-23.24 12.66-36.55 16.65 2.63 4.18 3.38 10.88 3.8 13.06zm6.94.33s4.08 19.47 8.35 95c-5.45 11.89-12.03 23.15-17.49 35.04 2.32-18.3 3.52-44.93 5.53-78.36 1.84-30.77 3.61-51.68 3.61-51.68zM1571.59 384.67c-.73-.64-1.69-.94-2.69-.84-3.13.31-6.93 4.7-17.56 18.64-1.41 1.86-2.75 3.61-4.01 5.22-5.59 7.19-7.23 11.21-8.67 14.76-1.41 3.46-2.63 6.46-7.58 12.3-3.33 3.93-9.31 8.98-15.98 13.51-3.79 2.58-6.78 4.28-8.94 5.35 1.28-1.77 2.92-3.88 4.38-5.74 6.53-8.38 15.48-19.86 20.73-32.73 4.21-10.32 5.33-17.27 6.31-23.41 1.08-6.7 1.92-12 6.7-19.73 6.88-11.13 15.77-17.36 20.04-20.35 2.44-1.71 3.45-2.41 3.7-3.91.14-.8-.05-1.6-.52-2.26-.32-.44-1.06-1.2-2.4-1.28-3.05-.18-11.3 4.45-15.69 7.21-6.41 4.04-16 10.97-25.25 21.03-3.42 3.72-6.21 7.24-8.43 10.14 2.25-6.81 5.55-16.91 7.93-29.44 2.12-11.16 2.22-17.32 2.3-22.75.09-5.4.16-9.67 2.31-17.47 4.43-16.03 12.42-27.51 16.71-33.67 1.22-1.76 2.19-3.14 2.81-4.24 1.69-2.97.81-4.63-.22-5.5-.53-.45-1.46-.94-2.86-.76-5.04.66-18.96 12.94-29.34 27.76-2.12 3.03-4 5.96-5.66 8.77.15-8.51-1.07-18.12-4.84-28.34-3.05-8.24-7.13-14.48-11.08-20.51-5.76-8.79-11.21-17.1-12.87-30.95-1.83-15.27 1.98-27.58 3.82-33.49.96-3.09 1.32-4.24.59-5.59a2.996 2.996 0 0 0-1.81-1.46c-.55-.16-1.63-.29-2.77.56-2.16 1.61-6.04 9.42-9.02 18.16-2.96 8.66-6.51 22.36-6.65 38.47 0 .47-.01.94-.01 1.41-3-11.4-7.27-23.44-13.26-35.72-12.61-25.82-31.21-48.96-53.77-66.91-1.13-.9-2.71-.84-3.77.14a2.877 2.877 0 0 0-.44 3.75c10.02 14.92 18.66 30.76 25.68 47.07 9.75 22.65 16.46 46.37 19.93 70.48 3.46 24.03 2.93 51.64 1.13 71.58-.09.51-.22 1.26-.41 2.21-.61-1.18-1.37-2.56-2.34-4.29-2.86-5.13-6.91-9.27-9.17-12.24.62 1.72 1.18 3.46 1.7 5.21 1.95 6.63 3.17 13.49 3.55 20.52.09 1.64.15 3.29.15 4.95 0 1.88-.06 3.74-.17 5.59-.18 2.85-.53 5.66-.97 8.44v.01c-.13.83-.24 1.67-.39 2.49-.21 1.13-.48 2.24-.73 3.36v.01c-.05.21-.09.41-.14.62-.39 1.69-.84 3.36-1.33 5.02 0 .01 0 .02-.01.02-.08.27-.15.53-.23.8a85.18 85.18 0 0 1-1.75 5.18l-.24.69c-.53 1.4-1.12 2.79-1.72 4.17 0 .01-.01.01-.01.02l-.21.51a99.932 99.932 0 0 1-7.93 14.52v.01c-.02.02-.03.05-.05.07-6.51 9.88-14.84 18.85-24.62 26.62 1.06 18.29.61 56.71 1.16 63.58 5.9-18.42 17.09-58.58 24.18-74.49l.12-.15c1.34 82.87-.49 91.32-4.15 155.11-.49 8.49-3.74 41.01-5.3 49.37-1.84 9.88-2.33 16.58-9.32 33.62l6.49-4.67c2.79-1.99 5.12-4.04 7.6-6.4 2.03-1.93 3.27-3.25 6.82-4.47h.01c2.12-.81 4.29-1.48 6.49-2.02 1.08-.26 2.33-.56 3.6-.85-.45-12.33-.89-24.65-1.34-36.98 5.68-85.97 8.65-165.43 14.39-251.28.5-7.48 2.5-21.52 9.79-10.3 5.66 9.8 10.79 18.44 13.06 45.23 1.73 24.49 1.31 42.48.98 56.07-.35 14.34-.31 57.72-14.39 149.56-2.87 18.72-4.04 25.95-14.02 45.19 6.6-2.07 15.67-6.21 19.38-8.45 5.68-3.43 9.57-6.87 11.27-8.44 4.44-4.11 7.2-7.77 9.66-11.06 1.49-2 2.47-3.45 3.23-4.67 7.72-9.79 15.23-19.03 28.87-26.78 6.45-3.67 13-5.95 17.79-7.62 2.43-.85 4.36-1.52 5.79-2.19 1-.47 4.03-1.89 3.5-4.86-.62-3.43-5.13-4.28-13.23-4.64-5.61-.25-11.93-.12-15.32-.05-5.38.11-9.12.4-11.59.59-1.06.08-2.08.16-2.81.19.23-.72.81-2.02 2.24-4.23 1.86-2.88 4.6-6.49 7.78-10.67 10.86-14.31 27.28-35.94 33.95-62.06 2.25-8.82 3.53-15.28 4.66-20.98 2.36-11.91 4.06-20.51 12.82-41.18 3.09-7.3 6.93-13.63 10.01-18.71 1.72-2.84 3.2-5.29 4.11-7.2.6-1.26 2.23-4.72-.24-6.88zM1457.63 268.9c-2.07 20.27-3.94 35.69-10.81 58.44 1.34-19.45 1.41-44.04-1.72-65.8-3.55-24.62-10.39-48.82-20.34-71.94-4.6-10.68-9.88-21.17-15.77-31.33 15.39 15.08 28.23 32.81 37.64 52.07 2.1 4.31 3.99 8.58 5.68 12.81l-.52-.64c7.46 18.07 6.49 40.05 5.84 46.39zm52.1 83.51.12.15c4.21 5.41 2.15 19.14 1.39 25.24-.41 1.26-.8 2.43-1.16 3.51-1.02 3.08-1.82 5.51-2.26 7.32-.32 1.32-1.16 4.83 1.6 6.21 2.58 1.29 4.75-1.09 5.46-1.86 1.01-1.1 2.2-2.68 3.71-4.68 2.37-3.14 5.62-7.44 9.79-11.97 5.3-5.77 10.92-10.63 16.14-14.55-1.76 2.15-3.5 4.55-5.14 7.21-5.38 8.7-6.35 14.79-7.48 21.84-.93 5.83-1.99 12.43-5.96 22.15-4.95 12.13-9.61 19.32-15.94 27.43-.82 1.06-1.61 2.06-2.34 3.01-2.11 2.52-5.33 7.43-6.68 9.99-1.54 2.91-3.66 7.98-7.84 10.44l-5.52 2.52 5.75-119.24c.63-6.05 12.6.52 16.36 5.28zm-34.41-53.57c-.03-.6-.1-1.29-.21-2.06-2.26-16.45-4.42-32.39-4.34-48.99.01-1.85.02-3.72.04-5.61.09-10.71 1.79-20.55 3.97-28.74-.21 3.96-.13 8.23.41 12.72 1.83 15.19 7.9 24.46 13.77 33.42 3.78 5.76 7.68 11.72 10.5 19.35a71.611 71.611 0 0 1 4.47 26.26c-.18 10.29-3.1 20.42-9.07 28.8-2.33 3.27-4.73 5.77-6.68 7.2-4.55 3.33-13.08 6.25-17.45 5.31-11.55-3.23 6.12-15.23 4.59-47.66zm77.08 116.42c-8.99 21.21-10.74 30.06-13.17 42.3-1.11 5.63-2.38 12-4.59 20.67-6.38 24.99-22.37 46.06-32.95 60-5.15 6.78-8.92 11.75-10.51 15.59-1.79 3.07-3.55 6.55-4.34 8.48-5.05 13.25-7.99 27.5-13.04 40.76 5.66-47.32 10.12-84.08 13.49-132.35 5.19-1.1 10.51.13 15.41 2.19l9.84 4.13s-.32-9.8-.19-13.6c.17-4.61 3.5-8.44 7.23-11.28 6.58-4.59 12.46-9.65 15.89-13.69 5.55-6.55 7-10.09 8.53-13.85 1.37-3.36 2.78-6.84 7.89-13.4 1.27-1.64 2.62-3.4 4.04-5.27 1.1-1.44 2.38-3.13 3.73-4.86-2.42 4.12-5.04 8.95-7.26 14.18z"/></g></svg>