<svg version="1.1" id="Layer_1" xmlns="http://www.w3.org/2000/svg" xmlns:xlink="http://www.w3.org/1999/xlink" x="0" y="0" viewBox="0 0 768 400" style="enable-background:new 0 0 768 400" xml:space="preserve"><style>.st1{opacity:.7;clip-path:url(#SVGID_00000047775220888019299040000015016198766684990632_)}.st2{fill:#ffd300}.st3{fill:url(#SVGID_00000096019022151706252770000017461348221831889070_)}</style><linearGradient id="SVGID_1_" gradientUnits="userSpaceOnUse" x1="381.659" y1="214.924" x2="346.699" y2="437.794"><stop offset="0" style="stop-color:#001e5a"/><stop offset=".26" style="stop-color:#02205a"/><stop offset=".397" style="stop-color:#0a265a"/><stop offset=".506" style="stop-color:#18305a"/><stop offset=".6" style="stop-color:#2b3e5a"/><stop offset=".684" style="stop-color:#44515a"/><stop offset=".761" style="stop-color:#63675a"/><stop offset=".833" style="stop-color:#87835a"/><stop offset=".901" style="stop-color:#b1a25a"/><stop offset=".964" style="stop-color:#e0c55a"/><stop offset="1" style="stop-color:#ffdc5a"/></linearGradient><path style="fill:url(#SVGID_1_)" d="M0 0h768v400H0z"/><defs><path id="SVGID_00000075852819158636846220000006434113510757382800_" d="M0 0h768v400H0z"/></defs><clipPath id="SVGID_00000147219004398095897300000000501297854820993450_"><use xlink:href="#SVGID_00000075852819158636846220000006434113510757382800_" style="overflow:visible"/></clipPath><g style="opacity:.7;clip-path:url(#SVGID_00000147219004398095897300000000501297854820993450_)"><circle class="st2" cx="574.88" cy="290.85" r="238.37"/><linearGradient id="SVGID_00000072241389797630392420000010248212951624541863_" gradientUnits="userSpaceOnUse" x1="574.716" y1="521.253" x2="574.716" y2="60.399"><stop offset="0" style="stop-color:#0073b1"/><stop offset=".282" style="stop-color:#006fae"/><stop offset=".539" style="stop-color:#0064a4"/><stop offset=".784" style="stop-color:#015295"/><stop offset="1" style="stop-color:#013b81"/></linearGradient><path style="fill:url(#SVGID_00000072241389797630392420000010248212951624541863_)" d="M581.48 521.15c-127.21 3.73-233.35-96.36-237.09-223.56-3.73-127.21 96.36-233.36 223.56-237.09 127.21-3.73 233.35 96.36 237.09 223.56 3.74 127.21-96.36 233.36-223.56 237.09z"/><path class="st2" d="M568.93 469.11c5.92-15.88 4.46-65.12 4.3-71.02-.5-17.79-.77-28.16-2.42-41.73-.91-7.46-3.33-25.77-11.49-27.33-1.08-.21-3.29-.27-5.23 1.09-2.62 1.83-5.28 7.04-6.36 11.33-1.62 6.49-2.57 16.55-2.57 16.55-.65 7.3-.72 9.5-.83 36.82-.1 26.37.89 33.08 2.24 48.8 0 0 .39 6.73 3.81 19.48 1.65 6.16 4.91 10.68 8.13 12.69 1.01.63 3.83 1.08 5.49-.04 2.92-1.98 4.28-4.92 4.93-6.64zm-8.41-17.7c-1.83-5.76-2.11-6.95-4.21-17.03-1.67-8.02-2.65-13.85-3.98-23.5-2.06-15.01-1.11-13.53-3.1-29.46 0 0-2.7-21.54-.07-36.35.18-1.03.57-2.8 1.41-3.01 1.21-.3 2.72 2.77 3.83 5.28 4.19 9.5 5.92 18.52 6.24 20.24 2.05 11.01 3.08 16.52 3.47 19.08 2.49 16.06 3.46 27.73 3.66 30.25.54 6.64.79 11.36 1.01 17.65.35 10.18.43 11.52.4 13.79 0 0 .03 4.71-.99 12.31-.13.93-.71 3.2-1.39 3.37-.77.18-1.66-1.38-2.39-2.82-3.1-6.11-3.89-9.8-3.89-9.8z"/><path class="st2" d="M574.66 319.94c1.75 16.57 3.27 36.45 3.75 43.97 1.77 27.61 1.58 37.26 1.43 78.24-.06 17.14-3.4 37.27-12.83 58.18 9.82-16.62 20.9-24.27 25.24-26.68-.63-9.72.17-18.98.72-28.7l6.99-147.65c1.67-29.3 6.8-32.81 8.94-35.6 6.76-8.83 8.77-16.99 8.25-17.32-.36-.23-2 3.83-6.71 7.49-4.22 3.28-7.91 4.47-13.15 4.72l-.22 16.87c.01-.01.02-.01.03-.02-.28 18.32-1.68 48.98-1.97 59.83-1.64 42.86-4.81 88.89-7.45 132.99l-2.38-185.7c.01 0 .02-.01.03-.01l-.2-23.56c-8.16.38-14.78 1.21-21.38 3.41-6.9 2.3-20.38 8.47-24.63 29.02 5.79-8.91 11.69-13.86 18.54-13.86 6.61.02 13.41 9.5 17 44.38zM509.65 479.7c-1.71-.58-3.16-.66-4.34-.24-1.19.42-2.01 1.29-2.46 2.63-.44 1.29-.35 2.42.27 3.38s1.74 1.72 3.37 2.27l4.02 1.36-1.13 3.32-8.09-2.75-.71 2.1 10.59 3.6 4.61-13.58-6.13-2.09zm1.51 7.46-3.49-1.19c-1.98-.67-2.73-1.71-2.26-3.1.24-.71.68-1.17 1.31-1.37.63-.2 1.43-.14 2.4.19l3.49 1.19-1.45 4.28zM496.48 474.54c-.69-.32-1.35-.42-1.96-.3-.61.12-1.21.46-1.8 1-.59.55-1.18 1.28-1.77 2.2-.59.92-1.21 2-1.85 3.25l-1.62 3.2-5.11-2.38 5.1-10.96-2.4-1.11-6.05 13.01 9.57 4.45 2.68-5.28c.62-1.2 1.19-2.19 1.71-2.95.52-.77 1.03-1.29 1.53-1.57s1.02-.3 1.55-.05c.2.09.37.2.52.33l1.15-2.04a4.71 4.71 0 0 0-.64-.45 3.7 3.7 0 0 0-.61-.35zM472.35 466.23l-6.12-3.74.52-3.57-2.4-1.46-1.94 15.62 2.24 1.37 12.98-8.88-2.33-1.42-2.95 2.08zm-1.85 1.32-5.57 3.95.98-6.76 4.59 2.81zM448.11 460.6l-5.66-4.3-1.38 1.79 7.77 5.9 8.68-11.43-2.11-1.6zM442.39 442.96c-.06-.96-.31-1.9-.76-2.82-.45-.92-1.08-1.75-1.89-2.5a8.606 8.606 0 0 0-2.63-1.69c-.94-.37-1.89-.55-2.85-.53a7 7 0 0 0-2.77.63c-.89.4-1.69.99-2.42 1.77-.72.78-1.25 1.63-1.58 2.56-.33.92-.47 1.86-.41 2.81s.31 1.88.76 2.79c.45.9 1.08 1.73 1.89 2.48a8.44 8.44 0 0 0 2.65 1.69c.94.37 1.89.55 2.86.53.96-.01 1.89-.22 2.77-.62.89-.4 1.69-.99 2.42-1.77a7.49 7.49 0 0 0 1.56-2.53c.32-.89.45-1.84.4-2.8zm-2.85 1.81c-.23.63-.59 1.21-1.08 1.74-.5.54-1.05.95-1.66 1.22-.6.27-1.23.42-1.87.45-.64.03-1.27-.07-1.9-.32a5.45 5.45 0 0 1-1.73-1.1c-.53-.49-.94-1.03-1.22-1.63-.28-.59-.43-1.21-.46-1.85-.03-.64.07-1.27.31-1.89.24-.62.61-1.2 1.11-1.74.5-.54 1.05-.95 1.65-1.23.6-.28 1.22-.43 1.86-.46.64-.03 1.26.08 1.88.31.61.23 1.19.59 1.72 1.08.53.49.94 1.04 1.23 1.64.29.6.44 1.22.47 1.87.02.65-.08 1.28-.31 1.91zM427.35 429l4.03-3.45-1.62-1.88-2.31 2-7.19-8.33 2.31-2-1.61-1.86-4.02 3.47 1.35 1.57-9.15 7.9 6.87 7.96 3.53-2.84c.85-.68 1.66-1.29 2.42-1.82s1.46-.95 2.1-1.25c.64-.3 1.21-.45 1.72-.44.5.01.92.21 1.25.61l.32.36zm-3.23-2.95c-.53.1-1.11.32-1.73.66-.63.34-1.29.76-1.99 1.25s-1.43 1.04-2.17 1.64l-1.99 1.58-3.67-4.25 7.44-6.43 4.76 5.52c-.2-.01-.42-.01-.65.03z"/><path transform="rotate(-35.708 406.863 411.518)" class="st2" d="M399.68 410.22h14.34v2.64h-14.34z"/><path class="st2" d="m404.83 395.64-12.66-1.45 8.75-5.16-1.34-2.28-12.36 7.29 1.26 2.13 12.69 1.46-8.77 5.18 1.34 2.27 12.36-7.28zM387.58 398.06c-.77-.28-1.56-.18-2.38.28l.94 1.59c.44-.24.87-.29 1.27-.14.41.15.76.48 1.06.98.3.51.41.97.34 1.39-.07.42-.32.77-.75 1.03l.94 1.59c.8-.49 1.27-1.14 1.4-1.93.13-.8-.12-1.73-.74-2.79-.62-1.05-1.32-1.72-2.08-2zM393.85 375.26l-5.62 2.49-3.01-6.78 5.62-2.49-1.07-2.42-13.11 5.81 1.07 2.42 5.41-2.4 3.01 6.78-5.42 2.4 1.08 2.43 13.12-5.81zM385.44 354.13l-11.98-4.33 9.7-3.01-.78-2.53-13.7 4.26.74 2.37 12.01 4.33-9.73 3.02.79 2.53 13.7-4.26zM379.47 331.92l-11.41-5.68 9.99-1.87-.49-2.6-14.1 2.65.46 2.44 11.43 5.69-10.01 1.88.49 2.6 14.1-2.65zM362.42 328.32c-.63-.52-1.4-.7-2.33-.54l.34 1.81c.5-.08.91.02 1.24.3.33.28.55.71.66 1.28.11.58.06 1.05-.15 1.43-.21.37-.56.61-1.05.72l.34 1.81c.92-.19 1.58-.63 1.98-1.34.4-.71.48-1.66.25-2.87-.22-1.21-.65-2.07-1.28-2.6zM360.4 293.42l1.47-.01c.08 1.4.31 2.64.72 3.67.5 1.26 1.22 2.22 2.16 2.89.94.66 2.08.99 3.42.99 1.34-.01 2.47-.35 3.4-1.02.93-.67 1.63-1.64 2.11-2.91.39-1.04.61-2.28.68-3.68l1.55-.01-.01-2.46-1.54.01c-.07-1.44-.3-2.7-.72-3.76-.49-1.23-1.21-2.17-2.16-2.82-.95-.64-2.07-.96-3.39-.96-1.34.01-2.47.34-3.41 1-.93.66-1.64 1.62-2.13 2.87-.41 1.05-.63 2.29-.69 3.72l-1.46.01v2.47zm11.47 2.09c-.3.92-.77 1.62-1.39 2.11-.63.49-1.4.73-2.33.74-.94 0-1.73-.22-2.35-.67-.62-.45-1.09-1.14-1.4-2.06-.21-.63-.33-1.39-.4-2.22l8.25-.04c-.07.79-.17 1.53-.38 2.14zm-7.5-6.84c.31-.89.77-1.57 1.38-2.04.61-.47 1.38-.7 2.29-.71.93 0 1.71.22 2.34.67.63.45 1.11 1.13 1.43 2.02.23.64.35 1.42.42 2.28l-8.27.04c.07-.84.19-1.62.41-2.26zM363.66 271.84c.58.77 1.29 1.4 2.13 1.88.84.48 1.8.79 2.85.91 1.04.12 2.03.05 2.97-.23a7.13 7.13 0 0 0 2.52-1.34c.75-.61 1.36-1.37 1.83-2.27.48-.9.78-1.9.91-3s.07-2.14-.18-3.12-.67-1.85-1.25-2.61a7.12 7.12 0 0 0-2.14-1.87c-.84-.48-1.8-.79-2.85-.91-1.06-.12-2.06-.05-3 .23s-1.78.72-2.52 1.33c-.74.61-1.34 1.36-1.81 2.25-.47.89-.77 1.89-.9 2.99-.13 1.11-.07 2.16.19 3.14.25.98.67 1.86 1.25 2.62zm.87-5.48c.08-.72.28-1.37.6-1.94.31-.57.72-1.06 1.22-1.47a4.6 4.6 0 0 1 1.71-.86c.64-.17 1.32-.22 2.06-.13.73.09 1.39.29 1.97.61a4.72 4.72 0 0 1 2.31 2.93c.17.63.22 1.31.13 2.03-.08.72-.28 1.37-.6 1.96-.32.59-.73 1.08-1.23 1.48-.51.39-1.08.69-1.72.87-.64.19-1.32.24-2.04.15-.73-.09-1.39-.29-1.96-.62-.57-.33-1.06-.74-1.46-1.24-.4-.5-.69-1.07-.86-1.72-.17-.65-.21-1.33-.13-2.05zM379.83 248.56l-5.98-1.41 1.7-7.22 5.99 1.42.6-2.58-13.96-3.3-.6 2.58 5.76 1.36-1.71 7.22-5.76-1.37-.61 2.6 13.96 3.3zM379.05 225.63c.83.4 1.54.81 2.12 1.22.58.41.99.84 1.23 1.28.24.44.27.91.08 1.39l-.16.44 4.99 1.82.84-2.33-2.87-1.04 3.73-10.35 2.87 1.04.83-2.31-4.99-1.8-.7 1.95-11.37-4.1-3.57 9.89 4.2 1.69c1.01.4 1.94.81 2.77 1.21zm-2.18-9.56 9.25 3.34-2.47 6.86c-.09-.19-.19-.37-.34-.55-.34-.41-.82-.81-1.42-1.19-.6-.38-1.29-.75-2.07-1.13-.77-.37-1.6-.73-2.49-1.09l-2.36-.96 1.9-5.28zM393.62 188.37l-4.9-2.87-1.04 1.91 5.05 2.6zM391.72 191.84l-4.9-2.87-1.04 1.9 5.05 2.61zM397.1 176.19c.22-.66.51-1.24.85-1.76.34-.52.72-.94 1.12-1.27.4-.33.81-.54 1.22-.61.41-.08.8 0 1.17.25.49.33.74.76.76 1.3.02.54-.2 1.15-.65 1.82l-1.74 2.61 1.76 1.17 1.84-2.76c.51-.77 1.05-1.28 1.61-1.53s1.1-.2 1.63.15c.43.29.7.68.79 1.18.09.5.05 1.05-.12 1.64-.18.6-.47 1.19-.87 1.77-.41.58-.91 1.12-1.5 1.61-.6.49-1.24.87-1.93 1.15l1.16 1.81c.83-.36 1.6-.84 2.31-1.42s1.32-1.22 1.83-1.93.92-1.44 1.21-2.18c.29-.75.46-1.48.51-2.21.05-.72-.06-1.38-.31-1.97-.26-.59-.67-1.08-1.25-1.46-.61-.41-1.26-.61-1.95-.61-.68 0-1.35.21-2 .62-.16.1-.31.25-.46.38.01-.06.04-.13.05-.19.1-.69.03-1.32-.21-1.9-.24-.58-.65-1.06-1.22-1.44-.64-.42-1.31-.6-2.01-.54-.7.07-1.4.31-2.1.74-.7.43-1.34 1.01-1.92 1.74-.58.73-1.07 1.55-1.46 2.47s-.63 1.9-.72 2.94l2.23.5c.02-.73.15-1.42.37-2.07zM417.91 167.65l-1.64-3.22 4.58-5.52 3.46 1.03 1.79-2.16-15.17-4.18-1.68 2.02 6.92 14.13 1.74-2.1zm-2.68-5.25-3.11-6.08 6.55 1.94-3.44 4.14zM433.78 149.85l-4.26-4.43 5.34-5.14 4.26 4.43 1.91-1.83-9.94-10.34-1.91 1.83 4.11 4.27-5.35 5.14-4.11-4.27-1.92 1.85 9.95 10.34zM443.55 131.18c.64.84 1.38 1.5 2.23 1.97.85.48 1.75.77 2.71.88.96.11 1.93.02 2.91-.26.98-.28 1.91-.76 2.79-1.43.88-.67 1.58-1.44 2.11-2.3a7.098 7.098 0 0 0 .87-5.55c-.24-.94-.68-1.84-1.33-2.69-.65-.85-1.39-1.51-2.25-2-.85-.48-1.75-.78-2.7-.89a7.28 7.28 0 0 0-2.88.26c-.97.28-1.89.76-2.77 1.43-.89.68-1.6 1.45-2.12 2.32-.53.86-.87 1.77-1.02 2.72-.15.95-.11 1.9.13 2.84.23.95.68 1.85 1.32 2.7zm1.08-5.38c.08-.64.29-1.24.64-1.81.35-.57.81-1.08 1.38-1.52.58-.44 1.18-.74 1.81-.92a4.9 4.9 0 0 1 1.9-.14c.64.08 1.24.29 1.81.63.57.34 1.08.8 1.52 1.39.45.59.76 1.2.93 1.84.17.64.22 1.28.13 1.91-.09.63-.29 1.23-.63 1.79a5.1 5.1 0 0 1-1.37 1.5c-.58.44-1.19.75-1.83.93-.64.18-1.28.23-1.92.14-.64-.09-1.24-.3-1.82-.63-.58-.33-1.09-.78-1.53-1.36-.45-.59-.75-1.2-.91-1.84-.15-.63-.19-1.27-.11-1.91zM473.64 119c1.55-.93 2.53-1.92 2.96-3 .42-1.07.31-2.15-.33-3.23-.62-1.04-1.47-1.61-2.55-1.7-.52-.04-1.09.02-1.68.2.2-.28.38-.56.5-.87.41-.98.31-1.97-.28-2.97-.62-1.03-1.47-1.59-2.57-1.67-1.1-.08-2.35.29-3.74 1.13l-5.5 3.29 7.36 12.31 5.83-3.49zm-9.88-8.42 3.06-1.83c.74-.44 1.39-.63 1.95-.57.56.06 1.02.38 1.36.95.34.57.41 1.12.2 1.65-.21.52-.69 1.01-1.43 1.45l-3.06 1.83-2.08-3.48zm6.58 3.07c.81-.48 1.51-.7 2.09-.64.58.06 1.05.38 1.41.98.38.63.46 1.22.23 1.76s-.74 1.05-1.55 1.54l-3.5 2.09-2.18-3.64 3.5-2.09zM484.26 108.27c.72.66 1.53 1.15 2.44 1.47.91.32 1.87.46 2.89.4a8.47 8.47 0 0 0 3.04-.77c1.01-.46 1.87-1.04 2.58-1.76s1.24-1.53 1.59-2.42a7.2 7.2 0 0 0 .5-2.8c-.02-.97-.25-1.94-.69-2.91-.44-.97-1.02-1.79-1.74-2.45a7.072 7.072 0 0 0-2.43-1.47c-.9-.32-1.86-.45-2.86-.39-1.01.06-2.02.32-3.02.77-1.02.46-1.88 1.06-2.59 1.78s-1.24 1.53-1.6 2.42c-.36.89-.53 1.82-.51 2.8.02.97.25 1.94.69 2.92.41.95.99 1.76 1.71 2.41zm.53-7.41c.22-.6.56-1.14 1.03-1.62.46-.48 1.03-.87 1.69-1.17.66-.3 1.32-.46 1.97-.49.65-.03 1.28.07 1.89.29s1.14.56 1.62 1.02c.48.46.87 1.02 1.17 1.7.3.67.47 1.34.49 2s-.08 1.29-.3 1.89c-.22.6-.56 1.13-1.02 1.61-.45.48-1.01.86-1.67 1.16-.66.3-1.32.46-1.99.5-.67.03-1.3-.07-1.9-.3-.6-.23-1.14-.57-1.63-1.03-.49-.45-.88-1.01-1.18-1.67a5.27 5.27 0 0 1-.48-2c-.02-.66.09-1.29.31-1.89zM509.88 93.13l-1.69-5.42-2.06.71 1.98 5.32zM506.13 94.42 504.45 89l-2.06.7 1.98 5.32zM652.34 91.69c-.77-.71-1.71-1.27-2.82-1.67-1.04-.38-2.06-.56-3.05-.53-1 .02-1.94.23-2.82.62-.88.39-1.66.94-2.32 1.64-.66.7-1.18 1.56-1.55 2.58-.37 1.01-.53 2-.47 2.97.06.97.29 1.88.71 2.75.42.86 1 1.63 1.75 2.28.75.66 1.64 1.18 2.68 1.55 1.12.41 2.2.58 3.25.53 1.05-.05 2.03-.34 2.93-.85l-1.06-2.11c-.7.36-1.4.56-2.09.6-.7.04-1.4-.06-2.09-.31-.71-.26-1.31-.61-1.81-1.05-.5-.44-.89-.96-1.16-1.54-.28-.58-.43-1.2-.46-1.87-.03-.67.08-1.35.33-2.04s.61-1.28 1.06-1.77c.45-.49.97-.87 1.56-1.13.58-.27 1.21-.41 1.88-.43.67-.02 1.36.1 2.06.36.69.25 1.29.62 1.8 1.1.51.48.92 1.08 1.22 1.79l2.17-.93c-.36-.99-.92-1.83-1.7-2.54zM673.31 100.7l-2.63 5.31-6.65-3.29 2.63-5.31-2.39-1.18-6.36 12.86 2.39 1.18 2.72-5.51 6.65 3.29-2.72 5.51 2.37 1.17 6.36-12.86zM681.63 118.06l6.04 3.88-.6 3.56 2.36 1.52 2.31-15.57-2.21-1.42-13.18 8.58 2.29 1.47 2.99-2.02zm1.88-1.27 5.66-3.82-1.13 6.73-4.53-2.91zM708.74 133.8c.85-.28 1.61-.82 2.27-1.64.67-.83 1.05-1.7 1.15-2.6.1-.9-.08-1.8-.54-2.68-.45-.88-1.18-1.72-2.16-2.52l-4.59-3.7-9.01 11.16 2.07 1.67 2.62-3.25 2.52 2.03c.15.12.3.22.45.33l-.36 5.11 2.23 1.8.39-5.74c.07.02.15.05.22.07.97.25 1.88.23 2.74-.04zm-6.81-5.28 3.59-4.45 2.42 1.96c.91.74 1.45 1.49 1.6 2.25.15.76-.06 1.49-.62 2.19-.57.7-1.24 1.06-2.02 1.08-.78.02-1.63-.34-2.54-1.08l-2.43-1.95z"/><path transform="rotate(-46.224 717.964 141.365)" class="st2" d="M710.75 140.02h14.34v2.66h-14.34z"/><path class="st2" d="m723 156.87 1.78 1.98 8.99-8.08 3.18 3.54 1.68-1.51-8.13-9.05-1.68 1.5 3.17 3.54zM733.07 168.8l3.52-.82 4.25 5.78-1.83 3.11 1.66 2.26 7.73-13.71-1.55-2.11-15.38 3.29 1.6 2.2zm5.74-1.32 6.66-1.54-3.47 5.88-3.19-4.34zM748.55 192.09c.92 1.6 1.92 2.63 2.98 3.1 1.06.47 2.12.39 3.19-.22.72-.42 1.23-.93 1.53-1.53.3-.6.42-1.25.35-1.95-.02-.19-.08-.38-.12-.57.54.34 1.11.54 1.74.58.64.04 1.3-.14 1.96-.52.98-.57 1.54-1.41 1.67-2.53.13-1.12-.23-2.42-1.08-3.9l-3.38-5.83-12.41 7.19 3.57 6.18zm5.06.44c-.63.36-1.22.4-1.77.1-.55-.3-1.07-.87-1.57-1.72l-2.17-3.74 3.58-2.07 2.17 3.74c.49.85.73 1.59.71 2.22-.02.62-.34 1.11-.95 1.47zm5.18-7.2c.46.79.67 1.49.64 2.09-.03.6-.34 1.07-.91 1.41-.57.33-1.12.36-1.66.08-.54-.27-1.03-.81-1.49-1.6l-1.89-3.26 3.42-1.98 1.89 3.26zM759.54 214.32l2.05-.92-3.08-6.84 11.03-4.97-1.1-2.43-13.07 5.89zM765.99 232.29l2.14-.72-2.6-7.67 3.73-1.26 2.22 6.56 2.08-.7-2.22-6.56 3.51-1.19 2.5 7.39 2.14-.72-3.36-9.92-13.58 4.6zM771.51 255.48l5.44-.92 1.15 6.83 2.18-.36-1.15-6.83 4.3-.73 1.3 7.7 2.23-.38-1.75-10.32-14.14 2.39zM775.39 273.36c-1.03 1.18-1.49 2.75-1.37 4.7.12 1.96.77 3.47 1.95 4.51 1.17 1.04 2.81 1.5 4.91 1.36l8.06-.51-.17-2.62-7.98.5c-1.47.09-2.56-.15-3.27-.74-.71-.58-1.1-1.46-1.17-2.62-.07-1.16.2-2.08.83-2.75.63-.68 1.68-1.06 3.15-1.15l7.98-.51-.17-2.66-8.06.51c-2.09.15-3.66.8-4.69 1.98zM789.03 294.93l-14.33-.71-.13 2.64 9.71.48-10.1 7.4-.1 2.19 14.32.71.13-2.62-9.72-.48 10.11-7.42zM772 323.13c-.25 1.51-.18 2.9.22 4.16.39 1.26 1.07 2.31 2.03 3.13.96.82 2.14 1.35 3.56 1.58 1.42.23 2.71.11 3.88-.36s2.15-1.24 2.93-2.31c.78-1.07 1.29-2.36 1.54-3.87l1.02-6.21-14.15-2.33-1.03 6.21zm2.25.21.56-3.42 9.7 1.6-.56 3.42c-.18 1.06-.53 1.95-1.06 2.66-.53.71-1.19 1.22-1.98 1.54-.79.32-1.68.4-2.68.23-.97-.16-1.78-.52-2.44-1.08a4.592 4.592 0 0 1-1.4-2.1c-.27-.83-.32-1.79-.14-2.85zM773.16 355.09l5.34 1.93.68-2.07-5.44-1.63zM771.93 358.85l5.34 1.92.67-2.06-5.43-1.64zM759.38 367.5l3.84 1.66-1.28 2.97c-.08.18-.13.35-.2.52l-5.02 1.02-1.14 2.63 5.64-1.16c0 .08-.01.16-.01.23.02 1 .27 1.87.77 2.62.49.75 1.22 1.33 2.19 1.75.98.42 1.92.56 2.81.41.9-.15 1.71-.56 2.44-1.23.73-.67 1.35-1.59 1.85-2.76l2.34-5.42-13.17-5.69-1.06 2.45zm9.86 7.66c-.47 1.08-1.05 1.79-1.74 2.14-.69.35-1.45.34-2.28-.02-.83-.36-1.36-.91-1.58-1.66-.23-.75-.11-1.66.36-2.74l1.24-2.86 5.25 2.27-1.25 2.87zM746.26 393.65l1.96 1.1 3.96-7.05 3.44 1.92-3.4 6.04 1.92 1.08 3.39-6.04 3.23 1.81-3.82 6.81 1.96 1.1 5.13-9.13-12.51-7.02zM739.84 403.55l7.92 5.65-12.5.77-1.28 1.79 11.68 8.33 1.53-2.14-7.93-5.65 12.52-.79 1.27-1.78-11.68-8.33zM733.71 423.64c-.78-.71-1.63-1.22-2.55-1.53a6.98 6.98 0 0 0-2.83-.37c-.96.07-1.9.33-2.81.79s-1.74 1.09-2.48 1.92c-.74.82-1.3 1.7-1.66 2.64-.36.94-.53 1.89-.5 2.85.03.96.25 1.88.66 2.77.41.88 1.01 1.68 1.8 2.4.79.71 1.65 1.23 2.57 1.55.93.32 1.86.45 2.82.38.95-.07 1.88-.33 2.78-.78.9-.46 1.72-1.09 2.47-1.91.75-.83 1.31-1.72 1.67-2.67.36-.95.53-1.9.5-2.86-.02-.96-.24-1.88-.65-2.77-.4-.89-1-1.69-1.79-2.41zm-.38 7.38c-.23.63-.59 1.21-1.08 1.74-.49.54-1.02.95-1.61 1.23-.59.29-1.21.45-1.85.48-.64.04-1.27-.06-1.89-.29-.62-.23-1.2-.59-1.75-1.09-.55-.5-.96-1.04-1.25-1.64-.29-.6-.45-1.22-.48-1.85-.03-.64.07-1.26.29-1.88.23-.62.58-1.19 1.07-1.73a5.51 5.51 0 0 1 1.63-1.25c.6-.3 1.22-.46 1.86-.48a5.077 5.077 0 0 1 3.66 1.35c.55.5.96 1.04 1.24 1.64.28.6.43 1.22.47 1.86.03.65-.07 1.29-.31 1.91zM706.72 440.81l4.93 14.85 1.96-1.76-3.76-11.46 10.92 5.04 2.15-1.93-14.25-6.49zM695.76 449.84l.79 3.53-5.82 4.2-3.09-1.86-2.28 1.64 13.64 7.84 2.13-1.53-3.16-15.41-2.21 1.59zm1.28 5.74 1.49 6.67-5.85-3.52 4.36-3.15zM682.69 473.11l-6.09-10.44-2.3 1.34 6.09 10.45-4.1 2.39 1.13 1.95 10.52-6.14-1.14-1.94zM653.1 474.65l.94 2.05 7.35-3.38 1.64 3.57-6.29 2.9.92 1.99 6.29-2.9 1.55 3.37-7.09 3.27.94 2.04 9.51-4.37-5.99-13.03zM646.23 486.58l1.76 5.4 2.05-.73-2.05-5.3zM642.51 487.91l1.76 5.4 2.04-.73-2.04-5.3zM566.99 83.61l-.09-2.24c2.74-.11 5.48-.17 8.15-.17 2.53 0 5.14.05 7.77.16l-.09 2.24c-2.6-.1-5.18-.15-7.68-.15-2.63-.01-5.34.05-8.06.16z"/><path class="st2" d="m566.99 83.61-.09-2.24c2.74-.11 5.48-.17 8.15-.17 2.53 0 5.14.05 7.77.16l-.09 2.24c-2.6-.1-5.18-.15-7.68-.15-2.63-.01-5.34.05-8.06.16zM490.99 235.53c-1.9 1.99-4.18 4.85-6.02 8.71-.56 1.18-1.01 2.32-1.39 3.4-1.39-13.07-1.98-32.58.44-49.39 2.25-15.66 6.61-31.05 12.94-45.75a189.676 189.676 0 0 1 16.67-30.56c.52-.78.4-1.8-.29-2.43-.69-.63-1.72-.67-2.45-.09-14.65 11.65-26.72 26.67-34.91 43.43-3.81 7.81-6.55 15.47-8.49 22.74v-.47c-.09-10.46-2.4-19.35-4.32-24.97-1.94-5.67-4.46-10.74-5.86-11.79-.74-.55-1.44-.46-1.8-.36-.51.14-.92.48-1.17.95-.47.87-.24 1.62.38 3.63 1.19 3.84 3.67 11.83 2.48 21.74-1.08 8.99-4.61 14.39-8.35 20.09-2.57 3.91-5.22 7.96-7.2 13.31-2.4 6.5-3.04 13.07-2.76 19.15a81.586 81.586 0 0 0-4.07-6.45c-6.74-9.62-15.77-17.59-19.05-18.02-.91-.12-1.51.2-1.86.49-.67.56-1.24 1.64-.15 3.57.41.71 1.03 1.61 1.83 2.75 2.79 4 7.97 11.45 10.85 21.86 1.4 5.06 1.44 7.83 1.5 11.34.06 3.53.12 7.53 1.5 14.77 1.54 8.14 3.68 14.69 5.15 19.11a95.716 95.716 0 0 0-5.47-6.59c-6-6.53-12.23-11.03-16.39-13.65-2.85-1.79-8.2-4.8-10.18-4.68-.87.05-1.35.54-1.56.83-.31.43-.43.95-.34 1.47.17.97.82 1.43 2.4 2.54 2.77 1.94 8.55 5.98 13.01 13.21 3.1 5.02 3.65 8.45 4.35 12.81.64 3.98 1.36 8.49 4.1 15.19 3.27 8.02 8.87 15.9 12.96 21.66 1.06 1.5 2.25 3.18 3.19 4.59-.09-.03-.18-.05-.27-.07-1.31-.83-3.05-2.05-5.3-3.81-4.2-3.29-8.2-6.99-10.45-9.64-3.22-3.79-4.01-5.74-4.92-7.98-.94-2.3-2-4.92-5.63-9.58-.82-1.05-1.68-2.19-2.6-3.39-6.9-9.05-9.37-11.9-11.4-12.1a2.26 2.26 0 0 0-1.75.55c-1.6 1.41-.54 3.65-.14 4.49.59 1.24 1.55 2.83 2.67 4.67 2 3.3 4.49 7.41 6.5 12.15 5.03 11.88 5.62 17.63 6.29 24.28.44 4.32.94 9.22 2.75 16.31 4.42 17.3 16.2 31.38 24 40.7 2.12 2.54 3.96 4.73 5.22 6.49.92 1.28 1.34 2.07 1.54 2.53-.47-.02-1.09-.07-1.74-.12-1.61-.12-4.04-.31-7.53-.38-2.2-.04-6.3-.13-9.94.04-5.26.23-8.19.78-8.59 3.01-.07.39-.13 1.4.86 2.29.34.3.79.58 1.41.87.93.44 2.18.87 3.76 1.42 3.11 1.08 7.36 2.57 11.55 4.95 8.94 5.08 12.59 9.85 16.82 15.37 1.45 1.9 2.95 3.84 4.72 5.91 4.67 5.86 4.58 4.95 4.94 4.77.82-.4.15-3.09-.06-3.78-.15-.51-.3-1.04-.46-1.58l.03-.03c-.02-.02-.04-.04-.05-.06-6.66-24.12-11.54-81.77-12.95-86.29-.03-.1-.31-1.25-.12-1.03 0 0 .71.64 2.37 2.66.09.11.25.39.38.64.29.56.92 2.14.94 2.21.49 1.91 7.89 37.04 11.98 62.02.31 1.87.5 3.19.69 4.67 1.62 12.76 1.43 20.64 1.37 21.71-.05.98-.23 2.82-.2 3.01l2.32 1.29c2.55 1.43 9.79 5.24 9.79 5.24l-.17-.5c-.57-1.72-1.05-3.47-1.43-5.24-.7-3.18-2.11-9.11-2.29-10-.22-1.11-6.38-42.84-9.74-60.6-.66-3.46-1.21-7.59-4.08-23.16-.01-.07-.29-.51-.19-1.03.07-.34.26-.56.29-.59 3.38-4.22 3.3-17.14 3.3-17.14-.1-16.79-1.73-25.65-1.73-25.65-4.45-24.27-12.76-42.77-16.06-49.71-.94-1.97-1.87-3.86-2.81-5.67-.07-.18-.18-.47-.25-.66-.32-1.33-.61-2.72-.86-4.17-1.58-9.16-1-17.55 1.73-24.95 1.83-4.95 4.36-8.82 6.82-12.56 3.81-5.82 7.75-11.83 8.94-21.69.35-2.91.4-5.69.27-8.26 1.41 5.32 2.52 11.7 2.58 18.65.1 12.14-2.97 21.96-4.61 27.24-.13.41-.24.78-.35 1.13-.29.88-.48 1.57-.57 2.03l-.03.15c-.03.12-.05.24-.06.35-1.43 8.26.6 19.51 3.5 32.4 2.82 12.53 3.47 25.45 5.78 38.08 1.93 10.6 2.19 14.02 11.17 103.56.75 7.53 2.17 13.81 2.3 22.88.06 4.25.14 24.64.01 25.2l-.08.43.86.24s16.31 4.09 19.89 4.82l1.29-30.64c-2.31 3.98-4.63 8.27-6.9 12.86-1.72 3.48-3.28 6.87-4.71 10.15-.29-7.44-.62-14.95-1.02-22.51-1.17-22.37-2.8-43.98-4.78-65.21.3.37.61.76.9 1.15 1.71 2.26 3.22 5.03 4.57 7.52 2.22 4.08 4.58 7.88 6.68 12.18-.18-5.95-.74-12.65-.92-18.61-2.69-.96-5.38-1.12-8.08-2.12-1.26-1.67-2.24-2.96-3.49-4.62-1.66-19.81-3.02-36.09-4.11-55.94-.51-9.34-1.17-20.7-1.93-30.39l2.27 7.25c3.05 8.63 6.22 18.95 8.78 27.73 2.92 10.02 5.02 19.28 7.69 29.01-.06-6.84.04-24 .08-32.52-6.66-10.03-10.39-21.43-10.39-33.63 0-6.86 1.23-13.5 3.47-19.79zm-63 60.48c-2.57-6.31-3.26-10.59-3.87-14.38-.73-4.58-1.37-8.53-4.86-14.18a43.913 43.913 0 0 0-3.34-4.68 77.326 77.326 0 0 1 10.81 9.81c2.24 3.67 3.76 7.75 4.46 12 .09.65.18 1.32.27 2.01 1.07 7.56 2.76 17.03 4.68 24.01-3-4.47-6.09-9.54-8.15-14.59zm15.29 81.84c-7.58-9.06-19.04-22.74-23.25-39.22-1.74-6.83-2.2-11.37-2.65-15.77-.68-6.66-1.32-12.95-6.57-25.35-1.44-3.4-3.14-6.53-4.7-9.21.87 1.12 1.71 2.22 2.42 3.16.92 1.21 1.8 2.36 2.62 3.42 3.31 4.26 4.23 6.52 5.12 8.7.99 2.44 1.93 4.74 5.53 8.99 2.3 2.71 6.24 6.38 10.41 9.7 3.96 3.97 7.7 9.28 8.74 13.87l2.79 12.77c1.74 11.68 3.36 25.29 4.48 35.05-1.28-1.74-2.96-3.75-4.94-6.11zm6.03 16.14-.09 4.43c.1 2.37-1.85 3.98-6.06 2.39a63.27 63.27 0 0 0-4.37-2.72c-4.48-2.55-8.92-4.1-12.16-5.23-.2-.07-.4-.14-.61-.21.84-.07 1.88-.13 3.16-.17 3.25-.1 6.76-.03 8.65.01 3.38.07 5.66.24 7.31.37 1.81.14 3.09.23 4.05-.12.05.42.09.84.12 1.25zm-2.27-131.21c2.12 10.26 3.34 14.75 3.92 18.72.98 6.75.61 5.45 1.94 15.07.93 6.75 1.94 13.25 2.53 20.28.17 1.97.56 6.7.02 12.5-.09.91-.36 1.63-.49 2.11-1.4-.57-4-1.62-5.4-2.19-4.93-33.21-9.87-64.56-14.8-97.77 1.15 1.55 4 5.85 5.44 8.92 2 4.26 4.02 8.68 6.84 22.36zm33.3-65.07c-2.23 15.47-1.96 33.16-.85 46.23 0 .22.03.92.12 2.05-2.23-3-4.69-6.78-6.93-11.35-5.47-11.13-6.26-28.79-1.79-47.22 1.89-7.32 4.62-15.05 8.47-22.95 6.11-12.51 14.44-24.01 24.43-33.8-3.83 6.6-7.25 13.4-10.24 20.34-6.46 15.01-10.91 30.72-13.21 46.7z"/><path class="st2" d="m535.84 342.75.5 98.92c-2.78-18.38-4.26-35.46-7.1-53.83-3.5-22.65-6.48-45.94-10.06-69.81-.21-3.11 1.04-5.1 3.17-5.96-7.46-4.57-13.99-10.1-19.32-16.35.41 2.95.81 5.9 1.26 9.31 1.14 36.54 1.98 78.27 3.06 115.79.22 7.76-.19 15.52-1.26 23.22l-.39 2.79c.92 1.13 2.3 2.12 3.42 3.32 1.35 1.45 5.04 3.95 6.32 5.1-.35-2.27-.83-4.66-1.36-7.08-2.04-9.34-3.13-18.86-3.48-28.42-1.27-34.61-2.53-68.28-3.66-103 7.68 50.05 14.17 98.94 21.85 148.99 2.22 1.16 4.61 2.33 7.18 3.45 1.89.83 3.72 1.57 5.5 2.24l-2.31-19.34-.33-104.09c-.01-3.55.38-8.33.98-11.83.27-1.55.79-4.14 1.19-5.48.9-3.01 1.82-6.19 5.35-8.26-4-1.12-7.87-2.47-11.59-4.04.64 9.81 1.08 24.36 1.08 24.36zM607.39 330.45c.5 2.93.76 6.08.6 9.03-2.19 39.39-4.79 73.91-8.43 113.33-.63 6.8-1.34 12.36-2.26 19.04 1.69-.67 5.89-2.28 7.59-2.95-.33-5.92-1.02-11.21-1.34-17.12 1.01-11.16 1.58-20.31 2.59-31.47 3.76-8.19 7.66-15.07 11.42-23.26.32 16.26.58 30.5.9 46.76-.23 7.1-.4 13.45-.63 20.55 2.85-.87 6.31-2.37 9.44-3.95 2.54-1.28 6.24-3.14 8.49-4.82-1.78-.19-3.6-3.5-3.93-5.21-.04-.22-.09-.44-.13-.67-1.72-8.9-2.22-17.95-2.55-27-.51-13.96-.56-27.42-.68-35.43-.38-25.45-.27-35.3-.8-55.45-.2-7.74.3-14.53 1.01-20.67-7.11 4.54-15.09 8.22-23.73 10.81 1.68 2.72 2.17 7.07 2.44 8.48zm4.51.21s2.65 12.64 5.42 61.67c-3.54 7.72-7.81 15.03-11.35 22.74 1.51-11.88 2.29-29.17 3.59-50.87 1.19-19.96 2.34-33.54 2.34-33.54zM751.37 277.64a2.3 2.3 0 0 0-1.75-.55c-2.03.2-4.5 3.05-11.4 12.1-.92 1.2-1.79 2.34-2.6 3.39-3.63 4.67-4.69 7.28-5.63 9.58-.91 2.25-1.71 4.19-4.92 7.98-2.16 2.55-6.04 5.83-10.38 8.77-2.46 1.67-4.4 2.78-5.8 3.47.83-1.15 1.9-2.52 2.84-3.73 4.24-5.44 10.05-12.89 13.46-21.24 2.73-6.7 3.46-11.21 4.1-15.19.7-4.35 1.25-7.79 4.35-12.81 4.46-7.23 10.24-11.27 13.01-13.21 1.58-1.11 2.24-1.57 2.4-2.54.09-.52-.03-1.04-.34-1.47a2.02 2.02 0 0 0-1.56-.83c-1.98-.12-7.33 2.89-10.18 4.68-4.16 2.62-10.39 7.12-16.39 13.65-2.22 2.41-4.03 4.7-5.47 6.59 1.46-4.42 3.6-10.98 5.15-19.11 1.37-7.24 1.44-11.24 1.5-14.77.06-3.51.1-6.27 1.5-11.34 2.87-10.41 8.06-17.86 10.85-21.86.79-1.14 1.42-2.04 1.83-2.75 1.1-1.93.53-3.01-.15-3.57-.35-.29-.95-.61-1.86-.49-3.27.43-12.31 8.4-19.05 18.02a89.74 89.74 0 0 0-3.68 5.69c.1-5.52-.69-11.76-3.14-18.39-1.98-5.35-4.63-9.4-7.2-13.31-3.74-5.71-7.27-11.1-8.35-20.09-1.19-9.91 1.29-17.9 2.48-21.74.62-2 .85-2.75.38-3.63-.25-.46-.67-.8-1.17-.95-.35-.1-1.06-.19-1.8.36-1.4 1.05-3.92 6.11-5.86 11.79-1.92 5.62-4.23 14.52-4.32 24.97 0 .31 0 .61-.01.92a126.02 126.02 0 0 0-8.61-23.19c-8.19-16.76-20.26-31.78-34.91-43.43-.73-.58-1.76-.54-2.45.09a1.88 1.88 0 0 0-.29 2.44c6.5 9.69 12.11 19.97 16.67 30.56 6.33 14.7 10.69 30.1 12.94 45.75 2.25 15.6 1.9 33.52.73 46.46-.06.33-.14.82-.26 1.44-.4-.77-.89-1.66-1.52-2.78-1.86-3.33-4.48-6.02-5.95-7.95.4 1.12.77 2.24 1.1 3.38 1.26 4.3 2.06 8.75 2.31 13.32.06 1.07.1 2.14.1 3.21 0 1.22-.04 2.43-.11 3.63-.11 1.85-.34 3.67-.63 5.48v.01c-.08.54-.15 1.08-.25 1.62-.14.73-.31 1.46-.47 2.18l-.09.4c-.26 1.1-.55 2.18-.86 3.26v.01l-.15.52c-.35 1.13-.72 2.25-1.13 3.37-.05.15-.1.3-.16.45-.35.91-.73 1.81-1.11 2.71 0 0 0 .01-.01.01-.05.11-.09.22-.14.33a64.491 64.491 0 0 1-5.15 9.43c-.01.02-.02.03-.03.05-4.23 6.42-9.63 12.24-15.98 17.28.69 11.87.39 36.81.76 41.27 3.83-11.96 11.1-38.03 15.7-48.35l.08-.1c.87 53.8-.32 59.28-2.69 100.69-.32 5.51-2.43 26.62-3.44 32.05-1.2 6.41-1.51 10.76-6.05 21.82l4.21-3.03c1.81-1.29 3.32-2.62 4.94-4.16 1.32-1.25 2.12-2.11 4.43-2.9h.01c1.38-.52 2.78-.96 4.21-1.31.7-.17 1.51-.36 2.34-.55l-.87-24c3.69-55.81 5.62-107.39 9.34-163.12.33-4.86 1.63-13.97 6.36-6.69 3.67 6.36 7.01 11.97 8.48 29.36 1.12 15.89.85 27.58.64 36.4-.23 9.31-.2 37.47-9.34 97.09-1.86 12.16-2.62 16.85-9.1 29.34 4.28-1.34 10.17-4.03 12.58-5.48 3.69-2.23 6.21-4.46 7.31-5.48 2.89-2.67 4.68-5.04 6.27-7.18.97-1.3 1.6-2.24 2.09-3.03 5.01-6.36 9.89-12.35 18.74-17.39 4.19-2.38 8.44-3.86 11.55-4.95 1.58-.55 2.83-.99 3.76-1.42.65-.3 2.62-1.23 2.27-3.16-.4-2.23-3.33-2.78-8.59-3.01-3.64-.16-7.74-.08-9.94-.04-3.49.07-5.92.26-7.53.38-.69.05-1.35.1-1.82.12.15-.47.53-1.31 1.45-2.74 1.21-1.87 2.99-4.21 5.05-6.93 7.05-9.29 17.71-23.33 22.04-40.28 1.46-5.73 2.29-9.92 3.03-13.62 1.53-7.73 2.64-13.31 8.32-26.73 2.01-4.74 4.5-8.85 6.5-12.15 1.12-1.84 2.08-3.43 2.67-4.67.35-.83 1.41-3.07-.19-4.48zm-73.98-75.15c-1.34 13.16-2.56 23.17-7.02 37.94.87-12.62.92-28.59-1.12-42.72-2.3-15.98-6.74-31.69-13.21-46.7-2.99-6.93-6.41-13.74-10.24-20.34 9.99 9.79 18.33 21.3 24.43 33.8a117 117 0 0 1 3.68 8.32c-.11-.14-.22-.28-.34-.42 4.87 11.74 4.24 26 3.82 30.12zm33.82 54.21c.03.03.05.06.08.1 2.74 3.51 1.39 12.42.91 16.39l-.75 2.28c-.66 2-1.18 3.58-1.47 4.75-.21.86-.75 3.13 1.04 4.03 1.67.83 3.08-.7 3.54-1.21.66-.72 1.43-1.74 2.41-3.04 1.54-2.04 3.65-4.83 6.35-7.77 3.44-3.74 7.09-6.9 10.48-9.45a44.32 44.32 0 0 0-3.34 4.68c-3.49 5.65-4.12 9.6-4.86 14.18-.61 3.78-1.29 8.07-3.87 14.38-3.21 7.88-6.24 12.54-10.35 17.81-.53.69-1.04 1.34-1.52 1.95-1.37 1.63-3.46 4.82-4.34 6.48-1 1.89-2.38 5.18-5.09 6.78l-3.58 1.64 3.74-77.41c.41-3.92 8.18.34 10.62 3.43zm-22.34-34.77c-.02-.39-.07-.84-.13-1.34-1.47-10.68-2.87-21.03-2.82-31.8.01-1.2.01-2.42.02-3.64.06-6.95 1.16-13.34 2.58-18.65-.13 2.57-.08 5.34.27 8.26 1.19 9.86 5.13 15.88 8.94 21.69 2.45 3.74 4.99 7.61 6.82 12.56a46.425 46.425 0 0 1 2.9 17.05c-.12 6.68-2.01 13.26-5.89 18.7-1.52 2.12-3.07 3.75-4.34 4.68-2.95 2.16-8.49 4.06-11.33 3.44-7.49-2.11 3.98-9.9 2.98-30.95zm50.04 75.57c-5.83 13.77-6.97 19.51-8.55 27.46-.72 3.65-1.54 7.79-2.98 13.42-4.14 16.22-14.52 29.9-21.39 38.95-3.34 4.4-5.79 7.63-6.82 10.12-1.16 1.99-2.3 4.25-2.82 5.5-3.28 8.6-5.19 17.85-8.47 26.46 3.67-30.72 6.57-54.58 8.75-85.92 3.37-.72 6.83.09 10 1.42l6.39 2.68s-.21-6.36-.12-8.83c.11-2.99 2.27-5.48 4.69-7.32 4.27-2.98 8.09-6.26 10.32-8.89 3.6-4.25 4.54-6.55 5.53-8.99.89-2.18 1.81-4.44 5.12-8.7.83-1.06 1.7-2.21 2.62-3.42.71-.94 1.55-2.03 2.42-3.16-1.55 2.69-3.25 5.82-4.69 9.22z"/></g></svg>