<svg version="1.1" id="Layer_1" xmlns="http://www.w3.org/2000/svg" xmlns:xlink="http://www.w3.org/1999/xlink" x="0" y="0" viewBox="0 0 1600 500" style="enable-background:new 0 0 1600 500" xml:space="preserve"><style>.st1{opacity:.7;clip-path:url(#SVGID_00000139295259539817888920000017072340334763242898_)}.st2{fill:#ffd300}.st3{fill:url(#SVGID_00000031169470200277444060000018382397468781673123_)}</style><linearGradient id="SVGID_1_" gradientUnits="userSpaceOnUse" x1="796.622" y1="271.534" x2="746.179" y2="593.11"><stop offset="0" style="stop-color:#001e5a"/><stop offset=".26" style="stop-color:#02205a"/><stop offset=".397" style="stop-color:#0a265a"/><stop offset=".506" style="stop-color:#18305a"/><stop offset=".6" style="stop-color:#2b3e5a"/><stop offset=".684" style="stop-color:#44515a"/><stop offset=".761" style="stop-color:#63675a"/><stop offset=".833" style="stop-color:#87835a"/><stop offset=".901" style="stop-color:#b1a25a"/><stop offset=".964" style="stop-color:#e0c55a"/><stop offset="1" style="stop-color:#ffdc5a"/></linearGradient><path style="fill:url(#SVGID_1_)" d="M0 0h1600v500H0z"/><defs><path id="SVGID_00000081614822623283218590000001935925046566703031_" d="M0 0h1600v500H0z"/></defs><clipPath id="SVGID_00000160881984656611963570000008744178095869083282_"><use xlink:href="#SVGID_00000081614822623283218590000001935925046566703031_" style="overflow:visible"/></clipPath><g style="opacity:.7;clip-path:url(#SVGID_00000160881984656611963570000008744178095869083282_)"><circle class="st2" cx="1384.5" cy="339.3" r="268.8"/><linearGradient id="SVGID_00000049208193191376894840000000722147375945071498_" gradientUnits="userSpaceOnUse" x1="1384.342" y1="599.15" x2="1384.342" y2="79.378"><stop offset="0" style="stop-color:#0073b1"/><stop offset=".282" style="stop-color:#006fae"/><stop offset=".539" style="stop-color:#0064a4"/><stop offset=".784" style="stop-color:#015295"/><stop offset="1" style="stop-color:#013b81"/></linearGradient><path style="fill:url(#SVGID_00000049208193191376894840000000722147375945071498_)" d="M1392 599c-143.5 4.2-263.2-108.7-267.4-252.1-4.2-143.5 108.7-263.2 252.1-267.4 143.5-4.2 263.2 108.7 267.4 252.1 4.2 143.5-108.7 263.2-252.1 267.4z"/><path class="st2" d="M1377.8 540.3c6.7-17.9 5-73.4 4.8-80.1-.6-20.1-.9-31.8-2.7-47.1-1-8.4-3.8-29.1-13-30.8-1.2-.2-3.7-.3-5.9 1.2-2.9 2.1-6 7.9-7.2 12.8-1.8 7.3-2.9 18.7-2.9 18.7-.7 8.2-.8 10.7-.9 41.5-.1 29.7 1 37.3 2.5 55 0 0 .4 7.6 4.3 22 1.9 7 5.5 12 9.2 14.3 1.1.7 4.3 1.2 6.2 0 3.4-2.2 4.9-5.5 5.6-7.5zm-9.5-19.9c-2.1-6.5-2.4-7.8-4.7-19.2-1.9-9-3-15.6-4.5-26.5-2.3-16.9-1.2-15.3-3.5-33.2 0 0-3-24.3-.1-41 .2-1.2.6-3.2 1.6-3.4 1.4-.3 3.1 3.1 4.3 5.9 4.7 10.7 6.7 20.9 7 22.8 2.3 12.4 3.5 18.6 3.9 21.5 2.8 18.1 3.9 31.3 4.1 34.1.6 7.5.9 12.8 1.1 19.9.4 11.5.5 13 .4 15.6 0 0 0 5.3-1.1 13.9-.1 1.1-.8 3.6-1.6 3.8-.9.2-1.9-1.6-2.7-3.2-3.3-6.9-4.2-11-4.2-11z"/><path class="st2" d="M1384.3 372.1c2 18.7 3.7 41.1 4.2 49.6 2 31.1 1.8 42 1.6 88.2-.1 19.3-3.8 42-14.5 65.6 11.1-18.7 23.6-27.4 28.5-30.1-.7-11 .2-21.4.8-32.4l7.9-166.5c1.9-33 7.7-37 10.1-40.1 7.6-10 9.9-19.2 9.3-19.5-.4-.3-2.3 4.3-7.6 8.5-4.8 3.7-8.9 5-14.8 5.3l-.3 19c-.3 20.7-1.9 55.2-2.2 67.5-1.8 48.3-5.4 100.3-8.4 150l-2.7-209.4-.2-26.6c-9.2.4-16.7 1.4-24.1 3.8-7.8 2.6-23 9.6-27.8 32.7 6.5-10 13.2-15.6 20.9-15.6 7.6 0 15.2 10.7 19.3 50zM1311 552.3c-1.9-.7-3.6-.7-4.9-.3-1.3.5-2.3 1.5-2.8 3s-.4 2.7.3 3.8c.7 1.1 2 1.9 3.8 2.6l4.5 1.5-1.3 3.7-9.1-3.1-.8 2.4 11.9 4.1 5.2-15.3-6.8-2.4zm1.7 8.4-3.9-1.3c-2.2-.8-3.1-1.9-2.5-3.5.3-.8.8-1.3 1.5-1.5.7-.2 1.6-.2 2.7.2l3.9 1.3-1.7 4.8zM1296.1 546.5c-.8-.4-1.5-.5-2.2-.3-.7.1-1.4.5-2 1.1-.7.6-1.3 1.4-2 2.5-.7 1-1.4 2.3-2.1 3.7l-1.8 3.6-5.8-2.7 5.8-12.4-2.7-1.3-6.8 14.7 10.8 5 3-6c.7-1.4 1.3-2.5 1.9-3.3.6-.9 1.2-1.5 1.7-1.8.6-.3 1.1-.3 1.7-.1.2.1.4.2.6.4l1.3-2.3c-.2-.2-.5-.4-.7-.5-.2-.1-.5-.2-.7-.3zM1268.9 537.1l-6.9-4.2.6-4-2.7-1.6-2.2 17.6 2.5 1.5 14.6-10-2.6-1.6-3.3 2.3zm-2.1 1.5-6.3 4.5 1.1-7.6 5.2 3.1zM1241.6 530.7l-6.4-4.8-1.6 2 8.8 6.7 9.8-12.9-2.4-1.8zM1235.1 510.8c-.1-1.1-.3-2.1-.9-3.2-.5-1-1.2-2-2.1-2.8-.9-.8-1.9-1.5-3-1.9-1.1-.4-2.1-.6-3.2-.6s-2.1.3-3.1.7c-1 .4-1.9 1.1-2.7 2-.8.9-1.4 1.8-1.8 2.9-.4 1-.5 2.1-.5 3.2.1 1.1.3 2.1.9 3.1.5 1 1.2 2 2.1 2.8.9.9 1.9 1.5 3 1.9 1.1.4 2.1.6 3.2.6s2.1-.2 3.1-.7c1-.4 1.9-1.1 2.7-2 .8-.9 1.4-1.8 1.8-2.9.4-.9.6-2 .5-3.1zm-3.2 2.1c-.3.7-.7 1.4-1.2 2-.6.6-1.2 1.1-1.9 1.4-.7.3-1.4.5-2.1.5-.7 0-1.4-.1-2.1-.4-.7-.3-1.4-.7-2-1.2-.6-.6-1.1-1.2-1.4-1.8-.3-.7-.5-1.4-.5-2.1 0-.7.1-1.4.3-2.1.3-.7.7-1.4 1.2-2 .6-.6 1.2-1.1 1.9-1.4.7-.3 1.4-.5 2.1-.5.7 0 1.4.1 2.1.3.7.3 1.3.7 1.9 1.2.6.6 1.1 1.2 1.4 1.9.3.7.5 1.4.5 2.1.2.7 0 1.4-.2 2.1zM1218.1 495.1l4.5-3.9-1.8-2.1-2.6 2.3-8.1-9.4 2.6-2.3-1.8-2.1-4.5 3.9 1.5 1.8-10.3 8.9 7.8 9 4-3.2c1-.8 1.9-1.5 2.7-2.1.9-.6 1.6-1.1 2.4-1.4.7-.3 1.4-.5 1.9-.5.6 0 1 .2 1.4.7l.3.4zm-3.6-3.3c-.6.1-1.2.4-2 .7-.7.4-1.5.9-2.2 1.4-.8.6-1.6 1.2-2.4 1.9l-2.2 1.8-4.1-4.8 8.4-7.3 5.4 6.2c-.4 0-.6 0-.9.1z"/><path transform="rotate(-35.708 1195.018 475.358)" class="st2" d="M1186.9 473.9h16.2v3h-16.2z"/><path class="st2" d="m1192.7 457.5-14.2-1.7 9.8-5.8-1.5-2.5-13.9 8.2 1.4 2.4 14.3 1.6-9.9 5.9 1.5 2.5 14-8.2zM1173.3 460.2c-.9-.3-1.8-.2-2.7.3l1.1 1.8c.5-.3 1-.3 1.4-.2.5.2.9.5 1.2 1.1.3.6.5 1.1.4 1.6-.1.5-.4.9-.8 1.2l1.1 1.8c.9-.6 1.4-1.3 1.6-2.2.1-.9-.1-1.9-.8-3.1-.9-1.2-1.7-2-2.5-2.3zM1180.3 434.5l-6.3 2.8-3.4-7.6 6.4-2.9-1.2-2.7-14.8 6.6 1.2 2.7 6.1-2.7 3.4 7.6-6.1 2.7 1.2 2.8 14.8-6.6zM1170.9 410.7l-13.5-4.9 10.9-3.4-.9-2.9-15.4 4.8.8 2.7 13.5 4.9-10.9 3.4.9 2.8 15.4-4.8zM1164.1 385.6l-12.8-6.4 11.2-2.1-.5-2.9-15.9 3 .5 2.7 12.9 6.4-11.3 2.1.6 3 15.9-3zM1144.9 381.6c-.7-.6-1.6-.8-2.6-.6l.4 2c.6-.1 1 0 1.4.3.4.3.6.8.7 1.4.1.7.1 1.2-.2 1.6-.2.4-.6.7-1.2.8l.4 2c1-.2 1.8-.7 2.2-1.5.4-.8.5-1.9.3-3.2-.2-1.3-.7-2.3-1.4-2.8zM1142.6 342.2h1.7c.1 1.6.4 3 .8 4.1.6 1.4 1.4 2.5 2.4 3.3 1.1.7 2.3 1.1 3.9 1.1 1.5 0 2.8-.4 3.8-1.2 1-.8 1.8-1.9 2.4-3.3.4-1.2.7-2.6.8-4.2h1.7v-2.8h-1.7c-.1-1.6-.3-3.1-.8-4.2-.6-1.4-1.4-2.5-2.4-3.2-1.1-.7-2.3-1.1-3.8-1.1s-2.8.4-3.8 1.1c-1.1.7-1.9 1.8-2.4 3.2-.5 1.2-.7 2.6-.8 4.2h-1.7l-.1 3zm13 2.4c-.3 1-.9 1.8-1.6 2.4-.7.6-1.6.8-2.6.8-1.1 0-1.9-.2-2.7-.8-.7-.5-1.2-1.3-1.6-2.3-.2-.7-.4-1.6-.4-2.5h9.3c-.1.8-.2 1.7-.4 2.4zm-8.5-7.8c.3-1 .9-1.8 1.6-2.3.7-.5 1.6-.8 2.6-.8s1.9.2 2.6.8c.7.5 1.3 1.3 1.6 2.3.3.7.4 1.6.5 2.6h-9.3c0-1 .2-1.8.4-2.6zM1146.3 317.9c.7.9 1.5 1.6 2.4 2.1 1 .5 2 .9 3.2 1 1.2.1 2.3.1 3.3-.3 1.1-.3 2-.8 2.8-1.5.8-.7 1.5-1.5 2.1-2.6.5-1 .9-2.1 1-3.4.1-1.2.1-2.4-.2-3.5-.3-1.1-.8-2.1-1.4-2.9-.7-.9-1.5-1.6-2.4-2.1-1-.5-2-.9-3.2-1-1.2-.1-2.3-.1-3.4.3-1.1.3-2 .8-2.8 1.5-.8.7-1.5 1.5-2 2.5s-.9 2.1-1 3.4c-.1 1.3-.1 2.4.2 3.5.3 1.1.7 2.1 1.4 3zm1-6.2c.1-.8.3-1.5.7-2.2.4-.6.8-1.2 1.4-1.7.6-.5 1.2-.8 1.9-1 .7-.2 1.5-.2 2.3-.1.8.1 1.6.3 2.2.7.7.4 1.2.8 1.7 1.4.4.6.8 1.2 1 1.9.2.7.2 1.5.2 2.3-.1.8-.3 1.5-.7 2.2-.4.7-.8 1.2-1.4 1.7-.6.4-1.2.8-1.9 1-.7.2-1.5.3-2.3.2-.8-.1-1.6-.3-2.2-.7-.6-.4-1.2-.8-1.7-1.4-.5-.6-.8-1.2-1-1.9-.3-.9-.3-1.6-.2-2.4zM1164.5 291.6l-6.7-1.6 1.9-8.1 6.8 1.6.6-2.9-15.7-3.8-.7 2.9 6.5 1.6-1.9 8.1-6.5-1.5-.7 2.9 15.7 3.7zM1163.7 265.7c.9.5 1.7.9 2.4 1.4.7.5 1.1.9 1.4 1.4.3.5.3 1 .1 1.6l-.2.5 5.6 2.1.9-2.6-3.2-1.2 4.2-11.7 3.2 1.2.9-2.6-5.6-2-.8 2.2-12.8-4.6-4 11.2 4.7 1.9c1.2.3 2.2.8 3.2 1.2zm-2.5-10.8 10.4 3.8-2.8 7.7c-.1-.2-.2-.4-.4-.6-.4-.5-.9-.9-1.6-1.3-.7-.4-1.5-.8-2.3-1.3-.9-.4-1.8-.8-2.8-1.2l-2.7-1.1 2.2-6zM1180.1 223.7l-5.5-3.2-1.2 2.1 5.7 3zM1178 227.6l-5.6-3.2-1.1 2.1 5.6 3zM1184 210c.3-.7.6-1.4 1-2 .4-.6.8-1.1 1.3-1.4.5-.4.9-.6 1.4-.7.5-.1.9 0 1.3.3.6.4.8.9.9 1.5 0 .6-.2 1.3-.7 2.1l-2 2.9 2 1.3 2.1-3.1c.6-.9 1.2-1.4 1.8-1.7.6-.3 1.2-.2 1.8.2.5.3.8.8.9 1.3.1.6.1 1.2-.1 1.9s-.5 1.3-1 2-1 1.3-1.7 1.8c-.7.6-1.4 1-2.2 1.3l1.3 2c.9-.4 1.8-.9 2.6-1.6.8-.7 1.5-1.4 2.1-2.2.6-.8 1-1.6 1.4-2.5.3-.8.5-1.7.6-2.5.1-.8-.1-1.6-.4-2.2-.3-.7-.8-1.2-1.4-1.7-.7-.5-1.4-.7-2.2-.7-.8 0-1.5.2-2.3.7-.2.1-.3.3-.5.4 0-.1.1-.1.1-.2.1-.8 0-1.5-.2-2.1-.3-.7-.7-1.2-1.4-1.6-.7-.5-1.5-.7-2.3-.6-.8.1-1.6.4-2.4.8-.8.5-1.5 1.1-2.2 2-.7.8-1.2 1.8-1.7 2.8-.4 1-.7 2.1-.8 3.3l2.5.6c0-.9.2-1.7.4-2.4zM1207.5 200.3l-1.9-3.6 5.2-6.2 3.9 1.2 2-2.4-17.1-4.7-1.9 2.3 7.8 15.9 2-2.5zm-3-5.9-3.5-6.9 7.4 2.2-3.9 4.7zM1225.4 180.3l-4.8-5 6-5.8 4.8 5 2.2-2.1-11.3-11.7-2.1 2.1 4.6 4.8-6 5.8-4.6-4.8-2.2 2.1 11.2 11.6zM1236.4 159.2c.7.9 1.6 1.7 2.5 2.2 1 .5 2 .9 3.1 1 1.1.1 2.2 0 3.3-.3 1.1-.3 2.2-.9 3.1-1.6 1-.8 1.8-1.6 2.4-2.6.6-1 1-2 1.1-3.1.2-1.1.1-2.1-.2-3.2-.3-1.1-.8-2.1-1.5-3-.7-1-1.6-1.7-2.5-2.3-1-.5-2-.9-3-1-1.1-.1-2.2 0-3.2.3-1.1.3-2.1.9-3.1 1.6-1 .8-1.8 1.6-2.4 2.6-.6 1-1 2-1.1 3.1-.2 1.1-.1 2.1.1 3.2s.7 2.1 1.4 3.1zm1.2-6.1c.1-.7.3-1.4.7-2 .4-.6.9-1.2 1.6-1.7.6-.5 1.3-.8 2-1 .7-.2 1.4-.2 2.1-.2.7.1 1.4.3 2 .7.6.4 1.2.9 1.7 1.6.5.7.9 1.4 1 2.1.2.7.2 1.4.1 2.2-.1.7-.3 1.4-.7 2-.4.6-.9 1.2-1.5 1.7s-1.3.8-2.1 1c-.7.2-1.4.3-2.2.2-.7-.1-1.4-.3-2.1-.7-.7-.4-1.2-.9-1.7-1.5-.5-.7-.8-1.4-1-2.1.1-.8 0-1.5.1-2.3zM1270.3 145.5c1.7-1 2.9-2.2 3.3-3.4.5-1.2.4-2.4-.4-3.6-.7-1.2-1.7-1.8-2.9-1.9-.6-.1-1.2 0-1.9.2.2-.3.4-.6.6-1 .5-1.1.4-2.2-.3-3.3-.7-1.2-1.7-1.8-2.9-1.9-1.2-.1-2.6.3-4.2 1.3l-6.2 3.7 8.3 13.9 6.6-4zm-11.1-9.5 3.5-2.1c.8-.5 1.6-.7 2.2-.6.6.1 1.1.4 1.5 1.1.4.6.5 1.3.2 1.9-.2.6-.8 1.1-1.6 1.6l-3.5 2.1-2.3-4zm7.4 3.4c.9-.5 1.7-.8 2.4-.7.7.1 1.2.4 1.6 1.1.4.7.5 1.4.3 2-.3.6-.8 1.2-1.8 1.7l-3.9 2.4-2.5-4.1 3.9-2.4zM1282.3 133.4c.8.7 1.7 1.3 2.8 1.7 1 .4 2.1.5 3.3.5 1.1-.1 2.3-.4 3.4-.9s2.1-1.2 2.9-2 1.4-1.7 1.8-2.7c.4-1 .6-2.1.6-3.2s-.3-2.2-.8-3.3-1.2-2-2-2.8c-.8-.7-1.7-1.3-2.7-1.7-1-.4-2.1-.5-3.2-.4-1.1.1-2.3.4-3.4.9-1.2.5-2.1 1.2-2.9 2-.8.8-1.4 1.7-1.8 2.7-.4 1-.6 2.1-.6 3.2s.3 2.2.8 3.3c.4 1 1 1.9 1.8 2.7zm.6-8.4c.3-.7.6-1.3 1.2-1.8.5-.5 1.2-1 1.9-1.3.7-.3 1.5-.5 2.2-.6.7 0 1.4.1 2.1.3.7.3 1.3.6 1.8 1.2.5.5 1 1.2 1.3 1.9.3.8.5 1.5.6 2.3 0 .7-.1 1.5-.3 2.1-.3.7-.6 1.3-1.1 1.8-.5.5-1.1 1-1.9 1.3-.7.3-1.5.5-2.2.6-.8 0-1.5-.1-2.1-.3-.7-.3-1.3-.6-1.8-1.2-.6-.5-1-1.1-1.3-1.9-.3-.8-.5-1.5-.5-2.3-.3-.7-.1-1.4.1-2.1zM1311.2 116.3l-1.9-6.1-2.3.8 2.2 6zM1307 117.7l-1.9-6.1-2.3.8 2.2 6zM1471.9 114.7c-.9-.8-1.9-1.4-3.2-1.9-1.2-.4-2.3-.6-3.4-.6s-2.2.3-3.2.7c-1 .4-1.9 1.1-2.6 1.9-.7.8-1.3 1.8-1.7 2.9-.4 1.1-.6 2.3-.5 3.3.1 1.1.3 2.1.8 3.1s1.1 1.8 2 2.6c.8.7 1.9 1.3 3 1.8 1.3.5 2.5.7 3.7.6 1.2-.1 2.3-.4 3.3-1l-1.2-2.4c-.8.4-1.6.6-2.4.7-.8 0-1.6-.1-2.4-.4-.8-.3-1.5-.7-2-1.2-.6-.5-1-1.1-1.3-1.7-.3-.7-.5-1.4-.5-2.1 0-.8.1-1.5.4-2.3.3-.8.7-1.4 1.2-2 .5-.6 1.1-1 1.8-1.3.7-.3 1.4-.5 2.1-.5.8 0 1.5.1 2.3.4.8.3 1.5.7 2 1.2.6.5 1 1.2 1.4 2l2.4-1.1c-.5-1-1.1-1.9-2-2.7zM1495.5 124.8l-2.9 6-7.5-3.7 2.9-6-2.7-1.3-7.1 14.5 2.7 1.3 3-6.2 7.5 3.7-3 6.2 2.6 1.4 7.2-14.5zM1504.9 144.4l6.8 4.4-.7 4 2.7 1.7 2.6-17.6-2.5-1.6-14.8 9.7 2.6 1.7 3.3-2.3zm2.1-1.4 6.4-4.3-1.3 7.6-5.1-3.3zM1535.5 162.2c1-.3 1.8-.9 2.6-1.9.8-.9 1.2-1.9 1.3-2.9.1-1-.1-2-.6-3s-1.3-1.9-2.4-2.8l-5.2-4.2L1521 160l2.3 1.9 3-3.7 2.8 2.3c.2.1.3.3.5.4l-.4 5.8 2.5 2 .4-6.5c.1 0 .2.1.2.1 1.2.2 2.2.2 3.2-.1zm-7.7-6 4-5 2.7 2.2c1 .8 1.6 1.7 1.8 2.5.2.9-.1 1.7-.7 2.5s-1.4 1.2-2.3 1.2c-.9 0-1.8-.4-2.9-1.2l-2.6-2.2z"/><path transform="rotate(-46.224 1545.95 170.696)" class="st2" d="M1537.8 169.2h16.2v3h-16.2z"/><path class="st2" d="m1551.6 188.2 2 2.2 10.1-9.1 3.6 4 1.9-1.7-9.2-10.2-1.9 1.7 3.6 4zM1562.9 201.6l4-.9 4.8 6.5-2.1 3.5 1.9 2.6 8.7-15.5-1.8-2.4-17.3 3.7 1.8 2.5zm6.5-1.5 7.5-1.7-3.9 6.6-3.6-4.9zM1580.4 227.9c1 1.8 2.2 3 3.4 3.5 1.2.5 2.4.4 3.6-.3.8-.5 1.4-1 1.7-1.7.3-.7.5-1.4.4-2.2 0-.2-.1-.4-.1-.6.6.4 1.3.6 2 .7.7 0 1.5-.2 2.2-.6 1.1-.6 1.7-1.6 1.9-2.9.2-1.3-.3-2.7-1.2-4.4l-3.8-6.6-14 8.1 3.9 7zm5.7.5c-.7.4-1.4.4-2 .1-.6-.3-1.2-1-1.8-1.9l-2.4-4.2 4-2.3 2.4 4.2c.6 1 .8 1.8.8 2.5.1.6-.3 1.2-1 1.6zm5.9-8.1c.5.9.8 1.7.7 2.4 0 .7-.4 1.2-1 1.6-.6.4-1.3.4-1.9.1-.6-.3-1.2-.9-1.7-1.8l-2.1-3.7 3.9-2.2 2.1 3.6zM1592.8 253l2.3-1.1-3.5-7.7 12.5-5.6-1.3-2.7-14.7 6.6zM1600.1 273.2l2.4-.8-2.9-8.6 4.2-1.4 2.5 7.4 2.3-.8-2.5-7.4 4-1.4 2.8 8.4 2.4-.8-3.8-11.2-15.3 5.2zM1606.3 299.4l6.1-1 1.3 7.7 2.5-.4-1.3-7.7 4.8-.9 1.5 8.7 2.5-.4-1.9-11.7-16 2.7zM1610.7 319.6c-1.2 1.3-1.7 3.1-1.5 5.3.1 2.2.9 3.9 2.2 5.1 1.3 1.2 3.2 1.7 5.5 1.5l9.1-.6-.2-3-9 .6c-1.7.1-2.9-.2-3.7-.8-.8-.7-1.2-1.6-1.3-2.9-.1-1.3.2-2.3.9-3.1.7-.8 1.9-1.2 3.6-1.3l9-.6-.2-3-9.1.6c-2.4.1-4.2.8-5.3 2.2zM1626.1 343.9l-16.2-.8-.2 3 11 .5-11.4 8.4-.1 2.4 16.1.8.2-2.9-11-.6 11.4-8.3zM1606.8 375.7c-.3 1.7-.2 3.3.2 4.7.4 1.4 1.2 2.6 2.3 3.5 1.1.9 2.4 1.5 4 1.8 1.6.3 3.1.1 4.4-.4 1.3-.5 2.4-1.4 3.3-2.6.9-1.2 1.5-2.7 1.7-4.4l1.2-7-16-2.6-1.1 7zm2.6.2.6-3.9 10.9 1.8-.6 3.9c-.2 1.2-.6 2.2-1.2 3-.6.8-1.3 1.4-2.2 1.7-.9.4-1.9.4-3 .3-1.1-.2-2-.6-2.8-1.2-.7-.6-1.3-1.4-1.6-2.4-.3-.9-.3-2-.1-3.2zM1608.2 411.7l6 2.2.7-2.3-6.1-1.9zM1606.8 416l6 2.2.8-2.4-6.2-1.8zM1592.6 425.7l4.3 1.9-1.4 3.4c-.1.2-.2.4-.2.6l-5.7 1.2-1.3 3 6.4-1.3v.3c0 1.1.3 2.1.9 3 .6.8 1.4 1.5 2.5 2s2.2.6 3.2.5c1-.2 1.9-.6 2.8-1.4.8-.8 1.5-1.8 2.1-3.1l2.6-6.1-14.8-6.4-1.4 2.4zm11.1 8.7c-.5 1.2-1.2 2-2 2.4-.8.4-1.6.4-2.6 0-.9-.4-1.5-1-1.8-1.9-.3-.8-.1-1.9.4-3.1l1.4-3.2 5.9 2.6-1.3 3.2zM1577.8 455.2l2.2 1.3 4.5-8 3.9 2.2-3.9 6.8 2.2 1.2 3.8-6.8 3.7 2.1-4.3 7.6 2.2 1.3 5.8-10.3-14.1-7.9zM1570.6 466.4l8.9 6.4-14.1.8-1.4 2.1 13.1 9.4 1.8-2.5-9-6.3 14.1-.9 1.5-2-13.2-9.4zM1563.7 489.1c-.9-.8-1.8-1.4-2.9-1.7-1-.4-2.1-.5-3.2-.4-1.1.1-2.1.4-3.2.9-1 .5-2 1.2-2.8 2.2-.8.9-1.5 1.9-1.9 3s-.6 2.1-.6 3.2.3 2.1.7 3.1c.5 1 1.1 1.9 2 2.7.9.8 1.9 1.4 2.9 1.8 1 .4 2.1.5 3.2.4 1.1-.1 2.1-.4 3.1-.9s1.9-1.2 2.8-2.2c.8-.9 1.5-1.9 1.9-3 .4-1.1.6-2.1.6-3.2s-.3-2.1-.7-3.1c-.4-1.1-1-2-1.9-2.8zm-.5 8.3c-.3.7-.7 1.4-1.2 2-.5.6-1.2 1.1-1.8 1.4-.7.3-1.4.5-2.1.5-.7 0-1.4-.1-2.1-.3-.7-.3-1.4-.7-2-1.2-.6-.6-1.1-1.2-1.4-1.9-.3-.7-.5-1.4-.5-2.1 0-.7.1-1.4.3-2.1.3-.7.7-1.3 1.2-1.9.5-.6 1.2-1.1 1.8-1.4.7-.3 1.4-.5 2.1-.5.7 0 1.4.1 2.2.3.7.2 1.4.6 2 1.2.6.6 1.1 1.2 1.4 1.9.3.7.5 1.4.5 2.1 0 .6-.1 1.3-.4 2zM1533.2 508.4l5.6 16.8 2.2-2-4.3-12.9 12.4 5.6 2.4-2.1-16.1-7.3zM1520.9 518.6l.9 4-6.6 4.7-3.5-2.1-2.6 1.9 15.4 8.8 2.4-1.7-3.6-17.4-2.4 1.8zm1.4 6.5 1.7 7.5-6.6-4 4.9-3.5zM1506.1 544.9l-6.8-11.8-2.6 1.5 6.8 11.8-4.6 2.7 1.3 2.2 11.8-7-1.2-2.1zM1472.7 546.6l1.1 2.3 8.3-3.8 1.9 4-7.1 3.3 1 2.2 7.1-3.2 1.7 3.8-8 3.6 1.1 2.4 10.7-5-6.7-14.7zM1465 560l2 6.1 2.3-.8-2.3-6zM1460.8 561.5l2 6.1 2.3-.8-2.3-6zM1375.6 105.6l-.1-2.5c3.1-.1 6.2-.2 9.2-.2 2.9 0 5.8.1 8.8.2l-.1 2.5c-2.9-.1-5.8-.2-8.7-.2-3 0-6 0-9.1.2z"/><path class="st2" d="m1375.6 105.6-.1-2.5c3.1-.1 6.2-.2 9.2-.2 2.9 0 5.8.1 8.8.2l-.1 2.5c-2.9-.1-5.8-.2-8.7-.2-3 0-6 0-9.1.2zM1289.9 276.9c-2.1 2.2-4.7 5.5-6.8 9.8-.6 1.3-1.1 2.6-1.6 3.8-1.6-14.7-2.2-36.7.5-55.7 2.5-17.7 7.5-35 14.6-51.6 5.1-11.9 11.5-23.5 18.8-34.5.6-.9.5-2-.3-2.7-.8-.7-1.9-.8-2.8-.1-16.5 13.1-30.1 30.1-39.4 49-4.3 8.8-7.4 17.4-9.6 25.6v-.5c-.1-11.8-2.7-21.8-4.9-28.2-2.2-6.4-5-12.1-6.6-13.3-.8-.6-1.6-.5-2-.4-.6.2-1 .5-1.3 1.1-.5 1-.3 1.8.4 4.1 1.3 4.3 4.1 13.3 2.8 24.5-1.2 10.1-5.2 16.2-9.4 22.7-2.9 4.4-5.9 9-8.1 15-2.7 7.3-3.4 14.7-3.1 21.6-1.4-2.4-2.9-4.8-4.6-7.3-7.6-10.9-17.8-19.8-21.5-20.3-1-.1-1.7.2-2.1.6-.8.6-1.4 1.9-.2 4 .5.8 1.2 1.8 2.1 3.1 3.1 4.5 9 12.9 12.2 24.7 1.6 5.7 1.6 8.8 1.7 12.8.1 4 .1 8.5 1.7 16.7 1.7 9.2 4.2 16.6 5.8 21.6-1.6-2.1-3.7-4.7-6.2-7.4-6.8-7.4-13.8-12.4-18.5-15.4-3.2-2-9.2-5.4-11.5-5.3-1 .1-1.5.6-1.8.9-.3.5-.5 1.1-.4 1.7.2 1.1.9 1.6 2.7 2.9 3.1 2.2 9.6 6.7 14.7 14.9 3.5 5.7 4.1 9.5 4.9 14.4.7 4.5 1.5 9.6 4.6 17.1 3.7 9 10 17.9 14.6 24.4 1.2 1.7 2.5 3.6 3.6 5.2-.1 0-.2-.1-.3-.1-1.5-.9-3.4-2.3-6-4.3-4.7-3.7-9.2-7.9-11.8-10.9-3.6-4.3-4.5-6.5-5.6-9-1.1-2.6-2.3-5.5-6.3-10.8-.9-1.2-1.9-2.5-2.9-3.8-7.8-10.2-10.6-13.4-12.9-13.6-.7-.1-1.4.1-2 .6-1.8 1.6-.6 4.1-.2 5.1.7 1.4 1.7 3.2 3 5.3 2.3 3.7 5.1 8.4 7.3 13.7 5.7 13.4 6.3 19.9 7.1 27.4.5 4.9 1.1 10.4 3.1 18.4 5 19.5 18.3 35.4 27.1 45.9 2.4 2.9 4.5 5.3 5.9 7.3 1 1.4 1.5 2.3 1.7 2.9-.5 0-1.2-.1-2-.1-1.8-.1-4.6-.3-8.5-.4-2.5 0-7.1-.1-11.2 0-5.9.3-9.2.9-9.7 3.4-.1.4-.1 1.6 1 2.6.4.3.9.7 1.6 1 1 .5 2.5 1 4.2 1.6 3.5 1.2 8.3 2.9 13 5.6 10.1 5.7 14.2 11.1 19 17.3 1.6 2.1 3.3 4.3 5.3 6.7 5.3 6.6 5.2 5.6 5.6 5.4.9-.5.2-3.5-.1-4.3-.2-.6-.3-1.2-.5-1.8l-.1-.1c-7.5-27.2-13-92.2-14.6-97.3 0-.1-.4-1.4-.1-1.2 0 0 .8.7 2.7 3 .1.1.3.4.4.7.3.6 1 2.4 1.1 2.5.6 2.2 8.9 41.8 13.5 69.9.3 2.1.6 3.6.8 5.3 1.8 14.4 1.6 23.3 1.5 24.5-.1 1.1-.3 3.2-.2 3.4l2.6 1.5c2.9 1.6 11 5.9 11 5.9l-.2-.6c-.6-1.9-1.2-3.9-1.6-5.9-.8-3.6-2.4-10.3-2.6-11.3-.2-1.3-7.2-48.3-11-68.3-.7-3.9-1.4-8.6-4.6-26.1 0-.1-.3-.6-.2-1.2.1-.4.3-.6.3-.7 3.8-4.8 3.7-19.3 3.7-19.3-.1-18.9-1.9-28.9-1.9-28.9-5-27.4-14.4-48.2-18.1-56.1-1.1-2.2-2.1-4.3-3.2-6.4-.1-.2-.2-.5-.3-.7-.4-1.5-.7-3.1-1-4.7-1.8-10.3-1.1-19.8 2-28.1 2.1-5.6 4.9-9.9 7.7-14.2 4.3-6.6 8.7-13.3 10.1-24.5.4-3.3.5-6.4.3-9.3 1.6 6 2.8 13.2 2.9 21 .1 13.7-3.3 24.8-5.2 30.7-.1.5-.3.9-.4 1.3-.3 1-.5 1.8-.6 2.3v.2c0 .1-.1.3-.1.4-1.6 9.3.7 22 3.9 36.5 3.2 14.1 3.9 28.7 6.5 43 2.2 12 2.5 15.8 12.6 116.8.9 8.5 2.4 15.6 2.6 25.8.1 4.8.2 27.8 0 28.4l-.1.5 1 .3s18.4 4.6 22.4 5.4l1.5-34.6c-2.6 4.5-5.2 9.3-7.8 14.5-1.9 3.9-3.7 7.7-5.3 11.5-.3-8.4-.7-16.9-1.2-25.4-1.3-25.2-3.2-49.6-5.4-73.5.3.4.7.9 1 1.3 1.9 2.5 3.6 5.7 5.2 8.5 2.5 4.6 5.2 8.9 7.5 13.7-.2-6.7-.8-14.3-1-21-3-1.1-6.1-1.3-9.1-2.4-1.4-1.9-2.5-3.3-3.9-5.2-1.9-22.3-3.4-40.7-4.6-63.1-.6-10.5-1.3-23.3-2.2-34.3l2.6 8.2c3.4 9.7 7 21.4 9.9 31.3 3.3 11.3 5.7 21.7 8.7 32.7-.1-7.7 0-27.1.1-36.7-7.5-11.3-11.7-24.2-11.7-37.9.4-8 1.8-15.5 4.3-22.6zm-71 68.2c-2.9-7.1-3.7-11.9-4.4-16.2-.8-5.2-1.5-9.6-5.5-16-1.2-1.9-2.5-3.7-3.8-5.3 3.8 2.9 7.9 6.4 11.8 10.7.1.1.2.3.4.4 2.5 4.1 4.2 8.7 5 13.5.1.7.2 1.5.3 2.3 1.2 8.5 3.1 19.2 5.3 27.1-3.3-5.1-6.8-10.8-9.1-16.5zm17.2 92.3c-8.6-10.2-21.5-25.7-26.2-44.2-2-7.7-2.5-12.8-3-17.8-.8-7.5-1.5-14.6-7.4-28.6-1.6-3.8-3.5-7.4-5.3-10.4 1 1.3 1.9 2.5 2.7 3.6 1 1.4 2 2.7 3 3.9 3.7 4.8 4.8 7.4 5.8 9.8 1.1 2.8 2.2 5.3 6.2 10.1 2.6 3.1 7 7.2 11.7 10.9 4.5 4.5 8.7 10.5 9.9 15.6l3.1 14.4c2 13.2 3.8 28.5 5.1 39.5-1.5-1.9-3.4-4.1-5.6-6.8zm6.8 18.2-.1 5c.1 2.7-2.1 4.5-6.8 2.7-1.5-1-3.1-2-4.9-3.1-5.1-2.9-10.1-4.6-13.7-5.9-.2-.1-.5-.2-.7-.2.9-.1 2.1-.1 3.6-.2 3.7-.1 7.6 0 9.8 0 3.8.1 6.4.3 8.2.4 2 .2 3.5.3 4.6-.1-.1.5 0 .9 0 1.4zm-2.6-148c2.4 11.6 3.8 16.6 4.4 21.1 1.1 7.6.7 6.2 2.2 17 1.1 7.6 2.2 14.9 2.9 22.9.2 2.2.6 7.6 0 14.1-.1 1-.4 1.8-.6 2.4-1.6-.6-4.5-1.8-6.1-2.5-5.6-37.5-11.1-72.8-16.7-110.3 1.3 1.8 4.5 6.6 6.1 10.1 2.4 4.8 4.7 9.8 7.8 25.2zm37.6-73.4c-2.5 17.4-2.2 37.4-1 52.1 0 .2 0 1 .1 2.3-2.5-3.4-5.3-7.7-7.8-12.8-6.2-12.6-7.1-32.5-2-53.3 2.1-8.3 5.2-17 9.6-25.9 6.9-14.1 16.3-27.1 27.6-38.1-4.3 7.4-8.2 15.1-11.5 22.9-7.4 17.1-12.4 34.8-15 52.8z"/><path class="st2" d="m1340.5 397.8.6 111.6c-3.1-20.7-4.8-40-8-60.7-3.9-25.5-7.3-51.8-11.3-78.7-.2-3.5 1.2-5.7 3.6-6.7-8.4-5.2-15.8-11.4-21.8-18.4.5 3.3.9 6.7 1.4 10.5 1.3 41.2 2.2 88.3 3.4 130.6.3 8.8-.2 17.5-1.4 26.2l-.4 3.1c1 1.3 2.6 2.4 3.9 3.7 1.5 1.6 5.7 4.5 7.1 5.7-.4-2.6-.9-5.3-1.5-8-2.3-10.5-3.5-21.3-3.9-32.1-1.4-39-2.9-77-4.1-116.2 8.7 56.5 16 111.6 24.6 168 2.5 1.3 5.2 2.6 8.1 3.9 2.1.9 4.2 1.8 6.2 2.5l-2.6-21.8-.4-117.4c0-4 .4-9.4 1.1-13.3.3-1.7.9-4.7 1.3-6.2 1-3.4 2-7 6-9.3-4.5-1.3-8.9-2.8-13.1-4.6.7 11.2 1.2 27.6 1.2 27.6zM1421.2 384c.6 3.3.9 6.9.7 10.2-2.5 44.4-5.4 83.4-9.5 127.8-.7 7.7-1.5 13.9-2.6 21.5 1.9-.8 6.6-2.6 8.6-3.3-.4-6.7-1.1-12.6-1.5-19.3 1.1-12.6 1.8-22.9 2.9-35.5 4.2-9.2 8.6-17 12.9-26.2.4 18.3.7 34.4 1 52.7-.3 8-.4 15.2-.7 23.2 3.2-1 7.1-2.7 10.7-4.5 2.9-1.4 7-3.5 9.6-5.4-2-.2-4.1-3.9-4.4-5.9 0-.3-.1-.5-.1-.8-1.9-10-2.5-20.2-2.9-30.5-.6-15.7-.6-30.9-.8-40-.4-28.7-.3-39.8-.9-62.5-.2-8.7.3-16.4 1.1-23.3-8 5.1-17 9.3-26.8 12.2 1.8 3.1 2.4 8 2.7 9.6zm5.1.2s3 14.3 6.1 69.6c-4 8.7-8.8 17-12.8 25.7 1.7-13.4 2.6-32.9 4-57.4 1.4-22.6 2.7-37.9 2.7-37.9zM1583.6 324.4c-.5-.5-1.2-.7-2-.6-2.3.2-5.1 3.4-12.9 13.6-1 1.4-2 2.6-2.9 3.8-4.1 5.3-5.3 8.2-6.3 10.8-1 2.5-1.9 4.7-5.6 9-2.4 2.9-6.8 6.6-11.7 9.9-2.8 1.9-5 3.1-6.5 3.9.9-1.3 2.1-2.8 3.2-4.2 4.8-6.1 11.3-14.5 15.2-24 3.1-7.6 3.9-12.6 4.6-17.1.8-4.9 1.4-8.8 4.9-14.4 5-8.1 11.5-12.7 14.7-14.9 1.8-1.2 2.5-1.8 2.7-2.9.1-.6 0-1.2-.4-1.7-.2-.3-.8-.9-1.8-.9-2.2-.1-8.3 3.3-11.5 5.3-4.7 3-11.7 8-18.5 15.4-2.5 2.7-4.5 5.3-6.2 7.4 1.7-5 4.1-12.4 5.8-21.6 1.5-8.2 1.6-12.7 1.7-16.7.1-4 .1-7.1 1.7-12.8 3.2-11.7 9.1-20.1 12.2-24.7.9-1.3 1.6-2.3 2.1-3.1 1.2-2.2.6-3.4-.2-4-.4-.3-1.1-.7-2.1-.6-3.7.5-13.9 9.5-21.5 20.3-1.6 2.2-2.9 4.4-4.1 6.4.1-6.2-.8-13.3-3.5-20.7-2.2-6-5.2-10.6-8.1-15-4.2-6.4-8.2-12.5-9.4-22.7-1.3-11.2 1.5-20.2 2.8-24.5.7-2.3 1-3.1.4-4.1-.3-.5-.8-.9-1.3-1.1-.4-.1-1.2-.2-2 .4-1.6 1.2-4.4 6.9-6.6 13.3-2.2 6.3-4.8 16.4-4.9 28.2v1c-2.2-8.3-5.3-17.2-9.7-26.2-9.2-18.9-22.8-35.8-39.4-49-.8-.7-2-.6-2.8.1-.8.7-.9 1.9-.3 2.7 7.3 10.9 13.7 22.5 18.8 34.5 7.1 16.6 12.1 33.9 14.6 51.6 2.5 17.6 2.1 37.8.8 52.4-.1.4-.2.9-.3 1.6-.4-.9-1-1.9-1.7-3.1-2.1-3.8-5.1-6.8-6.7-9 .5 1.3.9 2.5 1.2 3.8 1.4 4.9 2.3 9.9 2.6 15 .1 1.2.1 2.4.1 3.6 0 1.4 0 2.7-.1 4.1-.1 2.1-.4 4.1-.7 6.2l-.3 1.8c-.2.8-.3 1.6-.5 2.5 0 .2-.1.3-.1.5-.3 1.2-.6 2.5-1 3.7-.1.2-.1.4-.2.6-.4 1.3-.8 2.5-1.3 3.8-.1.2-.1.3-.2.5-.4 1-.8 2-1.3 3.1-.1.1-.1.3-.2.4-1.6 3.7-3.6 7.2-5.8 10.6v.1c-4.8 7.2-10.9 13.8-18 19.5.8 13.4.4 41.5.9 46.6 4.3-13.5 12.5-42.9 17.7-54.5l.1-.1c1 60.7-.4 66.9-3 113.6-.4 6.2-2.7 30-3.9 36.1-1.4 7.2-1.7 12.1-6.8 24.6l4.7-3.4c2-1.5 3.7-3 5.6-4.7 1.5-1.4 2.4-2.4 5-3.3 1.6-.6 3.1-1.1 4.8-1.5.8-.2 1.7-.4 2.6-.6-.3-9-.7-18-1-27.1 4.2-62.9 6.3-121.1 10.5-184 .4-5.5 1.8-15.8 7.2-7.5 4.1 7.2 7.9 13.5 9.6 33.1 1.3 17.9 1 31.1.7 41-.3 10.5-.2 42.3-10.5 109.5-2.1 13.7-3 19-10.3 33.1 4.8-1.5 11.5-4.5 14.2-6.2 4.2-2.5 7-5 8.3-6.2 3.3-3 5.3-5.7 7.1-8.1 1.1-1.5 1.8-2.5 2.4-3.4 5.7-7.2 11.2-13.9 21.1-19.6 4.7-2.7 9.5-4.4 13-5.6 1.8-.6 3.2-1.1 4.2-1.6.7-.3 3-1.4 2.6-3.6-.5-2.5-3.8-3.1-9.7-3.4-4.1-.2-8.7-.1-11.2 0-3.9.1-6.7.3-8.5.4-.8.1-1.5.1-2.1.1.2-.5.6-1.5 1.6-3.1 1.4-2.1 3.4-4.8 5.7-7.8 8-10.5 20-26.3 24.9-45.4 1.6-6.5 2.6-11.2 3.4-15.4 1.7-8.7 3-15 9.4-30.1 2.3-5.3 5.1-10 7.3-13.7 1.3-2.1 2.3-3.9 3-5.3.5-.6 1.7-3.1-.1-4.7zm-83.5-84.8c-1.5 14.8-2.9 26.1-7.9 42.8 1-14.2 1-32.2-1.3-48.2-2.6-18-7.6-35.7-14.9-52.7-3.4-7.8-7.2-15.5-11.5-22.9 11.3 11 20.7 24 27.6 38.1 1.5 3.2 2.9 6.3 4.2 9.4-.1-.2-.3-.3-.4-.5 5.4 13.3 4.7 29.4 4.2 34zm38.2 61.2.1.1c3.1 4 1.6 14 1 18.5-.3.9-.6 1.8-.8 2.6-.7 2.3-1.3 4-1.7 5.4-.2 1-.8 3.5 1.2 4.5 1.9.9 3.5-.8 4-1.4.7-.8 1.6-2 2.7-3.4 1.7-2.3 4.1-5.4 7.2-8.8 3.9-4.2 8-7.8 11.8-10.7-1.3 1.6-2.6 3.3-3.8 5.3-3.9 6.4-4.7 10.8-5.5 16-.7 4.3-1.5 9.1-4.4 16.2-3.6 8.9-7 14.1-11.7 20.1-.6.8-1.2 1.5-1.7 2.2-1.5 1.8-3.9 5.4-4.9 7.3-1.1 2.1-2.7 5.8-5.7 7.6l-4 1.8 4.2-87.3c.5-4.3 9.2.5 12 4zm-25.2-39.2c0-.4-.1-.9-.2-1.5-1.7-12-3.2-23.7-3.2-35.9v-4.1c.1-7.8 1.3-15 2.9-21-.2 2.9-.1 6 .3 9.3 1.3 11.1 5.8 17.9 10.1 24.5 2.8 4.2 5.6 8.6 7.7 14.2 2.6 6.9 3.4 13.4 3.3 19.2-.1 7.5-2.3 15-6.6 21.1-1.7 2.4-3.5 4.2-4.9 5.3-3.3 2.4-9.6 4.6-12.8 3.9-8.4-2.5 4.5-11.3 3.4-35zm56.4 85.2c-6.6 15.5-7.9 22-9.6 31-.8 4.1-1.7 8.8-3.4 15.1-4.7 18.3-16.4 33.7-24.1 43.9-3.8 5-6.5 8.6-7.7 11.4-1.3 2.2-2.6 4.8-3.2 6.2-3.7 9.7-5.8 20.1-9.5 29.8 4.1-34.6 7.4-61.6 9.9-96.9 3.8-.8 7.7.1 11.3 1.6l7.2 3s-.2-7.2-.1-10c.1-3.4 2.6-6.2 5.3-8.3 4.8-3.4 9.1-7.1 11.6-10 4.1-4.8 5.1-7.4 6.2-10.1 1-2.5 2-5 5.8-9.8.9-1.2 1.9-2.5 3-3.9.8-1.1 1.7-2.3 2.7-3.6-1.8 3.2-3.7 6.8-5.4 10.6z"/></g></svg>