<svg version="1.1" id="Layer_1" xmlns="http://www.w3.org/2000/svg" xmlns:xlink="http://www.w3.org/1999/xlink" x="0" y="0" viewBox="0 0 480 400" style="enable-background:new 0 0 480 400" xml:space="preserve"><style>.st1{opacity:.7;clip-path:url(#SVGID_00000125580334694833783330000010948563933156850101_)}.st2{fill:#ffd300}.st3{fill:url(#SVGID_00000037679465539917877040000004226126883450011564_)}</style><linearGradient id="SVGID_1_" gradientUnits="userSpaceOnUse" x1="237.862" y1="213.629" x2="205.937" y2="417.154"><stop offset="0" style="stop-color:#001e5a"/><stop offset=".26" style="stop-color:#02205a"/><stop offset=".397" style="stop-color:#0a265a"/><stop offset=".506" style="stop-color:#18305a"/><stop offset=".6" style="stop-color:#2b3e5a"/><stop offset=".684" style="stop-color:#44515a"/><stop offset=".761" style="stop-color:#63675a"/><stop offset=".833" style="stop-color:#87835a"/><stop offset=".901" style="stop-color:#b1a25a"/><stop offset=".964" style="stop-color:#e0c55a"/><stop offset="1" style="stop-color:#ffdc5a"/></linearGradient><path style="fill:url(#SVGID_1_)" d="M0 0h480v400H0z"/><defs><path id="SVGID_00000161608081262383688800000013599217198465007278_" d="M0 0h480v400H0z"/></defs><clipPath id="SVGID_00000062158650188885195140000012530450366001643190_"><use xlink:href="#SVGID_00000161608081262383688800000013599217198465007278_" style="overflow:visible"/></clipPath><g style="opacity:.7;clip-path:url(#SVGID_00000062158650188885195140000012530450366001643190_)"><circle class="st2" cx="321.1" cy="291.46" r="205.98"/><linearGradient id="SVGID_00000072983181105353833950000013468479692908669830_" gradientUnits="userSpaceOnUse" x1="320.961" y1="490.556" x2="320.961" y2="92.323"><stop offset="0" style="stop-color:#0073b1"/><stop offset=".282" style="stop-color:#006fae"/><stop offset=".539" style="stop-color:#0064a4"/><stop offset=".784" style="stop-color:#015295"/><stop offset="1" style="stop-color:#013b81"/></linearGradient><path style="fill:url(#SVGID_00000072983181105353833950000013468479692908669830_)" d="M326.8 490.47c-109.92 3.23-201.64-83.27-204.87-193.19-3.22-109.92 83.27-201.64 193.19-204.87 109.92-3.23 201.64 83.27 204.87 193.19 3.23 109.92-83.27 201.64-193.19 204.87z"/><path class="st2" d="M315.96 445.5c5.11-13.73 3.86-56.27 3.72-61.37-.43-15.38-.66-24.33-2.09-36.06-.79-6.45-2.88-22.27-9.93-23.62-.93-.18-2.84-.23-4.52.94-2.26 1.58-4.57 6.08-5.49 9.79-1.4 5.61-2.22 14.3-2.22 14.3-.56 6.31-.62 8.21-.72 31.81-.09 22.79.77 28.58 1.94 42.17 0 0 .34 5.81 3.29 16.84 1.43 5.33 4.24 9.23 7.03 10.97.87.55 3.31.94 4.74-.04 2.52-1.71 3.69-4.24 4.25-5.73zm-7.26-15.3c-1.58-4.97-1.83-6.01-3.64-14.71-1.44-6.93-2.29-11.97-3.44-20.31-1.78-12.97-.96-11.69-2.68-25.46 0 0-2.33-18.61-.06-31.41.16-.89.49-2.42 1.22-2.6 1.05-.26 2.35 2.39 3.31 4.56 3.62 8.21 5.12 16.01 5.39 17.49 1.77 9.52 2.66 14.27 3 16.48 2.16 13.87 2.99 23.96 3.17 26.14.46 5.74.69 9.81.87 15.25.3 8.8.37 9.96.34 11.92 0 0 .03 4.07-.85 10.63-.11.81-.62 2.77-1.2 2.91-.67.16-1.43-1.19-2.07-2.44-2.69-5.26-3.36-8.45-3.36-8.45z"/><path class="st2" d="M320.91 316.59c1.51 14.32 2.83 31.5 3.24 37.99 1.53 23.86 1.36 32.2 1.24 67.61-.05 14.81-2.93 32.2-11.09 50.28 8.48-14.36 18.06-20.97 21.81-23.05-.54-8.4.15-16.4.62-24.8l6.04-127.59c1.44-25.32 5.88-28.35 7.72-30.76 5.84-7.63 7.58-14.68 7.13-14.97-.31-.2-1.73 3.31-5.8 6.48-3.64 2.83-6.84 3.87-11.36 4.08l-.19 14.58c.01-.01.02-.01.03-.01-.24 15.83-1.46 42.33-1.7 51.7-1.41 37.04-4.15 76.81-6.44 114.92l-2.05-160.46c.01 0 .02-.01.02-.01l-.17-20.36c-7.05.33-12.77 1.05-18.47 2.95-5.96 1.98-17.61 7.32-21.28 25.08 5-7.7 10.1-11.98 16.02-11.98 5.7-.01 11.58 8.18 14.68 38.32zM264.73 454.65c-1.48-.5-2.73-.57-3.75-.21-1.03.36-1.74 1.12-2.13 2.27-.38 1.12-.3 2.09.23 2.92.54.83 1.51 1.48 2.91 1.96l3.47 1.18-.97 2.87-6.99-2.37-.61 1.81 9.15 3.11 3.98-11.74-5.29-1.8zm1.31 6.45-3.02-1.02c-1.71-.58-2.36-1.47-1.95-2.68.21-.61.59-1.01 1.13-1.19.55-.18 1.24-.12 2.08.16l3.02 1.02-1.26 3.71zM253.36 450.19c-.6-.28-1.16-.37-1.69-.26-.53.1-1.05.39-1.56.87-.51.47-1.02 1.11-1.53 1.9-.51.79-1.04 1.73-1.6 2.81l-1.4 2.77-4.42-2.05 4.41-9.47-2.07-.96-5.23 11.24 8.27 3.85 2.32-4.57c.54-1.04 1.03-1.89 1.48-2.55.45-.66.89-1.11 1.32-1.36.43-.24.88-.26 1.34-.04.17.08.32.18.45.29l1-1.76c-.19-.15-.37-.28-.55-.39-.18-.14-.36-.23-.54-.32zM232.51 443.01l-5.29-3.23.45-3.09-2.07-1.26-1.68 13.49 1.93 1.18 11.22-7.68-2.01-1.23-2.55 1.82zm-1.6 1.14-4.81 3.42.84-5.84 3.97 2.42zM211.56 438.15l-4.89-3.72-1.19 1.54 6.71 5.1 7.5-9.87-1.82-1.38zM206.61 422.9c-.05-.83-.27-1.65-.65-2.44-.39-.79-.93-1.51-1.63-2.16-.7-.65-1.46-1.13-2.27-1.46a6.23 6.23 0 0 0-2.46-.45c-.83.02-1.63.2-2.4.55-.77.34-1.46.85-2.09 1.53-.62.68-1.08 1.41-1.37 2.21-.29.8-.4 1.61-.35 2.43.05.82.27 1.63.65 2.41.39.78.93 1.5 1.63 2.15a7.17 7.17 0 0 0 2.29 1.46c.81.32 1.64.47 2.47.46a6.07 6.07 0 0 0 2.4-.53c.77-.34 1.46-.85 2.09-1.53.62-.67 1.07-1.4 1.35-2.19s.39-1.6.34-2.44zm-2.45 1.57c-.2.54-.51 1.04-.93 1.5-.43.47-.91.82-1.43 1.05-.52.23-1.06.36-1.61.39-.55.03-1.1-.06-1.64-.27-.54-.21-1.04-.52-1.5-.95-.46-.42-.81-.89-1.05-1.41-.24-.51-.38-1.05-.4-1.6-.03-.55.06-1.1.27-1.63.2-.53.52-1.04.96-1.5.43-.47.91-.82 1.43-1.07.52-.24 1.06-.37 1.61-.4.55-.02 1.09.07 1.62.27s1.02.51 1.48.94c.46.42.81.9 1.06 1.42.25.52.38 1.06.4 1.61.01.55-.08 1.1-.27 1.65zM193.62 410.84l3.48-2.98-1.4-1.62-2 1.72-6.22-7.2 2-1.72-1.39-1.61-3.47 3 1.17 1.35-7.91 6.83 5.94 6.87 3.05-2.45c.74-.59 1.44-1.11 2.09-1.57.66-.46 1.26-.82 1.82-1.08.55-.26 1.05-.39 1.48-.38.43.01.79.18 1.08.53l.28.31zm-2.79-2.55c-.46.08-.96.27-1.5.57-.54.3-1.11.65-1.72 1.08-.61.42-1.23.9-1.87 1.42l-1.72 1.37-3.17-3.67 6.43-5.56 4.12 4.77a1.83 1.83 0 0 0-.57.02z"/><path transform="rotate(-35.708 175.92 395.738)" class="st2" d="M169.71 394.61h12.39v2.28h-12.39z"/><path class="st2" d="m174.16 382.02-10.94-1.26 7.56-4.46-1.16-1.97-10.67 6.3 1.08 1.84 10.97 1.26-7.58 4.48 1.16 1.96 10.67-6.29zM159.25 384.1c-.66-.24-1.35-.16-2.05.25l.81 1.37c.38-.21.75-.25 1.1-.12.35.13.65.41.91.85s.36.84.3 1.2-.27.66-.64.89l.81 1.37c.7-.42 1.1-.98 1.21-1.67.11-.69-.1-1.49-.64-2.41-.55-.91-1.15-1.49-1.81-1.73zM164.67 364.4l-4.86 2.15-2.59-5.86 4.85-2.15-.92-2.09-11.33 5.02.92 2.09 4.68-2.07 2.6 5.86-4.68 2.07.93 2.1 11.33-5.02zM157.41 346.14l-10.36-3.74 8.39-2.6-.68-2.18-11.84 3.67.64 2.05 10.38 3.75-8.41 2.61.68 2.18 11.84-3.68zM152.24 326.95l-9.86-4.9 8.64-1.63-.43-2.24-12.18 2.29.4 2.1 9.88 4.92-8.65 1.63.42 2.24 12.18-2.29zM137.52 323.84c-.54-.45-1.21-.61-2.02-.47l.29 1.57c.43-.07.79.02 1.08.26.29.24.48.61.57 1.11.09.5.05.91-.13 1.23-.18.32-.48.53-.91.62l.29 1.57c.8-.16 1.37-.55 1.71-1.16.34-.61.41-1.44.22-2.48-.2-1.05-.56-1.8-1.1-2.25zM135.76 293.68l1.27-.01c.07 1.21.27 2.28.63 3.18.43 1.09 1.05 1.92 1.86 2.5.81.57 1.8.86 2.95.85 1.16-.01 2.14-.3 2.93-.88.8-.58 1.41-1.42 1.82-2.51.34-.9.53-1.97.58-3.18l1.34-.01-.01-2.12-1.33.01c-.06-1.25-.26-2.34-.62-3.25-.42-1.07-1.05-1.88-1.86-2.43-.82-.56-1.79-.83-2.93-.83-1.16.01-2.14.29-2.94.87-.81.57-1.42 1.4-1.84 2.48-.35.9-.54 1.98-.59 3.22l-1.27.01.01 2.1zm9.92 1.81c-.26.79-.66 1.4-1.2 1.82-.54.42-1.21.63-2.02.64-.81 0-1.49-.19-2.03-.58-.54-.39-.94-.99-1.21-1.78-.18-.54-.28-1.2-.34-1.92l7.13-.04c-.06.69-.15 1.33-.33 1.86zm-6.48-5.92c.27-.77.67-1.36 1.2-1.76.53-.4 1.19-.61 1.98-.61.8 0 1.48.19 2.02.58.55.39.96.98 1.24 1.75.2.55.31 1.23.37 1.97l-7.14.04c.04-.73.13-1.41.33-1.97zM138.58 275.04c.5.66 1.11 1.21 1.84 1.62.73.42 1.55.68 2.47.79a6.225 6.225 0 0 0 4.74-1.35c.64-.53 1.17-1.19 1.58-1.96.41-.78.67-1.64.78-2.59.11-.95.06-1.85-.16-2.69-.22-.85-.58-1.6-1.08-2.26-.51-.66-1.12-1.2-1.85-1.62-.73-.42-1.55-.68-2.47-.79a6.37 6.37 0 0 0-2.59.2c-.81.24-1.54.62-2.17 1.15-.64.53-1.16 1.17-1.56 1.95-.41.77-.66 1.63-.77 2.58-.11.96-.06 1.87.16 2.71.22.84.58 1.59 1.08 2.26zm.76-4.74c.07-.62.25-1.18.52-1.68s.62-.92 1.06-1.27c.43-.35.93-.6 1.48-.75.55-.15 1.14-.19 1.78-.11.63.07 1.2.25 1.7.53s.92.63 1.27 1.07c.34.43.59.92.74 1.47.15.55.19 1.13.12 1.75-.07.62-.25 1.19-.52 1.7s-.63.93-1.07 1.27c-.44.34-.93.59-1.49.75-.55.16-1.14.21-1.76.13-.63-.07-1.2-.25-1.69-.54-.5-.28-.92-.64-1.26-1.07-.35-.43-.6-.93-.74-1.49-.18-.55-.21-1.14-.14-1.76zM152.56 254.92l-5.17-1.22 1.47-6.24 5.17 1.22.53-2.22-12.07-2.85-.52 2.22 4.98 1.18-1.48 6.24-4.98-1.18-.53 2.24 12.07 2.85zM151.88 235.11c.72.35 1.33.7 1.83 1.06.5.36.85.72 1.06 1.11.21.38.23.78.07 1.2l-.14.38 4.31 1.57.73-2.02-2.48-.89 3.23-8.94 2.48.9.72-2-4.31-1.56-.61 1.68-9.83-3.54-3.08 8.54 3.63 1.46c.87.35 1.67.7 2.39 1.05zm-1.88-8.27 7.99 2.88-2.14 5.92c-.07-.16-.17-.32-.3-.48-.3-.36-.71-.7-1.23-1.03-.52-.33-1.12-.65-1.79-.97-.67-.32-1.39-.63-2.16-.94l-2.04-.83 1.67-4.55zM164.48 202.91l-4.24-2.48-.9 1.64 4.36 2.25zM162.83 205.91l-4.23-2.49-.9 1.65 4.36 2.25zM167.48 192.38c.19-.57.44-1.07.74-1.52.3-.45.62-.81.97-1.1.35-.29.7-.46 1.06-.53.36-.07.69 0 1.01.21.42.28.64.66.65 1.13.01.47-.17.99-.56 1.57l-1.5 2.25 1.52 1.01 1.59-2.39c.44-.67.91-1.11 1.39-1.33.48-.22.95-.17 1.4.13.37.25.6.59.68 1.02.08.43.05.9-.11 1.42-.15.52-.4 1.03-.75 1.53s-.78.97-1.3 1.39c-.52.42-1.07.75-1.67.99l1 1.56c.72-.31 1.39-.72 2-1.22.61-.5 1.14-1.06 1.58-1.67.44-.61.79-1.24 1.05-1.89.25-.65.4-1.28.44-1.91.04-.63-.05-1.19-.27-1.7-.22-.51-.58-.93-1.08-1.26-.53-.35-1.09-.53-1.68-.53-.59 0-1.17.18-1.73.54-.14.09-.27.22-.4.33.01-.06.04-.11.05-.17.09-.59.03-1.14-.18-1.64s-.56-.92-1.05-1.24c-.55-.37-1.13-.52-1.73-.46-.61.06-1.21.27-1.81.64-.6.37-1.16.87-1.66 1.5s-.93 1.34-1.26 2.14c-.34.8-.55 1.64-.62 2.54l1.93.43c0-.61.11-1.2.3-1.77zM185.46 185l-1.42-2.78 3.96-4.77 2.99.89 1.55-1.87-13.11-3.61-1.45 1.74 5.98 12.21 1.5-1.81zm-2.32-4.53-2.69-5.26 5.66 1.68-2.97 3.58zM199.17 169.62l-3.68-3.83 4.62-4.44 3.68 3.83 1.65-1.59-8.59-8.93-1.65 1.59 3.55 3.68-4.62 4.45-3.55-3.69-1.66 1.59 8.59 8.94zM207.62 153.48c.55.72 1.19 1.29 1.92 1.71.73.41 1.51.67 2.34.76.83.1 1.67.02 2.51-.22.85-.24 1.65-.66 2.41-1.24.76-.58 1.37-1.24 1.83-1.98.46-.74.75-1.52.87-2.35.12-.82.08-1.64-.12-2.46-.21-.82-.59-1.59-1.15-2.32a6.598 6.598 0 0 0-1.94-1.73c-.74-.42-1.51-.68-2.33-.77-.82-.09-1.65-.02-2.49.23-.84.25-1.64.66-2.4 1.24-.77.59-1.38 1.25-1.84 2-.45.75-.75 1.53-.88 2.35-.13.82-.09 1.64.11 2.45.22.83.6 1.6 1.16 2.33zm.93-4.64c.07-.55.25-1.07.55-1.57.3-.49.7-.93 1.19-1.31.5-.38 1.02-.64 1.57-.79.55-.15 1.1-.19 1.65-.12.55.07 1.07.25 1.56.55.49.29.93.69 1.32 1.2s.65 1.04.8 1.59c.15.56.19 1.11.11 1.65a3.99 3.99 0 0 1-.54 1.55c-.29.49-.68.92-1.18 1.3-.5.38-1.02.65-1.58.8-.56.16-1.11.2-1.66.12-.55-.08-1.07-.26-1.57-.55-.5-.29-.94-.68-1.32-1.18a4.389 4.389 0 0 1-.9-3.24zM233.62 142.96c1.34-.8 2.19-1.66 2.56-2.59.37-.93.27-1.86-.29-2.79-.54-.9-1.27-1.39-2.2-1.47-.45-.04-.94.02-1.45.17.18-.24.33-.49.44-.75.35-.85.27-1.71-.24-2.57-.53-.89-1.27-1.37-2.23-1.44-.95-.07-2.03.25-3.23.97l-4.76 2.84 6.36 10.64 5.04-3.01zm-8.54-7.27 2.64-1.58c.64-.38 1.2-.55 1.69-.49.49.05.88.33 1.17.82.3.5.35.97.17 1.42-.18.45-.59.87-1.23 1.25l-2.64 1.58-1.8-3zm5.69 2.65c.7-.42 1.3-.6 1.8-.55.5.05.91.33 1.22.85.33.55.39 1.05.2 1.52s-.64.91-1.34 1.33l-3.02 1.81-1.88-3.15 3.02-1.81zM242.79 133.69c.62.57 1.32.99 2.11 1.27.79.28 1.62.39 2.5.34.88-.05 1.75-.27 2.62-.66.87-.39 1.61-.9 2.23-1.52a6.34 6.34 0 0 0 1.38-2.09c.3-.77.45-1.58.43-2.42-.02-.84-.22-1.68-.6-2.52s-.88-1.54-1.5-2.12c-.62-.57-1.32-1-2.1-1.27-.78-.28-1.6-.39-2.48-.34-.87.05-1.74.27-2.61.67-.88.4-1.63.91-2.24 1.54s-1.07 1.32-1.38 2.09c-.31.77-.46 1.58-.44 2.42.02.84.22 1.68.6 2.52.36.83.86 1.52 1.48 2.09zm.46-6.41c.19-.52.49-.99.89-1.4.4-.42.89-.75 1.46-1.01s1.14-.4 1.7-.42c.57-.02 1.11.06 1.63.25s.99.49 1.4.88c.41.4.75.88 1.01 1.47.26.58.4 1.16.43 1.73.02.57-.07 1.12-.26 1.63-.19.52-.49.98-.88 1.39-.39.41-.87.74-1.44 1s-1.14.4-1.72.43a3.93 3.93 0 0 1-1.64-.26c-.52-.2-.99-.49-1.41-.89-.42-.39-.76-.87-1.02-1.44a4.415 4.415 0 0 1-.15-3.36zM264.93 120.61l-1.46-4.69-1.77.61 1.71 4.6zM261.7 121.72l-1.46-4.69-1.78.61 1.71 4.6zM388.04 119.36c-.67-.61-1.48-1.09-2.43-1.44-.9-.33-1.78-.48-2.64-.46-.86.02-1.67.2-2.44.54-.76.34-1.43.81-2 1.42-.57.61-1.02 1.35-1.34 2.23-.32.88-.45 1.73-.41 2.57.05.83.25 1.63.62 2.37.36.75.87 1.41 1.51 1.97.65.57 1.42 1.02 2.32 1.34.97.35 1.9.5 2.81.46.91-.05 1.75-.29 2.53-.74l-.92-1.82a4.6 4.6 0 0 1-1.81.52c-.6.04-1.21-.05-1.8-.27-.61-.22-1.13-.52-1.56-.91-.43-.38-.77-.83-1.01-1.33-.24-.5-.37-1.04-.4-1.62-.03-.58.07-1.16.28-1.76.22-.6.52-1.11.92-1.53.39-.42.84-.75 1.35-.98.5-.23 1.05-.35 1.62-.37.58-.02 1.17.09 1.78.31.6.22 1.12.54 1.56.95.44.42.79.93 1.06 1.54l1.88-.81c-.32-.84-.81-1.57-1.48-2.18zM406.15 127.15l-2.26 4.59-5.75-2.85 2.27-4.58-2.06-1.02-5.5 11.11 2.06 1.02 2.36-4.76 5.74 2.84-2.35 4.76 2.05 1.01 5.49-11.11zM413.34 142.15l5.22 3.35-.52 3.08 2.04 1.31 1.99-13.45-1.91-1.23-11.39 7.41 1.98 1.27 2.59-1.74zm1.63-1.1 4.89-3.3-.98 5.82-3.91-2.52zM436.77 155.75c.74-.24 1.39-.71 1.96-1.42.58-.72.91-1.47.99-2.25.08-.78-.07-1.55-.46-2.32-.39-.76-1.02-1.49-1.87-2.18l-3.97-3.2-7.78 9.65 1.79 1.45 2.27-2.81 2.18 1.76c.13.1.26.19.39.29l-.31 4.42 1.93 1.56.34-4.96c.06.02.13.05.19.06.83.2 1.61.19 2.35-.05zm-5.88-4.56 3.1-3.85 2.09 1.69c.79.64 1.25 1.28 1.38 1.94.13.66-.05 1.29-.54 1.9-.49.61-1.07.92-1.74.94-.67.02-1.41-.29-2.2-.93l-2.09-1.69z"/><path transform="rotate(-46.224 444.734 162.29)" class="st2" d="M438.51 161.13h12.39v2.3h-12.39z"/><path class="st2" d="m449.09 175.68 1.54 1.72 7.78-6.98 2.74 3.05 1.45-1.3-7.03-7.82-1.45 1.3 2.75 3.05zM457.8 186l3.04-.7 3.67 5-1.59 2.69 1.44 1.96 6.68-11.85-1.34-1.83-13.29 2.84 1.39 1.89zm4.96-1.15 5.75-1.33-3 5.08-2.75-3.75zM471.17 206.12c.8 1.38 1.66 2.27 2.57 2.67.92.4 1.83.34 2.75-.19.62-.36 1.06-.8 1.32-1.32s.36-1.08.3-1.69c-.02-.16-.07-.33-.11-.49.46.3.96.47 1.5.5.56.03 1.12-.12 1.69-.45.85-.49 1.33-1.22 1.44-2.19.12-.97-.2-2.09-.94-3.37l-2.92-5.04-10.73 6.21 3.13 5.36zm4.37.38c-.54.31-1.05.34-1.53.09-.48-.26-.93-.75-1.35-1.49l-1.87-3.23 3.1-1.79 1.87 3.23c.43.74.63 1.38.61 1.92-.02.54-.3.96-.83 1.27zm4.49-6.22c.4.68.58 1.29.55 1.81-.03.52-.29.92-.79 1.21-.49.28-.97.31-1.43.07-.46-.24-.89-.7-1.29-1.38l-1.63-2.82 2.96-1.71 1.63 2.82zM480.67 225.33l1.78-.8-2.67-5.91 9.53-4.29-.95-2.1-11.3 5.09zM486.25 240.86l1.84-.63-2.24-6.62 3.22-1.09 1.92 5.67 1.79-.61-1.91-5.67 3.03-1.03 2.16 6.4 1.85-.63-2.9-8.57-11.74 3.97zM491.02 260.9l4.69-.79 1 5.9 1.89-.32-1-5.9 3.72-.63 1.12 6.65 1.92-.32-1.5-8.92-12.23 2.06zM494.37 276.35c-.89 1.02-1.29 2.37-1.18 4.06.11 1.7.67 2.99 1.68 3.89 1.01.9 2.43 1.29 4.24 1.18l6.96-.44-.14-2.26-6.89.44c-1.27.08-2.21-.13-2.83-.64-.61-.51-.95-1.26-1.01-2.26-.06-1 .18-1.79.72-2.38.54-.58 1.45-.92 2.72-1l6.89-.44-.15-2.3-6.96.44c-1.81.12-3.16.69-4.05 1.71zM506.15 294.99l-12.38-.61-.11 2.28 8.39.41-8.73 6.4-.09 1.89 12.38.61.11-2.27-8.4-.41 8.74-6.41zM491.44 319.36c-.21 1.3-.15 2.5.19 3.59.34 1.09.92 1.99 1.75 2.7.83.71 1.85 1.17 3.08 1.37 1.22.2 2.34.1 3.35-.31 1.01-.41 1.85-1.07 2.53-2 .67-.92 1.12-2.04 1.33-3.34l.88-5.36-12.23-2.02-.88 5.37zm1.94.17.49-2.95 8.39 1.38-.49 2.95c-.15.92-.46 1.69-.92 2.3-.46.61-1.03 1.06-1.71 1.33-.68.28-1.45.34-2.31.2-.84-.14-1.54-.45-2.11-.93-.57-.48-.97-1.09-1.21-1.81s-.28-1.55-.13-2.47zM492.44 346.97l4.62 1.67.58-1.79-4.69-1.41zM491.37 350.22l4.62 1.66.59-1.78-4.7-1.41zM480.53 357.7l3.32 1.43-1.11 2.57c-.07.15-.12.3-.17.45l-4.34.88-.98 2.28 4.87-1c0 .07-.01.14-.01.2.01.86.23 1.62.66 2.26.43.65 1.06 1.15 1.89 1.51.85.37 1.66.48 2.43.36.78-.13 1.48-.48 2.11-1.07.63-.58 1.16-1.38 1.6-2.39l2.02-4.68-11.38-4.92-.91 2.12zm8.52 6.61c-.4.93-.9 1.55-1.5 1.85-.6.3-1.26.3-1.97-.01-.72-.31-1.17-.79-1.37-1.43-.2-.64-.09-1.43.31-2.37l1.07-2.47 4.53 1.96-1.07 2.47zM469.19 380.29l1.7.96 3.43-6.1 2.96 1.66-2.93 5.22 1.65.93 2.93-5.22 2.8 1.57-3.31 5.88 1.7.96 4.43-7.89-10.81-6.07zM463.65 388.85l6.84 4.88-10.8.67-1.1 1.54 10.09 7.2 1.32-1.85-6.85-4.88 10.81-.68 1.1-1.54-10.09-7.2zM458.35 406.21a6.457 6.457 0 0 0-2.2-1.33c-.8-.27-1.61-.38-2.44-.32-.83.06-1.64.28-2.43.68s-1.5.95-2.14 1.66c-.64.71-1.12 1.47-1.43 2.28-.31.81-.46 1.64-.43 2.47.03.83.22 1.63.57 2.39.35.76.87 1.45 1.55 2.07.68.62 1.42 1.07 2.22 1.34.8.28 1.61.39 2.44.33a6.15 6.15 0 0 0 2.4-.68c.78-.39 1.49-.95 2.13-1.65.65-.72 1.13-1.49 1.44-2.3.31-.82.46-1.64.43-2.47-.02-.83-.21-1.63-.56-2.39-.35-.77-.86-1.46-1.55-2.08zm-.32 6.38c-.2.54-.51 1.04-.93 1.51-.42.46-.88.82-1.39 1.07a4.087 4.087 0 0 1-3.24.17c-.54-.2-1.04-.51-1.51-.94-.47-.43-.83-.9-1.08-1.42a4.103 4.103 0 0 1-.16-3.22c.19-.53.5-1.03.92-1.49.42-.46.89-.82 1.41-1.08.52-.26 1.05-.4 1.61-.42a4.39 4.39 0 0 1 3.16 1.16c.47.43.83.9 1.07 1.42.24.52.37 1.06.41 1.61.01.54-.07 1.09-.27 1.63zM435.03 421.05l4.26 12.83 1.7-1.53-3.26-9.9 9.44 4.36 1.85-1.67-12.31-5.61zM425.56 428.85l.68 3.05-5.03 3.63-2.67-1.61-1.97 1.42 11.79 6.78 1.84-1.33-2.73-13.31-1.91 1.37zm1.11 4.96 1.29 5.76-5.06-3.04 3.77-2.72zM414.27 448.96l-5.27-9.03-1.99 1.16 5.27 9.03-3.55 2.07.98 1.68 9.09-5.3-.98-1.68zM388.69 450.29l.81 1.77 6.36-2.92 1.42 3.08-5.44 2.5.79 1.73 5.44-2.5 1.34 2.91-6.13 2.82.81 1.77 8.23-3.79-5.18-11.26zM382.76 460.59l1.52 4.67 1.77-.63-1.77-4.58zM379.54 461.74l1.52 4.67 1.77-.63-1.77-4.58zM314.29 112.38l-.08-1.93c2.37-.1 4.74-.15 7.04-.15 2.19 0 4.45.05 6.71.13l-.08 1.93c-2.24-.09-4.48-.13-6.64-.13-2.27.01-4.61.05-6.95.15z"/><path class="st2" d="m314.29 112.38-.08-1.93c2.37-.1 4.74-.15 7.04-.15 2.19 0 4.45.05 6.71.13l-.08 1.93c-2.24-.09-4.48-.13-6.64-.13-2.27.01-4.61.05-6.95.15zM248.62 243.66a28.975 28.975 0 0 0-5.2 7.52c-.48 1.02-.88 2-1.2 2.93-1.2-11.29-1.71-28.15.38-42.68 1.95-13.53 5.71-26.83 11.18-39.54 3.94-9.15 8.79-18.03 14.41-26.41.45-.67.35-1.56-.25-2.1-.59-.55-1.48-.58-2.12-.08-12.66 10.07-23.09 23.05-30.16 37.53-3.3 6.75-5.66 13.37-7.34 19.65v-.4c-.08-9.03-2.07-16.72-3.73-21.58-1.67-4.9-3.85-9.28-5.06-10.19-.64-.48-1.25-.4-1.55-.31-.44.12-.8.41-1.01.82-.41.75-.21 1.4.33 3.13 1.03 3.32 3.17 10.22 2.14 18.79-.93 7.77-3.99 12.43-7.22 17.36-2.22 3.38-4.51 6.88-6.22 11.5-2.07 5.62-2.63 11.3-2.38 16.55a69.048 69.048 0 0 0-3.51-5.57c-5.82-8.32-13.63-15.2-16.46-15.57-.78-.1-1.3.17-1.6.43-.58.49-1.07 1.42-.13 3.09.35.62.89 1.39 1.58 2.38 2.41 3.46 6.89 9.89 9.37 18.89 1.21 4.38 1.25 6.77 1.3 9.8.05 3.05.11 6.5 1.29 12.76 1.33 7.03 3.18 12.69 4.45 16.52-1.25-1.63-2.81-3.61-4.73-5.69a70.848 70.848 0 0 0-14.16-11.79c-2.46-1.55-7.08-4.15-8.8-4.05-.76.05-1.17.47-1.35.72-.26.37-.37.82-.29 1.27.14.84.71 1.24 2.08 2.2 2.4 1.68 7.38 5.17 11.24 11.41 2.68 4.33 3.15 7.3 3.76 11.07.55 3.44 1.18 7.34 3.54 13.13 2.83 6.93 7.66 13.74 11.2 18.72.92 1.29 1.95 2.75 2.75 3.96l-.24-.06c-1.13-.72-2.64-1.77-4.58-3.29-3.62-2.85-7.08-6.04-9.03-8.33-2.78-3.28-3.46-4.96-4.25-6.9-.81-1.99-1.73-4.25-4.86-8.28-.71-.91-1.45-1.89-2.25-2.93-5.96-7.82-8.09-10.28-9.85-10.45-.56-.06-1.1.11-1.51.47-1.38 1.22-.47 3.15-.12 3.88.51 1.07 1.34 2.45 2.3 4.04 1.73 2.85 3.88 6.41 5.62 10.5 4.35 10.27 4.85 15.23 5.44 20.98.38 3.73.81 7.97 2.37 14.1 3.82 14.95 14 27.12 20.74 35.17 1.83 2.19 3.42 4.08 4.51 5.61.79 1.1 1.16 1.79 1.33 2.19-.4-.02-.94-.06-1.5-.1-1.39-.11-3.49-.27-6.51-.33-1.9-.04-5.44-.11-8.59.03-4.55.2-7.07.68-7.42 2.6-.06.34-.11 1.21.75 1.98.3.26.68.5 1.21.75.8.38 1.88.75 3.25 1.23 2.68.94 6.36 2.22 9.98 4.27 7.73 4.39 10.88 8.51 14.54 13.28 1.26 1.64 2.55 3.32 4.08 5.11 4.04 5.06 3.96 4.28 4.27 4.13.71-.35.13-2.67-.05-3.26-.13-.44-.26-.9-.39-1.37l.03-.02-.05-.05c-5.75-20.84-9.97-70.66-11.19-74.56-.03-.08-.27-1.08-.11-.89 0 0 .62.55 2.05 2.3.08.1.22.34.33.55.25.48.79 1.85.81 1.91.42 1.65 6.81 32 10.35 53.59.27 1.62.43 2.75.6 4.03 1.4 11.03 1.23 17.83 1.19 18.76-.04.85-.2 2.43-.17 2.6l2 1.11c2.2 1.24 8.46 4.53 8.46 4.53l-.14-.43c-.49-1.49-.9-3-1.24-4.53-.6-2.75-1.83-7.87-1.98-8.64-.19-.96-5.51-37.02-8.42-52.36-.57-2.99-1.05-6.56-3.53-20.01-.01-.06-.25-.44-.16-.89.06-.29.22-.48.25-.51 2.92-3.65 2.86-14.81 2.86-14.81-.09-14.51-1.49-22.17-1.49-22.17-3.84-20.98-11.03-36.95-13.88-42.96-.81-1.7-1.62-3.33-2.43-4.9l-.21-.57c-.27-1.15-.52-2.35-.74-3.6-1.37-7.91-.86-15.17 1.5-21.56 1.58-4.28 3.77-7.62 5.89-10.85 3.29-5.03 6.7-10.22 7.72-18.75.3-2.52.35-4.91.23-7.14 1.22 4.59 2.18 10.11 2.23 16.12.09 10.49-2.56 18.98-3.99 23.54-.11.35-.21.68-.3.98-.25.76-.42 1.35-.5 1.76-.01.04-.02.09-.02.13-.02.11-.04.21-.05.3-1.24 7.14.52 16.86 3.02 28 2.43 10.82 3 21.99 4.99 32.91 1.67 9.16 1.89 12.11 9.65 89.49.65 6.51 1.87 11.94 1.98 19.77.05 3.67.12 21.29.01 21.77l-.07.37.75.2s14.09 3.53 17.18 4.16l1.11-26.47c-1.99 3.44-4 7.15-5.96 11.11-1.49 3.01-2.84 5.94-4.07 8.77-.25-6.43-.54-12.92-.88-19.45-1.01-19.33-2.42-38-4.13-56.35.26.32.52.65.78.99 1.48 1.95 2.78 4.35 3.95 6.5 1.92 3.52 3.96 6.81 5.77 10.52-.16-5.14-.64-10.93-.8-16.08-2.33-.83-4.65-.96-6.98-1.84-1.09-1.44-1.93-2.56-3.02-4-1.43-17.12-2.61-31.19-3.55-48.34-.44-8.07-1.01-17.89-1.66-26.26l1.96 6.26c2.64 7.46 5.37 16.37 7.59 23.97 2.52 8.66 4.34 16.66 6.64 25.07-.05-5.91.03-20.74.07-28.1-5.76-8.66-8.98-18.52-8.98-29.06-.02-5.94 1.04-11.68 2.98-17.11zm-54.45 52.26c-2.22-5.45-2.82-9.15-3.34-12.42-.63-3.95-1.18-7.37-4.2-12.25-.92-1.49-1.9-2.83-2.89-4.04 2.93 2.2 6.08 4.93 9.05 8.16.1.1.19.21.29.31 1.94 3.17 3.25 6.69 3.85 10.37.07.56.15 1.14.24 1.73.92 6.53 2.39 14.71 4.04 20.75-2.59-3.86-5.26-8.25-7.04-12.61zm13.21 70.72c-6.55-7.83-16.45-19.65-20.09-33.89-1.51-5.9-1.9-9.83-2.29-13.62-.58-5.76-1.14-11.19-5.68-21.91-1.24-2.94-2.71-5.64-4.06-7.95.75.97 1.47 1.92 2.09 2.73.8 1.05 1.55 2.04 2.27 2.96 2.86 3.68 3.66 5.63 4.42 7.52.86 2.11 1.67 4.1 4.78 7.77 1.99 2.34 5.39 5.51 9 8.38 3.43 3.43 6.65 8.02 7.55 11.98l2.41 11.03c1.51 10.09 2.91 21.85 3.87 30.28-1.11-1.51-2.56-3.24-4.27-5.28zm5.22 13.95-.08 3.83c.09 2.05-1.59 3.44-5.23 2.07-1.14-.78-2.39-1.56-3.78-2.35-3.87-2.2-7.71-3.54-10.51-4.52-.17-.06-.35-.12-.52-.18.73-.06 1.62-.11 2.73-.15 2.81-.09 5.84-.03 7.47.01 2.92.06 4.89.21 6.32.32 1.56.12 2.67.2 3.5-.1.03.35.07.71.1 1.07zm-1.96-113.38c1.83 8.87 2.89 12.74 3.39 16.18.85 5.84.53 4.71 1.68 13.02.81 5.83 1.68 11.45 2.19 17.52.14 1.7.48 5.79.02 10.8-.07.79-.31 1.41-.42 1.82-1.21-.49-3.46-1.4-4.67-1.9-4.26-28.7-8.53-55.79-12.79-84.49.99 1.34 3.46 5.05 4.7 7.71 1.71 3.69 3.45 7.51 5.9 19.34zm28.77-56.23c-1.93 13.37-1.69 28.65-.73 39.95 0 .19.02.8.1 1.77a62.663 62.663 0 0 1-5.99-9.81c-4.73-9.62-5.41-24.88-1.55-40.8 1.64-6.32 3.99-13.01 7.32-19.83 5.28-10.81 12.48-20.75 21.11-29.21a165.03 165.03 0 0 0-8.85 17.57c-5.58 12.97-9.42 26.55-11.41 40.36z"/><path class="st2" d="m287.37 336.31.43 85.48c-2.4-15.88-3.68-30.64-6.14-46.51-3.02-19.57-5.6-39.7-8.69-60.32-.18-2.68.9-4.4 2.74-5.15-6.45-3.95-12.09-8.73-16.69-14.13.35 2.55.7 5.1 1.09 8.05.99 31.57 1.71 67.64 2.64 100.06.19 6.71-.17 13.41-1.09 20.06l-.33 2.41c.79.98 1.99 1.83 2.96 2.87 1.17 1.25 4.35 3.41 5.46 4.41-.3-1.96-.72-4.02-1.18-6.12-1.77-8.07-2.71-16.3-3.01-24.56-1.09-29.91-2.19-59-3.16-89 6.64 43.25 12.24 85.5 18.88 128.75 1.92 1.01 3.98 2.01 6.2 2.98 1.63.71 3.22 1.36 4.75 1.94l-2-16.71-.29-89.94c-.01-3.07.32-7.2.85-10.22.23-1.34.68-3.58 1.03-4.74.78-2.6 1.57-5.35 4.62-7.14-3.46-.97-6.8-2.14-10.02-3.49.57 8.45.95 21.02.95 21.02zM349.2 325.68c.43 2.53.66 5.25.52 7.8-1.89 34.04-4.14 63.87-7.28 97.93-.54 5.88-1.16 10.68-1.95 16.45 1.46-.58 5.09-1.97 6.55-2.55-.28-5.11-.88-9.68-1.16-14.8.87-9.64 1.36-17.55 2.23-27.2 3.25-7.07 6.62-13.03 9.87-20.1.28 14.05.5 26.35.78 40.41-.2 6.13-.34 11.63-.54 17.76 2.46-.75 5.46-2.05 8.16-3.41 2.19-1.1 5.39-2.71 7.34-4.16-1.54-.17-3.11-3.02-3.4-4.5-.04-.19-.07-.38-.11-.58-1.48-7.69-1.92-15.51-2.21-23.33-.44-12.06-.48-23.7-.59-30.62-.33-21.99-.23-30.5-.7-47.92-.18-6.69.26-12.55.87-17.86-6.14 3.93-13.04 7.1-20.5 9.34 1.46 2.36 1.88 6.12 2.12 7.34zm3.89.19s2.29 10.92 4.68 53.29c-3.06 6.67-6.75 12.99-9.81 19.65 1.3-10.27 1.98-25.21 3.1-43.95 1.04-17.26 2.03-28.99 2.03-28.99zM473.61 280.05c-.41-.36-.95-.53-1.51-.47-1.75.17-3.89 2.64-9.85 10.45-.79 1.04-1.54 2.02-2.25 2.93-3.14 4.03-4.05 6.29-4.86 8.28-.79 1.94-1.47 3.62-4.25 6.9-1.87 2.2-5.22 5.04-8.97 7.58-2.13 1.44-3.81 2.4-5.02 3 .72-.99 1.64-2.17 2.46-3.22 3.66-4.7 8.68-11.14 11.63-18.36 2.36-5.79 2.99-9.69 3.54-13.13.6-3.76 1.08-6.73 3.76-11.07 3.86-6.24 8.84-9.74 11.24-11.41 1.37-.96 1.93-1.35 2.08-2.2.08-.45-.03-.9-.29-1.27-.18-.25-.59-.67-1.35-.72-1.71-.1-6.34 2.49-8.8 4.05-3.6 2.27-8.98 6.15-14.16 11.79-1.92 2.09-3.48 4.06-4.73 5.69 1.26-3.82 3.11-9.48 4.45-16.52 1.19-6.26 1.24-9.71 1.29-12.76.05-3.03.09-5.42 1.3-9.8 2.48-8.99 6.96-15.43 9.37-18.89.69-.99 1.23-1.76 1.58-2.38.95-1.67.46-2.6-.13-3.09-.3-.25-.82-.53-1.6-.43-2.83.37-10.64 7.26-16.46 15.57-1.19 1.7-2.25 3.35-3.18 4.92.08-4.77-.6-10.17-2.72-15.9-1.71-4.62-4-8.12-6.22-11.5-3.23-4.93-6.29-9.59-7.22-17.36-1.03-8.56 1.11-15.47 2.14-18.79.54-1.73.74-2.38.33-3.13-.22-.4-.58-.69-1.01-.82-.31-.09-.92-.16-1.55.31-1.21.9-3.39 5.28-5.06 10.19-1.66 4.86-3.65 12.54-3.73 21.58 0 .26 0 .53-.01.79-1.68-6.4-4.08-13.15-7.44-20.04-7.07-14.48-17.51-27.46-30.16-37.53-.63-.5-1.52-.47-2.12.08-.59.55-.7 1.43-.25 2.11 5.62 8.37 10.47 17.26 14.41 26.4 5.47 12.71 9.23 26.01 11.18 39.54 1.94 13.48 1.64 28.97.63 40.15-.05.29-.12.71-.23 1.24-.34-.66-.77-1.43-1.31-2.4-1.6-2.88-3.87-5.2-5.14-6.87.35.97.66 1.94.95 2.92 1.09 3.72 1.78 7.57 1.99 11.51.05.92.09 1.85.09 2.78 0 1.05-.03 2.1-.1 3.14-.1 1.6-.3 3.17-.54 4.74v.01c-.07.47-.13.93-.22 1.4-.12.63-.27 1.26-.41 1.88-.03.12-.05.23-.08.35-.22.95-.47 1.89-.75 2.82v.01c-.04.15-.09.3-.13.45-.3.98-.62 1.95-.98 2.91-.04.13-.09.26-.14.39-.3.79-.63 1.56-.96 2.34v.01c-.04.1-.08.19-.12.29a55.165 55.165 0 0 1-4.45 8.15c-.01.01-.02.03-.03.04-3.65 5.54-8.32 10.57-13.81 14.93.6 10.26.34 31.81.65 35.67 3.31-10.33 9.59-32.86 13.57-41.78l.07-.09c.75 46.49-.28 51.22-2.33 87.01-.27 4.76-2.1 23-2.97 27.69-1.03 5.54-1.31 9.3-5.23 18.86l3.64-2.62c1.57-1.12 2.87-2.27 4.27-3.59 1.14-1.08 1.83-1.82 3.82-2.51h.01c1.19-.45 2.4-.83 3.64-1.13.61-.15 1.31-.31 2.02-.48l-.75-20.74c3.19-48.22 4.85-92.8 8.07-140.95.28-4.2 1.4-12.07 5.49-5.78 3.17 5.5 6.05 10.35 7.33 25.37.97 13.73.74 23.83.55 31.45-.2 8.05-.17 32.38-8.07 83.89-1.61 10.5-2.26 14.56-7.87 25.35 3.7-1.16 8.79-3.48 10.87-4.74 3.18-1.92 5.37-3.85 6.32-4.73 2.49-2.31 4.04-4.36 5.42-6.2.84-1.12 1.39-1.94 1.81-2.62 4.33-5.49 8.54-10.68 16.19-15.02 3.62-2.06 7.29-3.34 9.98-4.27 1.37-.48 2.44-.85 3.25-1.23.56-.26 2.26-1.06 1.96-2.73-.35-1.93-2.88-2.4-7.42-2.6-3.15-.14-6.69-.07-8.59-.03-3.02.06-5.11.22-6.5.33-.59.05-1.17.09-1.58.1.13-.4.46-1.13 1.26-2.37 1.04-1.61 2.58-3.64 4.36-5.99 6.09-8.03 15.3-20.16 19.04-34.81 1.26-4.95 1.98-8.57 2.61-11.77 1.32-6.68 2.28-11.5 7.19-23.1 1.73-4.09 3.89-7.64 5.62-10.5.96-1.59 1.8-2.97 2.3-4.04.35-.71 1.26-2.65-.12-3.86zm-63.92-64.94c-1.16 11.37-2.21 20.02-6.06 32.78.75-10.91.79-24.71-.97-36.91-1.99-13.81-5.83-27.39-11.41-40.35a165.03 165.03 0 0 0-8.85-17.57c8.63 8.46 15.84 18.4 21.11 29.21 1.18 2.42 2.24 4.82 3.18 7.19-.1-.12-.19-.24-.29-.36 4.19 10.12 3.65 22.45 3.29 26.01zm29.22 46.84c.02.03.04.06.07.08 2.36 3.03 1.2 10.74.78 14.16-.23.71-.45 1.36-.65 1.97-.57 1.73-1.02 3.09-1.27 4.11-.18.74-.65 2.71.9 3.48 1.44.72 2.66-.61 3.06-1.05.57-.62 1.23-1.5 2.08-2.62 1.33-1.76 3.15-4.17 5.49-6.72 2.98-3.24 6.13-5.96 9.05-8.16-.99 1.21-1.96 2.55-2.89 4.04-3.02 4.88-3.56 8.3-4.2 12.25-.52 3.27-1.12 6.97-3.34 12.42-2.78 6.81-5.39 10.84-8.94 15.39-.46.59-.9 1.16-1.31 1.69-1.18 1.41-2.99 4.17-3.75 5.6-.86 1.63-2.05 4.48-4.4 5.86l-3.09 1.41 3.23-66.89c.36-3.37 7.07.32 9.18 2.98zm-19.3-30.04c-.02-.34-.06-.73-.12-1.16-1.27-9.22-2.48-18.17-2.44-27.48 0-1.04.01-2.09.02-3.15.05-6.01 1.01-11.53 2.23-16.12-.12 2.22-.07 4.62.23 7.14 1.02 8.52 4.43 13.72 7.72 18.75 2.12 3.23 4.31 6.57 5.89 10.85 1.96 5.3 2.59 10.3 2.51 14.73-.1 5.77-1.74 11.46-5.09 16.16-1.31 1.84-2.65 3.24-3.75 4.04-2.55 1.87-7.34 3.51-9.79 2.98-6.47-1.82 3.45-8.55 2.59-26.74zm43.24 65.3c-5.04 11.9-6.02 16.86-7.39 23.73-.63 3.16-1.33 6.73-2.58 11.6-3.58 14.02-12.55 25.84-18.49 33.66-2.89 3.8-5 6.59-5.9 8.75-1 1.72-1.99 3.67-2.44 4.76-2.83 7.43-4.48 15.43-7.32 22.86 3.17-26.54 5.68-47.16 7.57-74.24 2.91-.62 5.9.08 8.65 1.23l5.52 2.32s-.18-5.5-.1-7.63c.09-2.59 1.96-4.74 4.05-6.33 3.69-2.57 6.99-5.41 8.92-7.68 3.11-3.67 3.92-5.66 4.78-7.77.77-1.89 1.56-3.84 4.42-7.52.71-.92 1.47-1.91 2.27-2.96.62-.81 1.34-1.76 2.09-2.73-1.34 2.3-2.81 5.01-4.05 7.95z"/></g><path style="fill:none" d="M0 0h480v400H0z"/></svg>