<svg xmlns="http://www.w3.org/2000/svg" viewBox="0 0 283.46 283.46" style="enable-background:new 0 0 283.46 283.46" xml:space="preserve"><style>.st0{fill:#ffd500}</style><g id="Layer_1"><circle class="st0" cx="141.73" cy="141.73" r="141.73"/><linearGradient id="SVGID_1_" gradientUnits="userSpaceOnUse" x1="141.638" y1="278.724" x2="141.638" y2="4.706"><stop offset="0" style="stop-color:#006eae"/><stop offset=".203" style="stop-color:#006cad"/><stop offset=".387" style="stop-color:#0067a8"/><stop offset=".564" style="stop-color:#005e9f"/><stop offset=".736" style="stop-color:#005193"/><stop offset=".904" style="stop-color:#004084"/><stop offset="1" style="stop-color:#13357a"/></linearGradient><path d="M145.66 278.66C70.02 280.88 6.91 221.37 4.69 145.74 2.47 70.1 61.98 6.99 137.62 4.77c75.63-2.22 138.75 57.29 140.97 132.93 2.22 75.63-57.3 138.74-132.93 140.96z" style="fill:url(#SVGID_1_)"/><path class="st0" d="M138.2 247.72c3.52-9.44 2.65-38.72 2.56-42.23-.3-10.58-.46-16.74-1.44-24.81-.54-4.44-1.98-15.32-6.83-16.25-.64-.12-1.95-.16-3.11.65-1.56 1.09-3.14 4.18-3.78 6.73-.97 3.86-1.53 9.84-1.53 9.84-.39 4.34-.43 5.65-.49 21.89-.06 15.68.53 19.67 1.33 29.02 0 0 .23 4 2.26 11.59.98 3.66 2.92 6.35 4.84 7.55.6.38 2.27.65 3.26-.02 1.73-1.19 2.54-2.94 2.93-3.96zm-5-10.53c-1.09-3.42-1.26-4.13-2.5-10.12-.99-4.77-1.57-8.23-2.36-13.97-1.23-8.92-.66-8.04-1.85-17.52 0 0-1.6-12.81-.04-21.62.11-.61.34-1.67.84-1.79.72-.18 1.62 1.64 2.28 3.14 2.49 5.65 3.52 11.01 3.71 12.04 1.22 6.55 1.83 9.82 2.07 11.34 1.48 9.55 2.06 16.49 2.18 17.99.32 3.95.47 6.75.6 10.49.21 6.06.26 6.85.24 8.2 0 0 .02 2.8-.59 7.32-.07.56-.42 1.91-.83 2-.46.11-.99-.82-1.42-1.68-1.87-3.62-2.33-5.82-2.33-5.82z"/><path class="st0" d="M141.6 159.02c1.04 9.85 1.95 21.67 2.23 26.14 1.05 16.42.94 22.16.85 46.52-.04 10.19-2.02 22.16-7.63 34.59 5.84-9.88 12.43-14.43 15.01-15.86-.37-5.78.1-11.28.43-17.07l4.16-87.79c.99-17.42 4.04-19.51 5.31-21.16 4.02-5.25 5.21-10.1 4.91-10.3-.21-.14-1.19 2.28-3.99 4.46-2.51 1.95-4.7 2.66-7.82 2.81l-.13 10.03c.01-.01.01-.01.02-.01-.17 10.89-1 29.12-1.17 35.58-.97 25.48-2.86 52.85-4.43 79.08l-1.41-110.41c.01 0 .01 0 .02-.01l-.12-14.01c-4.85.23-8.79.72-12.71 2.03-4.1 1.36-12.12 5.03-14.64 17.25 3.44-5.3 6.95-8.24 11.02-8.24 3.91 0 7.96 5.63 10.09 26.37zM102.95 254.02c-1.02-.34-1.88-.39-2.58-.14-.71.25-1.19.77-1.46 1.56-.26.77-.21 1.44.16 2.01.37.57 1.04 1.02 2.01 1.35l2.39.81-.67 1.97-4.81-1.63-.42 1.25 6.3 2.14 2.74-8.08-3.66-1.24zm.9 4.43-2.08-.7c-1.18-.4-1.62-1.01-1.34-1.85.14-.42.4-.7.78-.82s.85-.08 1.43.11l2.08.71-.87 2.55zM95.12 250.95c-.41-.19-.8-.25-1.17-.18-.36.07-.72.27-1.07.6-.35.33-.7.76-1.05 1.31-.35.54-.72 1.19-1.1 1.93l-.96 1.9-3.04-1.41 3.03-6.52-1.43-.66-3.6 7.73 5.69 2.65 1.6-3.14c.37-.72.71-1.3 1.02-1.76.31-.46.61-.77.91-.93.3-.17.6-.18.92-.03.12.05.22.12.31.2l.69-1.21a2.7 2.7 0 0 0-.38-.27c-.12-.09-.25-.15-.37-.21zM80.77 246.01l-3.64-2.22.31-2.12-1.42-.87-1.16 9.29 1.33.81 7.72-5.28-1.38-.84-1.76 1.23zm-1.1.78-3.31 2.35.58-4.02 2.73 1.67zM66.36 242.66 63 240.11l-.82 1.06 4.61 3.5 5.16-6.79-1.25-.95zM62.96 232.17c-.03-.57-.18-1.13-.45-1.68-.27-.54-.64-1.04-1.12-1.49-.48-.45-1-.78-1.56-1a4.18 4.18 0 0 0-1.69-.31c-.57.01-1.12.14-1.65.38-.53.24-1.01.59-1.44 1.05-.43.47-.74.97-.94 1.52-.2.55-.28 1.11-.24 1.67.03.57.18 1.12.45 1.66.27.54.64 1.03 1.12 1.48.49.45 1.01.79 1.57 1.01.56.22 1.13.32 1.7.32.57-.01 1.12-.13 1.65-.37.53-.24 1.01-.59 1.44-1.05.42-.46.73-.96.93-1.51.18-.54.26-1.1.23-1.68zm-1.69 1.08c-.13.37-.35.72-.64 1.03-.3.32-.63.56-.98.72-.36.16-.73.25-1.11.27-.38.02-.76-.04-1.13-.19-.37-.14-.71-.36-1.03-.65-.32-.29-.56-.61-.72-.97a2.84 2.84 0 0 1-.28-1.1c-.02-.38.04-.76.18-1.12.14-.37.36-.71.66-1.03.3-.32.63-.57.98-.73a2.893 2.893 0 0 1 2.23-.09c.36.14.71.35 1.02.65.32.29.56.62.73.98.17.36.26.73.28 1.11 0 .37-.06.74-.19 1.12zM54.01 223.87l2.4-2.05-.96-1.12-1.37 1.19-4.28-4.95 1.37-1.19-.96-1.11-2.39 2.06.8.93-5.44 4.7 4.09 4.73 2.1-1.69c.51-.41.99-.77 1.44-1.08.45-.32.87-.56 1.25-.74.38-.18.72-.27 1.02-.26.3 0 .55.13.74.36l.19.22zm-1.92-1.75c-.31.06-.66.19-1.03.39s-.77.45-1.19.74c-.42.29-.85.62-1.29.98l-1.18.94-2.18-2.53 4.43-3.82 2.83 3.28c-.12-.01-.25-.01-.39.02z"/><path transform="rotate(-35.708 41.836 213.485)" class="st0" d="M37.56 212.7h8.53v1.57h-8.53z"/><path class="st0" d="m40.62 204.04-7.52-.87 5.2-3.07-.8-1.35-7.34 4.33.75 1.27 7.54.87-5.22 3.08.8 1.35 7.35-4.33zM30.37 205.48c-.46-.16-.93-.11-1.41.17l.56.94c.26-.15.52-.17.76-.09.24.09.45.28.63.58.18.3.25.58.2.83-.04.25-.19.46-.44.62l.56.94c.48-.29.76-.67.84-1.15.08-.48-.07-1.03-.44-1.66-.39-.62-.81-1.02-1.26-1.18zM34.1 191.92l-3.35 1.48-1.78-4.03 3.34-1.48-.64-1.44-7.8 3.45.64 1.44 3.22-1.43 1.79 4.04-3.22 1.42.64 1.45 7.8-3.45zM29.1 179.35l-7.13-2.57 5.77-1.79-.46-1.5-8.15 2.53.44 1.41 7.14 2.57-5.78 1.8.47 1.5 8.14-2.53zM25.54 166.15l-6.78-3.38 5.94-1.11-.29-1.55-8.38 1.58.27 1.45 6.8 3.38-5.95 1.12.29 1.54 8.38-1.57zM15.41 164.01c-.37-.31-.83-.42-1.39-.32l.2 1.08c.3-.05.54.01.74.18.2.17.33.42.39.76s.04.63-.09.85c-.12.22-.33.36-.63.43l.2 1.08c.55-.11.94-.38 1.18-.8.24-.42.29-.99.15-1.71-.12-.72-.38-1.24-.75-1.55zM14.21 143.26h.87c.05.84.19 1.57.43 2.18.3.75.72 1.32 1.28 1.72.56.4 1.24.59 2.03.59.8 0 1.47-.21 2.02-.61s.97-.98 1.25-1.73c.23-.62.36-1.35.4-2.19h.92l-.01-1.46h-.92c-.04-.86-.18-1.61-.43-2.23-.29-.73-.72-1.29-1.28-1.67-.56-.38-1.23-.57-2.01-.57-.8 0-1.47.2-2.03.6-.55.39-.98.96-1.26 1.71-.24.62-.37 1.36-.41 2.21h-.87l.02 1.45zm6.82 1.24c-.18.55-.46.96-.83 1.25-.37.29-.83.44-1.39.44-.56 0-1.03-.13-1.4-.4-.37-.27-.65-.68-.83-1.23-.13-.37-.19-.83-.24-1.32l4.91-.02c-.04.48-.1.92-.22 1.28zm-4.46-4.07c.18-.53.46-.93.82-1.21.36-.28.82-.42 1.36-.42.55 0 1.02.13 1.39.4.38.27.66.67.85 1.2.14.38.21.85.25 1.36l-4.92.03c.05-.51.11-.98.25-1.36zM16.14 130.43c.34.46.77.83 1.27 1.12.5.29 1.07.47 1.7.54.62.07 1.21.03 1.76-.14.55-.16 1.05-.43 1.5-.79.44-.37.81-.82 1.09-1.35.28-.54.46-1.13.54-1.78.08-.65.04-1.27-.11-1.85-.15-.58-.4-1.1-.74-1.55a4.243 4.243 0 0 0-2.97-1.65 4.57 4.57 0 0 0-1.78.13c-.56.16-1.06.43-1.5.79-.44.36-.8.81-1.08 1.34s-.46 1.12-.53 1.78c-.08.66-.04 1.28.11 1.87.15.56.4 1.08.74 1.54zm.53-3.26c.05-.43.17-.81.36-1.15.19-.34.43-.63.73-.87s.64-.41 1.02-.51c.38-.1.79-.13 1.22-.08.44.05.83.17 1.17.36a2.824 2.824 0 0 1 1.38 1.74c.1.38.13.78.08 1.21-.05.43-.17.82-.36 1.17-.19.35-.43.64-.73.88-.3.23-.64.41-1.02.52-.38.11-.78.14-1.21.09a2.98 2.98 0 0 1-2.04-1.11c-.24-.3-.41-.64-.51-1.02-.12-.4-.14-.81-.09-1.23zM25.76 116.59l-3.56-.84 1.02-4.3 3.55.84.37-1.52-8.3-1.97-.37 1.53 3.43.81-1.01 4.3-3.43-.81-.36 1.54 8.3 1.96zM25.3 102.95c.5.24.92.48 1.26.73.34.24.59.5.73.76s.16.54.05.83l-.1.26 2.96 1.08.5-1.39-1.71-.62 2.22-6.15 1.71.62.5-1.38-2.97-1.07-.42 1.16-6.76-2.44-2.12 5.88 2.5 1.01c.6.24 1.15.48 1.65.72zM24 97.27l5.5 1.98-1.47 4.08c-.05-.11-.11-.22-.21-.33-.2-.25-.49-.48-.85-.71-.36-.22-.77-.45-1.23-.67-.46-.22-.95-.44-1.48-.65l-1.4-.57L24 97.27zM33.96 80.8l-2.91-1.71-.62 1.13 3 1.55zM32.83 82.86l-2.91-1.71-.62 1.13 3 1.55zM36.03 73.55c.13-.39.3-.74.51-1.05.2-.31.43-.56.67-.76.24-.2.48-.32.73-.36.25-.05.48 0 .69.15.29.19.44.45.45.78.01.32-.12.68-.39 1.08l-1.03 1.55 1.04.7L39.79 74c.31-.46.63-.76.96-.91.33-.15.66-.12.97.09.26.17.41.41.47.7.06.3.03.62-.07.98-.1.35-.28.71-.52 1.05-.24.35-.54.67-.89.96-.35.29-.74.52-1.15.68l.69 1.07a6 6 0 0 0 1.37-.84c.42-.34.78-.73 1.09-1.15.31-.42.55-.85.72-1.3.17-.44.28-.88.3-1.31.03-.43-.03-.82-.19-1.17-.15-.35-.4-.64-.75-.87a2.06 2.06 0 0 0-1.16-.36c-.41 0-.8.13-1.19.37-.1.06-.18.15-.27.22.01-.04.03-.08.03-.11.06-.41.02-.78-.13-1.13a1.99 1.99 0 0 0-.72-.86c-.38-.25-.78-.36-1.19-.32-.42.04-.83.19-1.25.44-.41.26-.8.6-1.14 1.03-.35.43-.64.92-.87 1.47s-.38 1.13-.43 1.75l1.32.3c.03-.43.11-.84.24-1.23zM48.4 68.47l-.98-1.91 2.72-3.28 2.06.61 1.07-1.28-9.02-2.48-1 1.2 4.11 8.4 1.04-1.26zm-1.59-3.11-1.85-3.62 3.89 1.15-2.04 2.47zM57.84 57.89l-2.54-2.63 3.18-3.06 2.54 2.64 1.13-1.09-5.91-6.15-1.14 1.09 2.44 2.54-3.17 3.05-2.44-2.53-1.15 1.1 5.92 6.14zM63.65 46.79a4.29 4.29 0 0 0 2.93 1.7c.57.07 1.15.01 1.73-.15.58-.17 1.13-.45 1.66-.85.52-.4.94-.85 1.26-1.36a4.19 4.19 0 0 0 .51-3.3c-.14-.56-.4-1.09-.79-1.6-.38-.5-.83-.9-1.33-1.19-.51-.29-1.04-.46-1.61-.53-.57-.06-1.14-.01-1.71.16-.58.17-1.13.45-1.65.85-.53.4-.95.86-1.26 1.38a4.63 4.63 0 0 0-.61 1.62c-.09.56-.06 1.13.08 1.69.14.54.4 1.08.79 1.58zm.64-3.2c.05-.38.17-.74.38-1.08.21-.34.48-.64.82-.9.34-.26.7-.44 1.08-.55.38-.1.75-.13 1.13-.08.38.05.74.17 1.08.38.34.2.64.48.91.83s.45.71.55 1.1c.1.38.13.76.08 1.14-.05.38-.18.73-.37 1.07-.2.34-.47.63-.81.89-.34.26-.7.45-1.09.55-.38.11-.76.14-1.14.08-.38-.05-.74-.18-1.08-.38-.34-.2-.65-.47-.91-.81-.27-.35-.45-.71-.54-1.09-.11-.39-.14-.77-.09-1.15zM81.54 39.55c.92-.55 1.51-1.14 1.76-1.78.25-.64.19-1.28-.2-1.92-.37-.62-.88-.96-1.51-1.01-.31-.03-.65.01-1 .12.12-.17.23-.34.3-.52.24-.58.19-1.17-.17-1.77-.37-.61-.88-.94-1.53-.99-.65-.05-1.4.17-2.23.67l-3.27 1.96 4.38 7.32 3.47-2.08zm-5.87-5 1.82-1.09c.44-.26.83-.38 1.16-.34.33.04.6.23.81.57.2.34.24.67.12.98-.13.31-.41.6-.85.86l-1.82 1.09-1.24-2.07zm3.91 1.82c.48-.29.9-.41 1.24-.38.35.03.63.23.84.58.23.38.27.73.14 1.05-.13.32-.44.63-.92.91l-2.08 1.24-1.29-2.16 2.07-1.24zM87.85 33.17c.43.39.91.68 1.45.87.54.19 1.11.27 1.72.24.6-.03 1.21-.19 1.81-.46.6-.27 1.11-.62 1.53-1.05s.74-.91.95-1.44a4.3 4.3 0 0 0 .3-1.67c-.01-.58-.15-1.16-.41-1.73s-.61-1.06-1.03-1.46c-.43-.39-.91-.69-1.45-.88a4.2 4.2 0 0 0-1.7-.23c-.6.04-1.2.19-1.8.46-.61.27-1.12.63-1.54 1.06s-.74.91-.95 1.44c-.21.53-.32 1.08-.3 1.66.01.58.15 1.16.41 1.73.24.59.58 1.07 1.01 1.46zm.32-4.41c.13-.36.34-.68.61-.97.28-.29.61-.52 1-.7.39-.18.78-.27 1.17-.29.39-.02.76.04 1.12.17s.68.33.96.61c.28.27.52.61.7 1.01.18.4.28.8.29 1.19s-.05.77-.18 1.12c-.13.35-.33.67-.6.96-.27.28-.6.51-.99.69s-.79.28-1.18.3c-.4.02-.77-.04-1.13-.18a2.999 2.999 0 0 1-1.67-1.6c-.18-.4-.28-.8-.28-1.19-.02-.38.05-.76.18-1.12zM103.08 24.17l-1-3.22-1.22.42 1.18 3.16zM100.86 24.93l-1-3.22-1.23.42 1.18 3.16zM187.79 23.31c-.46-.42-1.02-.75-1.67-.99-.62-.22-1.22-.33-1.82-.32-.59.01-1.15.14-1.68.37-.53.23-.99.56-1.38.98-.39.42-.7.93-.92 1.53-.22.6-.31 1.19-.28 1.77.03.57.17 1.12.42 1.63.25.51.6.97 1.04 1.36.45.39.98.7 1.6.92.66.24 1.31.35 1.93.31.63-.03 1.21-.2 1.74-.51l-.63-1.25c-.41.21-.83.33-1.24.36-.42.03-.83-.04-1.24-.19-.42-.15-.78-.36-1.08-.62-.3-.26-.53-.57-.69-.91a2.98 2.98 0 0 1-.28-1.11c-.02-.4.05-.8.19-1.21.15-.41.36-.76.63-1.05.27-.29.58-.52.93-.67.35-.16.72-.24 1.12-.25.4-.01.81.06 1.23.21.41.15.77.37 1.07.66.3.29.54.64.73 1.06l1.29-.55c-.21-.61-.55-1.11-1.01-1.53zM200.26 28.67l-1.56 3.16-3.96-1.96 1.56-3.16-1.42-.7-3.78 7.65 1.42.7 1.62-3.28 3.96 1.96-1.62 3.27 1.41.7 3.78-7.64zM205.2 38.99l3.59 2.31-.36 2.12 1.4.9 1.37-9.26-1.31-.84-7.84 5.1 1.36.88 1.79-1.21zm1.13-.75 3.37-2.27-.67 4-2.7-1.73zM221.32 48.35c.51-.16.96-.49 1.35-.98.4-.49.63-1.01.68-1.55.06-.54-.05-1.07-.32-1.59-.27-.53-.7-1.03-1.29-1.5l-2.73-2.2-5.35 6.64 1.23.99 1.56-1.93 1.5 1.21c.09.07.18.13.27.2l-.21 3.04 1.33 1.07.23-3.41c.04.01.09.03.13.04.57.14 1.12.13 1.62-.03zm-4.04-3.14 2.13-2.65 1.44 1.16c.54.44.86.88.95 1.34s-.03.89-.37 1.3c-.34.42-.74.63-1.2.64-.46.01-.97-.2-1.51-.64l-1.44-1.15z"/><path transform="rotate(-46.224 226.799 52.845)" class="st0" d="M222.52 52.05h8.53v1.58h-8.53z"/><path class="st0" d="m229.8 62.06 1.06 1.18 5.35-4.8 1.89 2.1 1-.89-4.84-5.39-.99.9 1.88 2.1zM235.8 69.16l2.09-.48 2.52 3.44-1.09 1.85.99 1.35 4.6-8.15-.92-1.26-9.15 1.95.96 1.3zm3.41-.79 3.96-.92-2.06 3.5-1.9-2.58zM245 83.01c.55.95 1.14 1.56 1.77 1.84.63.28 1.26.23 1.89-.13.43-.25.73-.55.91-.91.18-.36.25-.74.21-1.16-.01-.11-.05-.22-.07-.34.32.21.66.32 1.03.34.38.02.77-.08 1.17-.31.58-.34.91-.84.99-1.5.08-.67-.14-1.44-.64-2.32l-2.01-3.47-7.38 4.27 2.13 3.69zm3 .26c-.37.22-.72.24-1.05.06-.33-.18-.64-.52-.93-1.02l-1.29-2.22 2.13-1.23 1.29 2.22c.29.51.43.95.42 1.32-.01.36-.2.66-.57.87zm3.09-4.28c.27.47.4.89.38 1.24-.02.36-.2.64-.54.84-.34.2-.67.21-.98.05-.32-.16-.62-.48-.89-.95l-1.12-1.94 2.03-1.18 1.12 1.94zM251.53 96.23l1.22-.55-1.83-4.07 6.56-2.95-.65-1.45-7.78 3.51zM255.37 106.91l1.27-.43-1.54-4.56 2.21-.75 1.32 3.9 1.24-.41-1.32-3.91 2.09-.7 1.48 4.4 1.27-.43-1.99-5.9-8.08 2.73zM258.65 120.7l3.23-.55.69 4.07 1.3-.22-.69-4.06 2.56-.44.77 4.58 1.32-.22-1.03-6.14-8.41 1.42zM260.96 131.33c-.61.7-.89 1.63-.81 2.79.07 1.17.46 2.06 1.16 2.68s1.67.89 2.92.81l4.79-.3-.1-1.56-4.74.3c-.88.06-1.52-.09-1.94-.44-.42-.35-.65-.87-.7-1.55-.04-.69.12-1.23.49-1.64.37-.4 1-.63 1.87-.69l4.74-.3-.1-1.58-4.79.3c-1.25.09-2.18.48-2.79 1.18zM269.06 144.15l-8.51-.41-.08 1.57 5.77.28-6 4.4-.07 1.3 8.52.42.08-1.56-5.78-.28 6.01-4.41zM258.94 160.92c-.15.9-.1 1.72.13 2.47.23.75.64 1.37 1.21 1.86s1.28.8 2.12.94c.84.14 1.61.07 2.31-.21s1.28-.74 1.74-1.37c.46-.64.77-1.4.92-2.3l.61-3.69-8.42-1.39-.62 3.69zm1.34.13.33-2.03 5.77.95-.33 2.03c-.1.63-.31 1.16-.63 1.58-.32.42-.71.73-1.18.92-.47.19-1 .24-1.59.14-.58-.09-1.06-.31-1.45-.64a2.68 2.68 0 0 1-.83-1.25c-.17-.5-.2-1.07-.09-1.7zM259.63 179.92l3.18 1.15.4-1.22-3.23-.98zM258.9 182.16l3.17 1.15.4-1.23-3.23-.97zM251.43 187.31l2.28.99-.76 1.77c-.05.1-.08.21-.12.31l-2.99.61-.68 1.57 3.35-.69c0 .05-.01.09-.01.14.01.59.16 1.11.45 1.56.29.45.73.79 1.3 1.04.58.25 1.14.33 1.67.25.53-.09 1.02-.33 1.45-.73.43-.4.8-.95 1.1-1.64l1.39-3.22-7.83-3.38-.6 1.42zm5.87 4.55c-.28.64-.62 1.06-1.03 1.27-.41.21-.86.2-1.36-.01-.49-.21-.81-.54-.94-.98-.14-.44-.06-.99.21-1.63l.73-1.7 3.12 1.35-.73 1.7zM243.63 202.85l1.17.66 2.36-4.2 2.04 1.15-2.02 3.59 1.14.64 2.01-3.59 1.93 1.08-2.28 4.04 1.17.66 3.05-5.43-7.43-4.17zM239.82 208.74l4.71 3.36-7.44.46-.75 1.06 6.94 4.95.91-1.27-4.71-3.36 7.44-.47.75-1.06-6.94-4.95zM236.18 220.69a4.34 4.34 0 0 0-1.52-.91c-.55-.19-1.11-.26-1.68-.22-.57.04-1.13.2-1.67.47s-1.03.65-1.47 1.14c-.44.49-.77 1.01-.99 1.57s-.31 1.13-.29 1.7c.02.57.15 1.12.39 1.65.24.53.6 1 1.07 1.43.47.43.98.73 1.53.92a4.2 4.2 0 0 0 1.68.23c.57-.04 1.12-.2 1.65-.47.54-.27 1.02-.65 1.47-1.14.45-.49.78-1.02.99-1.58s.31-1.13.3-1.7c-.01-.57-.14-1.12-.38-1.65-.26-.54-.61-1.02-1.08-1.44zm-.23 4.39c-.14.37-.35.72-.64 1.04-.29.32-.61.56-.96.73-.35.17-.72.27-1.1.29-.38.02-.76-.04-1.13-.17a3.12 3.12 0 0 1-1.04-.65 2.99 2.99 0 0 1-1.02-2.08c-.02-.38.04-.75.17-1.12.13-.37.35-.71.63-1.03.29-.32.61-.57.97-.74.36-.18.73-.27 1.11-.29.38-.02.76.04 1.13.17.37.13.72.34 1.04.63.33.29.57.62.73.98.16.36.26.73.28 1.11.03.38-.03.75-.17 1.13zM220.12 230.9l2.94 8.83 1.16-1.05-2.24-6.82 6.5 3 1.28-1.15-8.48-3.86zM213.61 236.26l.47 2.1-3.46 2.5-1.84-1.11-1.35.98 8.11 4.66 1.26-.91-1.88-9.16-1.31.94zm.76 3.42.88 3.96-3.48-2.09 2.6-1.87zM205.84 250.1l-3.62-6.21-1.37.8 3.62 6.21-2.44 1.42.68 1.16 6.25-3.65-.68-1.15zM188.24 251.02l.56 1.21 4.37-2.01.98 2.13-3.74 1.72.54 1.18 3.75-1.72.92 2.01-4.22 1.94.56 1.21 5.66-2.6-3.57-7.75zM184.16 258.11l1.05 3.21 1.21-.44-1.21-3.15zM181.95 258.9l1.04 3.21 1.22-.44-1.22-3.14zM137.05 18.51l-.05-1.33c1.63-.07 3.26-.1 4.84-.1 1.5 0 3.06.03 4.62.09l-.05 1.33c-1.54-.06-3.08-.09-4.57-.09-1.57 0-3.18.03-4.79.1z"/><path class="st0" d="m137.05 18.51-.05-1.33c1.63-.07 3.26-.1 4.84-.1 1.5 0 3.06.03 4.62.09l-.05 1.33c-1.54-.06-3.08-.09-4.57-.09-1.57 0-3.18.03-4.79.1zM91.86 108.84a19.808 19.808 0 0 0-3.58 5.18c-.33.7-.6 1.38-.83 2.02-.83-7.77-1.18-19.37.26-29.37 1.34-9.31 3.93-18.46 7.69-27.21 2.71-6.3 6.05-12.41 9.91-18.17.31-.46.24-1.07-.17-1.45a1.11 1.11 0 0 0-1.46-.05c-8.71 6.93-15.89 15.86-20.76 25.83-2.27 4.64-3.9 9.2-5.05 13.52v-.28c-.05-6.22-1.43-11.51-2.57-14.85-1.15-3.37-2.65-6.39-3.48-7.01-.44-.33-.86-.28-1.07-.22-.3.09-.55.29-.7.56-.28.52-.14.96.23 2.16.71 2.28 2.18 7.03 1.47 12.93-.64 5.35-2.74 8.55-4.97 11.95-1.53 2.33-3.1 4.73-4.28 7.92-1.43 3.86-1.81 7.77-1.64 11.39a46.61 46.61 0 0 0-2.42-3.83c-4.01-5.72-9.38-10.46-11.32-10.71-.54-.07-.9.12-1.1.29-.4.34-.74.98-.09 2.12.24.42.61.96 1.09 1.64 1.66 2.38 4.74 6.81 6.45 13 .83 3.01.86 4.66.89 6.74.03 2.1.07 4.48.89 8.78.92 4.84 2.19 8.73 3.06 11.36-.86-1.12-1.94-2.48-3.26-3.92a48.733 48.733 0 0 0-9.75-8.12c-1.69-1.07-4.87-2.85-6.05-2.78-.52.03-.8.32-.93.49-.18.25-.25.56-.2.87.1.58.49.85 1.43 1.51 1.65 1.15 5.08 3.56 7.74 7.85 1.84 2.98 2.17 5.03 2.59 7.61.38 2.37.81 5.05 2.44 9.03 1.95 4.77 5.27 9.46 7.7 12.88.63.89 1.34 1.89 1.89 2.73-.06-.02-.11-.03-.16-.04-.78-.49-1.82-1.22-3.15-2.27-2.49-1.96-4.87-4.15-6.21-5.73-1.91-2.26-2.38-3.41-2.93-4.75-.56-1.37-1.19-2.92-3.35-5.7-.49-.62-1-1.3-1.55-2.02-4.1-5.38-5.57-7.07-6.78-7.19-.39-.04-.76.08-1.04.33-.95.84-.32 2.17-.08 2.67.35.74.92 1.68 1.59 2.78 1.19 1.96 2.67 4.41 3.86 7.22 2.99 7.07 3.34 10.48 3.74 14.43.26 2.57.56 5.48 1.63 9.7 2.63 10.29 9.63 18.66 14.27 24.2 1.26 1.51 2.35 2.81 3.11 3.86.55.76.8 1.23.91 1.5-.28-.01-.65-.04-1.03-.07-.96-.07-2.4-.18-4.48-.23-1.31-.03-3.74-.08-5.91.02-3.13.14-4.87.47-5.11 1.79-.04.23-.08.83.51 1.36.2.18.47.35.84.52.55.26 1.3.52 2.24.85 1.85.64 4.38 1.53 6.87 2.94 5.32 3.02 7.49 5.86 10 9.14.86 1.13 1.75 2.29 2.81 3.51 2.78 3.48 2.72 2.94 2.94 2.84.49-.24.09-1.84-.04-2.24-.09-.3-.18-.62-.27-.94l.02-.02a.138.138 0 0 1-.03-.04c-3.96-14.34-6.86-48.62-7.7-51.31-.02-.06-.19-.74-.07-.61 0 0 .42.38 1.41 1.58.05.07.15.23.23.38.17.33.55 1.27.56 1.31.29 1.13 4.69 22.02 7.12 36.88.18 1.11.3 1.89.41 2.77.97 7.59.85 12.27.82 12.91-.03.59-.14 1.67-.12 1.79l1.38.76c1.52.85 5.82 3.12 5.82 3.12l-.1-.3c-.34-1.02-.62-2.06-.85-3.12-.41-1.89-1.26-5.42-1.36-5.94-.13-.66-3.79-25.47-5.79-36.03-.39-2.05-.72-4.51-2.43-13.77-.01-.04-.17-.3-.11-.61.04-.2.15-.33.17-.35 2.01-2.51 1.96-10.19 1.96-10.19-.06-9.98-1.03-15.25-1.03-15.25-2.64-14.43-7.59-25.43-9.55-29.56-.56-1.17-1.11-2.29-1.67-3.37-.04-.11-.11-.28-.15-.39-.19-.79-.36-1.62-.51-2.48-.94-5.45-.59-10.44 1.03-14.84 1.09-2.94 2.6-5.24 4.05-7.47 2.27-3.46 4.61-7.03 5.31-12.9.21-1.73.24-3.38.16-4.91.84 3.16 1.5 6.96 1.53 11.09.06 7.22-1.76 13.06-2.74 16.19-.08.24-.15.46-.21.67-.17.52-.29.93-.34 1.21-.01.03-.01.06-.02.09-.02.07-.03.14-.04.21-.85 4.91.36 11.6 2.08 19.27 1.67 7.45 2.07 15.13 3.43 22.64 1.15 6.3 1.3 8.33 6.64 61.58.45 4.48 1.29 8.21 1.37 13.61.04 2.53.08 14.65.01 14.98l-.05.26.51.14s9.7 2.43 11.82 2.86l.77-18.22c-1.37 2.37-2.75 4.92-4.1 7.65a142.34 142.34 0 0 0-2.8 6.04 953.264 953.264 0 0 0-3.45-52.16c.18.22.36.45.54.68 1.02 1.34 1.91 2.99 2.72 4.47 1.32 2.42 2.72 4.68 3.97 7.24-.11-3.54-.44-7.52-.55-11.06-1.6-.57-3.2-.66-4.8-1.26l-2.08-2.75c-.98-11.78-1.8-21.46-2.44-33.26-.3-5.56-.7-12.31-1.15-18.07l1.35 4.31c1.81 5.13 3.7 11.27 5.22 16.49 1.74 5.96 2.99 11.46 4.57 17.25-.04-4.06.02-14.27.05-19.33-3.96-5.96-6.18-12.74-6.18-19.99.04-4.05.77-8 2.11-11.74zM54.4 144.8c-1.53-3.75-1.94-6.3-2.3-8.55-.44-2.72-.81-5.07-2.89-8.43-.63-1.03-1.3-1.95-1.99-2.78 2.01 1.51 4.18 3.39 6.23 5.62.07.07.13.14.2.22 1.33 2.18 2.24 4.61 2.65 7.14.05.39.11.79.16 1.19.63 4.49 1.64 10.12 2.78 14.28-1.78-2.67-3.62-5.69-4.84-8.69zm9.09 48.66c-4.51-5.39-11.32-13.52-13.82-23.32-1.04-4.06-1.31-6.76-1.58-9.37-.4-3.96-.78-7.7-3.91-15.08-.86-2.02-1.87-3.88-2.79-5.47.52.67 1.01 1.32 1.44 1.88.55.72 1.07 1.4 1.56 2.03 1.97 2.53 2.52 3.87 3.04 5.17.59 1.45 1.15 2.82 3.29 5.35 1.37 1.61 3.71 3.79 6.19 5.77 2.36 2.36 4.58 5.52 5.2 8.25l1.66 7.59c1.04 6.94 2 15.03 2.66 20.84-.77-1.04-1.77-2.24-2.94-3.64zm3.58 9.6-.05 2.63c.06 1.41-1.1 2.37-3.6 1.42a34.77 34.77 0 0 0-2.6-1.62c-2.67-1.51-5.3-2.44-7.23-3.11-.12-.04-.24-.08-.36-.13.5-.04 1.12-.08 1.88-.1 1.93-.06 4.02-.02 5.14 0 2.01.04 3.36.14 4.35.22 1.07.08 1.84.14 2.41-.07l.06.76zm-1.34-78.02c1.26 6.1 1.99 8.77 2.33 11.13.58 4.02.36 3.24 1.15 8.96.55 4.01 1.16 7.88 1.51 12.06.1 1.17.33 3.98.01 7.43-.05.54-.21.97-.29 1.26-.83-.34-2.38-.97-3.21-1.3-2.93-19.75-5.87-38.39-8.8-58.13.68.92 2.38 3.48 3.23 5.3 1.18 2.52 2.38 5.16 4.07 13.29zm19.79-38.69c-1.32 9.2-1.17 19.71-.51 27.49 0 .13.02.55.07 1.22a43.158 43.158 0 0 1-4.12-6.75c-3.25-6.62-3.72-17.12-1.07-28.08 1.13-4.35 2.74-8.95 5.04-13.64 3.63-7.44 8.59-14.28 14.53-20.1-2.28 3.92-4.31 7.97-6.09 12.09-3.84 8.93-6.48 18.27-7.85 27.77z"/><path class="st0" d="m118.53 172.59.3 58.81c-1.65-10.93-2.54-21.09-4.22-32-2.08-13.47-3.85-27.31-5.98-41.51-.12-1.85.62-3.03 1.89-3.54-4.44-2.72-8.32-6-11.49-9.72.24 1.75.48 3.51.75 5.54.68 21.72 1.17 46.54 1.82 68.85.13 4.62-.12 9.23-.75 13.8l-.23 1.66c.54.67 1.37 1.26 2.04 1.98.81.86 3 2.35 3.76 3.03-.21-1.35-.49-2.77-.81-4.21-1.21-5.55-1.86-11.22-2.07-16.9-.75-20.58-1.5-40.6-2.18-61.24 4.57 29.76 8.42 58.83 12.99 88.59 1.32.69 2.74 1.38 4.27 2.05 1.12.49 2.21.93 3.27 1.33l-1.37-11.5-.2-61.89c-.01-2.11.22-4.95.58-7.03.16-.92.47-2.46.71-3.26.54-1.79 1.08-3.68 3.18-4.91-2.38-.67-4.68-1.47-6.89-2.4.36 5.82.63 14.47.63 14.47zM161.07 165.28c.3 1.74.45 3.61.36 5.37-1.3 23.42-2.85 43.95-5.01 67.39-.37 4.05-.8 7.35-1.35 11.32 1.01-.4 3.5-1.36 4.51-1.75-.2-3.52-.6-6.66-.8-10.18.6-6.64.94-12.08 1.54-18.71 2.23-4.87 4.56-8.96 6.79-13.83.19 9.67.34 18.13.53 27.8-.14 4.22-.24 8-.37 12.22 1.69-.52 3.75-1.41 5.62-2.35 1.51-.76 3.71-1.87 5.05-2.87-1.06-.12-2.14-2.08-2.34-3.1-.03-.13-.05-.26-.08-.4-1.02-5.29-1.32-10.67-1.52-16.05-.3-8.3-.33-16.31-.4-21.07-.23-15.13-.16-20.99-.48-32.97-.12-4.6.18-8.64.6-12.29-4.23 2.7-8.97 4.89-14.11 6.42 1.01 1.62 1.3 4.21 1.46 5.05zm2.67.12s1.58 7.52 3.22 36.67c-2.1 4.59-4.64 8.94-6.75 13.52.9-7.06 1.36-17.34 2.13-30.24.72-11.87 1.4-19.95 1.4-19.95zM246.67 133.88c-.28-.25-.65-.36-1.04-.33-1.21.12-2.68 1.81-6.78 7.19-.55.72-1.06 1.39-1.55 2.02-2.16 2.78-2.79 4.33-3.35 5.7-.54 1.34-1.01 2.49-2.93 4.75-1.29 1.52-3.59 3.47-6.17 5.22-1.46.99-2.62 1.65-3.45 2.06.49-.68 1.13-1.5 1.69-2.22 2.52-3.23 5.98-7.66 8-12.63 1.63-3.99 2.06-6.67 2.44-9.03.42-2.59.74-4.63 2.59-7.61 2.65-4.3 6.09-6.7 7.74-7.85.94-.66 1.33-.93 1.43-1.51.05-.31-.02-.62-.2-.87a1.2 1.2 0 0 0-.93-.49c-1.18-.07-4.36 1.72-6.05 2.78a48.388 48.388 0 0 0-9.75 8.12c-1.32 1.43-2.4 2.79-3.26 3.92.87-2.63 2.14-6.53 3.06-11.36.82-4.31.86-6.68.89-8.78.03-2.08.06-3.73.89-6.74 1.71-6.19 4.79-10.62 6.45-13 .47-.68.85-1.21 1.09-1.64.65-1.15.31-1.79-.09-2.12-.21-.17-.57-.36-1.1-.29-1.95.26-7.32 4.99-11.32 10.71-.82 1.17-1.55 2.3-2.19 3.38.06-3.28-.41-7-1.87-10.94-1.18-3.18-2.75-5.59-4.28-7.92-2.22-3.39-4.32-6.6-4.97-11.95-.71-5.89.77-10.64 1.47-12.93.37-1.19.51-1.64.23-2.16-.15-.28-.4-.48-.7-.56-.21-.06-.63-.11-1.07.22-.83.62-2.33 3.64-3.48 7.01-1.14 3.34-2.51 8.63-2.57 14.85v.54c-1.16-4.4-2.8-9.05-5.12-13.79-4.87-9.97-12.04-18.9-20.76-25.83-.44-.35-1.05-.32-1.46.05-.41.38-.48.99-.17 1.45 3.87 5.76 7.2 11.87 9.91 18.17 3.76 8.74 6.35 17.9 7.69 27.21 1.34 9.27 1.13 19.93.43 27.63-.03.2-.09.49-.16.85-.24-.46-.53-.99-.9-1.65-1.1-1.98-2.67-3.58-3.54-4.73a35.029 35.029 0 0 1 2.03 9.93c.03.63.06 1.27.06 1.91 0 .72-.02 1.44-.07 2.16-.07 1.1-.2 2.18-.37 3.26-.05.32-.09.64-.15.96-.08.44-.18.87-.28 1.3-.02.08-.04.16-.05.24-.15.65-.32 1.3-.51 1.94v.01l-.09.31c-.21.67-.43 1.34-.67 2l-.09.27c-.21.54-.43 1.08-.66 1.61v.01c-.03.07-.06.13-.08.2-.86 1.94-1.88 3.81-3.06 5.61-.01.01-.01.02-.02.03-2.51 3.82-5.73 7.28-9.5 10.28.41 7.06.23 21.89.45 24.54 2.28-7.11 6.6-22.61 9.33-28.75l.05-.06c.52 31.99-.19 35.25-1.6 59.87-.19 3.28-1.44 15.83-2.04 19.06-.71 3.81-.9 6.4-3.6 12.98l2.5-1.8c1.08-.77 1.98-1.56 2.93-2.47.78-.74 1.26-1.25 2.63-1.73.82-.31 1.65-.57 2.51-.78.42-.1.9-.22 1.39-.33-.17-4.76-.34-9.51-.52-14.27 2.19-33.18 3.34-63.85 5.56-96.99.19-2.89.97-8.3 3.78-3.97 2.18 3.78 4.17 7.12 5.04 17.46.67 9.45.51 16.4.38 21.64-.14 5.54-.12 22.28-5.55 57.73-1.11 7.23-1.56 10.02-5.41 17.44 2.55-.8 6.05-2.4 7.48-3.26 2.19-1.32 3.69-2.65 4.35-3.26 1.72-1.59 2.78-3 3.73-4.27.58-.77.95-1.33 1.24-1.8 2.98-3.78 5.88-7.35 11.14-10.34 2.49-1.42 5.02-2.3 6.87-2.94.94-.33 1.68-.59 2.24-.85.39-.18 1.56-.73 1.35-1.88-.24-1.33-1.98-1.65-5.11-1.79-2.17-.1-4.6-.05-5.91-.02-2.08.04-3.52.15-4.47.23-.41.03-.8.06-1.08.07.09-.28.31-.78.87-1.63.72-1.11 1.78-2.51 3-4.12 4.19-5.52 10.53-13.87 13.1-23.95.87-3.41 1.36-5.9 1.8-8.1.91-4.6 1.57-7.92 4.95-15.89 1.19-2.82 2.67-5.26 3.86-7.22.66-1.1 1.24-2.04 1.59-2.78.22-.53.85-1.87-.11-2.7zm-43.98-44.69c-.8 7.83-1.52 13.78-4.17 22.56.52-7.51.54-17-.67-25.4-1.37-9.5-4.01-18.84-7.85-27.77-1.78-4.12-3.81-8.17-6.09-12.09 5.94 5.82 10.9 12.66 14.53 20.1a70.67 70.67 0 0 1 2.19 4.95c-.07-.08-.13-.16-.2-.25 2.88 6.97 2.51 15.45 2.26 17.9zm20.11 32.24c.02.02.03.04.04.06 1.63 2.09.83 7.39.54 9.74-.16.49-.31.94-.45 1.36-.39 1.19-.7 2.13-.87 2.83-.12.51-.45 1.86.62 2.4.99.5 1.83-.42 2.11-.72.39-.43.85-1.03 1.43-1.8.91-1.21 2.17-2.87 3.78-4.62 2.05-2.23 4.22-4.1 6.23-5.62-.68.83-1.35 1.76-1.99 2.78-2.08 3.36-2.45 5.71-2.89 8.43-.36 2.25-.77 4.8-2.3 8.55-1.91 4.68-3.71 7.46-6.15 10.59-.32.41-.62.8-.9 1.16-.81.97-2.06 2.87-2.58 3.85-.59 1.12-1.41 3.08-3.03 4.03l-2.13.97 2.22-46.03c.25-2.34 4.87.2 6.32 2.04zm-13.29-20.68c-.01-.23-.04-.5-.08-.8-.87-6.35-1.71-12.5-1.68-18.91 0-.71.01-1.44.01-2.17.04-4.13.69-7.93 1.53-11.09-.08 1.53-.05 3.18.16 4.91.7 5.86 3.05 9.44 5.31 12.9 1.46 2.22 2.96 4.52 4.05 7.47 1.35 3.64 1.78 7.08 1.72 10.14-.07 3.97-1.2 7.88-3.5 11.12-.9 1.26-1.83 2.23-2.58 2.78-1.76 1.28-5.05 2.41-6.73 2.05-4.43-1.25 2.39-5.88 1.79-18.4zm29.76 44.93c-3.47 8.19-4.15 11.6-5.08 16.33-.43 2.17-.92 4.63-1.77 7.98-2.46 9.65-8.64 17.78-12.72 23.16-1.99 2.62-3.44 4.54-4.06 6.02-.69 1.18-1.37 2.53-1.68 3.27-1.95 5.11-3.08 10.62-5.03 15.73 2.18-18.26 3.91-32.45 5.21-51.08 2.01-.43 4.06.05 5.95.85l3.8 1.59s-.12-3.78-.07-5.25c.06-1.78 1.35-3.26 2.79-4.35 2.54-1.77 4.81-3.72 6.13-5.28 2.14-2.53 2.7-3.9 3.29-5.35.53-1.3 1.07-2.64 3.04-5.17.49-.63 1.01-1.31 1.56-2.03.42-.56.92-1.21 1.44-1.88-.94 1.58-1.95 3.44-2.8 5.46z"/></g></svg>