<?xml version="1.0" encoding="utf-8"?>
<!-- Generator: Adobe Illustrator 24.0.1, SVG Export Plug-In . SVG Version: 6.00 Build 0)  -->
<svg version="1.1" xmlns="http://www.w3.org/2000/svg" xmlns:xlink="http://www.w3.org/1999/xlink" x="0px" y="0px"
	 viewBox="0 0 283.46 283.46" style="enable-background:new 0 0 283.46 283.46;" xml:space="preserve">
<style type="text/css">
	.st0{fill:#FFD500;}
	.st1{fill:url(#SVGID_1_);}
</style>
<g id="Layer_1">
	<circle class="st0" cx="141.73" cy="141.73" r="141.73"/>
	<linearGradient id="SVGID_1_" gradientUnits="userSpaceOnUse" x1="141.6377" y1="278.7243" x2="141.6377" y2="4.7062">
		<stop  offset="0" style="stop-color:#006EAE"/>
		<stop  offset="0.2031" style="stop-color:#006CAD"/>
		<stop  offset="0.3872" style="stop-color:#0067A8"/>
		<stop  offset="0.5641" style="stop-color:#005E9F"/>
		<stop  offset="0.7363" style="stop-color:#005193"/>
		<stop  offset="0.9037" style="stop-color:#004084"/>
		<stop  offset="1" style="stop-color:#13357A"/>
	</linearGradient>
	<path class="st1" d="M145.66,278.66L145.66,278.66C70.02,280.88,6.91,221.37,4.69,145.74l0,0C2.47,70.1,61.98,6.99,137.62,4.77l0,0
		c75.63-2.22,138.75,57.29,140.97,132.93l0,0C280.81,213.33,221.29,276.44,145.66,278.66z"/>
	<path class="st0" d="M138.2,247.72c3.52-9.44,2.65-38.72,2.56-42.23c-0.3-10.58-0.46-16.74-1.44-24.81
		c-0.54-4.44-1.98-15.32-6.83-16.25c-0.64-0.12-1.95-0.16-3.11,0.65c-1.56,1.09-3.14,4.18-3.78,6.73c-0.97,3.86-1.53,9.84-1.53,9.84
		c-0.39,4.34-0.43,5.65-0.49,21.89c-0.06,15.68,0.53,19.67,1.33,29.02c0,0,0.23,4,2.26,11.59c0.98,3.66,2.92,6.35,4.84,7.55
		c0.6,0.38,2.27,0.65,3.26-0.02C137,250.49,137.81,248.74,138.2,247.72z M133.2,237.19c-1.09-3.42-1.26-4.13-2.5-10.12
		c-0.99-4.77-1.57-8.23-2.36-13.97c-1.23-8.92-0.66-8.04-1.85-17.52c0,0-1.6-12.81-0.04-21.62c0.11-0.61,0.34-1.67,0.84-1.79
		c0.72-0.18,1.62,1.64,2.28,3.14c2.49,5.65,3.52,11.01,3.71,12.04c1.22,6.55,1.83,9.82,2.07,11.34c1.48,9.55,2.06,16.49,2.18,17.99
		c0.32,3.95,0.47,6.75,0.6,10.49c0.21,6.06,0.26,6.85,0.24,8.2c0,0,0.02,2.8-0.59,7.32c-0.07,0.56-0.42,1.91-0.83,2
		c-0.46,0.11-0.99-0.82-1.42-1.68C133.66,239.39,133.2,237.19,133.2,237.19z"/>
	<path class="st0" d="M206.35,133.84"/>
	<path class="st0" d="M141.6,159.02c1.04,9.85,1.95,21.67,2.23,26.14c1.05,16.42,0.94,22.16,0.85,46.52
		c-0.04,10.19-2.02,22.16-7.63,34.59c5.84-9.88,12.43-14.43,15.01-15.86c-0.37-5.78,0.1-11.28,0.43-17.07l4.16-87.79c0,0,0,0,0,0
		c0.99-17.42,4.04-19.51,5.31-21.16c4.02-5.25,5.21-10.1,4.91-10.3c-0.21-0.14-1.19,2.28-3.99,4.46c-2.51,1.95-4.7,2.66-7.82,2.81
		l-0.13,10.03c0.01-0.01,0.01-0.01,0.02-0.01c-0.17,10.89-1,29.12-1.17,35.58c-0.97,25.48-2.86,52.85-4.43,79.08l-1.41-110.41
		c0.01,0,0.01,0,0.02-0.01l-0.12-14.01c-4.85,0.23-8.79,0.72-12.71,2.03c-4.1,1.36-12.12,5.03-14.64,17.25
		c3.44-5.3,6.95-8.24,11.02-8.24C135.42,132.65,139.47,138.28,141.6,159.02z"/>
	<g>
		<path class="st0" d="M102.95,254.02c-1.02-0.34-1.88-0.39-2.58-0.14c-0.71,0.25-1.19,0.77-1.46,1.56
			c-0.26,0.77-0.21,1.44,0.16,2.01c0.37,0.57,1.04,1.02,2.01,1.35l2.39,0.81l-0.67,1.97l-4.81-1.63l-0.42,1.25l6.3,2.14l2.74-8.08
			L102.95,254.02z M103.85,258.45l-2.08-0.7c-1.18-0.4-1.62-1.01-1.34-1.85c0.14-0.42,0.4-0.7,0.78-0.82
			c0.38-0.12,0.85-0.08,1.43,0.11l2.08,0.71L103.85,258.45z"/>
		<path class="st0" d="M95.12,250.95c-0.41-0.19-0.8-0.25-1.17-0.18c-0.36,0.07-0.72,0.27-1.07,0.6c-0.35,0.33-0.7,0.76-1.05,1.31
			c-0.35,0.54-0.72,1.19-1.1,1.93l-0.96,1.9l-3.04-1.41l3.03-6.52l-1.43-0.66l-3.6,7.73l5.69,2.65l1.6-3.14
			c0.37-0.72,0.71-1.3,1.02-1.76c0.31-0.46,0.61-0.77,0.91-0.93c0.3-0.17,0.6-0.18,0.92-0.03c0.12,0.05,0.22,0.12,0.31,0.2
			l0.69-1.21c-0.13-0.11-0.26-0.2-0.38-0.27C95.37,251.07,95.24,251.01,95.12,250.95z"/>
		<path class="st0" d="M80.77,246.01l-3.64-2.22l0.31-2.12l-1.42-0.87l-1.16,9.29l1.33,0.81l7.72-5.28l-1.38-0.84L80.77,246.01z
			 M79.67,246.79l-3.31,2.35l0.58-4.02L79.67,246.79z"/>
		<polygon class="st0" points="66.36,242.66 63,240.11 62.18,241.17 66.79,244.67 71.95,237.88 70.7,236.93 		"/>
		<path class="st0" d="M62.96,232.17c-0.03-0.57-0.18-1.13-0.45-1.68c-0.27-0.54-0.64-1.04-1.12-1.49c-0.48-0.45-1-0.78-1.56-1
			c-0.56-0.22-1.12-0.33-1.69-0.31c-0.57,0.01-1.12,0.14-1.65,0.38c-0.53,0.24-1.01,0.59-1.44,1.05c-0.43,0.47-0.74,0.97-0.94,1.52
			c-0.2,0.55-0.28,1.11-0.24,1.67c0.03,0.57,0.18,1.12,0.45,1.66c0.27,0.54,0.64,1.03,1.12,1.48c0.49,0.45,1.01,0.79,1.57,1.01
			c0.56,0.22,1.13,0.32,1.7,0.32c0.57-0.01,1.12-0.13,1.65-0.37c0.53-0.24,1.01-0.59,1.44-1.05c0.42-0.46,0.73-0.96,0.93-1.51
			C62.91,233.31,62.99,232.75,62.96,232.17z M61.27,233.25c-0.13,0.37-0.35,0.72-0.64,1.03c-0.3,0.32-0.63,0.56-0.98,0.72
			c-0.36,0.16-0.73,0.25-1.11,0.27c-0.38,0.02-0.76-0.04-1.13-0.19c-0.37-0.14-0.71-0.36-1.03-0.65c-0.32-0.29-0.56-0.61-0.72-0.97
			c-0.17-0.35-0.26-0.72-0.28-1.1c-0.02-0.38,0.04-0.76,0.18-1.12c0.14-0.37,0.36-0.71,0.66-1.03c0.3-0.32,0.63-0.57,0.98-0.73
			c0.36-0.17,0.73-0.26,1.11-0.27c0.38-0.02,0.75,0.05,1.12,0.18c0.36,0.14,0.71,0.35,1.02,0.65c0.32,0.29,0.56,0.62,0.73,0.98
			c0.17,0.36,0.26,0.73,0.28,1.11C61.46,232.5,61.4,232.87,61.27,233.25z"/>
		<path class="st0" d="M54.01,223.87l2.4-2.05l-0.96-1.12l-1.37,1.19l-4.28-4.95l1.37-1.19l-0.96-1.11l-2.39,2.06l0.8,0.93
			l-5.44,4.7l4.09,4.73l2.1-1.69c0.51-0.41,0.99-0.77,1.44-1.08c0.45-0.32,0.87-0.56,1.25-0.74c0.38-0.18,0.72-0.27,1.02-0.26
			c0.3,0,0.55,0.13,0.74,0.36L54.01,223.87z M52.09,222.12c-0.31,0.06-0.66,0.19-1.03,0.39c-0.37,0.2-0.77,0.45-1.19,0.74
			c-0.42,0.29-0.85,0.62-1.29,0.98l-1.18,0.94l-2.18-2.53l4.43-3.82l2.83,3.28C52.36,222.09,52.23,222.09,52.09,222.12z"/>
		
			<rect x="37.56" y="212.7" transform="matrix(0.812 -0.5837 0.5837 0.812 -116.7462 64.555)" class="st0" width="8.53" height="1.57"/>
		<polygon class="st0" points="40.62,204.04 33.1,203.17 38.3,200.1 37.5,198.75 30.16,203.08 30.91,204.35 38.45,205.22 
			33.23,208.3 34.03,209.65 41.38,205.32 		"/>
		<path class="st0" d="M30.37,205.48c-0.46-0.16-0.93-0.11-1.41,0.17l0.56,0.94c0.26-0.15,0.52-0.17,0.76-0.09
			c0.24,0.09,0.45,0.28,0.63,0.58c0.18,0.3,0.25,0.58,0.2,0.83c-0.04,0.25-0.19,0.46-0.44,0.62l0.56,0.94
			c0.48-0.29,0.76-0.67,0.84-1.15c0.08-0.48-0.07-1.03-0.44-1.66C31.24,206.04,30.82,205.64,30.37,205.48z"/>
		<polygon class="st0" points="34.1,191.92 30.75,193.4 28.97,189.37 32.31,187.89 31.67,186.45 23.87,189.9 24.51,191.34 
			27.73,189.91 29.52,193.95 26.3,195.37 26.94,196.82 34.74,193.37 		"/>
		<polygon class="st0" points="29.1,179.35 21.97,176.78 27.74,174.99 27.28,173.49 19.13,176.02 19.57,177.43 26.71,180 
			20.93,181.8 21.4,183.3 29.54,180.77 		"/>
		<polygon class="st0" points="25.54,166.15 18.76,162.77 24.7,161.66 24.41,160.11 16.03,161.69 16.3,163.14 23.1,166.52 
			17.15,167.64 17.44,169.18 25.82,167.61 		"/>
		<path class="st0" d="M15.41,164.01c-0.37-0.31-0.83-0.42-1.39-0.32l0.2,1.08c0.3-0.05,0.54,0.01,0.74,0.18
			c0.2,0.17,0.33,0.42,0.39,0.76c0.06,0.34,0.04,0.63-0.09,0.85c-0.12,0.22-0.33,0.36-0.63,0.43l0.2,1.08
			c0.55-0.11,0.94-0.38,1.18-0.8c0.24-0.42,0.29-0.99,0.15-1.71C16.04,164.84,15.78,164.32,15.41,164.01z"/>
		<path class="st0" d="M14.21,143.26l0.87,0c0.05,0.84,0.19,1.57,0.43,2.18c0.3,0.75,0.72,1.32,1.28,1.72
			c0.56,0.4,1.24,0.59,2.03,0.59c0.8,0,1.47-0.21,2.02-0.61c0.55-0.4,0.97-0.98,1.25-1.73c0.23-0.62,0.36-1.35,0.4-2.19l0.92,0
			l-0.01-1.46l-0.92,0c-0.04-0.86-0.18-1.61-0.43-2.23c-0.29-0.73-0.72-1.29-1.28-1.67c-0.56-0.38-1.23-0.57-2.01-0.57
			c-0.8,0-1.47,0.2-2.03,0.6c-0.55,0.39-0.98,0.96-1.26,1.71c-0.24,0.62-0.37,1.36-0.41,2.21l-0.87,0L14.21,143.26z M21.03,144.5
			c-0.18,0.55-0.46,0.96-0.83,1.25c-0.37,0.29-0.83,0.44-1.39,0.44c-0.56,0-1.03-0.13-1.4-0.4c-0.37-0.27-0.65-0.68-0.83-1.23
			c-0.13-0.37-0.19-0.83-0.24-1.32l4.91-0.02C21.21,143.7,21.15,144.14,21.03,144.5z M16.57,140.43c0.18-0.53,0.46-0.93,0.82-1.21
			c0.36-0.28,0.82-0.42,1.36-0.42c0.55,0,1.02,0.13,1.39,0.4c0.38,0.27,0.66,0.67,0.85,1.2c0.14,0.38,0.21,0.85,0.25,1.36
			l-4.92,0.03C16.37,141.28,16.43,140.81,16.57,140.43z"/>
		<path class="st0" d="M16.14,130.43c0.34,0.46,0.77,0.83,1.27,1.12c0.5,0.29,1.07,0.47,1.7,0.54c0.62,0.07,1.21,0.03,1.76-0.14
			c0.55-0.16,1.05-0.43,1.5-0.79c0.44-0.37,0.81-0.82,1.09-1.35c0.28-0.54,0.46-1.13,0.54-1.78c0.08-0.65,0.04-1.27-0.11-1.85
			c-0.15-0.58-0.4-1.1-0.74-1.55s-0.77-0.82-1.27-1.11c-0.5-0.29-1.07-0.47-1.7-0.54c-0.63-0.07-1.22-0.03-1.78,0.13
			c-0.56,0.16-1.06,0.43-1.5,0.79c-0.44,0.36-0.8,0.81-1.08,1.34c-0.28,0.53-0.46,1.12-0.53,1.78c-0.08,0.66-0.04,1.28,0.11,1.87
			C15.55,129.45,15.8,129.97,16.14,130.43z M16.67,127.17c0.05-0.43,0.17-0.81,0.36-1.15c0.19-0.34,0.43-0.63,0.73-0.87
			c0.3-0.24,0.64-0.41,1.02-0.51c0.38-0.1,0.79-0.13,1.22-0.08c0.44,0.05,0.83,0.17,1.17,0.36c0.35,0.19,0.64,0.44,0.87,0.73
			c0.24,0.3,0.4,0.63,0.51,1.01c0.1,0.38,0.13,0.78,0.08,1.21c-0.05,0.43-0.17,0.82-0.36,1.17c-0.19,0.35-0.43,0.64-0.73,0.88
			c-0.3,0.23-0.64,0.41-1.02,0.52c-0.38,0.11-0.78,0.14-1.21,0.09c-0.44-0.05-0.82-0.17-1.17-0.37c-0.34-0.2-0.63-0.44-0.87-0.74
			c-0.24-0.3-0.41-0.64-0.51-1.02C16.64,128,16.62,127.59,16.67,127.17z"/>
		<polygon class="st0" points="25.76,116.59 22.2,115.75 23.22,111.45 26.77,112.29 27.14,110.77 18.84,108.8 18.47,110.33 
			21.9,111.14 20.89,115.44 17.46,114.63 17.1,116.17 25.4,118.13 		"/>
		<path class="st0" d="M25.3,102.95c0.5,0.24,0.92,0.48,1.26,0.73c0.34,0.24,0.59,0.5,0.73,0.76c0.14,0.26,0.16,0.54,0.05,0.83
			l-0.1,0.26l2.96,1.08l0.5-1.39l-1.71-0.62l2.22-6.15l1.71,0.62l0.5-1.38l-2.97-1.07l-0.42,1.16l-6.76-2.44l-2.12,5.88l2.5,1.01
			C24.25,102.47,24.8,102.71,25.3,102.95z M24,97.27l5.5,1.98l-1.47,4.08c-0.05-0.11-0.11-0.22-0.21-0.33
			c-0.2-0.25-0.49-0.48-0.85-0.71c-0.36-0.22-0.77-0.45-1.23-0.67c-0.46-0.22-0.95-0.44-1.48-0.65l-1.4-0.57L24,97.27z"/>
		<polygon class="st0" points="33.96,80.8 31.05,79.09 30.43,80.22 33.43,81.77 		"/>
		<polygon class="st0" points="32.83,82.86 29.92,81.15 29.3,82.28 32.3,83.83 		"/>
		<path class="st0" d="M36.03,73.55c0.13-0.39,0.3-0.74,0.51-1.05c0.2-0.31,0.43-0.56,0.67-0.76c0.24-0.2,0.48-0.32,0.73-0.36
			c0.25-0.05,0.48,0,0.69,0.15c0.29,0.19,0.44,0.45,0.45,0.78c0.01,0.32-0.12,0.68-0.39,1.08l-1.03,1.55l1.04,0.7L39.79,74
			c0.31-0.46,0.63-0.76,0.96-0.91c0.33-0.15,0.66-0.12,0.97,0.09c0.26,0.17,0.41,0.41,0.47,0.7c0.06,0.3,0.03,0.62-0.07,0.98
			c-0.1,0.35-0.28,0.71-0.52,1.05c-0.24,0.35-0.54,0.67-0.89,0.96c-0.35,0.29-0.74,0.52-1.15,0.68l0.69,1.07
			c0.5-0.22,0.95-0.5,1.37-0.84c0.42-0.34,0.78-0.73,1.09-1.15c0.31-0.42,0.55-0.85,0.72-1.3c0.17-0.44,0.28-0.88,0.3-1.31
			c0.03-0.43-0.03-0.82-0.19-1.17c-0.15-0.35-0.4-0.64-0.75-0.87c-0.36-0.24-0.75-0.36-1.16-0.36c-0.41,0-0.8,0.13-1.19,0.37
			c-0.1,0.06-0.18,0.15-0.27,0.22c0.01-0.04,0.03-0.08,0.03-0.11c0.06-0.41,0.02-0.78-0.13-1.13c-0.15-0.35-0.39-0.63-0.72-0.86
			c-0.38-0.25-0.78-0.36-1.19-0.32c-0.42,0.04-0.83,0.19-1.25,0.44c-0.41,0.26-0.8,0.6-1.14,1.03c-0.35,0.43-0.64,0.92-0.87,1.47
			s-0.38,1.13-0.43,1.75l1.32,0.3C35.82,74.35,35.9,73.94,36.03,73.55z"/>
		<path class="st0" d="M48.4,68.47l-0.98-1.91l2.72-3.28l2.06,0.61l1.07-1.28l-9.02-2.48l-1,1.2l4.11,8.4L48.4,68.47z M46.81,65.36
			l-1.85-3.62l3.89,1.15L46.81,65.36z"/>
		<polygon class="st0" points="57.84,57.89 55.3,55.26 58.48,52.2 61.02,54.84 62.15,53.75 56.24,47.6 55.1,48.69 57.54,51.23 
			54.37,54.28 51.93,51.75 50.78,52.85 56.7,58.99 		"/>
		<path class="st0" d="M63.65,46.79c0.38,0.5,0.82,0.89,1.32,1.17c0.5,0.29,1.04,0.46,1.61,0.53c0.57,0.07,1.15,0.01,1.73-0.15
			c0.58-0.17,1.13-0.45,1.66-0.85c0.52-0.4,0.94-0.85,1.26-1.36c0.32-0.51,0.52-1.05,0.6-1.61c0.08-0.57,0.06-1.13-0.09-1.69
			c-0.14-0.56-0.4-1.09-0.79-1.6c-0.38-0.5-0.83-0.9-1.33-1.19c-0.51-0.29-1.04-0.46-1.61-0.53c-0.57-0.06-1.14-0.01-1.71,0.16
			c-0.58,0.17-1.13,0.45-1.65,0.85c-0.53,0.4-0.95,0.86-1.26,1.38c-0.31,0.51-0.51,1.05-0.61,1.62c-0.09,0.56-0.06,1.13,0.08,1.69
			C63,45.75,63.26,46.29,63.65,46.79z M64.29,43.59c0.05-0.38,0.17-0.74,0.38-1.08c0.21-0.34,0.48-0.64,0.82-0.9
			c0.34-0.26,0.7-0.44,1.08-0.55c0.38-0.1,0.75-0.13,1.13-0.08c0.38,0.05,0.74,0.17,1.08,0.38c0.34,0.2,0.64,0.48,0.91,0.83
			c0.27,0.35,0.45,0.71,0.55,1.1c0.1,0.38,0.13,0.76,0.08,1.14c-0.05,0.38-0.18,0.73-0.37,1.07c-0.2,0.34-0.47,0.63-0.81,0.89
			c-0.34,0.26-0.7,0.45-1.09,0.55c-0.38,0.11-0.76,0.14-1.14,0.08c-0.38-0.05-0.74-0.18-1.08-0.38c-0.34-0.2-0.65-0.47-0.91-0.81
			c-0.27-0.35-0.45-0.71-0.54-1.09C64.27,44.35,64.24,43.97,64.29,43.59z"/>
		<path class="st0" d="M81.54,39.55c0.92-0.55,1.51-1.14,1.76-1.78c0.25-0.64,0.19-1.28-0.2-1.92c-0.37-0.62-0.88-0.96-1.51-1.01
			c-0.31-0.03-0.65,0.01-1,0.12c0.12-0.17,0.23-0.34,0.3-0.52c0.24-0.58,0.19-1.17-0.17-1.77c-0.37-0.61-0.88-0.94-1.53-0.99
			c-0.65-0.05-1.4,0.17-2.23,0.67l-3.27,1.96l4.38,7.32L81.54,39.55z M75.67,34.55l1.82-1.09c0.44-0.26,0.83-0.38,1.16-0.34
			c0.33,0.04,0.6,0.23,0.81,0.57c0.2,0.34,0.24,0.67,0.12,0.98c-0.13,0.31-0.41,0.6-0.85,0.86l-1.82,1.09L75.67,34.55z M79.58,36.37
			c0.48-0.29,0.9-0.41,1.24-0.38c0.35,0.03,0.63,0.23,0.84,0.58c0.23,0.38,0.27,0.73,0.14,1.05c-0.13,0.32-0.44,0.63-0.92,0.91
			l-2.08,1.24l-1.29-2.16L79.58,36.37z"/>
		<path class="st0" d="M87.85,33.17c0.43,0.39,0.91,0.68,1.45,0.87c0.54,0.19,1.11,0.27,1.72,0.24c0.6-0.03,1.21-0.19,1.81-0.46
			c0.6-0.27,1.11-0.62,1.53-1.05s0.74-0.91,0.95-1.44c0.21-0.53,0.31-1.09,0.3-1.67c-0.01-0.58-0.15-1.16-0.41-1.73
			s-0.61-1.06-1.03-1.46c-0.43-0.39-0.91-0.69-1.45-0.88c-0.54-0.19-1.1-0.27-1.7-0.23c-0.6,0.04-1.2,0.19-1.8,0.46
			c-0.61,0.27-1.12,0.63-1.54,1.06s-0.74,0.91-0.95,1.44c-0.21,0.53-0.32,1.08-0.3,1.66c0.01,0.58,0.15,1.16,0.41,1.73
			C87.08,32.3,87.42,32.78,87.85,33.17z M88.17,28.76c0.13-0.36,0.34-0.68,0.61-0.97c0.28-0.29,0.61-0.52,1-0.7
			c0.39-0.18,0.78-0.27,1.17-0.29c0.39-0.02,0.76,0.04,1.12,0.17s0.68,0.33,0.96,0.61c0.28,0.27,0.52,0.61,0.7,1.01
			c0.18,0.4,0.28,0.8,0.29,1.19s-0.05,0.77-0.18,1.12c-0.13,0.35-0.33,0.67-0.6,0.96c-0.27,0.28-0.6,0.51-0.99,0.69
			s-0.79,0.28-1.18,0.3c-0.4,0.02-0.77-0.04-1.13-0.18c-0.36-0.14-0.68-0.34-0.97-0.61c-0.29-0.27-0.53-0.6-0.7-0.99
			c-0.18-0.4-0.28-0.8-0.28-1.19C87.97,29.5,88.04,29.12,88.17,28.76z"/>
		<polygon class="st0" points="103.08,24.17 102.08,20.95 100.86,21.37 102.04,24.53 		"/>
		<polygon class="st0" points="100.86,24.93 99.86,21.71 98.63,22.13 99.81,25.29 		"/>
	</g>
	<g>
		<path class="st0" d="M187.79,23.31c-0.46-0.42-1.02-0.75-1.67-0.99c-0.62-0.22-1.22-0.33-1.82-0.32
			c-0.59,0.01-1.15,0.14-1.68,0.37c-0.53,0.23-0.99,0.56-1.38,0.98c-0.39,0.42-0.7,0.93-0.92,1.53c-0.22,0.6-0.31,1.19-0.28,1.77
			c0.03,0.57,0.17,1.12,0.42,1.63c0.25,0.51,0.6,0.97,1.04,1.36c0.45,0.39,0.98,0.7,1.6,0.92c0.66,0.24,1.31,0.35,1.93,0.31
			c0.63-0.03,1.21-0.2,1.74-0.51l-0.63-1.25c-0.41,0.21-0.83,0.33-1.24,0.36c-0.42,0.03-0.83-0.04-1.24-0.19
			c-0.42-0.15-0.78-0.36-1.08-0.62c-0.3-0.26-0.53-0.57-0.69-0.91c-0.16-0.34-0.26-0.72-0.28-1.11c-0.02-0.4,0.05-0.8,0.19-1.21
			c0.15-0.41,0.36-0.76,0.63-1.05c0.27-0.29,0.58-0.52,0.93-0.67c0.35-0.16,0.72-0.24,1.12-0.25c0.4-0.01,0.81,0.06,1.23,0.21
			c0.41,0.15,0.77,0.37,1.07,0.66c0.3,0.29,0.54,0.64,0.73,1.06l1.29-0.55C188.59,24.23,188.25,23.73,187.79,23.31z"/>
		<polygon class="st0" points="200.26,28.67 198.7,31.83 194.74,29.87 196.3,26.71 194.88,26.01 191.1,33.66 192.52,34.36 
			194.14,31.08 198.1,33.04 196.48,36.31 197.89,37.01 201.67,29.37 		"/>
		<path class="st0" d="M205.2,38.99l3.59,2.31l-0.36,2.12l1.4,0.9l1.37-9.26l-1.31-0.84l-7.84,5.1l1.36,0.88L205.2,38.99z
			 M206.33,38.24l3.37-2.27l-0.67,4L206.33,38.24z"/>
		<path class="st0" d="M221.32,48.35c0.51-0.16,0.96-0.49,1.35-0.98c0.4-0.49,0.63-1.01,0.68-1.55c0.06-0.54-0.05-1.07-0.32-1.59
			c-0.27-0.53-0.7-1.03-1.29-1.5l-2.73-2.2l-5.35,6.64l1.23,0.99l1.56-1.93l1.5,1.21c0.09,0.07,0.18,0.13,0.27,0.2l-0.21,3.04
			l1.33,1.07l0.23-3.41c0.04,0.01,0.09,0.03,0.13,0.04C220.27,48.52,220.82,48.51,221.32,48.35z M217.28,45.21l2.13-2.65l1.44,1.16
			c0.54,0.44,0.86,0.88,0.95,1.34s-0.03,0.89-0.37,1.3c-0.34,0.42-0.74,0.63-1.2,0.64c-0.46,0.01-0.97-0.2-1.51-0.64L217.28,45.21z"
			/>
		
			<rect x="222.52" y="52.05" transform="matrix(0.6918 -0.722 0.722 0.6918 31.7303 180.0322)" class="st0" width="8.53" height="1.58"/>
		<polygon class="st0" points="229.8,62.06 230.86,63.24 236.21,58.44 238.1,60.54 239.1,59.65 234.26,54.26 233.27,55.16 
			235.15,57.26 		"/>
		<path class="st0" d="M235.8,69.16l2.09-0.48l2.52,3.44l-1.09,1.85l0.99,1.35l4.6-8.15l-0.92-1.26l-9.15,1.95L235.8,69.16z
			 M239.21,68.37l3.96-0.92l-2.06,3.5L239.21,68.37z"/>
		<path class="st0" d="M245,83.01c0.55,0.95,1.14,1.56,1.77,1.84c0.63,0.28,1.26,0.23,1.89-0.13c0.43-0.25,0.73-0.55,0.91-0.91
			c0.18-0.36,0.25-0.74,0.21-1.16c-0.01-0.11-0.05-0.22-0.07-0.34c0.32,0.21,0.66,0.32,1.03,0.34c0.38,0.02,0.77-0.08,1.17-0.31
			c0.58-0.34,0.91-0.84,0.99-1.5c0.08-0.67-0.14-1.44-0.64-2.32l-2.01-3.47l-7.38,4.27L245,83.01z M248,83.27
			c-0.37,0.22-0.72,0.24-1.05,0.06c-0.33-0.18-0.64-0.52-0.93-1.02l-1.29-2.22l2.13-1.23l1.29,2.22c0.29,0.51,0.43,0.95,0.42,1.32
			C248.56,82.76,248.37,83.06,248,83.27z M251.09,78.99c0.27,0.47,0.4,0.89,0.38,1.24c-0.02,0.36-0.2,0.64-0.54,0.84
			c-0.34,0.2-0.67,0.21-0.98,0.05c-0.32-0.16-0.62-0.48-0.89-0.95l-1.12-1.94l2.03-1.18L251.09,78.99z"/>
		<polygon class="st0" points="251.53,96.23 252.75,95.68 250.92,91.61 257.48,88.66 256.83,87.21 249.05,90.72 		"/>
		<polygon class="st0" points="255.37,106.91 256.64,106.48 255.1,101.92 257.31,101.17 258.63,105.07 259.87,104.66 258.55,100.75 
			260.64,100.05 262.12,104.45 263.39,104.02 261.4,98.12 253.32,100.85 		"/>
		<polygon class="st0" points="258.65,120.7 261.88,120.15 262.57,124.22 263.87,124 263.18,119.94 265.74,119.5 266.51,124.08 
			267.83,123.86 266.8,117.72 258.39,119.14 		"/>
		<path class="st0" d="M260.96,131.33c-0.61,0.7-0.89,1.63-0.81,2.79c0.07,1.17,0.46,2.06,1.16,2.68s1.67,0.89,2.92,0.81l4.79-0.3
			l-0.1-1.56l-4.74,0.3c-0.88,0.06-1.52-0.09-1.94-0.44c-0.42-0.35-0.65-0.87-0.7-1.55c-0.04-0.69,0.12-1.23,0.49-1.64
			c0.37-0.4,1-0.63,1.87-0.69l4.74-0.3l-0.1-1.58l-4.79,0.3C262.5,130.24,261.57,130.63,260.96,131.33z"/>
		<polygon class="st0" points="269.06,144.15 260.55,143.74 260.47,145.31 266.24,145.59 260.24,149.99 260.17,151.29 
			268.69,151.71 268.77,150.15 262.99,149.87 269,145.46 		"/>
		<path class="st0" d="M258.94,160.92c-0.15,0.9-0.1,1.72,0.13,2.47c0.23,0.75,0.64,1.37,1.21,1.86c0.57,0.49,1.28,0.8,2.12,0.94
			c0.84,0.14,1.61,0.07,2.31-0.21c0.7-0.28,1.28-0.74,1.74-1.37c0.46-0.64,0.77-1.4,0.92-2.3l0.61-3.69l-8.42-1.39L258.94,160.92z
			 M260.28,161.05l0.33-2.03l5.77,0.95l-0.33,2.03c-0.1,0.63-0.31,1.16-0.63,1.58c-0.32,0.42-0.71,0.73-1.18,0.92
			c-0.47,0.19-1,0.24-1.59,0.14c-0.58-0.09-1.06-0.31-1.45-0.64c-0.39-0.33-0.67-0.75-0.83-1.25
			C260.2,162.25,260.17,161.68,260.28,161.05z"/>
		<polygon class="st0" points="259.63,179.92 262.81,181.07 263.21,179.85 259.98,178.87 		"/>
		<polygon class="st0" points="258.9,182.16 262.07,183.31 262.47,182.08 259.24,181.11 		"/>
		<path class="st0" d="M251.43,187.31l2.28,0.99l-0.76,1.77c-0.05,0.1-0.08,0.21-0.12,0.31l-2.99,0.61l-0.68,1.57l3.35-0.69
			c0,0.05-0.01,0.09-0.01,0.14c0.01,0.59,0.16,1.11,0.45,1.56c0.29,0.45,0.73,0.79,1.3,1.04c0.58,0.25,1.14,0.33,1.67,0.25
			c0.53-0.09,1.02-0.33,1.45-0.73c0.43-0.4,0.8-0.95,1.1-1.64l1.39-3.22l-7.83-3.38L251.43,187.31z M257.3,191.86
			c-0.28,0.64-0.62,1.06-1.03,1.27c-0.41,0.21-0.86,0.2-1.36-0.01c-0.49-0.21-0.81-0.54-0.94-0.98c-0.14-0.44-0.06-0.99,0.21-1.63
			l0.73-1.7l3.12,1.35L257.3,191.86z"/>
		<polygon class="st0" points="243.63,202.85 244.8,203.51 247.16,199.31 249.2,200.46 247.18,204.05 248.32,204.69 250.33,201.1 
			252.26,202.18 249.98,206.22 251.15,206.88 254.2,201.45 246.77,197.28 		"/>
		<polygon class="st0" points="239.82,208.74 244.53,212.1 237.09,212.56 236.34,213.62 243.28,218.57 244.19,217.3 239.48,213.94 
			246.92,213.47 247.67,212.41 240.73,207.46 		"/>
		<path class="st0" d="M236.18,220.69c-0.46-0.42-0.97-0.72-1.52-0.91c-0.55-0.19-1.11-0.26-1.68-0.22
			c-0.57,0.04-1.13,0.2-1.67,0.47s-1.03,0.65-1.47,1.14c-0.44,0.49-0.77,1.01-0.99,1.57s-0.31,1.13-0.29,1.7
			c0.02,0.57,0.15,1.12,0.39,1.65c0.24,0.53,0.6,1,1.07,1.43c0.47,0.43,0.98,0.73,1.53,0.92c0.55,0.19,1.11,0.27,1.68,0.23
			c0.57-0.04,1.12-0.2,1.65-0.47c0.54-0.27,1.02-0.65,1.47-1.14c0.45-0.49,0.78-1.02,0.99-1.58s0.31-1.13,0.3-1.7
			c-0.01-0.57-0.14-1.12-0.38-1.65C237,221.59,236.65,221.11,236.18,220.69z M235.95,225.08c-0.14,0.37-0.35,0.72-0.64,1.04
			c-0.29,0.32-0.61,0.56-0.96,0.73c-0.35,0.17-0.72,0.27-1.1,0.29c-0.38,0.02-0.76-0.04-1.13-0.17c-0.37-0.14-0.72-0.35-1.04-0.65
			c-0.33-0.29-0.57-0.62-0.74-0.98c-0.17-0.36-0.26-0.72-0.28-1.1c-0.02-0.38,0.04-0.75,0.17-1.12c0.13-0.37,0.35-0.71,0.63-1.03
			c0.29-0.32,0.61-0.57,0.97-0.74c0.36-0.18,0.73-0.27,1.11-0.29c0.38-0.02,0.76,0.04,1.13,0.17c0.37,0.13,0.72,0.34,1.04,0.63
			c0.33,0.29,0.57,0.62,0.73,0.98c0.16,0.36,0.26,0.73,0.28,1.11C236.15,224.33,236.09,224.7,235.95,225.08z"/>
		<polygon class="st0" points="220.12,230.9 223.06,239.73 224.22,238.68 221.98,231.86 228.48,234.86 229.76,233.71 221.28,229.85 
					"/>
		<path class="st0" d="M213.61,236.26l0.47,2.1l-3.46,2.5l-1.84-1.11l-1.35,0.98l8.11,4.66l1.26-0.91l-1.88-9.16L213.61,236.26z
			 M214.37,239.68l0.88,3.96l-3.48-2.09L214.37,239.68z"/>
		<polygon class="st0" points="205.84,250.1 202.22,243.89 200.85,244.69 204.47,250.9 202.03,252.32 202.71,253.48 208.96,249.83 
			208.28,248.68 		"/>
		<polygon class="st0" points="188.24,251.02 188.8,252.23 193.17,250.22 194.15,252.35 190.41,254.07 190.95,255.25 194.7,253.53 
			195.62,255.54 191.4,257.48 191.96,258.69 197.62,256.09 194.05,248.34 		"/>
		<polygon class="st0" points="184.16,258.11 185.21,261.32 186.42,260.88 185.21,257.73 		"/>
		<polygon class="st0" points="181.95,258.9 182.99,262.11 184.21,261.67 182.99,258.53 		"/>
	</g>
	<g>
		<path class="st0" d="M137.05,18.51l-0.05-1.33c1.63-0.07,3.26-0.1,4.84-0.1c1.5,0,3.06,0.03,4.62,0.09l-0.05,1.33
			c-1.54-0.06-3.08-0.09-4.57-0.09C140.27,18.41,138.66,18.44,137.05,18.51z"/>
		<path class="st0" d="M137.05,18.51l-0.05-1.33c1.63-0.07,3.26-0.1,4.84-0.1c1.5,0,3.06,0.03,4.62,0.09l-0.05,1.33
			c-1.54-0.06-3.08-0.09-4.57-0.09C140.27,18.41,138.66,18.44,137.05,18.51z"/>
	</g>
	<path class="st0" d="M91.86,108.84c-1.13,1.18-2.49,2.89-3.58,5.18c-0.33,0.7-0.6,1.38-0.83,2.02c-0.83-7.77-1.18-19.37,0.26-29.37
		c1.34-9.31,3.93-18.46,7.69-27.21c2.71-6.3,6.05-12.41,9.91-18.17c0.31-0.46,0.24-1.07-0.17-1.45c-0.41-0.38-1.02-0.4-1.46-0.05
		c-8.71,6.93-15.89,15.86-20.76,25.83c-2.27,4.64-3.9,9.2-5.05,13.52c0-0.09,0-0.18,0-0.28c-0.05-6.22-1.43-11.51-2.57-14.85
		c-1.15-3.37-2.65-6.39-3.48-7.01c-0.44-0.33-0.86-0.28-1.07-0.22c-0.3,0.09-0.55,0.29-0.7,0.56c-0.28,0.52-0.14,0.96,0.23,2.16
		c0.71,2.28,2.18,7.03,1.47,12.93c-0.64,5.35-2.74,8.55-4.97,11.95c-1.53,2.33-3.1,4.73-4.28,7.92c-1.43,3.86-1.81,7.77-1.64,11.39
		c-0.72-1.27-1.52-2.55-2.42-3.83c-4.01-5.72-9.38-10.46-11.32-10.71c-0.54-0.07-0.9,0.12-1.1,0.29c-0.4,0.34-0.74,0.98-0.09,2.12
		c0.24,0.42,0.61,0.96,1.09,1.64c1.66,2.38,4.74,6.81,6.45,13c0.83,3.01,0.86,4.66,0.89,6.74c0.03,2.1,0.07,4.48,0.89,8.78
		c0.92,4.84,2.19,8.73,3.06,11.36c-0.86-1.12-1.94-2.48-3.26-3.92c-3.57-3.88-7.27-6.56-9.75-8.12c-1.69-1.07-4.87-2.85-6.05-2.78
		c-0.52,0.03-0.8,0.32-0.93,0.49c-0.18,0.25-0.25,0.56-0.2,0.87c0.1,0.58,0.49,0.85,1.43,1.51c1.65,1.15,5.08,3.56,7.74,7.85
		c1.84,2.98,2.17,5.03,2.59,7.61c0.38,2.37,0.81,5.05,2.44,9.03c1.95,4.77,5.27,9.46,7.7,12.88c0.63,0.89,1.34,1.89,1.89,2.73
		c-0.06-0.02-0.11-0.03-0.16-0.04c-0.78-0.49-1.82-1.22-3.15-2.27c-2.49-1.96-4.87-4.15-6.21-5.73c-1.91-2.26-2.38-3.41-2.93-4.75
		c-0.56-1.37-1.19-2.92-3.35-5.7c-0.49-0.62-1-1.3-1.55-2.02c-4.1-5.38-5.57-7.07-6.78-7.19c-0.39-0.04-0.76,0.08-1.04,0.33
		c-0.95,0.84-0.32,2.17-0.08,2.67c0.35,0.74,0.92,1.68,1.59,2.78c1.19,1.96,2.67,4.41,3.86,7.22c2.99,7.07,3.34,10.48,3.74,14.43
		c0.26,2.57,0.56,5.48,1.63,9.7c2.63,10.29,9.63,18.66,14.27,24.2c1.26,1.51,2.35,2.81,3.11,3.86c0.55,0.76,0.8,1.23,0.91,1.5
		c-0.28-0.01-0.65-0.04-1.03-0.07c-0.96-0.07-2.4-0.18-4.48-0.23c-1.31-0.03-3.74-0.08-5.91,0.02c-3.13,0.14-4.87,0.47-5.11,1.79
		c-0.04,0.23-0.08,0.83,0.51,1.36c0.2,0.18,0.47,0.35,0.84,0.52c0.55,0.26,1.3,0.52,2.24,0.85c1.85,0.64,4.38,1.53,6.87,2.94
		c5.32,3.02,7.49,5.86,10,9.14c0.86,1.13,1.75,2.29,2.81,3.51c2.78,3.48,2.72,2.94,2.94,2.84c0.49-0.24,0.09-1.84-0.04-2.24
		c-0.09-0.3-0.18-0.62-0.27-0.94l0.02-0.02c-0.01-0.01-0.02-0.02-0.03-0.04c-3.96-14.34-6.86-48.62-7.7-51.31
		c-0.02-0.06-0.19-0.74-0.07-0.61c0,0,0.42,0.38,1.41,1.58c0.05,0.07,0.15,0.23,0.23,0.38c0.17,0.33,0.55,1.27,0.56,1.31
		c0.29,1.13,4.69,22.02,7.12,36.88c0.18,1.11,0.3,1.89,0.41,2.77c0.97,7.59,0.85,12.27,0.82,12.91c-0.03,0.59-0.14,1.67-0.12,1.79
		l1.38,0.76c1.52,0.85,5.82,3.12,5.82,3.12l-0.1-0.3c-0.34-1.02-0.62-2.06-0.85-3.12c-0.41-1.89-1.26-5.42-1.36-5.94
		c-0.13-0.66-3.79-25.47-5.79-36.03c-0.39-2.05-0.72-4.51-2.43-13.77c-0.01-0.04-0.17-0.3-0.11-0.61c0.04-0.2,0.15-0.33,0.17-0.35
		c2.01-2.51,1.96-10.19,1.96-10.19c-0.06-9.98-1.03-15.25-1.03-15.25c-2.64-14.43-7.59-25.43-9.55-29.56
		c-0.56-1.17-1.11-2.29-1.67-3.37c-0.04-0.11-0.11-0.28-0.15-0.39c-0.19-0.79-0.36-1.62-0.51-2.48c-0.94-5.45-0.59-10.44,1.03-14.84
		c1.09-2.94,2.6-5.24,4.05-7.47c2.27-3.46,4.61-7.03,5.31-12.9c0.21-1.73,0.24-3.38,0.16-4.91c0.84,3.16,1.5,6.96,1.53,11.09
		c0.06,7.22-1.76,13.06-2.74,16.19c-0.08,0.24-0.15,0.46-0.21,0.67c-0.17,0.52-0.29,0.93-0.34,1.21c-0.01,0.03-0.01,0.06-0.02,0.09
		c-0.02,0.07-0.03,0.14-0.04,0.21c-0.85,4.91,0.36,11.6,2.08,19.27c1.67,7.45,2.07,15.13,3.43,22.64c1.15,6.3,1.3,8.33,6.64,61.58
		c0.45,4.48,1.29,8.21,1.37,13.61c0.04,2.53,0.08,14.65,0.01,14.98l-0.05,0.26l0.51,0.14c0,0,9.7,2.43,11.82,2.86l0.77-18.22
		c-1.37,2.37-2.75,4.92-4.1,7.65c-1.02,2.07-1.95,4.09-2.8,6.04c-0.17-4.42-0.37-8.89-0.61-13.39c-0.7-13.3-1.66-26.15-2.84-38.77
		c0.18,0.22,0.36,0.45,0.54,0.68c1.02,1.34,1.91,2.99,2.72,4.47c1.32,2.42,2.72,4.68,3.97,7.24c-0.11-3.54-0.44-7.52-0.55-11.06
		c-1.6-0.57-3.2-0.66-4.8-1.26c-0.75-0.99-1.33-1.76-2.08-2.75c-0.98-11.78-1.8-21.46-2.44-33.26c-0.3-5.56-0.7-12.31-1.15-18.07
		l1.35,4.31c1.81,5.13,3.7,11.27,5.22,16.49c1.74,5.96,2.99,11.46,4.57,17.25c-0.04-4.06,0.02-14.27,0.05-19.33
		c-3.96-5.96-6.18-12.74-6.18-19.99C89.79,116.53,90.52,112.58,91.86,108.84z M54.4,144.8c-1.53-3.75-1.94-6.3-2.3-8.55
		c-0.44-2.72-0.81-5.07-2.89-8.43c-0.63-1.03-1.3-1.95-1.99-2.78c2.01,1.51,4.18,3.39,6.23,5.62c0.07,0.07,0.13,0.14,0.2,0.22
		c1.33,2.18,2.24,4.61,2.65,7.14c0.05,0.39,0.11,0.79,0.16,1.19l0,0v0c0.63,4.49,1.64,10.12,2.78,14.28
		C57.46,150.82,55.62,147.8,54.4,144.8z M63.49,193.46c-4.51-5.39-11.32-13.52-13.82-23.32c-1.04-4.06-1.31-6.76-1.58-9.37
		c-0.4-3.96-0.78-7.7-3.91-15.08c-0.86-2.02-1.87-3.88-2.79-5.47c0.52,0.67,1.01,1.32,1.44,1.88c0.55,0.72,1.07,1.4,1.56,2.03
		c1.97,2.53,2.52,3.87,3.04,5.17c0.59,1.45,1.15,2.82,3.29,5.35c1.37,1.61,3.71,3.79,6.19,5.77c2.36,2.36,4.58,5.52,5.2,8.25
		l1.66,7.59c1.04,6.94,2,15.03,2.66,20.84C65.66,196.06,64.66,194.86,63.49,193.46z M67.07,203.06l-0.05,2.63
		c0.06,1.41-1.1,2.37-3.6,1.42c-0.79-0.54-1.64-1.08-2.6-1.62c-2.67-1.51-5.3-2.44-7.23-3.11c-0.12-0.04-0.24-0.08-0.36-0.13
		c0.5-0.04,1.12-0.08,1.88-0.1c1.93-0.06,4.02-0.02,5.14,0c2.01,0.04,3.36,0.14,4.35,0.22c1.07,0.08,1.84,0.14,2.41-0.07
		C67.03,202.56,67.05,202.81,67.07,203.06L67.07,203.06z M65.73,125.04c1.26,6.1,1.99,8.77,2.33,11.13
		c0.58,4.02,0.36,3.24,1.15,8.96c0.55,4.01,1.16,7.88,1.51,12.06c0.1,1.17,0.33,3.98,0.01,7.43c-0.05,0.54-0.21,0.97-0.29,1.26
		c-0.83-0.34-2.38-0.97-3.21-1.3c-2.93-19.75-5.87-38.39-8.8-58.13c0.68,0.92,2.38,3.48,3.23,5.3
		C62.84,114.27,64.04,116.91,65.73,125.04z M85.52,86.35c-1.32,9.2-1.17,19.71-0.51,27.49c0,0.13,0.02,0.55,0.07,1.22
		c-1.32-1.78-2.79-4.03-4.12-6.75c-3.25-6.62-3.72-17.12-1.07-28.08c1.13-4.35,2.74-8.95,5.04-13.64
		c3.63-7.44,8.59-14.28,14.53-20.1c-2.28,3.92-4.31,7.97-6.09,12.09C89.53,67.51,86.89,76.85,85.52,86.35z"/>
	<path class="st0" d="M118.53,172.59l0.3,58.81c-1.65-10.93-2.54-21.09-4.22-32c-2.08-13.47-3.85-27.31-5.98-41.51
		c-0.12-1.85,0.62-3.03,1.89-3.54c-4.44-2.72-8.32-6-11.49-9.72c0.24,1.75,0.48,3.51,0.75,5.54c0.68,21.72,1.17,46.54,1.82,68.85
		c0.13,4.62-0.12,9.23-0.75,13.8l-0.23,1.66c0.54,0.67,1.37,1.26,2.04,1.98c0.81,0.86,3,2.35,3.76,3.03
		c-0.21-1.35-0.49-2.77-0.81-4.21c-1.21-5.55-1.86-11.22-2.07-16.9c-0.75-20.58-1.5-40.6-2.18-61.24
		c4.57,29.76,8.42,58.83,12.99,88.59c1.32,0.69,2.74,1.38,4.27,2.05c1.12,0.49,2.21,0.93,3.27,1.33l-1.37-11.5l-0.2-61.89
		c-0.01-2.11,0.22-4.95,0.58-7.03c0.16-0.92,0.47-2.46,0.71-3.26c0.54-1.79,1.08-3.68,3.18-4.91c-2.38-0.67-4.68-1.47-6.89-2.4
		C118.26,163.94,118.53,172.59,118.53,172.59z"/>
	<g>
		<path class="st0" d="M161.07,165.28c0.3,1.74,0.45,3.61,0.36,5.37c-1.3,23.42-2.85,43.95-5.01,67.39
			c-0.37,4.05-0.8,7.35-1.35,11.32c1.01-0.4,3.5-1.36,4.51-1.75c-0.2-3.52-0.6-6.66-0.8-10.18c0.6-6.64,0.94-12.08,1.54-18.71
			c2.23-4.87,4.56-8.96,6.79-13.83c0.19,9.67,0.34,18.13,0.53,27.8c-0.14,4.22-0.24,8-0.37,12.22c1.69-0.52,3.75-1.41,5.62-2.35
			c1.51-0.76,3.71-1.87,5.05-2.87c-1.06-0.12-2.14-2.08-2.34-3.1c-0.03-0.13-0.05-0.26-0.08-0.4c-1.02-5.29-1.32-10.67-1.52-16.05
			c-0.3-8.3-0.33-16.31-0.4-21.07c-0.23-15.13-0.16-20.99-0.48-32.97c-0.12-4.6,0.18-8.64,0.6-12.29c-4.23,2.7-8.97,4.89-14.11,6.42
			C160.62,161.85,160.91,164.44,161.07,165.28z M163.74,165.4c0,0,1.58,7.52,3.22,36.67c-2.1,4.59-4.64,8.94-6.75,13.52
			c0.9-7.06,1.36-17.34,2.13-30.24C163.06,173.48,163.74,165.4,163.74,165.4z"/>
		<path class="st0" d="M246.67,133.88c-0.28-0.25-0.65-0.36-1.04-0.33c-1.21,0.12-2.68,1.81-6.78,7.19
			c-0.55,0.72-1.06,1.39-1.55,2.02c-2.16,2.78-2.79,4.33-3.35,5.7c-0.54,1.34-1.01,2.49-2.93,4.75c-1.29,1.52-3.59,3.47-6.17,5.22
			c-1.46,0.99-2.62,1.65-3.45,2.06c0.49-0.68,1.13-1.5,1.69-2.22c2.52-3.23,5.98-7.66,8-12.63c1.63-3.99,2.06-6.67,2.44-9.03
			c0.42-2.59,0.74-4.63,2.59-7.61c2.65-4.3,6.09-6.7,7.74-7.85c0.94-0.66,1.33-0.93,1.43-1.51c0.05-0.31-0.02-0.62-0.2-0.87
			c-0.12-0.17-0.41-0.46-0.93-0.49c-1.18-0.07-4.36,1.72-6.05,2.78c-2.48,1.56-6.18,4.23-9.75,8.12c-1.32,1.43-2.4,2.79-3.26,3.92
			c0.87-2.63,2.14-6.53,3.06-11.36c0.82-4.31,0.86-6.68,0.89-8.78c0.03-2.08,0.06-3.73,0.89-6.74c1.71-6.19,4.79-10.62,6.45-13
			c0.47-0.68,0.85-1.21,1.09-1.64c0.65-1.15,0.31-1.79-0.09-2.12c-0.21-0.17-0.57-0.36-1.1-0.29c-1.95,0.26-7.32,4.99-11.32,10.71
			c-0.82,1.17-1.55,2.3-2.19,3.38c0.06-3.28-0.41-7-1.87-10.94c-1.18-3.18-2.75-5.59-4.28-7.92c-2.22-3.39-4.32-6.6-4.97-11.95
			c-0.71-5.89,0.77-10.64,1.47-12.93c0.37-1.19,0.51-1.64,0.23-2.16c-0.15-0.28-0.4-0.48-0.7-0.56c-0.21-0.06-0.63-0.11-1.07,0.22
			c-0.83,0.62-2.33,3.64-3.48,7.01c-1.14,3.34-2.51,8.63-2.57,14.85c0,0.18,0,0.36,0,0.54c-1.16-4.4-2.8-9.05-5.12-13.79
			c-4.87-9.97-12.04-18.9-20.76-25.83c-0.44-0.35-1.05-0.32-1.46,0.05c-0.41,0.38-0.48,0.99-0.17,1.45
			c3.87,5.76,7.2,11.87,9.91,18.17c3.76,8.74,6.35,17.9,7.69,27.21c1.34,9.27,1.13,19.93,0.43,27.63c-0.03,0.2-0.09,0.49-0.16,0.85
			c-0.24-0.46-0.53-0.99-0.9-1.65c-1.1-1.98-2.67-3.58-3.54-4.73c0,0,0,0,0,0c0.24,0.66,0.46,1.33,0.66,2.01c0,0,0,0,0,0
			c0.75,2.56,1.22,5.21,1.37,7.92v0c0.03,0.63,0.06,1.27,0.06,1.91c0,0.72-0.02,1.44-0.07,2.16c0,0,0,0,0,0
			c-0.07,1.1-0.2,2.18-0.37,3.26c0,0,0,0,0,0c-0.05,0.32-0.09,0.64-0.15,0.96v0c-0.08,0.44-0.18,0.87-0.28,1.3c0,0,0,0,0,0
			c-0.02,0.08-0.04,0.16-0.05,0.24c-0.15,0.65-0.32,1.3-0.51,1.94c0,0,0,0.01,0,0.01c-0.03,0.1-0.06,0.21-0.09,0.31
			c-0.21,0.67-0.43,1.34-0.67,2c-0.03,0.09-0.06,0.18-0.09,0.27c0,0,0,0,0,0c-0.21,0.54-0.43,1.08-0.66,1.61c0,0,0,0.01,0,0.01
			c-0.03,0.07-0.06,0.13-0.08,0.2c-0.86,1.94-1.88,3.81-3.06,5.61c0,0,0,0,0,0c-0.01,0.01-0.01,0.02-0.02,0.03
			c-2.51,3.82-5.73,7.28-9.5,10.28c0.41,7.06,0.23,21.89,0.45,24.54c2.28-7.11,6.6-22.61,9.33-28.75l0.05-0.06
			c0.52,31.99-0.19,35.25-1.6,59.87c-0.19,3.28-1.44,15.83-2.04,19.06c-0.71,3.81-0.9,6.4-3.6,12.98l2.5-1.8
			c1.08-0.77,1.98-1.56,2.93-2.47c0.78-0.74,1.26-1.25,2.63-1.73c0,0,0,0,0,0c0.82-0.31,1.65-0.57,2.51-0.78
			c0.42-0.1,0.9-0.22,1.39-0.33c-0.17-4.76-0.34-9.51-0.52-14.27c2.19-33.18,3.34-63.85,5.56-96.99c0.19-2.89,0.97-8.3,3.78-3.97
			c2.18,3.78,4.17,7.12,5.04,17.46c0.67,9.45,0.51,16.4,0.38,21.64c-0.14,5.54-0.12,22.28-5.55,57.73
			c-1.11,7.23-1.56,10.02-5.41,17.44c2.55-0.8,6.05-2.4,7.48-3.26c2.19-1.32,3.69-2.65,4.35-3.26c1.72-1.59,2.78-3,3.73-4.27
			c0.58-0.77,0.95-1.33,1.24-1.8c2.98-3.78,5.88-7.35,11.14-10.34c2.49-1.42,5.02-2.3,6.87-2.94c0.94-0.33,1.68-0.59,2.24-0.85
			c0.39-0.18,1.56-0.73,1.35-1.88c-0.24-1.33-1.98-1.65-5.11-1.79c-2.17-0.1-4.6-0.05-5.91-0.02c-2.08,0.04-3.52,0.15-4.47,0.23
			c-0.41,0.03-0.8,0.06-1.08,0.07c0.09-0.28,0.31-0.78,0.87-1.63c0.72-1.11,1.78-2.51,3-4.12c4.19-5.52,10.53-13.87,13.1-23.95
			c0.87-3.41,1.36-5.9,1.8-8.1c0.91-4.6,1.57-7.92,4.95-15.89c1.19-2.82,2.67-5.26,3.86-7.22c0.66-1.1,1.24-2.04,1.59-2.78
			C247,136.05,247.63,134.71,246.67,133.88z M202.69,89.19c-0.8,7.83-1.52,13.78-4.17,22.56c0.52-7.51,0.54-17-0.67-25.4
			c-1.37-9.5-4.01-18.84-7.85-27.77c-1.78-4.12-3.81-8.17-6.09-12.09c5.94,5.82,10.9,12.66,14.53,20.1
			c0.81,1.66,1.54,3.31,2.19,4.95c-0.07-0.08-0.13-0.16-0.2-0.25C203.31,78.26,202.94,86.74,202.69,89.19z M222.8,121.43
			c0.02,0.02,0.03,0.04,0.04,0.06c1.63,2.09,0.83,7.39,0.54,9.74c-0.16,0.49-0.31,0.94-0.45,1.36c-0.39,1.19-0.7,2.13-0.87,2.83
			c-0.12,0.51-0.45,1.86,0.62,2.4c0.99,0.5,1.83-0.42,2.11-0.72c0.39-0.43,0.85-1.03,1.43-1.8c0.91-1.21,2.17-2.87,3.78-4.62
			c2.05-2.23,4.22-4.1,6.23-5.62c-0.68,0.83-1.35,1.76-1.99,2.78c-2.08,3.36-2.45,5.71-2.89,8.43c-0.36,2.25-0.77,4.8-2.3,8.55
			c-1.91,4.68-3.71,7.46-6.15,10.59c-0.32,0.41-0.62,0.8-0.9,1.16c-0.81,0.97-2.06,2.87-2.58,3.85c-0.59,1.12-1.41,3.08-3.03,4.03
			l0,0l-2.13,0.97l2.22-46.03C216.73,117.05,221.35,119.59,222.8,121.43z M209.51,100.75c-0.01-0.23-0.04-0.5-0.08-0.8
			c-0.87-6.35-1.71-12.5-1.68-18.91c0-0.71,0.01-1.44,0.01-2.17c0.04-4.13,0.69-7.93,1.53-11.09c-0.08,1.53-0.05,3.18,0.16,4.91
			c0.7,5.86,3.05,9.44,5.31,12.9c1.46,2.22,2.96,4.52,4.05,7.47c1.35,3.64,1.78,7.08,1.72,10.14c-0.07,3.97-1.2,7.88-3.5,11.12
			c-0.9,1.26-1.83,2.23-2.58,2.78c-1.76,1.28-5.05,2.41-6.73,2.05C203.29,117.9,210.11,113.27,209.51,100.75z M239.27,145.68
			c-3.47,8.19-4.15,11.6-5.08,16.33c-0.43,2.17-0.92,4.63-1.77,7.98c-2.46,9.65-8.64,17.78-12.72,23.16
			c-1.99,2.62-3.44,4.54-4.06,6.02c-0.69,1.18-1.37,2.53-1.68,3.27c-1.95,5.11-3.08,10.62-5.03,15.73
			c2.18-18.26,3.91-32.45,5.21-51.08c2.01-0.43,4.06,0.05,5.95,0.85l3.8,1.59c0,0-0.12-3.78-0.07-5.25
			c0.06-1.78,1.35-3.26,2.79-4.35c2.54-1.77,4.81-3.72,6.13-5.28c2.14-2.53,2.7-3.9,3.29-5.35c0.53-1.3,1.07-2.64,3.04-5.17
			c0.49-0.63,1.01-1.31,1.56-2.03c0.42-0.56,0.92-1.21,1.44-1.88C241.13,141.8,240.12,143.66,239.27,145.68z"/>
	</g>
</g>
<g id="Layer_2">
</g>
</svg>
