<?xml version="1.0" encoding="utf-8"?>
<!-- Generator: Adobe Illustrator 28.3.0, SVG Export Plug-In . SVG Version: 6.00 Build 0)  -->
<svg version="1.1" id="Layer_1" xmlns="http://www.w3.org/2000/svg" xmlns:xlink="http://www.w3.org/1999/xlink" x="0px" y="0px"
	 viewBox="0 0 1600 500" style="enable-background:new 0 0 1600 500;" xml:space="preserve">
<style type="text/css">
	.st0{fill:url(#SVGID_1_);}
	.st1{opacity:0.7;clip-path:url(#SVGID_00000089573448113054329300000018047779666445886354_);}
	.st2{fill:#FFD300;}
	.st3{fill:url(#SVGID_00000109751887396364194400000001019520705584979861_);}
</style>
<g>
	<linearGradient id="SVGID_1_" gradientUnits="userSpaceOnUse" x1="796.6221" y1="271.5338" x2="746.1788" y2="593.1104">
		<stop  offset="0" style="stop-color:#001E5A"/>
		<stop  offset="0.2595" style="stop-color:#02205A"/>
		<stop  offset="0.3969" style="stop-color:#0A265A"/>
		<stop  offset="0.5058" style="stop-color:#18305A"/>
		<stop  offset="0.5996" style="stop-color:#2B3E5A"/>
		<stop  offset="0.6838" style="stop-color:#44515A"/>
		<stop  offset="0.7612" style="stop-color:#63675A"/>
		<stop  offset="0.8333" style="stop-color:#87835A"/>
		<stop  offset="0.9012" style="stop-color:#B1A25A"/>
		<stop  offset="0.9635" style="stop-color:#E0C55A"/>
		<stop  offset="1" style="stop-color:#FFDC5A"/>
	</linearGradient>
	<rect class="st0" width="1600" height="500"/>
	<g>
		<defs>
			<rect id="SVGID_00000001632204493879880650000012443139492545581448_" width="1600" height="500"/>
		</defs>
		<clipPath id="SVGID_00000111165215435171983030000001324854706987602822_">
			<use xlink:href="#SVGID_00000001632204493879880650000012443139492545581448_"  style="overflow:visible;"/>
		</clipPath>
		<g style="opacity:0.7;clip-path:url(#SVGID_00000111165215435171983030000001324854706987602822_);">
			<circle class="st2" cx="1299.71" cy="405.02" r="367.2"/>
			
				<linearGradient id="SVGID_00000018236412477114139100000011766344564883927205_" gradientUnits="userSpaceOnUse" x1="1299.4613" y1="759.9438" x2="1299.4613" y2="50.0085">
				<stop  offset="0" style="stop-color:#0073B1"/>
				<stop  offset="0.2825" style="stop-color:#006FAE"/>
				<stop  offset="0.5386" style="stop-color:#0064A4"/>
				<stop  offset="0.7836" style="stop-color:#015295"/>
				<stop  offset="1" style="stop-color:#013B81"/>
			</linearGradient>
			<path style="fill:url(#SVGID_00000018236412477114139100000011766344564883927205_);" d="M1309.88,759.79L1309.88,759.79
				c-195.96,5.75-359.48-148.44-365.23-344.4l0,0c-5.75-195.96,148.44-359.47,344.4-365.23l0,0
				c195.96-5.75,359.47,148.44,365.23,344.4v0C1660.03,590.52,1505.83,754.04,1309.88,759.79z"/>
			<path class="st2" d="M1290.54,679.62c9.11-24.47,6.88-100.32,6.62-109.4c-0.77-27.41-1.18-43.38-3.73-64.28
				c-1.4-11.5-5.13-39.7-17.7-42.1c-1.67-0.32-5.06-0.41-8.06,1.68c-4.03,2.82-8.14,10.84-9.79,17.45c-2.5,10-3.96,25.49-3.96,25.49
				c-1,11.24-1.11,14.64-1.28,56.72c-0.16,40.63,1.37,50.95,3.45,75.18c0,0,0.6,10.36,5.86,30.02c2.54,9.49,7.56,16.45,12.53,19.55
				c1.56,0.97,5.89,1.67,8.46-0.06C1287.46,686.79,1289.55,682.27,1290.54,679.62z M1277.6,652.35c-2.83-8.87-3.26-10.71-6.48-26.23
				c-2.57-12.36-4.08-21.33-6.12-36.2c-3.18-23.12-1.71-20.84-4.78-45.39c0,0-4.16-33.18-0.11-56c0.28-1.59,0.87-4.32,2.17-4.64
				c1.87-0.46,4.19,4.26,5.9,8.13c6.46,14.63,9.12,28.54,9.61,31.18c3.16,16.97,4.74,25.45,5.35,29.39
				c3.84,24.73,5.33,42.72,5.64,46.6c0.83,10.24,1.22,17.5,1.55,27.18c0.53,15.69,0.66,17.75,0.61,21.25c0,0,0.05,7.26-1.52,18.96
				c-0.19,1.44-1.1,4.94-2.15,5.18c-1.19,0.28-2.56-2.13-3.69-4.35C1278.8,658.03,1277.6,652.35,1277.6,652.35z"/>
			<path class="st2" d="M1299.37,449.82c2.7,25.52,5.04,56.15,5.78,67.73c2.73,42.53,2.43,57.4,2.21,120.53
				c-0.09,26.41-5.23,57.41-19.77,89.63c15.12-25.6,32.19-37.38,38.89-41.09c-0.97-14.97,0.27-29.23,1.11-44.21l10.77-227.46
				c0,0,0,0,0,0c2.57-45.14,10.48-50.54,13.77-54.83c10.41-13.6,13.51-26.17,12.71-26.68c-0.55-0.35-3.08,5.9-10.33,11.55
				c-6.5,5.05-12.19,6.89-20.26,7.27l-0.34,25.99c0.02-0.01,0.03-0.02,0.05-0.02c-0.44,28.22-2.59,75.46-3.03,92.17
				c-2.52,66.03-7.4,136.94-11.47,204.87l-3.66-286.06c0.01-0.01,0.03-0.01,0.04-0.02l-0.31-36.3c-12.57,0.59-22.77,1.87-32.93,5.25
				c-10.62,3.54-31.39,13.04-37.94,44.7c8.92-13.72,18.01-21.35,28.56-21.35C1283.36,381.48,1293.84,396.09,1299.37,449.82z"/>
			<g>
				<path class="st2" d="M1199.22,695.94c-2.63-0.89-4.86-1.02-6.69-0.37c-1.83,0.65-3.09,1.99-3.79,4.05
					c-0.68,1.99-0.54,3.73,0.42,5.21c0.95,1.48,2.69,2.64,5.2,3.5l6.19,2.1l-1.73,5.11l-12.46-4.23l-1.1,3.23l16.32,5.54l7.1-20.92
					L1199.22,695.94z M1201.55,707.43l-5.38-1.83c-3.05-1.04-4.21-2.63-3.48-4.78c0.37-1.1,1.04-1.8,2.02-2.12
					c0.97-0.31,2.21-0.22,3.7,0.29l5.38,1.83L1201.55,707.43z"/>
				<path class="st2" d="M1178.94,687.99c-1.07-0.5-2.08-0.65-3.02-0.47c-0.95,0.19-1.87,0.7-2.77,1.55
					c-0.9,0.84-1.81,1.97-2.72,3.38c-0.91,1.41-1.86,3.08-2.85,5.01l-2.5,4.93l-7.87-3.66l7.85-16.89l-3.69-1.72l-9.32,20.03
					l14.74,6.86l4.13-8.14c0.96-1.85,1.83-3.37,2.64-4.55c0.8-1.18,1.59-1.99,2.36-2.42c0.77-0.43,1.56-0.46,2.38-0.07
					c0.31,0.14,0.57,0.31,0.81,0.51l1.78-3.14c-0.34-0.27-0.66-0.51-0.98-0.7C1179.58,688.31,1179.26,688.14,1178.94,687.99z"/>
				<path class="st2" d="M1141.78,675.18l-9.43-5.76l0.8-5.5l-3.69-2.25l-2.99,24.06l3.45,2.1l20-13.68l-3.58-2.19L1141.78,675.18z
					 M1138.92,677.21l-8.58,6.09l1.5-10.41L1138.92,677.21z"/>
				<polygon class="st2" points="1104.44,666.52 1095.71,659.89 1093.59,662.64 1105.55,671.73 1118.92,654.13 1115.67,651.67 				
					"/>
				<path class="st2" d="M1095.61,639.34c-0.09-1.49-0.48-2.93-1.17-4.34c-0.69-1.41-1.66-2.69-2.91-3.85
					c-1.25-1.16-2.6-2.02-4.05-2.6c-1.44-0.58-2.91-0.85-4.39-0.81c-1.48,0.04-2.9,0.36-4.27,0.97c-1.37,0.61-2.61,1.52-3.72,2.73
					c-1.11,1.21-1.93,2.52-2.44,3.94c-0.51,1.42-0.72,2.87-0.63,4.34c0.09,1.47,0.48,2.9,1.16,4.3c0.69,1.39,1.66,2.67,2.91,3.83
					c1.27,1.17,2.63,2.04,4.08,2.61c1.45,0.57,2.92,0.84,4.4,0.82c1.48-0.02,2.91-0.34,4.27-0.95c1.37-0.61,2.61-1.52,3.72-2.73
					c1.1-1.19,1.9-2.49,2.4-3.9C1095.49,642.27,1095.7,640.82,1095.61,639.34z M1091.23,642.12c-0.35,0.97-0.9,1.86-1.66,2.68
					c-0.77,0.83-1.62,1.46-2.55,1.88c-0.93,0.42-1.89,0.65-2.88,0.69c-0.99,0.05-1.96-0.12-2.92-0.49
					c-0.96-0.37-1.85-0.94-2.67-1.69c-0.82-0.76-1.44-1.59-1.87-2.51c-0.43-0.91-0.67-1.86-0.72-2.85
					c-0.05-0.99,0.11-1.96,0.48-2.91c0.36-0.95,0.93-1.85,1.7-2.68c0.77-0.83,1.62-1.47,2.55-1.9c0.93-0.43,1.88-0.67,2.87-0.7
					c0.98-0.04,1.94,0.12,2.89,0.48c0.94,0.36,1.83,0.91,2.65,1.67c0.82,0.76,1.45,1.6,1.9,2.53c0.45,0.93,0.69,1.89,0.72,2.88
					C1091.74,640.18,1091.58,641.16,1091.23,642.12z"/>
				<path class="st2" d="M1072.44,617.84l6.21-5.32l-2.5-2.89l-3.56,3.07l-11.08-12.83l3.56-3.07l-2.48-2.87l-6.19,5.34l2.08,2.41
					l-14.09,12.17l10.59,12.25l5.44-4.37c1.32-1.05,2.56-1.99,3.73-2.8c1.17-0.82,2.25-1.46,3.24-1.92
					c0.99-0.46,1.87-0.69,2.65-0.68c0.78,0.01,1.42,0.33,1.92,0.95L1072.44,617.84z M1067.47,613.29c-0.82,0.15-1.71,0.49-2.67,1.01
					c-0.96,0.53-1.99,1.17-3.07,1.92c-1.08,0.76-2.2,1.6-3.34,2.53l-3.07,2.44l-5.65-6.55l11.47-9.9l7.34,8.5
					C1068.16,613.22,1067.83,613.22,1067.47,613.29z"/>
				
					<rect x="1029.83" y="588.9" transform="matrix(0.812 -0.5837 0.5837 0.812 -149.2144 718.6472)" class="st2" width="22.1" height="4.07"/>
				<polygon class="st2" points="1037.75,566.45 1018.25,564.2 1031.74,556.25 1029.67,552.74 1010.63,563.97 1012.57,567.26 
					1032.12,569.51 1018.6,577.48 1020.67,580.99 1039.7,569.76 				"/>
				<path class="st2" d="M1011.18,570.17c-1.18-0.43-2.4-0.28-3.66,0.44l1.44,2.45c0.68-0.38,1.33-0.45,1.96-0.22
					c0.62,0.23,1.17,0.74,1.63,1.51c0.46,0.78,0.64,1.49,0.53,2.14c-0.11,0.65-0.49,1.18-1.15,1.59l1.44,2.45
					c1.24-0.76,1.96-1.75,2.16-2.98c0.2-1.23-0.18-2.66-1.14-4.29C1013.43,571.63,1012.36,570.6,1011.18,570.17z"/>
				<polygon class="st2" points="1020.84,535.04 1012.18,538.88 1007.55,528.43 1016.21,524.6 1014.56,520.87 994.36,529.82 
					996.01,533.54 1004.35,529.85 1008.97,540.3 1000.63,543.99 1002.3,547.74 1022.5,538.8 				"/>
				<polygon class="st2" points="1007.89,502.49 989.43,495.83 1004.38,491.18 1003.17,487.29 982.07,493.85 983.2,497.5 
					1001.71,504.18 986.73,508.83 987.93,512.72 1009.03,506.17 				"/>
				<polygon class="st2" points="998.68,468.28 981.11,459.54 996.5,456.65 995.75,452.65 974.03,456.72 974.73,460.48 
					992.34,469.25 976.92,472.14 977.68,476.14 999.39,472.07 				"/>
				<path class="st2" d="M972.43,462.74c-0.96-0.8-2.16-1.08-3.59-0.83l0.52,2.79c0.77-0.12,1.41,0.03,1.92,0.46
					c0.51,0.43,0.85,1.09,1.01,1.98c0.17,0.89,0.09,1.62-0.23,2.2c-0.32,0.57-0.86,0.94-1.62,1.11l0.52,2.79
					c1.42-0.29,2.44-0.98,3.05-2.07c0.61-1.09,0.74-2.56,0.39-4.43C974.05,464.88,973.39,463.55,972.43,462.74z"/>
				<path class="st2" d="M969.31,408.97l2.26-0.01c0.12,2.16,0.48,4.06,1.12,5.66c0.77,1.94,1.87,3.43,3.32,4.45
					c1.45,1.02,3.2,1.53,5.26,1.52c2.06-0.01,3.81-0.53,5.23-1.57c1.43-1.04,2.51-2.53,3.24-4.48c0.61-1.6,0.94-3.51,1.04-5.67
					l2.39-0.01l-0.02-3.79l-2.38,0.01c-0.11-2.23-0.46-4.17-1.11-5.79c-0.76-1.9-1.86-3.35-3.32-4.34c-1.46-0.99-3.2-1.48-5.22-1.47
					c-2.06,0.01-3.81,0.52-5.25,1.54c-1.44,1.02-2.53,2.49-3.28,4.42c-0.62,1.61-0.97,3.53-1.06,5.73l-2.26,0.01L969.31,408.97z
					 M986.98,412.2c-0.47,1.41-1.18,2.49-2.15,3.25c-0.96,0.75-2.16,1.13-3.59,1.14c-1.45,0.01-2.66-0.34-3.62-1.04
					c-0.96-0.7-1.68-1.76-2.16-3.18c-0.33-0.97-0.51-2.15-0.61-3.42l12.71-0.06C987.46,410.11,987.3,411.25,986.98,412.2z
					 M975.43,401.65c0.48-1.37,1.19-2.42,2.13-3.14c0.94-0.72,2.12-1.08,3.53-1.09c1.43-0.01,2.63,0.34,3.6,1.04
					c0.97,0.7,1.71,1.74,2.21,3.11c0.36,0.98,0.55,2.19,0.65,3.52l-12.73,0.07C974.91,403.85,975.08,402.64,975.43,401.65z"/>
				<path class="st2" d="M974.33,375.74c0.89,1.18,1.98,2.15,3.28,2.89c1.3,0.75,2.77,1.21,4.4,1.4c1.61,0.19,3.13,0.07,4.57-0.36
					c1.44-0.42,2.73-1.11,3.88-2.06c1.15-0.95,2.09-2.11,2.82-3.5c0.73-1.39,1.2-2.93,1.4-4.62c0.2-1.69,0.1-3.29-0.28-4.8
					c-0.39-1.51-1.03-2.85-1.93-4.02c-0.9-1.17-2-2.14-3.3-2.88c-1.3-0.74-2.77-1.21-4.4-1.4c-1.63-0.19-3.17-0.07-4.62,0.35
					c-1.45,0.42-2.74,1.11-3.88,2.04c-1.14,0.94-2.07,2.09-2.79,3.47c-0.72,1.38-1.18,2.91-1.38,4.61c-0.2,1.71-0.1,3.33,0.29,4.83
					C972.8,373.21,973.44,374.55,974.33,375.74z M975.68,367.28c0.13-1.11,0.44-2.11,0.92-2.99c0.49-0.89,1.11-1.64,1.88-2.26
					c0.77-0.62,1.65-1.06,2.64-1.33c0.98-0.27,2.04-0.33,3.17-0.2c1.13,0.13,2.14,0.45,3.04,0.94c0.9,0.5,1.65,1.13,2.26,1.9
					c0.61,0.77,1.05,1.64,1.32,2.62c0.27,0.97,0.34,2.01,0.21,3.12c-0.13,1.11-0.44,2.12-0.93,3.02c-0.49,0.91-1.12,1.66-1.9,2.27
					c-0.78,0.61-1.67,1.06-2.65,1.34c-0.99,0.29-2.03,0.37-3.14,0.24c-1.13-0.13-2.13-0.45-3.02-0.96
					c-0.88-0.51-1.63-1.14-2.25-1.92c-0.62-0.77-1.06-1.66-1.33-2.65C975.62,369.44,975.55,368.39,975.68,367.28z"/>
				<polygon class="st2" points="999.24,339.87 990.03,337.69 992.65,326.57 1001.87,328.75 1002.81,324.79 981.3,319.71 
					980.37,323.67 989.24,325.77 986.62,336.89 977.74,334.79 976.79,338.78 998.3,343.87 				"/>
				<path class="st2" d="M998.04,304.55c1.29,0.62,2.37,1.25,3.26,1.88c0.89,0.63,1.52,1.29,1.89,1.97
					c0.37,0.68,0.41,1.39,0.12,2.14l-0.25,0.68l7.68,2.8l1.3-3.59l-4.42-1.6l5.75-15.95l4.42,1.6l1.29-3.56l-7.69-2.77l-1.08,3
					l-17.52-6.32l-5.49,15.23l6.48,2.6C995.33,303.3,996.76,303.93,998.04,304.55z M994.68,289.81l14.25,5.14l-3.81,10.56
					c-0.13-0.29-0.3-0.57-0.53-0.85c-0.53-0.64-1.26-1.25-2.19-1.83c-0.93-0.58-1.99-1.16-3.18-1.74c-1.19-0.57-2.47-1.13-3.84-1.67
					l-3.63-1.48L994.68,289.81z"/>
				<polygon class="st2" points="1020.49,247.15 1012.95,242.73 1011.34,245.66 1019.11,249.67 				"/>
				<polygon class="st2" points="1017.56,252.49 1010.02,248.07 1008.41,251 1016.18,255.01 				"/>
				<path class="st2" d="M1025.86,228.38c0.34-1.01,0.78-1.91,1.31-2.71c0.53-0.8,1.11-1.45,1.72-1.96
					c0.62-0.51,1.25-0.83,1.88-0.95c0.64-0.12,1.23,0.01,1.8,0.38c0.75,0.5,1.14,1.17,1.16,2.01c0.02,0.84-0.31,1.77-1,2.81
					l-2.68,4.02l2.71,1.8l2.84-4.26c0.79-1.19,1.62-1.98,2.49-2.36c0.86-0.38,1.7-0.31,2.5,0.23c0.67,0.44,1.07,1.05,1.22,1.82
					c0.15,0.77,0.08,1.61-0.19,2.53c-0.27,0.92-0.72,1.83-1.34,2.73c-0.62,0.9-1.4,1.72-2.32,2.48c-0.92,0.75-1.91,1.34-2.98,1.77
					l1.79,2.78c1.28-0.56,2.47-1.29,3.56-2.18c1.09-0.89,2.03-1.88,2.82-2.98c0.79-1.09,1.41-2.21,1.86-3.37
					c0.45-1.15,0.72-2.29,0.79-3.4c0.07-1.11-0.09-2.13-0.48-3.03c-0.39-0.91-1.04-1.66-1.93-2.25c-0.95-0.63-1.95-0.94-3-0.94
					c-1.05,0.01-2.08,0.33-3.09,0.96c-0.25,0.16-0.47,0.39-0.71,0.58c0.02-0.1,0.07-0.2,0.08-0.3c0.16-1.06,0.05-2.03-0.32-2.93
					c-0.38-0.9-1-1.64-1.88-2.22c-0.98-0.65-2.01-0.93-3.09-0.83c-1.08,0.1-2.16,0.48-3.23,1.15c-1.07,0.66-2.06,1.55-2.96,2.67
					c-0.9,1.12-1.65,2.39-2.25,3.81c-0.6,1.42-0.97,2.93-1.11,4.53l3.43,0.77C1025.31,230.44,1025.51,229.39,1025.86,228.38z"/>
				<path class="st2" d="M1057.9,215.22l-2.53-4.96l7.06-8.5l5.33,1.58l2.76-3.33l-23.37-6.44l-2.58,3.11l10.65,21.76L1057.9,215.22
					z M1053.77,207.14l-4.79-9.37l10.08,2.99L1053.77,207.14z"/>
				<polygon class="st2" points="1082.35,187.81 1075.78,180.98 1084.02,173.06 1090.58,179.89 1093.52,177.06 1078.2,161.14 
					1075.27,163.96 1081.59,170.54 1073.36,178.46 1067.03,171.88 1064.07,174.73 1079.39,190.65 				"/>
				<path class="st2" d="M1097.4,159.04c0.98,1.29,2.13,2.3,3.43,3.04c1.3,0.74,2.7,1.19,4.17,1.36c1.48,0.17,2.97,0.04,4.48-0.4
					c1.51-0.43,2.94-1.17,4.29-2.2c1.36-1.03,2.44-2.21,3.26-3.54c0.82-1.32,1.33-2.72,1.55-4.18c0.22-1.46,0.15-2.92-0.22-4.38
					c-0.37-1.45-1.05-2.83-2.04-4.14c-0.99-1.31-2.15-2.33-3.46-3.08c-1.31-0.75-2.7-1.2-4.16-1.37c-1.46-0.17-2.94-0.03-4.44,0.4
					c-1.49,0.44-2.92,1.17-4.27,2.21c-1.37,1.05-2.46,2.24-3.27,3.57c-0.81,1.33-1.33,2.73-1.57,4.19c-0.23,1.46-0.17,2.92,0.2,4.37
					C1095.73,156.35,1096.41,157.73,1097.4,159.04z M1099.07,150.76c0.12-0.98,0.45-1.91,0.98-2.8c0.53-0.88,1.24-1.66,2.13-2.34
					c0.89-0.68,1.82-1.15,2.79-1.41c0.97-0.27,1.95-0.34,2.93-0.21c0.98,0.13,1.91,0.45,2.79,0.97c0.88,0.52,1.66,1.24,2.35,2.14
					c0.69,0.9,1.17,1.85,1.43,2.84c0.26,0.99,0.33,1.97,0.2,2.94c-0.13,0.97-0.45,1.89-0.97,2.76c-0.52,0.87-1.22,1.64-2.1,2.32
					c-0.89,0.68-1.83,1.15-2.82,1.43c-0.99,0.28-1.98,0.35-2.96,0.21c-0.98-0.14-1.92-0.46-2.81-0.98c-0.89-0.51-1.68-1.21-2.35-2.1
					c-0.69-0.9-1.16-1.85-1.41-2.84C1099.01,152.73,1098.95,151.74,1099.07,150.76z"/>
				<path class="st2" d="M1143.76,140.29c2.38-1.43,3.9-2.96,4.56-4.62c0.65-1.65,0.48-3.31-0.51-4.97
					c-0.96-1.61-2.27-2.48-3.92-2.62c-0.81-0.07-1.67,0.04-2.59,0.3c0.31-0.43,0.59-0.87,0.78-1.34c0.63-1.51,0.48-3.04-0.44-4.58
					c-0.95-1.59-2.27-2.45-3.97-2.58c-1.69-0.13-3.62,0.45-5.77,1.74l-8.48,5.07l11.34,18.97L1143.76,140.29z M1128.54,127.32
					l4.71-2.82c1.14-0.68,2.14-0.97,3.01-0.88c0.87,0.1,1.56,0.59,2.09,1.47c0.53,0.89,0.63,1.73,0.3,2.54
					c-0.33,0.81-1.06,1.55-2.2,2.23l-4.71,2.82L1128.54,127.32z M1138.68,132.03c1.25-0.75,2.32-1.07,3.22-0.99
					c0.9,0.09,1.62,0.59,2.17,1.51c0.58,0.98,0.7,1.88,0.35,2.71c-0.35,0.83-1.14,1.62-2.39,2.37l-5.39,3.22l-3.35-5.61
					L1138.68,132.03z"/>
				<path class="st2" d="M1160.11,123.76c1.11,1.01,2.36,1.77,3.76,2.26c1.4,0.5,2.89,0.7,4.45,0.61c1.57-0.09,3.13-0.48,4.68-1.18
					c1.55-0.7,2.87-1.61,3.97-2.72c1.09-1.11,1.91-2.35,2.45-3.73c0.54-1.38,0.8-2.82,0.77-4.32c-0.03-1.5-0.39-3-1.06-4.49
					c-0.68-1.5-1.57-2.75-2.68-3.78c-1.11-1.02-2.36-1.78-3.75-2.27c-1.39-0.49-2.86-0.69-4.41-0.6c-1.55,0.09-3.11,0.49-4.66,1.19
					c-1.57,0.71-2.9,1.63-3.99,2.74c-1.09,1.12-1.91,2.36-2.47,3.73c-0.56,1.37-0.82,2.81-0.79,4.31c0.03,1.5,0.39,3,1.06,4.49
					C1158.12,121.5,1159,122.75,1160.11,123.76z M1160.93,112.33c0.34-0.93,0.87-1.76,1.59-2.5c0.72-0.74,1.58-1.34,2.6-1.8
					c1.02-0.46,2.03-0.71,3.04-0.75c1.01-0.04,1.98,0.11,2.91,0.45s1.76,0.87,2.5,1.57c0.74,0.71,1.34,1.58,1.81,2.61
					c0.47,1.03,0.72,2.06,0.76,3.09c0.04,1.02-0.12,1.99-0.46,2.91c-0.35,0.92-0.87,1.75-1.56,2.48c-0.7,0.73-1.55,1.33-2.57,1.79
					s-2.04,0.72-3.07,0.77c-1.03,0.05-2-0.1-2.93-0.46c-0.92-0.36-1.76-0.88-2.52-1.58c-0.76-0.7-1.36-1.55-1.82-2.57
					c-0.47-1.03-0.71-2.06-0.74-3.08C1160.43,114.23,1160.59,113.26,1160.93,112.33z"/>
				<polygon class="st2" points="1199.58,100.43 1196.97,92.08 1193.81,93.17 1196.86,101.37 				"/>
				<polygon class="st2" points="1193.81,102.41 1191.21,94.06 1188.05,95.15 1191.1,103.35 				"/>
			</g>
			<g>
				<path class="st2" d="M1419.05,98.21c-1.19-1.09-2.64-1.95-4.34-2.57c-1.6-0.58-3.17-0.86-4.71-0.82
					c-1.54,0.03-2.98,0.35-4.34,0.95c-1.36,0.6-2.55,1.45-3.57,2.53c-1.02,1.08-1.82,2.41-2.39,3.97c-0.57,1.56-0.81,3.09-0.72,4.57
					c0.09,1.49,0.45,2.9,1.1,4.23c0.65,1.33,1.55,2.51,2.7,3.52c1.15,1.01,2.53,1.81,4.13,2.4c1.72,0.63,3.39,0.9,5.01,0.82
					c1.62-0.08,3.12-0.52,4.51-1.31l-1.64-3.25c-1.07,0.55-2.15,0.86-3.23,0.93c-1.08,0.07-2.15-0.09-3.22-0.48
					c-1.09-0.4-2.02-0.94-2.79-1.62c-0.77-0.68-1.37-1.47-1.79-2.37c-0.42-0.89-0.66-1.85-0.72-2.88c-0.05-1.03,0.12-2.07,0.51-3.14
					c0.39-1.07,0.93-1.98,1.63-2.73c0.7-0.75,1.5-1.34,2.4-1.75c0.9-0.41,1.86-0.63,2.89-0.66c1.03-0.03,2.09,0.16,3.18,0.55
					c1.07,0.39,1.99,0.95,2.77,1.7c0.78,0.74,1.41,1.66,1.89,2.75l3.34-1.44C1421.11,100.6,1420.24,99.3,1419.05,98.21z"/>
				<polygon class="st2" points="1451.34,112.09 1447.29,120.27 1437.05,115.2 1441.09,107.03 1437.42,105.21 1427.62,125.01 
					1431.3,126.83 1435.5,118.34 1445.74,123.41 1441.54,131.9 1445.19,133.7 1454.99,113.9 				"/>
				<path class="st2" d="M1464.15,138.84l9.3,5.97l-0.92,5.48l3.64,2.34l3.55-23.98l-3.4-2.18l-20.31,13.22l3.53,2.27
					L1464.15,138.84z M1467.06,136.88l8.72-5.89l-1.75,10.37L1467.06,136.88z"/>
				<path class="st2" d="M1505.91,163.08c1.32-0.43,2.48-1.27,3.5-2.53c1.03-1.28,1.62-2.61,1.77-4.01
					c0.15-1.39-0.12-2.77-0.82-4.13c-0.7-1.36-1.81-2.66-3.33-3.89l-7.08-5.71l-13.87,17.2l3.19,2.58l4.04-5.01l3.88,3.13
					c0.23,0.19,0.46,0.34,0.69,0.51l-0.55,7.87l3.44,2.77l0.6-8.84c0.11,0.03,0.23,0.08,0.34,0.11
					C1503.2,163.52,1504.6,163.5,1505.91,163.08z M1495.44,154.95l5.53-6.85l3.73,3.01c1.41,1.14,2.23,2.29,2.46,3.46
					c0.23,1.17-0.09,2.3-0.96,3.38c-0.87,1.08-1.91,1.64-3.11,1.67c-1.2,0.03-2.51-0.52-3.91-1.66L1495.44,154.95z"/>
				
					<rect x="1509.01" y="172.67" transform="matrix(0.6918 -0.722 0.722 0.6918 342.2582 1151.3953)" class="st2" width="22.1" height="4.1"/>
				<polygon class="st2" points="1527.89,198.61 1530.63,201.67 1544.49,189.23 1549.38,194.68 1551.96,192.36 1539.44,178.4 
					1536.85,180.72 1541.75,186.17 				"/>
				<path class="st2" d="M1543.41,217.01l5.42-1.26l6.54,8.91l-2.83,4.79l2.56,3.49l11.91-21.12l-2.39-3.26l-23.7,5.06
					L1543.41,217.01z M1552.24,214.96l10.25-2.38l-5.35,9.06L1552.24,214.96z"/>
				<path class="st2" d="M1567.25,252.88c1.42,2.46,2.95,4.05,4.58,4.77c1.63,0.72,3.27,0.61,4.91-0.34
					c1.11-0.64,1.9-1.43,2.36-2.35c0.46-0.92,0.64-1.93,0.54-3.01c-0.03-0.29-0.12-0.58-0.19-0.87c0.83,0.53,1.72,0.84,2.68,0.89
					c0.99,0.06,2-0.21,3.02-0.8c1.51-0.87,2.37-2.17,2.58-3.9c0.21-1.72-0.35-3.72-1.67-6l-5.2-8.99l-19.12,11.07L1567.25,252.88z
					 M1575.04,253.55c-0.97,0.56-1.87,0.61-2.72,0.15c-0.85-0.46-1.65-1.34-2.41-2.65l-3.34-5.76l5.52-3.2l3.34,5.76
					c0.76,1.31,1.12,2.45,1.09,3.42C1576.47,252.24,1575.98,253,1575.04,253.55z M1583.03,242.47c0.71,1.22,1.04,2.29,0.99,3.22
					c-0.05,0.93-0.52,1.65-1.41,2.17c-0.87,0.51-1.72,0.55-2.55,0.13c-0.83-0.42-1.59-1.24-2.3-2.46l-2.91-5.03l5.27-3.05
					L1583.03,242.47z"/>
				<polygon class="st2" points="1584.18,287.12 1587.34,285.7 1582.6,275.16 1599.58,267.51 1597.89,263.77 1577.75,272.85 				"/>
				<polygon class="st2" points="1594.12,314.8 1597.41,313.69 1593.41,301.88 1599.15,299.94 1602.57,310.04 1605.77,308.96 
					1602.35,298.85 1607.77,297.02 1611.62,308.42 1614.91,307.3 1609.74,292.02 1588.81,299.1 				"/>
				<polygon class="st2" points="1602.62,350.53 1611,349.12 1612.77,359.64 1616.13,359.07 1614.36,348.55 1620.99,347.43 
					1622.99,359.29 1626.41,358.71 1623.73,342.8 1601.94,346.48 				"/>
				<path class="st2" d="M1608.59,378.08c-1.59,1.82-2.29,4.23-2.1,7.23c0.19,3.02,1.19,5.34,3,6.94s4.33,2.3,7.57,2.1l12.41-0.79
					l-0.25-4.03l-12.29,0.78c-2.27,0.14-3.95-0.23-5.04-1.14c-1.09-0.9-1.69-2.24-1.8-4.03c-0.11-1.79,0.31-3.2,1.28-4.24
					c0.97-1.04,2.58-1.63,4.85-1.78l12.29-0.78l-0.26-4.1l-12.41,0.79C1612.6,375.25,1610.19,376.26,1608.59,378.08z"/>
				<polygon class="st2" points="1629.6,411.3 1607.53,410.21 1607.33,414.28 1622.3,415.01 1606.74,426.42 1606.57,429.79 
					1628.64,430.88 1628.84,426.84 1613.87,426.1 1629.44,414.67 				"/>
				<path class="st2" d="M1603.37,454.75c-0.38,2.33-0.27,4.46,0.34,6.41c0.61,1.94,1.65,3.55,3.13,4.82
					c1.48,1.27,3.3,2.08,5.48,2.44c2.18,0.36,4.17,0.18,5.98-0.55c1.8-0.73,3.31-1.91,4.51-3.56c1.2-1.65,1.99-3.63,2.37-5.96
					l1.58-9.56l-21.8-3.59L1603.37,454.75z M1606.84,455.06l0.87-5.26l14.95,2.46l-0.87,5.26c-0.27,1.64-0.82,3.01-1.64,4.1
					c-0.82,1.09-1.84,1.88-3.05,2.38c-1.21,0.49-2.59,0.61-4.12,0.36c-1.49-0.25-2.75-0.8-3.76-1.66c-1.01-0.86-1.73-1.94-2.15-3.23
					C1606.64,458.17,1606.57,456.7,1606.84,455.06z"/>
				<polygon class="st2" points="1605.16,503.97 1613.39,506.94 1614.43,503.76 1606.06,501.24 				"/>
				<polygon class="st2" points="1603.26,509.76 1611.49,512.73 1612.53,509.55 1604.16,507.03 				"/>
				<path class="st2" d="M1583.92,523.1l5.91,2.56l-1.98,4.58c-0.12,0.27-0.21,0.53-0.31,0.8l-7.73,1.57l-1.75,4.06l8.68-1.79
					c0,0.12-0.02,0.24-0.02,0.36c0.02,1.53,0.42,2.88,1.18,4.03c0.76,1.15,1.89,2.05,3.37,2.7c1.51,0.65,2.95,0.86,4.33,0.64
					c1.38-0.23,2.64-0.86,3.76-1.9c1.13-1.04,2.08-2.46,2.85-4.25l3.61-8.34l-20.28-8.77L1583.92,523.1z M1599.12,534.89
					c-0.72,1.66-1.61,2.76-2.68,3.29c-1.07,0.54-2.24,0.53-3.51-0.02c-1.27-0.55-2.09-1.4-2.44-2.55c-0.35-1.15-0.17-2.56,0.55-4.22
					l1.9-4.4l8.08,3.49L1599.12,534.89z"/>
				<polygon class="st2" points="1563.72,563.38 1566.74,565.08 1572.85,554.2 1578.13,557.17 1572.91,566.47 1575.85,568.13 
					1581.08,558.83 1586.06,561.62 1580.17,572.11 1583.2,573.81 1591.1,559.75 1571.83,548.93 				"/>
				<polygon class="st2" points="1553.83,578.63 1566.03,587.33 1546.77,588.52 1544.81,591.27 1562.8,604.1 1565.15,600.81 
					1552.94,592.11 1572.22,590.89 1574.18,588.14 1556.19,575.31 				"/>
				<path class="st2" d="M1544.39,609.58c-1.2-1.09-2.51-1.88-3.93-2.36c-1.42-0.49-2.87-0.68-4.35-0.58
					c-1.48,0.1-2.93,0.51-4.33,1.21c-1.4,0.7-2.68,1.69-3.82,2.95c-1.14,1.26-2,2.62-2.56,4.07c-0.56,1.45-0.82,2.92-0.76,4.4
					c0.05,1.48,0.39,2.9,1.02,4.26c0.63,1.36,1.55,2.59,2.77,3.69c1.22,1.1,2.54,1.9,3.96,2.39c1.43,0.49,2.87,0.69,4.34,0.59
					c1.47-0.1,2.9-0.51,4.29-1.21c1.39-0.7,2.65-1.69,3.8-2.95c1.16-1.28,2.01-2.65,2.57-4.11c0.55-1.46,0.81-2.93,0.77-4.41
					c-0.04-1.48-0.37-2.9-1-4.26C1546.53,611.91,1545.61,610.68,1544.39,609.58z M1543.81,620.95c-0.36,0.96-0.92,1.86-1.66,2.69
					c-0.75,0.83-1.58,1.46-2.49,1.9c-0.91,0.44-1.86,0.69-2.85,0.75c-0.99,0.06-1.96-0.09-2.92-0.45c-0.96-0.35-1.86-0.91-2.7-1.67
					c-0.84-0.76-1.48-1.61-1.93-2.53c-0.44-0.92-0.69-1.88-0.73-2.86c-0.05-0.98,0.1-1.95,0.45-2.89c0.35-0.95,0.9-1.84,1.64-2.66
					c0.75-0.83,1.58-1.47,2.51-1.92c0.92-0.46,1.88-0.7,2.87-0.75c0.99-0.04,1.97,0.11,2.94,0.45c0.97,0.34,1.87,0.88,2.7,1.63
					c0.84,0.76,1.48,1.61,1.9,2.53c0.43,0.92,0.67,1.88,0.72,2.87C1544.32,619.01,1544.17,619.98,1543.81,620.95z"/>
				<polygon class="st2" points="1502.8,636.03 1510.4,658.9 1513.43,656.18 1507.63,638.54 1524.45,646.29 1527.76,643.32 
					1505.81,633.33 				"/>
				<path class="st2" d="M1485.93,649.93l1.21,5.43l-8.96,6.47l-4.77-2.87l-3.51,2.53l21.02,12.08l3.28-2.36l-4.87-23.74
					L1485.93,649.93z M1487.91,658.78l2.29,10.27l-9.01-5.42L1487.91,658.78z"/>
				<polygon class="st2" points="1465.8,685.79 1456.41,669.7 1452.87,671.77 1462.26,687.85 1455.93,691.54 1457.68,694.54 
					1473.88,685.09 1472.13,682.1 				"/>
				<polygon class="st2" points="1420.2,688.16 1421.65,691.31 1432.98,686.1 1435.51,691.61 1425.82,696.07 1427.23,699.14 
					1436.93,694.68 1439.31,699.87 1428.39,704.89 1429.84,708.05 1444.49,701.31 1435.26,681.23 				"/>
				<polygon class="st2" points="1409.63,706.53 1412.34,714.85 1415.49,713.72 1412.34,705.56 				"/>
				<polygon class="st2" points="1403.9,708.58 1406.6,716.9 1409.75,715.77 1406.6,707.61 				"/>
			</g>
			<g>
				<path class="st2" d="M1287.57,85.76l-0.14-3.45c4.23-0.17,8.45-0.26,12.55-0.26c3.9,0,7.92,0.08,11.97,0.24l-0.14,3.45
					c-4-0.16-7.98-0.24-11.83-0.24C1295.92,85.51,1291.75,85.59,1287.57,85.76z"/>
				<path class="st2" d="M1287.57,85.76l-0.14-3.45c4.23-0.17,8.45-0.26,12.55-0.26c3.9,0,7.92,0.08,11.97,0.24l-0.14,3.45
					c-4-0.16-7.98-0.24-11.83-0.24C1295.92,85.51,1291.75,85.59,1287.57,85.76z"/>
			</g>
			<path class="st2" d="M1170.49,319.8c-2.93,3.07-6.44,7.48-9.27,13.41c-0.86,1.82-1.56,3.57-2.14,5.23
				c-2.14-20.13-3.05-50.19,0.68-76.09c3.47-24.12,10.18-47.83,19.93-70.48c7.02-16.31,15.66-32.15,25.68-47.07
				c0.8-1.2,0.62-2.77-0.44-3.75c-1.06-0.98-2.65-1.03-3.77-0.14c-22.57,17.95-41.16,41.09-53.77,66.91
				c-5.88,12.03-10.09,23.83-13.08,35.03c0-0.24,0-0.48,0-0.72c-0.14-16.11-3.69-29.81-6.65-38.47c-2.99-8.74-6.86-16.55-9.02-18.16
				c-1.14-0.85-2.22-0.71-2.77-0.56c-0.78,0.22-1.42,0.74-1.81,1.46c-0.73,1.34-0.37,2.5,0.59,5.59c1.84,5.92,5.66,18.22,3.82,33.49
				c-1.67,13.86-7.11,22.16-12.87,30.95c-3.95,6.03-8.04,12.27-11.08,20.51c-3.7,10.01-4.69,20.14-4.24,29.5
				c-1.86-3.28-3.94-6.61-6.26-9.93c-10.38-14.82-24.3-27.09-29.34-27.76c-1.4-0.18-2.33,0.31-2.86,0.76
				c-1.04,0.87-1.91,2.53-0.22,5.5c0.62,1.1,1.59,2.49,2.81,4.24c4.29,6.16,12.28,17.64,16.71,33.67c2.15,7.8,2.22,12.07,2.31,17.47
				c0.09,5.44,0.19,11.6,2.3,22.75c2.38,12.54,5.67,22.63,7.93,29.44c-2.22-2.91-5.01-6.43-8.43-10.14
				c-9.25-10.06-18.84-16.99-25.25-21.03c-4.39-2.77-12.63-7.39-15.68-7.21c-1.35,0.08-2.08,0.84-2.4,1.28
				c-0.47,0.66-0.66,1.46-0.52,2.26c0.25,1.5,1.26,2.21,3.7,3.91c4.27,2.99,13.16,9.22,20.04,20.35c4.77,7.73,5.62,13.02,6.7,19.73
				c0.98,6.13,2.1,13.08,6.31,23.41c5.04,12.36,13.66,24.5,19.96,33.37c1.64,2.3,3.47,4.89,4.91,7.07c-0.14-0.04-0.28-0.07-0.42-0.1
				c-2.02-1.27-4.71-3.15-8.17-5.87c-6.46-5.08-12.63-10.76-16.09-14.85c-4.96-5.85-6.18-8.84-7.59-12.3
				c-1.44-3.55-3.08-7.57-8.67-14.76c-1.26-1.62-2.59-3.37-4.01-5.22c-10.62-13.94-14.43-18.32-17.56-18.64
				c-1-0.1-1.96,0.2-2.69,0.84c-2.47,2.17-0.83,5.62-0.22,6.92c0.9,1.91,2.39,4.36,4.11,7.2c3.08,5.09,6.92,11.42,10.01,18.71
				c7.76,18.31,8.65,27.15,9.69,37.4c0.68,6.66,1.44,14.2,4.23,25.13c6.8,26.65,24.96,48.34,36.97,62.69
				c3.27,3.91,6.1,7.28,8.05,9.99c1.42,1.97,2.07,3.18,2.37,3.9c-0.72-0.03-1.68-0.1-2.68-0.18c-2.48-0.19-6.22-0.48-11.6-0.59
				c-3.39-0.07-9.7-0.19-15.32,0.05c-8.1,0.36-12.61,1.21-13.23,4.64c-0.11,0.6-0.2,2.16,1.33,3.52c0.53,0.47,1.21,0.9,2.16,1.34
				c1.43,0.67,3.36,1.34,5.79,2.19c4.78,1.67,11.34,3.95,17.79,7.62c13.77,7.83,19.4,15.17,25.91,23.67
				c2.24,2.92,4.54,5.92,7.28,9.1c7.2,9.03,7.06,7.63,7.6,7.36c1.26-0.62,0.22-4.76-0.09-5.82c-0.24-0.78-0.47-1.6-0.7-2.43
				l0.05-0.04c-0.03-0.03-0.06-0.06-0.08-0.09c-10.26-37.16-17.77-125.96-19.96-132.92c-0.05-0.15-0.48-1.92-0.19-1.59
				c0,0,1.1,0.98,3.65,4.09c0.14,0.17,0.39,0.61,0.59,0.99c0.45,0.86,1.42,3.29,1.45,3.41c0.75,2.94,12.15,57.05,18.45,95.54
				c0.47,2.89,0.77,4.91,1.07,7.19c2.5,19.66,2.2,31.79,2.12,33.45c-0.07,1.52-0.35,4.34-0.31,4.63l3.57,1.98
				c3.93,2.2,15.09,8.08,15.09,8.08l-0.26-0.77c-0.88-2.65-1.61-5.35-2.21-8.08c-1.07-4.91-3.26-14.03-3.53-15.4
				c-0.34-1.71-9.82-65.99-15.01-93.35c-1.01-5.32-1.87-11.69-6.29-35.68c-0.02-0.1-0.45-0.78-0.29-1.58
				c0.1-0.52,0.4-0.86,0.44-0.91c5.21-6.5,5.09-26.41,5.09-26.41c-0.16-25.86-2.66-39.52-2.66-39.52
				c-6.85-37.39-19.66-65.88-24.74-76.58c-1.44-3.03-2.88-5.94-4.33-8.74c-0.11-0.28-0.27-0.73-0.38-1.02
				c-0.49-2.05-0.93-4.19-1.32-6.42c-2.44-14.11-1.54-27.04,2.67-38.44c2.82-7.63,6.72-13.59,10.5-19.35
				c5.87-8.96,11.94-18.22,13.77-33.42c0.54-4.49,0.62-8.76,0.41-12.72c2.18,8.19,3.88,18.03,3.97,28.74
				c0.16,18.7-4.57,33.83-7.11,41.96c-0.2,0.63-0.38,1.2-0.54,1.74c-0.44,1.35-0.75,2.42-0.89,3.13c-0.02,0.08-0.03,0.16-0.04,0.24
				c-0.04,0.19-0.07,0.37-0.1,0.54c-2.21,12.73,0.93,30.06,5.39,49.92c4.34,19.3,5.35,39.21,8.9,58.67
				c2.98,16.33,3.38,21.59,17.21,159.54c1.16,11.6,3.34,21.28,3.54,35.25c0.09,6.55,0.21,37.96,0.02,38.82l-0.13,0.67l1.33,0.36
				c0,0,25.13,6.29,30.64,7.42l1.98-47.2c-3.56,6.14-7.13,12.74-10.62,19.81c-2.65,5.36-5.06,10.58-7.25,15.64
				c-0.44-11.46-0.96-23.03-1.57-34.68c-1.8-34.46-4.31-67.75-7.36-100.45c0.47,0.57,0.93,1.16,1.39,1.77
				c2.63,3.48,4.96,7.75,7.05,11.59c3.42,6.28,7.06,12.13,10.29,18.76c-0.28-9.17-1.14-19.49-1.42-28.67
				c-4.15-1.47-8.29-1.72-12.44-3.27c-1.94-2.57-3.44-4.56-5.38-7.12c-2.55-30.51-4.66-55.6-6.32-86.17
				c-0.78-14.39-1.8-31.89-2.97-46.81l3.5,11.17c4.7,13.3,9.58,29.19,13.53,42.72c4.5,15.44,7.73,29.69,11.84,44.69
				c-0.09-10.53,0.06-36.97,0.12-50.09c-10.26-15.44-16-33.01-16-51.8C1165.15,339.72,1167.03,329.49,1170.49,319.8z
				 M1073.43,412.96c-3.96-9.71-5.02-16.32-5.96-22.15c-1.13-7.05-2.11-13.13-7.48-21.84c-1.64-2.66-3.38-5.05-5.14-7.21
				c5.22,3.92,10.84,8.78,16.14,14.55c0.17,0.19,0.34,0.37,0.51,0.56c3.46,5.65,5.79,11.93,6.87,18.49c0.13,1,0.27,2.03,0.42,3.09
				l0,0v0c1.64,11.64,4.25,26.23,7.2,36.99C1081.36,428.56,1076.6,420.74,1073.43,412.96z M1096.98,539.03
				c-11.68-13.95-29.33-35.04-35.81-60.42c-2.68-10.51-3.4-17.52-4.08-24.29c-1.04-10.26-2.03-19.95-10.12-39.06
				c-2.22-5.23-4.84-10.06-7.24-14.18c1.34,1.73,2.63,3.42,3.73,4.86c1.42,1.87,2.77,3.63,4.04,5.27c5.1,6.56,6.52,10.04,7.89,13.4
				c1.53,3.76,2.97,7.31,8.53,13.85c3.55,4.18,9.61,9.83,16.04,14.95c6.11,6.12,11.86,14.29,13.46,21.36l4.29,19.67
				c2.69,17.99,5.18,38.95,6.9,53.99C1102.62,545.77,1100.03,542.67,1096.98,539.03z M1106.28,563.91l-0.14,6.83
				c0.16,3.66-2.84,6.13-9.33,3.68c-2.03-1.39-4.26-2.79-6.73-4.19c-6.91-3.92-13.74-6.31-18.74-8.05
				c-0.31-0.11-0.62-0.22-0.93-0.33c1.29-0.11,2.89-0.2,4.87-0.26c5-0.16,10.41-0.05,13.32,0.01c5.21,0.1,8.71,0.37,11.27,0.57
				c2.78,0.21,4.76,0.36,6.24-0.19C1106.17,562.62,1106.23,563.26,1106.28,563.91L1106.28,563.91z M1102.78,361.77
				c3.27,15.8,5.15,22.72,6.04,28.84c1.51,10.41,0.94,8.4,2.99,23.21c1.44,10.39,2.99,20.41,3.9,31.24
				c0.25,3.03,0.86,10.32,0.03,19.26c-0.13,1.41-0.56,2.52-0.75,3.25c-2.15-0.88-6.17-2.5-8.32-3.38
				c-7.6-51.16-15.2-99.45-22.8-150.61c1.77,2.39,6.17,9.01,8.38,13.74C1095.32,333.88,1098.43,340.7,1102.78,361.77z
				 M1154.08,261.54c-3.43,23.83-3.02,51.08-1.31,71.22c0.01,0.33,0.04,1.42,0.18,3.16c-3.43-4.62-7.23-10.45-10.68-17.48
				c-8.42-17.15-9.65-44.35-2.76-72.74c2.92-11.27,7.11-23.19,13.05-35.35c9.41-19.26,22.25-36.99,37.64-52.07
				c-5.9,10.16-11.18,20.65-15.78,31.33C1164.47,212.71,1157.62,236.92,1154.08,261.54z"/>
			<path class="st2" d="M1239.58,484.97l0.78,152.38c-4.28-28.31-6.57-54.63-10.94-82.92c-5.39-34.89-9.98-70.77-15.5-107.54
				c-0.32-4.78,1.6-7.85,4.89-9.18c-11.5-7.04-21.55-15.56-29.76-25.19c0.63,4.54,1.25,9.08,1.95,14.34
				c1.76,56.28,3.04,120.57,4.71,178.37c0.35,11.96-0.3,23.91-1.93,35.77l-0.59,4.3c1.41,1.75,3.55,3.27,5.28,5.12
				c2.09,2.23,7.76,6.08,9.73,7.85c-0.54-3.5-1.28-7.17-2.1-10.91c-3.15-14.39-4.83-29.06-5.37-43.78
				c-1.95-53.32-3.9-105.19-5.64-158.66c11.83,77.11,21.83,152.41,33.66,229.52c3.42,1.79,7.1,3.58,11.05,5.31
				c2.91,1.27,5.73,2.42,8.47,3.45l-3.56-29.8l-0.52-160.34c-0.02-5.47,0.58-12.83,1.52-18.22c0.42-2.39,1.22-6.38,1.84-8.45
				c1.39-4.64,2.8-9.53,8.24-12.73c-6.17-1.73-12.13-3.81-17.85-6.22C1238.9,462.56,1239.58,484.97,1239.58,484.97z"/>
			<g>
				<path class="st2" d="M1349.8,466.02c0.77,4.52,1.17,9.36,0.92,13.91c-3.37,60.68-7.37,113.86-12.98,174.59
					c-0.97,10.48-2.07,19.04-3.49,29.33c2.61-1.03,9.08-3.51,11.69-4.54c-0.51-9.12-1.56-17.26-2.07-26.38
					c1.55-17.19,2.43-31.29,3.98-48.49c5.79-12.61,11.81-23.22,17.59-35.83c0.49,25.05,0.89,46.98,1.38,72.03
					c-0.35,10.93-0.61,20.73-0.97,31.66c4.38-1.34,9.73-3.65,14.55-6.08c3.91-1.96,9.62-4.83,13.08-7.42
					c-2.75-0.3-5.55-5.39-6.06-8.02c-0.07-0.34-0.13-0.68-0.2-1.03c-2.65-13.71-3.42-27.64-3.94-41.59
					c-0.79-21.51-0.86-42.24-1.04-54.59c-0.58-39.2-0.42-54.38-1.24-85.42c-0.32-11.92,0.47-22.38,1.55-31.84
					c-10.95,7-23.24,12.66-36.55,16.65C1348.63,457.14,1349.38,463.84,1349.8,466.02z M1356.74,466.35c0,0,4.08,19.47,8.35,95
					c-5.45,11.89-12.03,23.15-17.49,35.04c2.32-18.3,3.52-44.93,5.53-78.36C1354.97,487.26,1356.74,466.35,1356.74,466.35z"/>
				<path class="st2" d="M1571.59,384.67c-0.73-0.64-1.69-0.94-2.69-0.84c-3.13,0.31-6.93,4.7-17.56,18.64
					c-1.41,1.86-2.75,3.61-4.01,5.22c-5.59,7.19-7.23,11.21-8.67,14.76c-1.41,3.46-2.63,6.46-7.58,12.3
					c-3.33,3.93-9.31,8.98-15.98,13.51c-3.79,2.58-6.78,4.28-8.94,5.35c1.28-1.77,2.92-3.88,4.38-5.74
					c6.53-8.38,15.48-19.86,20.73-32.73c4.21-10.32,5.33-17.27,6.31-23.41c1.08-6.7,1.92-12,6.7-19.73
					c6.88-11.13,15.77-17.36,20.04-20.35c2.44-1.71,3.45-2.41,3.7-3.91c0.14-0.8-0.05-1.6-0.52-2.26c-0.32-0.44-1.06-1.2-2.4-1.28
					c-3.05-0.18-11.3,4.45-15.69,7.21c-6.41,4.04-16,10.97-25.25,21.03c-3.42,3.72-6.21,7.24-8.43,10.14
					c2.25-6.81,5.55-16.91,7.93-29.44c2.12-11.16,2.22-17.32,2.3-22.75c0.09-5.4,0.16-9.67,2.31-17.47
					c4.43-16.03,12.42-27.51,16.71-33.67c1.22-1.76,2.19-3.14,2.81-4.24c1.69-2.97,0.81-4.63-0.22-5.5
					c-0.53-0.45-1.46-0.94-2.86-0.76c-5.04,0.66-18.96,12.94-29.34,27.76c-2.12,3.03-4,5.96-5.66,8.77
					c0.15-8.51-1.07-18.12-4.84-28.34c-3.05-8.24-7.13-14.48-11.08-20.51c-5.76-8.79-11.21-17.1-12.87-30.95
					c-1.83-15.27,1.98-27.58,3.82-33.49c0.96-3.09,1.32-4.24,0.59-5.59c-0.39-0.72-1.03-1.23-1.81-1.46
					c-0.55-0.16-1.63-0.29-2.77,0.56c-2.16,1.61-6.04,9.42-9.02,18.16c-2.96,8.66-6.51,22.36-6.65,38.47c0,0.47-0.01,0.94-0.01,1.41
					c-3-11.4-7.27-23.44-13.26-35.72c-12.61-25.82-31.21-48.96-53.77-66.91c-1.13-0.9-2.71-0.84-3.77,0.14
					c-1.06,0.98-1.25,2.55-0.44,3.75c10.02,14.92,18.66,30.76,25.68,47.07c9.75,22.65,16.46,46.37,19.93,70.48
					c3.46,24.03,2.93,51.64,1.13,71.58c-0.09,0.51-0.22,1.26-0.41,2.21c-0.61-1.18-1.37-2.56-2.34-4.29
					c-2.86-5.13-6.91-9.27-9.17-12.24c0,0,0,0,0,0c0.62,1.72,1.18,3.46,1.7,5.21c0,0,0,0,0,0c1.95,6.63,3.17,13.49,3.55,20.52v0
					c0.09,1.64,0.15,3.29,0.15,4.95c0,1.88-0.06,3.74-0.17,5.59c0,0,0,0,0,0c-0.18,2.85-0.53,5.66-0.97,8.44c0,0,0,0.01,0,0.01
					c-0.13,0.83-0.24,1.67-0.39,2.49v0c-0.21,1.13-0.48,2.24-0.73,3.36c0,0,0,0,0,0.01c-0.05,0.21-0.09,0.41-0.14,0.62
					c-0.39,1.69-0.84,3.36-1.33,5.02c0,0.01,0,0.02-0.01,0.02c-0.08,0.27-0.15,0.53-0.23,0.8c-0.53,1.75-1.11,3.47-1.75,5.18
					c-0.08,0.23-0.16,0.46-0.24,0.69c0,0,0,0,0,0c-0.53,1.4-1.12,2.79-1.72,4.17c0,0.01-0.01,0.01-0.01,0.02
					c-0.07,0.17-0.14,0.34-0.21,0.51c-2.22,5.02-4.87,9.87-7.93,14.52c0,0,0,0,0,0.01c-0.02,0.02-0.03,0.05-0.05,0.07
					c-6.51,9.88-14.84,18.85-24.62,26.62c1.06,18.29,0.61,56.71,1.16,63.58c5.9-18.42,17.09-58.58,24.18-74.49l0.12-0.15
					c1.34,82.87-0.49,91.32-4.15,155.11c-0.49,8.49-3.74,41.01-5.3,49.37c-1.84,9.88-2.33,16.58-9.32,33.62l6.49-4.67
					c2.79-1.99,5.12-4.04,7.6-6.4c2.03-1.93,3.27-3.25,6.82-4.47c0,0,0,0,0.01,0c2.12-0.81,4.29-1.48,6.49-2.02
					c1.08-0.26,2.33-0.56,3.6-0.85c-0.45-12.33-0.89-24.65-1.34-36.98c5.68-85.97,8.65-165.43,14.39-251.28
					c0.5-7.48,2.5-21.52,9.79-10.3c5.66,9.8,10.79,18.44,13.06,45.23c1.73,24.49,1.31,42.48,0.98,56.07
					c-0.35,14.34-0.31,57.72-14.39,149.56c-2.87,18.72-4.04,25.95-14.02,45.19c6.6-2.07,15.67-6.21,19.38-8.45
					c5.68-3.43,9.57-6.87,11.27-8.44c4.44-4.11,7.2-7.77,9.66-11.06c1.49-2,2.47-3.45,3.23-4.67c7.72-9.79,15.23-19.03,28.87-26.78
					c6.45-3.67,13-5.95,17.79-7.62c2.43-0.85,4.36-1.52,5.79-2.19c1-0.47,4.03-1.89,3.5-4.86c-0.62-3.43-5.13-4.28-13.23-4.64
					c-5.61-0.25-11.93-0.12-15.32-0.05c-5.38,0.11-9.12,0.4-11.59,0.59c-1.06,0.08-2.08,0.16-2.81,0.19
					c0.23-0.72,0.81-2.02,2.24-4.23c1.86-2.88,4.6-6.49,7.78-10.67c10.86-14.31,27.28-35.94,33.95-62.06
					c2.25-8.82,3.53-15.28,4.66-20.98c2.36-11.91,4.06-20.51,12.82-41.18c3.09-7.3,6.93-13.63,10.01-18.71
					c1.72-2.84,3.2-5.29,4.11-7.2C1572.43,390.29,1574.06,386.83,1571.59,384.67z M1457.63,268.9
					c-2.07,20.27-3.94,35.69-10.81,58.44c1.34-19.45,1.41-44.04-1.72-65.8c-3.55-24.62-10.39-48.82-20.34-71.94
					c-4.6-10.68-9.88-21.17-15.77-31.33c15.39,15.08,28.23,32.81,37.64,52.07c2.1,4.31,3.99,8.58,5.68,12.81
					c-0.17-0.21-0.35-0.43-0.52-0.64C1459.25,240.58,1458.28,262.56,1457.63,268.9z M1509.73,352.41c0.04,0.05,0.08,0.1,0.12,0.15
					c4.21,5.41,2.15,19.14,1.39,25.24c-0.41,1.26-0.8,2.43-1.16,3.51c-1.02,3.08-1.82,5.51-2.26,7.32c-0.32,1.32-1.16,4.83,1.6,6.21
					c2.58,1.29,4.75-1.09,5.46-1.86c1.01-1.1,2.2-2.68,3.71-4.68c2.37-3.14,5.62-7.44,9.79-11.97c5.3-5.77,10.92-10.63,16.14-14.55
					c-1.76,2.15-3.5,4.55-5.14,7.21c-5.38,8.7-6.35,14.79-7.48,21.84c-0.93,5.83-1.99,12.43-5.96,22.15
					c-4.95,12.13-9.61,19.32-15.94,27.43c-0.82,1.06-1.61,2.06-2.34,3.01c-2.11,2.52-5.33,7.43-6.68,9.99
					c-1.54,2.91-3.66,7.98-7.84,10.44l0,0l-5.52,2.52l5.75-119.24C1494,341.08,1505.97,347.65,1509.73,352.41z M1475.32,298.84
					c-0.03-0.6-0.1-1.29-0.21-2.06c-2.26-16.45-4.42-32.39-4.34-48.99c0.01-1.85,0.02-3.72,0.04-5.61
					c0.09-10.71,1.79-20.55,3.97-28.74c-0.21,3.96-0.13,8.23,0.41,12.72c1.83,15.19,7.9,24.46,13.77,33.42
					c3.78,5.76,7.68,11.72,10.5,19.35c3.49,9.44,4.61,18.36,4.47,26.26c-0.18,10.29-3.1,20.42-9.07,28.8
					c-2.33,3.27-4.73,5.77-6.68,7.2c-4.55,3.33-13.08,6.25-17.45,5.31C1459.18,343.27,1476.85,331.27,1475.32,298.84z
					 M1552.4,415.26c-8.99,21.21-10.74,30.06-13.17,42.3c-1.11,5.63-2.38,12-4.59,20.67c-6.38,24.99-22.37,46.06-32.95,60
					c-5.15,6.78-8.92,11.75-10.51,15.59c-1.79,3.07-3.55,6.55-4.34,8.48c-5.05,13.25-7.99,27.5-13.04,40.76
					c5.66-47.32,10.12-84.08,13.49-132.35c5.19-1.1,10.51,0.13,15.41,2.19l9.84,4.13c0,0-0.32-9.8-0.19-13.6
					c0.17-4.61,3.5-8.44,7.23-11.28c6.58-4.59,12.46-9.65,15.89-13.69c5.55-6.55,7-10.09,8.53-13.85c1.37-3.36,2.78-6.84,7.89-13.4
					c1.27-1.64,2.62-3.4,4.04-5.27c1.1-1.44,2.38-3.13,3.73-4.86C1557.24,405.2,1554.62,410.03,1552.4,415.26z"/>
			</g>
		</g>
	</g>
</g>
</svg>
