<?xml version="1.0" encoding="utf-8"?>
<!-- Generator: Adobe Illustrator 28.3.0, SVG Export Plug-In . SVG Version: 6.00 Build 0)  -->
<svg version="1.1" id="Layer_1" xmlns="http://www.w3.org/2000/svg" xmlns:xlink="http://www.w3.org/1999/xlink" x="0px" y="0px"
	 viewBox="0 0 768 400" style="enable-background:new 0 0 768 400;" xml:space="preserve">
<style type="text/css">
	.st0{fill:url(#SVGID_1_);}
	.st1{opacity:0.7;clip-path:url(#SVGID_00000047775220888019299040000015016198766684990632_);}
	.st2{fill:#FFD300;}
	.st3{fill:url(#SVGID_00000096019022151706252770000017461348221831889070_);}
</style>
<g>
	<linearGradient id="SVGID_1_" gradientUnits="userSpaceOnUse" x1="381.659" y1="214.9241" x2="346.6989" y2="437.7943">
		<stop  offset="0" style="stop-color:#001E5A"/>
		<stop  offset="0.2595" style="stop-color:#02205A"/>
		<stop  offset="0.3969" style="stop-color:#0A265A"/>
		<stop  offset="0.5058" style="stop-color:#18305A"/>
		<stop  offset="0.5996" style="stop-color:#2B3E5A"/>
		<stop  offset="0.6838" style="stop-color:#44515A"/>
		<stop  offset="0.7612" style="stop-color:#63675A"/>
		<stop  offset="0.8333" style="stop-color:#87835A"/>
		<stop  offset="0.9012" style="stop-color:#B1A25A"/>
		<stop  offset="0.9635" style="stop-color:#E0C55A"/>
		<stop  offset="1" style="stop-color:#FFDC5A"/>
	</linearGradient>
	<rect class="st0" width="768" height="400"/>
	<g>
		<defs>
			<rect id="SVGID_00000075852819158636846220000006434113510757382800_" width="768" height="400"/>
		</defs>
		<clipPath id="SVGID_00000147219004398095897300000000501297854820993450_">
			<use xlink:href="#SVGID_00000075852819158636846220000006434113510757382800_"  style="overflow:visible;"/>
		</clipPath>
		<g style="opacity:0.7;clip-path:url(#SVGID_00000147219004398095897300000000501297854820993450_);">
			<circle class="st2" cx="574.88" cy="290.85" r="238.37"/>
			
				<linearGradient id="SVGID_00000072241389797630392420000010248212951624541863_" gradientUnits="userSpaceOnUse" x1="574.7159" y1="521.2528" x2="574.7159" y2="60.399">
				<stop  offset="0" style="stop-color:#0073B1"/>
				<stop  offset="0.2825" style="stop-color:#006FAE"/>
				<stop  offset="0.5386" style="stop-color:#0064A4"/>
				<stop  offset="0.7836" style="stop-color:#015295"/>
				<stop  offset="1" style="stop-color:#013B81"/>
			</linearGradient>
			<path style="fill:url(#SVGID_00000072241389797630392420000010248212951624541863_);" d="M581.48,521.15L581.48,521.15
				c-127.21,3.73-233.35-96.36-237.09-223.56l0,0C340.66,170.38,440.75,64.23,567.95,60.5l0,0
				c127.21-3.73,233.35,96.36,237.09,223.56l0,0C808.78,411.27,708.68,517.42,581.48,521.15z"/>
			<path class="st2" d="M568.93,469.11c5.92-15.88,4.46-65.12,4.3-71.02c-0.5-17.79-0.77-28.16-2.42-41.73
				c-0.91-7.46-3.33-25.77-11.49-27.33c-1.08-0.21-3.29-0.27-5.23,1.09c-2.62,1.83-5.28,7.04-6.36,11.33
				c-1.62,6.49-2.57,16.55-2.57,16.55c-0.65,7.3-0.72,9.5-0.83,36.82c-0.1,26.37,0.89,33.08,2.24,48.8c0,0,0.39,6.73,3.81,19.48
				c1.65,6.16,4.91,10.68,8.13,12.69c1.01,0.63,3.83,1.08,5.49-0.04C566.92,473.77,568.28,470.83,568.93,469.11z M560.52,451.41
				c-1.83-5.76-2.11-6.95-4.21-17.03c-1.67-8.02-2.65-13.85-3.98-23.5c-2.06-15.01-1.11-13.53-3.1-29.46c0,0-2.7-21.54-0.07-36.35
				c0.18-1.03,0.57-2.8,1.41-3.01c1.21-0.3,2.72,2.77,3.83,5.28c4.19,9.5,5.92,18.52,6.24,20.24c2.05,11.01,3.08,16.52,3.47,19.08
				c2.49,16.06,3.46,27.73,3.66,30.25c0.54,6.64,0.79,11.36,1.01,17.65c0.35,10.18,0.43,11.52,0.4,13.79c0,0,0.03,4.71-0.99,12.31
				c-0.13,0.93-0.71,3.2-1.39,3.37c-0.77,0.18-1.66-1.38-2.39-2.82C561.31,455.1,560.52,451.41,560.52,451.41z"/>
			<path class="st2" d="M574.66,319.94c1.75,16.57,3.27,36.45,3.75,43.97c1.77,27.61,1.58,37.26,1.43,78.24
				c-0.06,17.14-3.4,37.27-12.83,58.18c9.82-16.62,20.9-24.27,25.24-26.68c-0.63-9.72,0.17-18.98,0.72-28.7l6.99-147.65c0,0,0,0,0,0
				c1.67-29.3,6.8-32.81,8.94-35.6c6.76-8.83,8.77-16.99,8.25-17.32c-0.36-0.23-2,3.83-6.71,7.49c-4.22,3.28-7.91,4.47-13.15,4.72
				l-0.22,16.87c0.01-0.01,0.02-0.01,0.03-0.02c-0.28,18.32-1.68,48.98-1.97,59.83c-1.64,42.86-4.81,88.89-7.45,132.99l-2.38-185.7
				c0.01,0,0.02-0.01,0.03-0.01l-0.2-23.56c-8.16,0.38-14.78,1.21-21.38,3.41c-6.9,2.3-20.38,8.47-24.63,29.02
				c5.79-8.91,11.69-13.86,18.54-13.86C564.27,275.58,571.07,285.06,574.66,319.94z"/>
			<g>
				<path class="st2" d="M509.65,479.7c-1.71-0.58-3.16-0.66-4.34-0.24c-1.19,0.42-2.01,1.29-2.46,2.63
					c-0.44,1.29-0.35,2.42,0.27,3.38c0.62,0.96,1.74,1.72,3.37,2.27l4.02,1.36l-1.13,3.32l-8.09-2.75l-0.71,2.1l10.59,3.6
					l4.61-13.58L509.65,479.7z M511.16,487.16l-3.49-1.19c-1.98-0.67-2.73-1.71-2.26-3.1c0.24-0.71,0.68-1.17,1.31-1.37
					c0.63-0.2,1.43-0.14,2.4,0.19l3.49,1.19L511.16,487.16z"/>
				<path class="st2" d="M496.48,474.54c-0.69-0.32-1.35-0.42-1.96-0.3c-0.61,0.12-1.21,0.46-1.8,1c-0.59,0.55-1.18,1.28-1.77,2.2
					c-0.59,0.92-1.21,2-1.85,3.25l-1.62,3.2l-5.11-2.38l5.1-10.96l-2.4-1.11l-6.05,13.01l9.57,4.45l2.68-5.28
					c0.62-1.2,1.19-2.19,1.71-2.95c0.52-0.77,1.03-1.29,1.53-1.57c0.5-0.28,1.02-0.3,1.55-0.05c0.2,0.09,0.37,0.2,0.52,0.33
					l1.15-2.04c-0.22-0.18-0.43-0.33-0.64-0.45C496.9,474.75,496.69,474.64,496.48,474.54z"/>
				<path class="st2" d="M472.35,466.23l-6.12-3.74l0.52-3.57l-2.4-1.46l-1.94,15.62l2.24,1.37l12.98-8.88l-2.33-1.42L472.35,466.23
					z M470.5,467.55l-5.57,3.95l0.98-6.76L470.5,467.55z"/>
				<polygon class="st2" points="448.11,460.6 442.45,456.3 441.07,458.09 448.84,463.99 457.52,452.56 455.41,450.96 				"/>
				<path class="st2" d="M442.39,442.96c-0.06-0.96-0.31-1.9-0.76-2.82c-0.45-0.92-1.08-1.75-1.89-2.5
					c-0.81-0.75-1.69-1.31-2.63-1.69c-0.94-0.37-1.89-0.55-2.85-0.53c-0.96,0.02-1.89,0.23-2.77,0.63c-0.89,0.4-1.69,0.99-2.42,1.77
					c-0.72,0.78-1.25,1.63-1.58,2.56c-0.33,0.92-0.47,1.86-0.41,2.81c0.06,0.95,0.31,1.88,0.76,2.79c0.45,0.9,1.08,1.73,1.89,2.48
					c0.82,0.76,1.71,1.32,2.65,1.69c0.94,0.37,1.89,0.55,2.86,0.53c0.96-0.01,1.89-0.22,2.77-0.62c0.89-0.4,1.69-0.99,2.42-1.77
					c0.71-0.77,1.23-1.62,1.56-2.53C442.31,444.87,442.44,443.92,442.39,442.96z M439.54,444.77c-0.23,0.63-0.59,1.21-1.08,1.74
					c-0.5,0.54-1.05,0.95-1.66,1.22c-0.6,0.27-1.23,0.42-1.87,0.45c-0.64,0.03-1.27-0.07-1.9-0.32c-0.62-0.24-1.2-0.61-1.73-1.1
					c-0.53-0.49-0.94-1.03-1.22-1.63c-0.28-0.59-0.43-1.21-0.46-1.85c-0.03-0.64,0.07-1.27,0.31-1.89c0.24-0.62,0.61-1.2,1.11-1.74
					c0.5-0.54,1.05-0.95,1.65-1.23c0.6-0.28,1.22-0.43,1.86-0.46c0.64-0.03,1.26,0.08,1.88,0.31c0.61,0.23,1.19,0.59,1.72,1.08
					c0.53,0.49,0.94,1.04,1.23,1.64c0.29,0.6,0.44,1.22,0.47,1.87C439.87,443.51,439.77,444.14,439.54,444.77z"/>
				<path class="st2" d="M427.35,429l4.03-3.45l-1.62-1.88l-2.31,2l-7.19-8.33l2.31-2l-1.61-1.86l-4.02,3.47l1.35,1.57l-9.15,7.9
					l6.87,7.96l3.53-2.84c0.85-0.68,1.66-1.29,2.42-1.82c0.76-0.53,1.46-0.95,2.1-1.25c0.64-0.3,1.21-0.45,1.72-0.44
					c0.5,0.01,0.92,0.21,1.25,0.61L427.35,429z M424.12,426.05c-0.53,0.1-1.11,0.32-1.73,0.66c-0.63,0.34-1.29,0.76-1.99,1.25
					c-0.7,0.49-1.43,1.04-2.17,1.64l-1.99,1.58l-3.67-4.25l7.44-6.43l4.76,5.52C424.57,426.01,424.35,426.01,424.12,426.05z"/>
				
					<rect x="399.68" y="410.22" transform="matrix(0.812 -0.5837 0.5837 0.812 -163.7129 314.8511)" class="st2" width="14.34" height="2.64"/>
				<polygon class="st2" points="404.83,395.64 392.17,394.19 400.92,389.03 399.58,386.75 387.22,394.04 388.48,396.17 
					401.17,397.63 392.4,402.81 393.74,405.08 406.1,397.8 				"/>
				<path class="st2" d="M387.58,398.06c-0.77-0.28-1.56-0.18-2.38,0.28l0.94,1.59c0.44-0.24,0.87-0.29,1.27-0.14
					c0.41,0.15,0.76,0.48,1.06,0.98c0.3,0.51,0.41,0.97,0.34,1.39c-0.07,0.42-0.32,0.77-0.75,1.03l0.94,1.59
					c0.8-0.49,1.27-1.14,1.4-1.93c0.13-0.8-0.12-1.73-0.74-2.79C389.04,399.01,388.34,398.34,387.58,398.06z"/>
				<polygon class="st2" points="393.85,375.26 388.23,377.75 385.22,370.97 390.84,368.48 389.77,366.06 376.66,371.87 
					377.73,374.29 383.14,371.89 386.15,378.67 380.73,381.07 381.81,383.5 394.93,377.69 				"/>
				<polygon class="st2" points="385.44,354.13 373.46,349.8 383.16,346.79 382.38,344.26 368.68,348.52 369.42,350.89 
					381.43,355.22 371.7,358.24 372.49,360.77 386.19,356.51 				"/>
				<polygon class="st2" points="379.47,331.92 368.06,326.24 378.05,324.37 377.56,321.77 363.46,324.42 363.92,326.86 
					375.35,332.55 365.34,334.43 365.83,337.03 379.93,334.38 				"/>
				<path class="st2" d="M362.42,328.32c-0.63-0.52-1.4-0.7-2.33-0.54l0.34,1.81c0.5-0.08,0.91,0.02,1.24,0.3
					c0.33,0.28,0.55,0.71,0.66,1.28c0.11,0.58,0.06,1.05-0.15,1.43c-0.21,0.37-0.56,0.61-1.05,0.72l0.34,1.81
					c0.92-0.19,1.58-0.63,1.98-1.34c0.4-0.71,0.48-1.66,0.25-2.87C363.48,329.71,363.05,328.85,362.42,328.32z"/>
				<path class="st2" d="M360.4,293.42l1.47-0.01c0.08,1.4,0.31,2.64,0.72,3.67c0.5,1.26,1.22,2.22,2.16,2.89
					c0.94,0.66,2.08,0.99,3.42,0.99c1.34-0.01,2.47-0.35,3.4-1.02c0.93-0.67,1.63-1.64,2.11-2.91c0.39-1.04,0.61-2.28,0.68-3.68
					l1.55-0.01l-0.01-2.46l-1.54,0.01c-0.07-1.44-0.3-2.7-0.72-3.76c-0.49-1.23-1.21-2.17-2.16-2.82c-0.95-0.64-2.07-0.96-3.39-0.96
					c-1.34,0.01-2.47,0.34-3.41,1c-0.93,0.66-1.64,1.62-2.13,2.87c-0.41,1.05-0.63,2.29-0.69,3.72l-1.46,0.01L360.4,293.42z
					 M371.87,295.51c-0.3,0.92-0.77,1.62-1.39,2.11c-0.63,0.49-1.4,0.73-2.33,0.74c-0.94,0-1.73-0.22-2.35-0.67
					c-0.62-0.45-1.09-1.14-1.4-2.06c-0.21-0.63-0.33-1.39-0.4-2.22l8.25-0.04C372.18,294.16,372.08,294.9,371.87,295.51z
					 M364.37,288.67c0.31-0.89,0.77-1.57,1.38-2.04c0.61-0.47,1.38-0.7,2.29-0.71c0.93,0,1.71,0.22,2.34,0.67
					c0.63,0.45,1.11,1.13,1.43,2.02c0.23,0.64,0.35,1.42,0.42,2.28l-8.27,0.04C364.03,290.09,364.15,289.31,364.37,288.67z"/>
				<path class="st2" d="M363.66,271.84c0.58,0.77,1.29,1.4,2.13,1.88c0.84,0.48,1.8,0.79,2.85,0.91c1.04,0.12,2.03,0.05,2.97-0.23
					c0.93-0.28,1.77-0.72,2.52-1.34c0.75-0.61,1.36-1.37,1.83-2.27c0.48-0.9,0.78-1.9,0.91-3c0.13-1.1,0.07-2.14-0.18-3.12
					c-0.25-0.98-0.67-1.85-1.25-2.61c-0.58-0.76-1.3-1.39-2.14-1.87c-0.84-0.48-1.8-0.79-2.85-0.91c-1.06-0.12-2.06-0.05-3,0.23
					c-0.94,0.28-1.78,0.72-2.52,1.33c-0.74,0.61-1.34,1.36-1.81,2.25c-0.47,0.89-0.77,1.89-0.9,2.99c-0.13,1.11-0.07,2.16,0.19,3.14
					C362.66,270.2,363.08,271.08,363.66,271.84z M364.53,266.36c0.08-0.72,0.28-1.37,0.6-1.94c0.31-0.57,0.72-1.06,1.22-1.47
					c0.5-0.4,1.07-0.69,1.71-0.86c0.64-0.17,1.32-0.22,2.06-0.13c0.73,0.09,1.39,0.29,1.97,0.61c0.58,0.32,1.07,0.73,1.46,1.23
					c0.4,0.5,0.68,1.07,0.85,1.7c0.17,0.63,0.22,1.31,0.13,2.03c-0.08,0.72-0.28,1.37-0.6,1.96c-0.32,0.59-0.73,1.08-1.23,1.48
					c-0.51,0.39-1.08,0.69-1.72,0.87c-0.64,0.19-1.32,0.24-2.04,0.15c-0.73-0.09-1.39-0.29-1.96-0.62
					c-0.57-0.33-1.06-0.74-1.46-1.24c-0.4-0.5-0.69-1.07-0.86-1.72C364.49,267.76,364.45,267.08,364.53,266.36z"/>
				<polygon class="st2" points="379.83,248.56 373.85,247.15 375.55,239.93 381.54,241.35 382.14,238.77 368.18,235.47 
					367.58,238.05 373.34,239.41 371.63,246.63 365.87,245.26 365.26,247.86 379.22,251.16 				"/>
				<path class="st2" d="M379.05,225.63c0.83,0.4,1.54,0.81,2.12,1.22c0.58,0.41,0.99,0.84,1.23,1.28c0.24,0.44,0.27,0.91,0.08,1.39
					l-0.16,0.44l4.99,1.82l0.84-2.33l-2.87-1.04l3.73-10.35l2.87,1.04l0.83-2.31l-4.99-1.8l-0.7,1.95l-11.37-4.1l-3.57,9.89
					l4.2,1.69C377.29,224.82,378.22,225.23,379.05,225.63z M376.87,216.07l9.25,3.34l-2.47,6.86c-0.09-0.19-0.19-0.37-0.34-0.55
					c-0.34-0.41-0.82-0.81-1.42-1.19c-0.6-0.38-1.29-0.75-2.07-1.13c-0.77-0.37-1.6-0.73-2.49-1.09l-2.36-0.96L376.87,216.07z"/>
				<polygon class="st2" points="393.62,188.37 388.72,185.5 387.68,187.41 392.73,190.01 				"/>
				<polygon class="st2" points="391.72,191.84 386.82,188.97 385.78,190.87 390.83,193.48 				"/>
				<path class="st2" d="M397.1,176.19c0.22-0.66,0.51-1.24,0.85-1.76c0.34-0.52,0.72-0.94,1.12-1.27c0.4-0.33,0.81-0.54,1.22-0.61
					c0.41-0.08,0.8,0,1.17,0.25c0.49,0.33,0.74,0.76,0.76,1.3c0.02,0.54-0.2,1.15-0.65,1.82l-1.74,2.61l1.76,1.17l1.84-2.76
					c0.51-0.77,1.05-1.28,1.61-1.53c0.56-0.25,1.1-0.2,1.63,0.15c0.43,0.29,0.7,0.68,0.79,1.18c0.09,0.5,0.05,1.05-0.12,1.64
					c-0.18,0.6-0.47,1.19-0.87,1.77c-0.41,0.58-0.91,1.12-1.5,1.61c-0.6,0.49-1.24,0.87-1.93,1.15l1.16,1.81
					c0.83-0.36,1.6-0.84,2.31-1.42c0.71-0.58,1.32-1.22,1.83-1.93c0.51-0.71,0.92-1.44,1.21-2.18c0.29-0.75,0.46-1.48,0.51-2.21
					c0.05-0.72-0.06-1.38-0.31-1.97c-0.26-0.59-0.67-1.08-1.25-1.46c-0.61-0.41-1.26-0.61-1.95-0.61c-0.68,0-1.35,0.21-2,0.62
					c-0.16,0.1-0.31,0.25-0.46,0.38c0.01-0.06,0.04-0.13,0.05-0.19c0.1-0.69,0.03-1.32-0.21-1.9c-0.24-0.58-0.65-1.06-1.22-1.44
					c-0.64-0.42-1.31-0.6-2.01-0.54c-0.7,0.07-1.4,0.31-2.1,0.74c-0.7,0.43-1.34,1.01-1.92,1.74c-0.58,0.73-1.07,1.55-1.46,2.47
					s-0.63,1.9-0.72,2.94l2.23,0.5C396.75,177.53,396.88,176.84,397.1,176.19z"/>
				<path class="st2" d="M417.91,167.65l-1.64-3.22l4.58-5.52l3.46,1.03l1.79-2.16l-15.17-4.18l-1.68,2.02l6.92,14.13L417.91,167.65
					z M415.23,162.4l-3.11-6.08l6.55,1.94L415.23,162.4z"/>
				<polygon class="st2" points="433.78,149.85 429.52,145.42 434.86,140.28 439.12,144.71 441.03,142.88 431.09,132.54 
					429.18,134.37 433.29,138.64 427.94,143.78 423.83,139.51 421.91,141.36 431.86,151.7 				"/>
				<path class="st2" d="M443.55,131.18c0.64,0.84,1.38,1.5,2.23,1.97c0.85,0.48,1.75,0.77,2.71,0.88c0.96,0.11,1.93,0.02,2.91-0.26
					c0.98-0.28,1.91-0.76,2.79-1.43c0.88-0.67,1.58-1.44,2.11-2.3c0.53-0.86,0.87-1.76,1.01-2.71c0.14-0.95,0.1-1.9-0.14-2.84
					c-0.24-0.94-0.68-1.84-1.33-2.69c-0.65-0.85-1.39-1.51-2.25-2c-0.85-0.48-1.75-0.78-2.7-0.89c-0.95-0.11-1.91-0.02-2.88,0.26
					c-0.97,0.28-1.89,0.76-2.77,1.43c-0.89,0.68-1.6,1.45-2.12,2.32c-0.53,0.86-0.87,1.77-1.02,2.72c-0.15,0.95-0.11,1.9,0.13,2.84
					C442.46,129.43,442.91,130.33,443.55,131.18z M444.63,125.8c0.08-0.64,0.29-1.24,0.64-1.81c0.35-0.57,0.81-1.08,1.38-1.52
					c0.58-0.44,1.18-0.74,1.81-0.92c0.63-0.17,1.27-0.22,1.9-0.14c0.64,0.08,1.24,0.29,1.81,0.63c0.57,0.34,1.08,0.8,1.52,1.39
					c0.45,0.59,0.76,1.2,0.93,1.84c0.17,0.64,0.22,1.28,0.13,1.91c-0.09,0.63-0.29,1.23-0.63,1.79c-0.33,0.56-0.79,1.07-1.37,1.5
					c-0.58,0.44-1.19,0.75-1.83,0.93c-0.64,0.18-1.28,0.23-1.92,0.14c-0.64-0.09-1.24-0.3-1.82-0.63c-0.58-0.33-1.09-0.78-1.53-1.36
					c-0.45-0.59-0.75-1.2-0.91-1.84C444.59,127.08,444.55,126.44,444.63,125.8z"/>
				<path class="st2" d="M473.64,119c1.55-0.93,2.53-1.92,2.96-3c0.42-1.07,0.31-2.15-0.33-3.23c-0.62-1.04-1.47-1.61-2.55-1.7
					c-0.52-0.04-1.09,0.02-1.68,0.2c0.2-0.28,0.38-0.56,0.5-0.87c0.41-0.98,0.31-1.97-0.28-2.97c-0.62-1.03-1.47-1.59-2.57-1.67
					c-1.1-0.08-2.35,0.29-3.74,1.13l-5.5,3.29l7.36,12.31L473.64,119z M463.76,110.58l3.06-1.83c0.74-0.44,1.39-0.63,1.95-0.57
					c0.56,0.06,1.02,0.38,1.36,0.95c0.34,0.57,0.41,1.12,0.2,1.65c-0.21,0.52-0.69,1.01-1.43,1.45l-3.06,1.83L463.76,110.58z
					 M470.34,113.65c0.81-0.48,1.51-0.7,2.09-0.64c0.58,0.06,1.05,0.38,1.41,0.98c0.38,0.63,0.46,1.22,0.23,1.76
					c-0.23,0.54-0.74,1.05-1.55,1.54l-3.5,2.09l-2.18-3.64L470.34,113.65z"/>
				<path class="st2" d="M484.26,108.27c0.72,0.66,1.53,1.15,2.44,1.47c0.91,0.32,1.87,0.46,2.89,0.4c1.02-0.06,2.03-0.31,3.04-0.77
					c1.01-0.46,1.87-1.04,2.58-1.76s1.24-1.53,1.59-2.42c0.35-0.89,0.52-1.83,0.5-2.8c-0.02-0.97-0.25-1.94-0.69-2.91
					c-0.44-0.97-1.02-1.79-1.74-2.45c-0.72-0.66-1.53-1.15-2.43-1.47c-0.9-0.32-1.86-0.45-2.86-0.39c-1.01,0.06-2.02,0.32-3.02,0.77
					c-1.02,0.46-1.88,1.06-2.59,1.78s-1.24,1.53-1.6,2.42c-0.36,0.89-0.53,1.82-0.51,2.8c0.02,0.97,0.25,1.94,0.69,2.92
					C482.96,106.81,483.54,107.62,484.26,108.27z M484.79,100.86c0.22-0.6,0.56-1.14,1.03-1.62c0.46-0.48,1.03-0.87,1.69-1.17
					c0.66-0.3,1.32-0.46,1.97-0.49c0.65-0.03,1.28,0.07,1.89,0.29s1.14,0.56,1.62,1.02c0.48,0.46,0.87,1.02,1.17,1.7
					c0.3,0.67,0.47,1.34,0.49,2s-0.08,1.29-0.3,1.89c-0.22,0.6-0.56,1.13-1.02,1.61c-0.45,0.48-1.01,0.86-1.67,1.16
					c-0.66,0.3-1.32,0.46-1.99,0.5c-0.67,0.03-1.3-0.07-1.9-0.3c-0.6-0.23-1.14-0.57-1.63-1.03c-0.49-0.45-0.88-1.01-1.18-1.67
					c-0.3-0.67-0.46-1.34-0.48-2C484.46,102.09,484.57,101.46,484.79,100.86z"/>
				<polygon class="st2" points="509.88,93.13 508.19,87.71 506.13,88.42 508.11,93.74 				"/>
				<polygon class="st2" points="506.13,94.42 504.45,89 502.39,89.7 504.37,95.02 				"/>
			</g>
			<g>
				<path class="st2" d="M652.34,91.69c-0.77-0.71-1.71-1.27-2.82-1.67c-1.04-0.38-2.06-0.56-3.05-0.53c-1,0.02-1.94,0.23-2.82,0.62
					c-0.88,0.39-1.66,0.94-2.32,1.64c-0.66,0.7-1.18,1.56-1.55,2.58c-0.37,1.01-0.53,2-0.47,2.97c0.06,0.97,0.29,1.88,0.71,2.75
					c0.42,0.86,1,1.63,1.75,2.28c0.75,0.66,1.64,1.18,2.68,1.55c1.12,0.41,2.2,0.58,3.25,0.53c1.05-0.05,2.03-0.34,2.93-0.85
					l-1.06-2.11c-0.7,0.36-1.4,0.56-2.09,0.6c-0.7,0.04-1.4-0.06-2.09-0.31c-0.71-0.26-1.31-0.61-1.81-1.05
					c-0.5-0.44-0.89-0.96-1.16-1.54c-0.28-0.58-0.43-1.2-0.46-1.87c-0.03-0.67,0.08-1.35,0.33-2.04c0.25-0.69,0.61-1.28,1.06-1.77
					c0.45-0.49,0.97-0.87,1.56-1.13c0.58-0.27,1.21-0.41,1.88-0.43c0.67-0.02,1.36,0.1,2.06,0.36c0.69,0.25,1.29,0.62,1.8,1.1
					c0.51,0.48,0.92,1.08,1.22,1.79l2.17-0.93C653.68,93.24,653.12,92.4,652.34,91.69z"/>
				<polygon class="st2" points="673.31,100.7 670.68,106.01 664.03,102.72 666.66,97.41 664.27,96.23 657.91,109.09 660.3,110.27 
					663.02,104.76 669.67,108.05 666.95,113.56 669.32,114.73 675.68,101.87 				"/>
				<path class="st2" d="M681.63,118.06l6.04,3.88l-0.6,3.56l2.36,1.52l2.31-15.57l-2.21-1.42l-13.18,8.58l2.29,1.47L681.63,118.06z
					 M683.51,116.79l5.66-3.82l-1.13,6.73L683.51,116.79z"/>
				<path class="st2" d="M708.74,133.8c0.85-0.28,1.61-0.82,2.27-1.64c0.67-0.83,1.05-1.7,1.15-2.6c0.1-0.9-0.08-1.8-0.54-2.68
					c-0.45-0.88-1.18-1.72-2.16-2.52l-4.59-3.7l-9.01,11.16l2.07,1.67l2.62-3.25l2.52,2.03c0.15,0.12,0.3,0.22,0.45,0.33l-0.36,5.11
					l2.23,1.8l0.39-5.74c0.07,0.02,0.15,0.05,0.22,0.07C706.97,134.09,707.88,134.07,708.74,133.8z M701.93,128.52l3.59-4.45
					l2.42,1.96c0.91,0.74,1.45,1.49,1.6,2.25c0.15,0.76-0.06,1.49-0.62,2.19c-0.57,0.7-1.24,1.06-2.02,1.08
					c-0.78,0.02-1.63-0.34-2.54-1.08L701.93,128.52z"/>
				
					<rect x="710.75" y="140.02" transform="matrix(0.6918 -0.722 0.722 0.6918 119.1649 561.9296)" class="st2" width="14.34" height="2.66"/>
				<polygon class="st2" points="723,156.87 724.78,158.85 733.77,150.77 736.95,154.31 738.63,152.8 730.5,143.75 728.82,145.25 
					731.99,148.79 				"/>
				<path class="st2" d="M733.07,168.8l3.52-0.82l4.25,5.78l-1.83,3.11l1.66,2.26l7.73-13.71l-1.55-2.11l-15.38,3.29L733.07,168.8z
					 M738.81,167.48l6.66-1.54l-3.47,5.88L738.81,167.48z"/>
				<path class="st2" d="M748.55,192.09c0.92,1.6,1.92,2.63,2.98,3.1c1.06,0.47,2.12,0.39,3.19-0.22c0.72-0.42,1.23-0.93,1.53-1.53
					c0.3-0.6,0.42-1.25,0.35-1.95c-0.02-0.19-0.08-0.38-0.12-0.57c0.54,0.34,1.11,0.54,1.74,0.58c0.64,0.04,1.3-0.14,1.96-0.52
					c0.98-0.57,1.54-1.41,1.67-2.53c0.13-1.12-0.23-2.42-1.08-3.9l-3.38-5.83l-12.41,7.19L748.55,192.09z M753.61,192.53
					c-0.63,0.36-1.22,0.4-1.77,0.1c-0.55-0.3-1.07-0.87-1.57-1.72l-2.17-3.74l3.58-2.07l2.17,3.74c0.49,0.85,0.73,1.59,0.71,2.22
					C754.54,191.68,754.22,192.17,753.61,192.53z M758.79,185.33c0.46,0.79,0.67,1.49,0.64,2.09c-0.03,0.6-0.34,1.07-0.91,1.41
					c-0.57,0.33-1.12,0.36-1.66,0.08c-0.54-0.27-1.03-0.81-1.49-1.6l-1.89-3.26l3.42-1.98L758.79,185.33z"/>
				<polygon class="st2" points="759.54,214.32 761.59,213.4 758.51,206.56 769.54,201.59 768.44,199.16 755.37,205.05 				"/>
				<polygon class="st2" points="765.99,232.29 768.13,231.57 765.53,223.9 769.26,222.64 771.48,229.2 773.56,228.5 771.34,221.94 
					774.85,220.75 777.35,228.14 779.49,227.42 776.13,217.5 762.55,222.1 				"/>
				<polygon class="st2" points="771.51,255.48 776.95,254.56 778.1,261.39 780.28,261.03 779.13,254.2 783.43,253.47 
					784.73,261.17 786.96,260.79 785.21,250.47 771.07,252.86 				"/>
				<path class="st2" d="M775.39,273.36c-1.03,1.18-1.49,2.75-1.37,4.7c0.12,1.96,0.77,3.47,1.95,4.51c1.17,1.04,2.81,1.5,4.91,1.36
					l8.06-0.51l-0.17-2.62l-7.98,0.5c-1.47,0.09-2.56-0.15-3.27-0.74c-0.71-0.58-1.1-1.46-1.17-2.62c-0.07-1.16,0.2-2.08,0.83-2.75
					c0.63-0.68,1.68-1.06,3.15-1.15l7.98-0.51l-0.17-2.66l-8.06,0.51C777.99,271.53,776.42,272.18,775.39,273.36z"/>
				<polygon class="st2" points="789.03,294.93 774.7,294.22 774.57,296.86 784.28,297.34 774.18,304.74 774.08,306.93 
					788.4,307.64 788.53,305.02 778.81,304.54 788.92,297.12 				"/>
				<path class="st2" d="M772,323.13c-0.25,1.51-0.18,2.9,0.22,4.16c0.39,1.26,1.07,2.31,2.03,3.13c0.96,0.82,2.14,1.35,3.56,1.58
					c1.42,0.23,2.71,0.11,3.88-0.36c1.17-0.47,2.15-1.24,2.93-2.31c0.78-1.07,1.29-2.36,1.54-3.87l1.02-6.21l-14.15-2.33L772,323.13
					z M774.25,323.34l0.56-3.42l9.7,1.6l-0.56,3.42c-0.18,1.06-0.53,1.95-1.06,2.66c-0.53,0.71-1.19,1.22-1.98,1.54
					c-0.79,0.32-1.68,0.4-2.68,0.23c-0.97-0.16-1.78-0.52-2.44-1.08c-0.66-0.56-1.12-1.26-1.4-2.1
					C774.12,325.36,774.07,324.4,774.25,323.34z"/>
				<polygon class="st2" points="773.16,355.09 778.5,357.02 779.18,354.95 773.74,353.32 				"/>
				<polygon class="st2" points="771.93,358.85 777.27,360.77 777.94,358.71 772.51,357.07 				"/>
				<path class="st2" d="M759.38,367.5l3.84,1.66l-1.28,2.97c-0.08,0.18-0.13,0.35-0.2,0.52l-5.02,1.02l-1.14,2.63l5.64-1.16
					c0,0.08-0.01,0.16-0.01,0.23c0.02,1,0.27,1.87,0.77,2.62c0.49,0.75,1.22,1.33,2.19,1.75c0.98,0.42,1.92,0.56,2.81,0.41
					c0.9-0.15,1.71-0.56,2.44-1.23c0.73-0.67,1.35-1.59,1.85-2.76l2.34-5.42l-13.17-5.69L759.38,367.5z M769.24,375.16
					c-0.47,1.08-1.05,1.79-1.74,2.14c-0.69,0.35-1.45,0.34-2.28-0.02c-0.83-0.36-1.36-0.91-1.58-1.66
					c-0.23-0.75-0.11-1.66,0.36-2.74l1.24-2.86l5.25,2.27L769.24,375.16z"/>
				<polygon class="st2" points="746.26,393.65 748.22,394.75 752.18,387.7 755.62,389.62 752.22,395.66 754.14,396.74 
					757.53,390.7 760.76,392.51 756.94,399.32 758.9,400.42 764.03,391.29 751.52,384.27 				"/>
				<polygon class="st2" points="739.84,403.55 747.76,409.2 735.26,409.97 733.98,411.76 745.66,420.09 747.19,417.95 
					739.26,412.3 751.78,411.51 753.05,409.73 741.37,401.4 				"/>
				<path class="st2" d="M733.71,423.64c-0.78-0.71-1.63-1.22-2.55-1.53c-0.92-0.32-1.86-0.44-2.83-0.37
					c-0.96,0.07-1.9,0.33-2.81,0.79s-1.74,1.09-2.48,1.92c-0.74,0.82-1.3,1.7-1.66,2.64c-0.36,0.94-0.53,1.89-0.5,2.85
					c0.03,0.96,0.25,1.88,0.66,2.77c0.41,0.88,1.01,1.68,1.8,2.4c0.79,0.71,1.65,1.23,2.57,1.55c0.93,0.32,1.86,0.45,2.82,0.38
					c0.95-0.07,1.88-0.33,2.78-0.78c0.9-0.46,1.72-1.09,2.47-1.91c0.75-0.83,1.31-1.72,1.67-2.67c0.36-0.95,0.53-1.9,0.5-2.86
					c-0.02-0.96-0.24-1.88-0.65-2.77C735.1,425.16,734.5,424.36,733.71,423.64z M733.33,431.02c-0.23,0.63-0.59,1.21-1.08,1.74
					c-0.49,0.54-1.02,0.95-1.61,1.23c-0.59,0.29-1.21,0.45-1.85,0.48c-0.64,0.04-1.27-0.06-1.89-0.29c-0.62-0.23-1.2-0.59-1.75-1.09
					c-0.55-0.5-0.96-1.04-1.25-1.64c-0.29-0.6-0.45-1.22-0.48-1.85c-0.03-0.64,0.07-1.26,0.29-1.88c0.23-0.62,0.58-1.19,1.07-1.73
					c0.49-0.54,1.03-0.95,1.63-1.25c0.6-0.3,1.22-0.46,1.86-0.48c0.64-0.03,1.28,0.07,1.91,0.29c0.63,0.22,1.21,0.57,1.75,1.06
					c0.55,0.5,0.96,1.04,1.24,1.64c0.28,0.6,0.43,1.22,0.47,1.86C733.67,429.76,733.57,430.4,733.33,431.02z"/>
				<polygon class="st2" points="706.72,440.81 711.65,455.66 713.61,453.9 709.85,442.44 720.77,447.48 722.92,445.55 
					708.67,439.06 				"/>
				<path class="st2" d="M695.76,449.84l0.79,3.53l-5.82,4.2l-3.09-1.86l-2.28,1.64l13.64,7.84l2.13-1.53l-3.16-15.41L695.76,449.84
					z M697.04,455.58l1.49,6.67l-5.85-3.52L697.04,455.58z"/>
				<polygon class="st2" points="682.69,473.11 676.6,462.67 674.3,464.01 680.39,474.46 676.29,476.85 677.42,478.8 687.94,472.66 
					686.8,470.72 				"/>
				<polygon class="st2" points="653.1,474.65 654.04,476.7 661.39,473.32 663.03,476.89 656.74,479.79 657.66,481.78 
					663.95,478.88 665.5,482.25 658.41,485.52 659.35,487.56 668.86,483.19 662.87,470.16 				"/>
				<polygon class="st2" points="646.23,486.58 647.99,491.98 650.04,491.25 647.99,485.95 				"/>
				<polygon class="st2" points="642.51,487.91 644.27,493.31 646.31,492.58 644.27,487.28 				"/>
			</g>
			<g>
				<path class="st2" d="M566.99,83.61l-0.09-2.24c2.74-0.11,5.48-0.17,8.15-0.17c2.53,0,5.14,0.05,7.77,0.16l-0.09,2.24
					c-2.6-0.1-5.18-0.15-7.68-0.15C572.42,83.44,569.71,83.5,566.99,83.61z"/>
				<path class="st2" d="M566.99,83.61l-0.09-2.24c2.74-0.11,5.48-0.17,8.15-0.17c2.53,0,5.14,0.05,7.77,0.16l-0.09,2.24
					c-2.6-0.1-5.18-0.15-7.68-0.15C572.42,83.44,569.71,83.5,566.99,83.61z"/>
			</g>
			<path class="st2" d="M490.99,235.53c-1.9,1.99-4.18,4.85-6.02,8.71c-0.56,1.18-1.01,2.32-1.39,3.4
				c-1.39-13.07-1.98-32.58,0.44-49.39c2.25-15.66,6.61-31.05,12.94-45.75c4.56-10.59,10.17-20.87,16.67-30.56
				c0.52-0.78,0.4-1.8-0.29-2.43c-0.69-0.63-1.72-0.67-2.45-0.09c-14.65,11.65-26.72,26.67-34.91,43.43
				c-3.81,7.81-6.55,15.47-8.49,22.74c0-0.16,0-0.31,0-0.47c-0.09-10.46-2.4-19.35-4.32-24.97c-1.94-5.67-4.46-10.74-5.86-11.79
				c-0.74-0.55-1.44-0.46-1.8-0.36c-0.51,0.14-0.92,0.48-1.17,0.95c-0.47,0.87-0.24,1.62,0.38,3.63c1.19,3.84,3.67,11.83,2.48,21.74
				c-1.08,8.99-4.61,14.39-8.35,20.09c-2.57,3.91-5.22,7.96-7.2,13.31c-2.4,6.5-3.04,13.07-2.76,19.15
				c-1.21-2.13-2.56-4.29-4.07-6.45c-6.74-9.62-15.77-17.59-19.05-18.02c-0.91-0.12-1.51,0.2-1.86,0.49
				c-0.67,0.56-1.24,1.64-0.15,3.57c0.41,0.71,1.03,1.61,1.83,2.75c2.79,4,7.97,11.45,10.85,21.86c1.4,5.06,1.44,7.83,1.5,11.34
				c0.06,3.53,0.12,7.53,1.5,14.77c1.54,8.14,3.68,14.69,5.15,19.11c-1.44-1.89-3.26-4.17-5.47-6.59
				c-6-6.53-12.23-11.03-16.39-13.65c-2.85-1.79-8.2-4.8-10.18-4.68c-0.87,0.05-1.35,0.54-1.56,0.83c-0.31,0.43-0.43,0.95-0.34,1.47
				c0.17,0.97,0.82,1.43,2.4,2.54c2.77,1.94,8.55,5.98,13.01,13.21c3.1,5.02,3.65,8.45,4.35,12.81c0.64,3.98,1.36,8.49,4.1,15.19
				c3.27,8.02,8.87,15.9,12.96,21.66c1.06,1.5,2.25,3.18,3.19,4.59c-0.09-0.03-0.18-0.05-0.27-0.07c-1.31-0.83-3.05-2.05-5.3-3.81
				c-4.2-3.29-8.2-6.99-10.45-9.64c-3.22-3.79-4.01-5.74-4.92-7.98c-0.94-2.3-2-4.92-5.63-9.58c-0.82-1.05-1.68-2.19-2.6-3.39
				c-6.9-9.05-9.37-11.9-11.4-12.1c-0.65-0.07-1.27,0.13-1.75,0.55c-1.6,1.41-0.54,3.65-0.14,4.49c0.59,1.24,1.55,2.83,2.67,4.67
				c2,3.3,4.49,7.41,6.5,12.15c5.03,11.88,5.62,17.63,6.29,24.28c0.44,4.32,0.94,9.22,2.75,16.31c4.42,17.3,16.2,31.38,24,40.7
				c2.12,2.54,3.96,4.73,5.22,6.49c0.92,1.28,1.34,2.07,1.54,2.53c-0.47-0.02-1.09-0.07-1.74-0.12c-1.61-0.12-4.04-0.31-7.53-0.38
				c-2.2-0.04-6.3-0.13-9.94,0.04c-5.26,0.23-8.19,0.78-8.59,3.01c-0.07,0.39-0.13,1.4,0.86,2.29c0.34,0.3,0.79,0.58,1.41,0.87
				c0.93,0.44,2.18,0.87,3.76,1.42c3.11,1.08,7.36,2.57,11.55,4.95c8.94,5.08,12.59,9.85,16.82,15.37c1.45,1.9,2.95,3.84,4.72,5.91
				c4.67,5.86,4.58,4.95,4.94,4.77c0.82-0.4,0.15-3.09-0.06-3.78c-0.15-0.51-0.3-1.04-0.46-1.58l0.03-0.03
				c-0.02-0.02-0.04-0.04-0.05-0.06c-6.66-24.12-11.54-81.77-12.95-86.29c-0.03-0.1-0.31-1.25-0.12-1.03c0,0,0.71,0.64,2.37,2.66
				c0.09,0.11,0.25,0.39,0.38,0.64c0.29,0.56,0.92,2.14,0.94,2.21c0.49,1.91,7.89,37.04,11.98,62.02c0.31,1.87,0.5,3.19,0.69,4.67
				c1.62,12.76,1.43,20.64,1.37,21.71c-0.05,0.98-0.23,2.82-0.2,3.01l2.32,1.29c2.55,1.43,9.79,5.24,9.79,5.24l-0.17-0.5
				c-0.57-1.72-1.05-3.47-1.43-5.24c-0.7-3.18-2.11-9.11-2.29-10c-0.22-1.11-6.38-42.84-9.74-60.6c-0.66-3.46-1.21-7.59-4.08-23.16
				c-0.01-0.07-0.29-0.51-0.19-1.03c0.07-0.34,0.26-0.56,0.29-0.59c3.38-4.22,3.3-17.14,3.3-17.14c-0.1-16.79-1.73-25.65-1.73-25.65
				c-4.45-24.27-12.76-42.77-16.06-49.71c-0.94-1.97-1.87-3.86-2.81-5.67c-0.07-0.18-0.18-0.47-0.25-0.66
				c-0.32-1.33-0.61-2.72-0.86-4.17c-1.58-9.16-1-17.55,1.73-24.95c1.83-4.95,4.36-8.82,6.82-12.56c3.81-5.82,7.75-11.83,8.94-21.69
				c0.35-2.91,0.4-5.69,0.27-8.26c1.41,5.32,2.52,11.7,2.58,18.65c0.1,12.14-2.97,21.96-4.61,27.24c-0.13,0.41-0.24,0.78-0.35,1.13
				c-0.29,0.88-0.48,1.57-0.57,2.03c-0.01,0.05-0.02,0.1-0.03,0.15c-0.03,0.12-0.05,0.24-0.06,0.35c-1.43,8.26,0.6,19.51,3.5,32.4
				c2.82,12.53,3.47,25.45,5.78,38.08c1.93,10.6,2.19,14.02,11.17,103.56c0.75,7.53,2.17,13.81,2.3,22.88
				c0.06,4.25,0.14,24.64,0.01,25.2l-0.08,0.43l0.86,0.24c0,0,16.31,4.09,19.89,4.82l1.29-30.64c-2.31,3.98-4.63,8.27-6.9,12.86
				c-1.72,3.48-3.28,6.87-4.71,10.15c-0.29-7.44-0.62-14.95-1.02-22.51c-1.17-22.37-2.8-43.98-4.78-65.21
				c0.3,0.37,0.61,0.76,0.9,1.15c1.71,2.26,3.22,5.03,4.57,7.52c2.22,4.08,4.58,7.88,6.68,12.18c-0.18-5.95-0.74-12.65-0.92-18.61
				c-2.69-0.96-5.38-1.12-8.08-2.12c-1.26-1.67-2.24-2.96-3.49-4.62c-1.66-19.81-3.02-36.09-4.11-55.94
				c-0.51-9.34-1.17-20.7-1.93-30.39l2.27,7.25c3.05,8.63,6.22,18.95,8.78,27.73c2.92,10.02,5.02,19.28,7.69,29.01
				c-0.06-6.84,0.04-24,0.08-32.52c-6.66-10.03-10.39-21.43-10.39-33.63C487.52,248.46,488.75,241.82,490.99,235.53z M427.99,296.01
				c-2.57-6.31-3.26-10.59-3.87-14.38c-0.73-4.58-1.37-8.53-4.86-14.18c-1.07-1.72-2.19-3.28-3.34-4.68
				c3.39,2.54,7.03,5.7,10.48,9.45c0.11,0.12,0.22,0.24,0.33,0.36c2.24,3.67,3.76,7.75,4.46,12c0.09,0.65,0.18,1.32,0.27,2.01l0,0v0
				c1.07,7.56,2.76,17.03,4.68,24.01C433.14,306.13,430.05,301.06,427.99,296.01z M443.28,377.85
				c-7.58-9.06-19.04-22.74-23.25-39.22c-1.74-6.83-2.2-11.37-2.65-15.77c-0.68-6.66-1.32-12.95-6.57-25.35
				c-1.44-3.4-3.14-6.53-4.7-9.21c0.87,1.12,1.71,2.22,2.42,3.16c0.92,1.21,1.8,2.36,2.62,3.42c3.31,4.26,4.23,6.52,5.12,8.7
				c0.99,2.44,1.93,4.74,5.53,8.99c2.3,2.71,6.24,6.38,10.41,9.7c3.96,3.97,7.7,9.28,8.74,13.87l2.79,12.77
				c1.74,11.68,3.36,25.29,4.48,35.05C446.94,382.22,445.26,380.21,443.28,377.85z M449.31,393.99l-0.09,4.43
				c0.1,2.37-1.85,3.98-6.06,2.39c-1.32-0.9-2.77-1.81-4.37-2.72c-4.48-2.55-8.92-4.1-12.16-5.23c-0.2-0.07-0.4-0.14-0.61-0.21
				c0.84-0.07,1.88-0.13,3.16-0.17c3.25-0.1,6.76-0.03,8.65,0.01c3.38,0.07,5.66,0.24,7.31,0.37c1.81,0.14,3.09,0.23,4.05-0.12
				C449.24,393.16,449.28,393.58,449.31,393.99L449.31,393.99z M447.04,262.78c2.12,10.26,3.34,14.75,3.92,18.72
				c0.98,6.75,0.61,5.45,1.94,15.07c0.93,6.75,1.94,13.25,2.53,20.28c0.17,1.97,0.56,6.7,0.02,12.5c-0.09,0.91-0.36,1.63-0.49,2.11
				c-1.4-0.57-4-1.62-5.4-2.19c-4.93-33.21-9.87-64.56-14.8-97.77c1.15,1.55,4,5.85,5.44,8.92
				C442.2,244.68,444.22,249.1,447.04,262.78z M480.34,197.71c-2.23,15.47-1.96,33.16-0.85,46.23c0,0.22,0.03,0.92,0.12,2.05
				c-2.23-3-4.69-6.78-6.93-11.35c-5.47-11.13-6.26-28.79-1.79-47.22c1.89-7.32,4.62-15.05,8.47-22.95
				c6.11-12.51,14.44-24.01,24.43-33.8c-3.83,6.6-7.25,13.4-10.24,20.34C487.09,166.02,482.64,181.73,480.34,197.71z"/>
			<path class="st2" d="M535.84,342.75l0.5,98.92c-2.78-18.38-4.26-35.46-7.1-53.83c-3.5-22.65-6.48-45.94-10.06-69.81
				c-0.21-3.11,1.04-5.1,3.17-5.96c-7.46-4.57-13.99-10.1-19.32-16.35c0.41,2.95,0.81,5.9,1.26,9.31
				c1.14,36.54,1.98,78.27,3.06,115.79c0.22,7.76-0.19,15.52-1.26,23.22l-0.39,2.79c0.92,1.13,2.3,2.12,3.42,3.32
				c1.35,1.45,5.04,3.95,6.32,5.1c-0.35-2.27-0.83-4.66-1.36-7.08c-2.04-9.34-3.13-18.86-3.48-28.42
				c-1.27-34.61-2.53-68.28-3.66-103c7.68,50.05,14.17,98.94,21.85,148.99c2.22,1.16,4.61,2.33,7.18,3.45
				c1.89,0.83,3.72,1.57,5.5,2.24l-2.31-19.34l-0.33-104.09c-0.01-3.55,0.38-8.33,0.98-11.83c0.27-1.55,0.79-4.14,1.19-5.48
				c0.9-3.01,1.82-6.19,5.35-8.26c-4-1.12-7.87-2.47-11.59-4.04C535.4,328.2,535.84,342.75,535.84,342.75z"/>
			<g>
				<path class="st2" d="M607.39,330.45c0.5,2.93,0.76,6.08,0.6,9.03c-2.19,39.39-4.79,73.91-8.43,113.33
					c-0.63,6.8-1.34,12.36-2.26,19.04c1.69-0.67,5.89-2.28,7.59-2.95c-0.33-5.92-1.02-11.21-1.34-17.12
					c1.01-11.16,1.58-20.31,2.59-31.47c3.76-8.19,7.66-15.07,11.42-23.26c0.32,16.26,0.58,30.5,0.9,46.76
					c-0.23,7.1-0.4,13.45-0.63,20.55c2.85-0.87,6.31-2.37,9.44-3.95c2.54-1.28,6.24-3.14,8.49-4.82c-1.78-0.19-3.6-3.5-3.93-5.21
					c-0.04-0.22-0.09-0.44-0.13-0.67c-1.72-8.9-2.22-17.95-2.55-27c-0.51-13.96-0.56-27.42-0.68-35.43
					c-0.38-25.45-0.27-35.3-0.8-55.45c-0.2-7.74,0.3-14.53,1.01-20.67c-7.11,4.54-15.09,8.22-23.73,10.81
					C606.63,324.69,607.12,329.04,607.39,330.45z M611.9,330.66c0,0,2.65,12.64,5.42,61.67c-3.54,7.72-7.81,15.03-11.35,22.74
					c1.51-11.88,2.29-29.17,3.59-50.87C610.75,344.24,611.9,330.66,611.9,330.66z"/>
				<path class="st2" d="M751.37,277.64c-0.48-0.42-1.1-0.61-1.75-0.55c-2.03,0.2-4.5,3.05-11.4,12.1c-0.92,1.2-1.79,2.34-2.6,3.39
					c-3.63,4.67-4.69,7.28-5.63,9.58c-0.91,2.25-1.71,4.19-4.92,7.98c-2.16,2.55-6.04,5.83-10.38,8.77c-2.46,1.67-4.4,2.78-5.8,3.47
					c0.83-1.15,1.9-2.52,2.84-3.73c4.24-5.44,10.05-12.89,13.46-21.24c2.73-6.7,3.46-11.21,4.1-15.19c0.7-4.35,1.25-7.79,4.35-12.81
					c4.46-7.23,10.24-11.27,13.01-13.21c1.58-1.11,2.24-1.57,2.4-2.54c0.09-0.52-0.03-1.04-0.34-1.47
					c-0.21-0.29-0.69-0.78-1.56-0.83c-1.98-0.12-7.33,2.89-10.18,4.68c-4.16,2.62-10.39,7.12-16.39,13.65
					c-2.22,2.41-4.03,4.7-5.47,6.59c1.46-4.42,3.6-10.98,5.15-19.11c1.37-7.24,1.44-11.24,1.5-14.77c0.06-3.51,0.1-6.27,1.5-11.34
					c2.87-10.41,8.06-17.86,10.85-21.86c0.79-1.14,1.42-2.04,1.83-2.75c1.1-1.93,0.53-3.01-0.15-3.57
					c-0.35-0.29-0.95-0.61-1.86-0.49c-3.27,0.43-12.31,8.4-19.05,18.02c-1.38,1.97-2.6,3.87-3.68,5.69
					c0.1-5.52-0.69-11.76-3.14-18.39c-1.98-5.35-4.63-9.4-7.2-13.31c-3.74-5.71-7.27-11.1-8.35-20.09
					c-1.19-9.91,1.29-17.9,2.48-21.74c0.62-2,0.85-2.75,0.38-3.63c-0.25-0.46-0.67-0.8-1.17-0.95c-0.35-0.1-1.06-0.19-1.8,0.36
					c-1.4,1.05-3.92,6.11-5.86,11.79c-1.92,5.62-4.23,14.52-4.32,24.97c0,0.31,0,0.61-0.01,0.92c-1.95-7.4-4.72-15.22-8.61-23.19
					c-8.19-16.76-20.26-31.78-34.91-43.43c-0.73-0.58-1.76-0.54-2.45,0.09c-0.69,0.63-0.81,1.66-0.29,2.44
					c6.5,9.69,12.11,19.97,16.67,30.56c6.33,14.7,10.69,30.1,12.94,45.75c2.25,15.6,1.9,33.52,0.73,46.46
					c-0.06,0.33-0.14,0.82-0.26,1.44c-0.4-0.77-0.89-1.66-1.52-2.78c-1.86-3.33-4.48-6.02-5.95-7.95c0,0,0,0,0,0
					c0.4,1.12,0.77,2.24,1.1,3.38c0,0,0,0,0,0c1.26,4.3,2.06,8.75,2.31,13.32v0c0.06,1.07,0.1,2.14,0.1,3.21
					c0,1.22-0.04,2.43-0.11,3.63c0,0,0,0,0,0c-0.11,1.85-0.34,3.67-0.63,5.48c0,0,0,0.01,0,0.01c-0.08,0.54-0.15,1.08-0.25,1.62v0
					c-0.14,0.73-0.31,1.46-0.47,2.18c0,0,0,0,0,0c-0.03,0.13-0.06,0.27-0.09,0.4c-0.26,1.1-0.55,2.18-0.86,3.26c0,0,0,0.01,0,0.01
					c-0.05,0.17-0.1,0.35-0.15,0.52c-0.35,1.13-0.72,2.25-1.13,3.37c-0.05,0.15-0.1,0.3-0.16,0.45c0,0,0,0,0,0
					c-0.35,0.91-0.73,1.81-1.11,2.71c0,0,0,0.01-0.01,0.01c-0.05,0.11-0.09,0.22-0.14,0.33c-1.44,3.26-3.16,6.41-5.15,9.43
					c0,0,0,0,0,0c-0.01,0.02-0.02,0.03-0.03,0.05c-4.23,6.42-9.63,12.24-15.98,17.28c0.69,11.87,0.39,36.81,0.76,41.27
					c3.83-11.96,11.1-38.03,15.7-48.35l0.08-0.1c0.87,53.8-0.32,59.28-2.69,100.69c-0.32,5.51-2.43,26.62-3.44,32.05
					c-1.2,6.41-1.51,10.76-6.05,21.82l4.21-3.03c1.81-1.29,3.32-2.62,4.94-4.16c1.32-1.25,2.12-2.11,4.43-2.9c0,0,0,0,0.01,0
					c1.38-0.52,2.78-0.96,4.21-1.31c0.7-0.17,1.51-0.36,2.34-0.55c-0.29-8-0.58-16-0.87-24c3.69-55.81,5.62-107.39,9.34-163.12
					c0.33-4.86,1.63-13.97,6.36-6.69c3.67,6.36,7.01,11.97,8.48,29.36c1.12,15.89,0.85,27.58,0.64,36.4
					c-0.23,9.31-0.2,37.47-9.34,97.09c-1.86,12.16-2.62,16.85-9.1,29.34c4.28-1.34,10.17-4.03,12.58-5.48
					c3.69-2.23,6.21-4.46,7.31-5.48c2.89-2.67,4.68-5.04,6.27-7.18c0.97-1.3,1.6-2.24,2.09-3.03c5.01-6.36,9.89-12.35,18.74-17.39
					c4.19-2.38,8.44-3.86,11.55-4.95c1.58-0.55,2.83-0.99,3.76-1.42c0.65-0.3,2.62-1.23,2.27-3.16c-0.4-2.23-3.33-2.78-8.59-3.01
					c-3.64-0.16-7.74-0.08-9.94-0.04c-3.49,0.07-5.92,0.26-7.53,0.38c-0.69,0.05-1.35,0.1-1.82,0.12c0.15-0.47,0.53-1.31,1.45-2.74
					c1.21-1.87,2.99-4.21,5.05-6.93c7.05-9.29,17.71-23.33,22.04-40.28c1.46-5.73,2.29-9.92,3.03-13.62
					c1.53-7.73,2.64-13.31,8.32-26.73c2.01-4.74,4.5-8.85,6.5-12.15c1.12-1.84,2.08-3.43,2.67-4.67
					C751.91,281.29,752.97,279.05,751.37,277.64z M677.39,202.49c-1.34,13.16-2.56,23.17-7.02,37.94
					c0.87-12.62,0.92-28.59-1.12-42.72c-2.3-15.98-6.74-31.69-13.21-46.7c-2.99-6.93-6.41-13.74-10.24-20.34
					c9.99,9.79,18.33,21.3,24.43,33.8c1.37,2.8,2.59,5.57,3.68,8.32c-0.11-0.14-0.22-0.28-0.34-0.42
					C678.44,184.11,677.81,198.37,677.39,202.49z M711.21,256.7c0.03,0.03,0.05,0.06,0.08,0.1c2.74,3.51,1.39,12.42,0.91,16.39
					c-0.27,0.82-0.52,1.58-0.75,2.28c-0.66,2-1.18,3.58-1.47,4.75c-0.21,0.86-0.75,3.13,1.04,4.03c1.67,0.83,3.08-0.7,3.54-1.21
					c0.66-0.72,1.43-1.74,2.41-3.04c1.54-2.04,3.65-4.83,6.35-7.77c3.44-3.74,7.09-6.9,10.48-9.45c-1.14,1.4-2.27,2.95-3.34,4.68
					c-3.49,5.65-4.12,9.6-4.86,14.18c-0.61,3.78-1.29,8.07-3.87,14.38c-3.21,7.88-6.24,12.54-10.35,17.81
					c-0.53,0.69-1.04,1.34-1.52,1.95c-1.37,1.63-3.46,4.82-4.34,6.48c-1,1.89-2.38,5.18-5.09,6.78l0,0l-3.58,1.64l3.74-77.41
					C701,249.35,708.77,253.61,711.21,256.7z M688.87,221.93c-0.02-0.39-0.07-0.84-0.13-1.34c-1.47-10.68-2.87-21.03-2.82-31.8
					c0.01-1.2,0.01-2.42,0.02-3.64c0.06-6.95,1.16-13.34,2.58-18.65c-0.13,2.57-0.08,5.34,0.27,8.26
					c1.19,9.86,5.13,15.88,8.94,21.69c2.45,3.74,4.99,7.61,6.82,12.56c2.27,6.13,2.99,11.92,2.9,17.05
					c-0.12,6.68-2.01,13.26-5.89,18.7c-1.52,2.12-3.07,3.75-4.34,4.68c-2.95,2.16-8.49,4.06-11.33,3.44
					C678.4,250.77,689.87,242.98,688.87,221.93z M738.91,297.5c-5.83,13.77-6.97,19.51-8.55,27.46c-0.72,3.65-1.54,7.79-2.98,13.42
					c-4.14,16.22-14.52,29.9-21.39,38.95c-3.34,4.4-5.79,7.63-6.82,10.12c-1.16,1.99-2.3,4.25-2.82,5.5
					c-3.28,8.6-5.19,17.85-8.47,26.46c3.67-30.72,6.57-54.58,8.75-85.92c3.37-0.72,6.83,0.09,10,1.42l6.39,2.68
					c0,0-0.21-6.36-0.12-8.83c0.11-2.99,2.27-5.48,4.69-7.32c4.27-2.98,8.09-6.26,10.32-8.89c3.6-4.25,4.54-6.55,5.53-8.99
					c0.89-2.18,1.81-4.44,5.12-8.7c0.83-1.06,1.7-2.21,2.62-3.42c0.71-0.94,1.55-2.03,2.42-3.16
					C742.05,290.97,740.35,294.1,738.91,297.5z"/>
			</g>
		</g>
	</g>
</g>
</svg>
