<?xml version="1.0" encoding="utf-8"?>
<!-- Generator: Adobe Illustrator 28.3.0, SVG Export Plug-In . SVG Version: 6.00 Build 0)  -->
<svg version="1.1" id="Layer_1" xmlns="http://www.w3.org/2000/svg" xmlns:xlink="http://www.w3.org/1999/xlink" x="0px" y="0px"
	 viewBox="0 0 1600 500" style="enable-background:new 0 0 1600 500;" xml:space="preserve">
<style type="text/css">
	.st0{fill:url(#SVGID_1_);}
	.st1{opacity:0.7;clip-path:url(#SVGID_00000139295259539817888920000017072340334763242898_);}
	.st2{fill:#FFD300;}
	.st3{fill:url(#SVGID_00000031169470200277444060000018382397468781673123_);}
</style>
<linearGradient id="SVGID_1_" gradientUnits="userSpaceOnUse" x1="796.6221" y1="271.5338" x2="746.1788" y2="593.1104">
	<stop  offset="0" style="stop-color:#001E5A"/>
	<stop  offset="0.2595" style="stop-color:#02205A"/>
	<stop  offset="0.3969" style="stop-color:#0A265A"/>
	<stop  offset="0.5058" style="stop-color:#18305A"/>
	<stop  offset="0.5996" style="stop-color:#2B3E5A"/>
	<stop  offset="0.6838" style="stop-color:#44515A"/>
	<stop  offset="0.7612" style="stop-color:#63675A"/>
	<stop  offset="0.8333" style="stop-color:#87835A"/>
	<stop  offset="0.9012" style="stop-color:#B1A25A"/>
	<stop  offset="0.9635" style="stop-color:#E0C55A"/>
	<stop  offset="1" style="stop-color:#FFDC5A"/>
</linearGradient>
<rect y="0" class="st0" width="1600" height="500"/>
<g>
	<defs>
		<rect id="SVGID_00000081614822623283218590000001935925046566703031_" y="0" width="1600" height="500"/>
	</defs>
	<clipPath id="SVGID_00000160881984656611963570000008744178095869083282_">
		<use xlink:href="#SVGID_00000081614822623283218590000001935925046566703031_"  style="overflow:visible;"/>
	</clipPath>
	<g style="opacity:0.7;clip-path:url(#SVGID_00000160881984656611963570000008744178095869083282_);">
		<circle class="st2" cx="1384.5" cy="339.3" r="268.8"/>
		
			<linearGradient id="SVGID_00000049208193191376894840000000722147375945071498_" gradientUnits="userSpaceOnUse" x1="1384.342" y1="599.1499" x2="1384.342" y2="79.3781">
			<stop  offset="0" style="stop-color:#0073B1"/>
			<stop  offset="0.2825" style="stop-color:#006FAE"/>
			<stop  offset="0.5386" style="stop-color:#0064A4"/>
			<stop  offset="0.7836" style="stop-color:#015295"/>
			<stop  offset="1" style="stop-color:#013B81"/>
		</linearGradient>
		<path style="fill:url(#SVGID_00000049208193191376894840000000722147375945071498_);" d="M1392,599L1392,599
			c-143.5,4.2-263.2-108.7-267.4-252.1v0c-4.2-143.5,108.7-263.2,252.1-267.4l0,0c143.5-4.2,263.2,108.7,267.4,252.1v0
			C1648.3,475.1,1535.4,594.8,1392,599z"/>
		<path class="st2" d="M1377.8,540.3c6.7-17.9,5-73.4,4.8-80.1c-0.6-20.1-0.9-31.8-2.7-47.1c-1-8.4-3.8-29.1-13-30.8
			c-1.2-0.2-3.7-0.3-5.9,1.2c-2.9,2.1-6,7.9-7.2,12.8c-1.8,7.3-2.9,18.7-2.9,18.7c-0.7,8.2-0.8,10.7-0.9,41.5
			c-0.1,29.7,1,37.3,2.5,55c0,0,0.4,7.6,4.3,22c1.9,7,5.5,12,9.2,14.3c1.1,0.7,4.3,1.2,6.2,0
			C1375.6,545.6,1377.1,542.3,1377.8,540.3z M1368.3,520.4c-2.1-6.5-2.4-7.8-4.7-19.2c-1.9-9-3-15.6-4.5-26.5
			c-2.3-16.9-1.2-15.3-3.5-33.2c0,0-3-24.3-0.1-41c0.2-1.2,0.6-3.2,1.6-3.4c1.4-0.3,3.1,3.1,4.3,5.9c4.7,10.7,6.7,20.9,7,22.8
			c2.3,12.4,3.5,18.6,3.9,21.5c2.8,18.1,3.9,31.3,4.1,34.1c0.6,7.5,0.9,12.8,1.1,19.9c0.4,11.5,0.5,13,0.4,15.6c0,0,0,5.3-1.1,13.9
			c-0.1,1.1-0.8,3.6-1.6,3.8c-0.9,0.2-1.9-1.6-2.7-3.2C1369.2,524.5,1368.3,520.4,1368.3,520.4z"/>
		<path class="st2" d="M1384.3,372.1c2,18.7,3.7,41.1,4.2,49.6c2,31.1,1.8,42,1.6,88.2c-0.1,19.3-3.8,42-14.5,65.6
			c11.1-18.7,23.6-27.4,28.5-30.1c-0.7-11,0.2-21.4,0.8-32.4l7.9-166.5c0,0,0,0,0,0c1.9-33,7.7-37,10.1-40.1
			c7.6-10,9.9-19.2,9.3-19.5c-0.4-0.3-2.3,4.3-7.6,8.5c-4.8,3.7-8.9,5-14.8,5.3l-0.3,19c0,0,0,0,0,0c-0.3,20.7-1.9,55.2-2.2,67.5
			c-1.8,48.3-5.4,100.3-8.4,150l-2.7-209.4c0,0,0,0,0,0l-0.2-26.6c-9.2,0.4-16.7,1.4-24.1,3.8c-7.8,2.6-23,9.6-27.8,32.7
			c6.5-10,13.2-15.6,20.9-15.6C1372.6,322.1,1380.2,332.8,1384.3,372.1z"/>
		<g>
			<path class="st2" d="M1311,552.3c-1.9-0.7-3.6-0.7-4.9-0.3c-1.3,0.5-2.3,1.5-2.8,3c-0.5,1.5-0.4,2.7,0.3,3.8
				c0.7,1.1,2,1.9,3.8,2.6l4.5,1.5l-1.3,3.7l-9.1-3.1l-0.8,2.4l11.9,4.1l5.2-15.3L1311,552.3z M1312.7,560.7l-3.9-1.3
				c-2.2-0.8-3.1-1.9-2.5-3.5c0.3-0.8,0.8-1.3,1.5-1.5c0.7-0.2,1.6-0.2,2.7,0.2l3.9,1.3L1312.7,560.7z"/>
			<path class="st2" d="M1296.1,546.5c-0.8-0.4-1.5-0.5-2.2-0.3c-0.7,0.1-1.4,0.5-2,1.1c-0.7,0.6-1.3,1.4-2,2.5
				c-0.7,1-1.4,2.3-2.1,3.7l-1.8,3.6l-5.8-2.7l5.8-12.4l-2.7-1.3l-6.8,14.7l10.8,5l3-6c0.7-1.4,1.3-2.5,1.9-3.3
				c0.6-0.9,1.2-1.5,1.7-1.8c0.6-0.3,1.1-0.3,1.7-0.1c0.2,0.1,0.4,0.2,0.6,0.4l1.3-2.3c-0.2-0.2-0.5-0.4-0.7-0.5
				C1296.6,546.7,1296.3,546.6,1296.1,546.5z"/>
			<path class="st2" d="M1268.9,537.1l-6.9-4.2l0.6-4l-2.7-1.6l-2.2,17.6l2.5,1.5l14.6-10l-2.6-1.6L1268.9,537.1z M1266.8,538.6
				l-6.3,4.5l1.1-7.6L1266.8,538.6z"/>
			<polygon class="st2" points="1241.6,530.7 1235.2,525.9 1233.6,527.9 1242.4,534.6 1252.2,521.7 1249.8,519.9 			"/>
			<path class="st2" d="M1235.1,510.8c-0.1-1.1-0.3-2.1-0.9-3.2c-0.5-1-1.2-2-2.1-2.8c-0.9-0.8-1.9-1.5-3-1.9
				c-1.1-0.4-2.1-0.6-3.2-0.6c-1.1,0-2.1,0.3-3.1,0.7c-1,0.4-1.9,1.1-2.7,2c-0.8,0.9-1.4,1.8-1.8,2.9c-0.4,1-0.5,2.1-0.5,3.2
				c0.1,1.1,0.3,2.1,0.9,3.1c0.5,1,1.2,2,2.1,2.8c0.9,0.9,1.9,1.5,3,1.9c1.1,0.4,2.1,0.6,3.2,0.6c1.1,0,2.1-0.2,3.1-0.7
				c1-0.4,1.9-1.1,2.7-2c0.8-0.9,1.4-1.8,1.8-2.9C1235,513,1235.2,511.9,1235.1,510.8z M1231.9,512.9c-0.3,0.7-0.7,1.4-1.2,2
				c-0.6,0.6-1.2,1.1-1.9,1.4c-0.7,0.3-1.4,0.5-2.1,0.5c-0.7,0-1.4-0.1-2.1-0.4c-0.7-0.3-1.4-0.7-2-1.2c-0.6-0.6-1.1-1.2-1.4-1.8
				c-0.3-0.7-0.5-1.4-0.5-2.1c0-0.7,0.1-1.4,0.3-2.1c0.3-0.7,0.7-1.4,1.2-2c0.6-0.6,1.2-1.1,1.9-1.4c0.7-0.3,1.4-0.5,2.1-0.5
				c0.7,0,1.4,0.1,2.1,0.3c0.7,0.3,1.3,0.7,1.9,1.2c0.6,0.6,1.1,1.2,1.4,1.9c0.3,0.7,0.5,1.4,0.5,2.1
				C1232.3,511.5,1232.1,512.2,1231.9,512.9z"/>
			<path class="st2" d="M1218.1,495.1l4.5-3.9l-1.8-2.1l-2.6,2.3l-8.1-9.4l2.6-2.3l-1.8-2.1l-4.5,3.9l1.5,1.8l-10.3,8.9l7.8,9l4-3.2
				c1-0.8,1.9-1.5,2.7-2.1c0.9-0.6,1.6-1.1,2.4-1.4c0.7-0.3,1.4-0.5,1.9-0.5c0.6,0,1,0.2,1.4,0.7L1218.1,495.1z M1214.5,491.8
				c-0.6,0.1-1.2,0.4-2,0.7c-0.7,0.4-1.5,0.9-2.2,1.4c-0.8,0.6-1.6,1.2-2.4,1.9l-2.2,1.8l-4.1-4.8l8.4-7.3l5.4,6.2
				C1215,491.7,1214.8,491.7,1214.5,491.8z"/>
			
				<rect x="1186.9" y="473.9" transform="matrix(0.812 -0.5837 0.5837 0.812 -52.8033 786.8994)" class="st2" width="16.2" height="3"/>
			<polygon class="st2" points="1192.7,457.5 1178.5,455.8 1188.3,450 1186.8,447.5 1172.9,455.7 1174.3,458.1 1188.6,459.7 
				1178.7,465.6 1180.2,468.1 1194.2,459.9 			"/>
			<path class="st2" d="M1173.3,460.2c-0.9-0.3-1.8-0.2-2.7,0.3l1.1,1.8c0.5-0.3,1-0.3,1.4-0.2c0.5,0.2,0.9,0.5,1.2,1.1
				c0.3,0.6,0.5,1.1,0.4,1.6c-0.1,0.5-0.4,0.9-0.8,1.2l1.1,1.8c0.9-0.6,1.4-1.3,1.6-2.2c0.1-0.9-0.1-1.9-0.8-3.1
				C1174.9,461.3,1174.1,460.5,1173.3,460.2z"/>
			<polygon class="st2" points="1180.3,434.5 1174,437.3 1170.6,429.7 1177,426.8 1175.8,424.1 1161,430.7 1162.2,433.4 
				1168.3,430.7 1171.7,438.3 1165.6,441 1166.8,443.8 1181.6,437.2 			"/>
			<polygon class="st2" points="1170.9,410.7 1157.4,405.8 1168.3,402.4 1167.4,399.5 1152,404.3 1152.8,407 1166.3,411.9 
				1155.4,415.3 1156.3,418.1 1171.7,413.3 			"/>
			<polygon class="st2" points="1164.1,385.6 1151.3,379.2 1162.5,377.1 1162,374.2 1146.1,377.2 1146.6,379.9 1159.5,386.3 
				1148.2,388.4 1148.8,391.4 1164.7,388.4 			"/>
			<path class="st2" d="M1144.9,381.6c-0.7-0.6-1.6-0.8-2.6-0.6l0.4,2c0.6-0.1,1,0,1.4,0.3c0.4,0.3,0.6,0.8,0.7,1.4
				c0.1,0.7,0.1,1.2-0.2,1.6c-0.2,0.4-0.6,0.7-1.2,0.8l0.4,2c1-0.2,1.8-0.7,2.2-1.5c0.4-0.8,0.5-1.9,0.3-3.2
				C1146.1,383.1,1145.6,382.1,1144.9,381.6z"/>
			<path class="st2" d="M1142.6,342.2l1.7,0c0.1,1.6,0.4,3,0.8,4.1c0.6,1.4,1.4,2.5,2.4,3.3c1.1,0.7,2.3,1.1,3.9,1.1
				c1.5,0,2.8-0.4,3.8-1.2c1-0.8,1.8-1.9,2.4-3.3c0.4-1.2,0.7-2.6,0.8-4.2l1.7,0l0-2.8l-1.7,0c-0.1-1.6-0.3-3.1-0.8-4.2
				c-0.6-1.4-1.4-2.5-2.4-3.2c-1.1-0.7-2.3-1.1-3.8-1.1c-1.5,0-2.8,0.4-3.8,1.1c-1.1,0.7-1.9,1.8-2.4,3.2c-0.5,1.2-0.7,2.6-0.8,4.2
				l-1.7,0L1142.6,342.2z M1155.6,344.6c-0.3,1-0.9,1.8-1.6,2.4c-0.7,0.6-1.6,0.8-2.6,0.8c-1.1,0-1.9-0.2-2.7-0.8
				c-0.7-0.5-1.2-1.3-1.6-2.3c-0.2-0.7-0.4-1.6-0.4-2.5l9.3,0C1155.9,343,1155.8,343.9,1155.6,344.6z M1147.1,336.8
				c0.3-1,0.9-1.8,1.6-2.3c0.7-0.5,1.6-0.8,2.6-0.8c1,0,1.9,0.2,2.6,0.8c0.7,0.5,1.3,1.3,1.6,2.3c0.3,0.7,0.4,1.6,0.5,2.6l-9.3,0
				C1146.7,338.4,1146.9,337.6,1147.1,336.8z"/>
			<path class="st2" d="M1146.3,317.9c0.7,0.9,1.5,1.6,2.4,2.1c1,0.5,2,0.9,3.2,1c1.2,0.1,2.3,0.1,3.3-0.3c1.1-0.3,2-0.8,2.8-1.5
				c0.8-0.7,1.5-1.5,2.1-2.6c0.5-1,0.9-2.1,1-3.4c0.1-1.2,0.1-2.4-0.2-3.5c-0.3-1.1-0.8-2.1-1.4-2.9c-0.7-0.9-1.5-1.6-2.4-2.1
				c-1-0.5-2-0.9-3.2-1c-1.2-0.1-2.3-0.1-3.4,0.3c-1.1,0.3-2,0.8-2.8,1.5c-0.8,0.7-1.5,1.5-2,2.5c-0.5,1-0.9,2.1-1,3.4
				c-0.1,1.3-0.1,2.4,0.2,3.5C1145.2,316,1145.6,317,1146.3,317.9z M1147.3,311.7c0.1-0.8,0.3-1.5,0.7-2.2c0.4-0.6,0.8-1.2,1.4-1.7
				c0.6-0.5,1.2-0.8,1.9-1c0.7-0.2,1.5-0.2,2.3-0.1c0.8,0.1,1.6,0.3,2.2,0.7c0.7,0.4,1.2,0.8,1.7,1.4c0.4,0.6,0.8,1.2,1,1.9
				c0.2,0.7,0.2,1.5,0.2,2.3c-0.1,0.8-0.3,1.5-0.7,2.2c-0.4,0.7-0.8,1.2-1.4,1.7c-0.6,0.4-1.2,0.8-1.9,1c-0.7,0.2-1.5,0.3-2.3,0.2
				c-0.8-0.1-1.6-0.3-2.2-0.7c-0.6-0.4-1.2-0.8-1.7-1.4c-0.5-0.6-0.8-1.2-1-1.9C1147.2,313.2,1147.2,312.5,1147.3,311.7z"/>
			<polygon class="st2" points="1164.5,291.6 1157.8,290 1159.7,281.9 1166.5,283.5 1167.1,280.6 1151.4,276.8 1150.7,279.7 
				1157.2,281.3 1155.3,289.4 1148.8,287.9 1148.1,290.8 1163.8,294.5 			"/>
			<path class="st2" d="M1163.7,265.7c0.9,0.5,1.7,0.9,2.4,1.4c0.7,0.5,1.1,0.9,1.4,1.4c0.3,0.5,0.3,1,0.1,1.6l-0.2,0.5l5.6,2.1
				l0.9-2.6l-3.2-1.2l4.2-11.7l3.2,1.2l0.9-2.6l-5.6-2l-0.8,2.2l-12.8-4.6l-4,11.2l4.7,1.9C1161.7,264.8,1162.7,265.3,1163.7,265.7z
				 M1161.2,254.9l10.4,3.8l-2.8,7.7c-0.1-0.2-0.2-0.4-0.4-0.6c-0.4-0.5-0.9-0.9-1.6-1.3c-0.7-0.4-1.5-0.8-2.3-1.3
				c-0.9-0.4-1.8-0.8-2.8-1.2l-2.7-1.1L1161.2,254.9z"/>
			<polygon class="st2" points="1180.1,223.7 1174.6,220.5 1173.4,222.6 1179.1,225.6 			"/>
			<polygon class="st2" points="1178,227.6 1172.4,224.4 1171.3,226.5 1176.9,229.5 			"/>
			<path class="st2" d="M1184,210c0.3-0.7,0.6-1.4,1-2c0.4-0.6,0.8-1.1,1.3-1.4c0.5-0.4,0.9-0.6,1.4-0.7c0.5-0.1,0.9,0,1.3,0.3
				c0.6,0.4,0.8,0.9,0.9,1.5c0,0.6-0.2,1.3-0.7,2.1l-2,2.9l2,1.3l2.1-3.1c0.6-0.9,1.2-1.4,1.8-1.7c0.6-0.3,1.2-0.2,1.8,0.2
				c0.5,0.3,0.8,0.8,0.9,1.3c0.1,0.6,0.1,1.2-0.1,1.9c-0.2,0.7-0.5,1.3-1,2c-0.5,0.7-1,1.3-1.7,1.8c-0.7,0.6-1.4,1-2.2,1.3l1.3,2
				c0.9-0.4,1.8-0.9,2.6-1.6c0.8-0.7,1.5-1.4,2.1-2.2c0.6-0.8,1-1.6,1.4-2.5c0.3-0.8,0.5-1.7,0.6-2.5c0.1-0.8-0.1-1.6-0.4-2.2
				c-0.3-0.7-0.8-1.2-1.4-1.7c-0.7-0.5-1.4-0.7-2.2-0.7c-0.8,0-1.5,0.2-2.3,0.7c-0.2,0.1-0.3,0.3-0.5,0.4c0-0.1,0.1-0.1,0.1-0.2
				c0.1-0.8,0-1.5-0.2-2.1c-0.3-0.7-0.7-1.2-1.4-1.6c-0.7-0.5-1.5-0.7-2.3-0.6c-0.8,0.1-1.6,0.4-2.4,0.8c-0.8,0.5-1.5,1.1-2.2,2
				c-0.7,0.8-1.2,1.8-1.7,2.8c-0.4,1-0.7,2.1-0.8,3.3l2.5,0.6C1183.6,211.5,1183.8,210.7,1184,210z"/>
			<path class="st2" d="M1207.5,200.3l-1.9-3.6l5.2-6.2l3.9,1.2l2-2.4l-17.1-4.7l-1.9,2.3l7.8,15.9L1207.5,200.3z M1204.5,194.4
				l-3.5-6.9l7.4,2.2L1204.5,194.4z"/>
			<polygon class="st2" points="1225.4,180.3 1220.6,175.3 1226.6,169.5 1231.4,174.5 1233.6,172.4 1222.3,160.7 1220.2,162.8 
				1224.8,167.6 1218.8,173.4 1214.2,168.6 1212,170.7 1223.2,182.3 			"/>
			<path class="st2" d="M1236.4,159.2c0.7,0.9,1.6,1.7,2.5,2.2c1,0.5,2,0.9,3.1,1c1.1,0.1,2.2,0,3.3-0.3c1.1-0.3,2.2-0.9,3.1-1.6
				c1-0.8,1.8-1.6,2.4-2.6c0.6-1,1-2,1.1-3.1c0.2-1.1,0.1-2.1-0.2-3.2c-0.3-1.1-0.8-2.1-1.5-3c-0.7-1-1.6-1.7-2.5-2.3
				c-1-0.5-2-0.9-3-1c-1.1-0.1-2.2,0-3.2,0.3c-1.1,0.3-2.1,0.9-3.1,1.6c-1,0.8-1.8,1.6-2.4,2.6c-0.6,1-1,2-1.1,3.1
				c-0.2,1.1-0.1,2.1,0.1,3.2C1235.2,157.2,1235.7,158.2,1236.4,159.2z M1237.6,153.1c0.1-0.7,0.3-1.4,0.7-2
				c0.4-0.6,0.9-1.2,1.6-1.7c0.6-0.5,1.3-0.8,2-1c0.7-0.2,1.4-0.2,2.1-0.2c0.7,0.1,1.4,0.3,2,0.7c0.6,0.4,1.2,0.9,1.7,1.6
				c0.5,0.7,0.9,1.4,1,2.1c0.2,0.7,0.2,1.4,0.1,2.2c-0.1,0.7-0.3,1.4-0.7,2c-0.4,0.6-0.9,1.2-1.5,1.7c-0.6,0.5-1.3,0.8-2.1,1
				c-0.7,0.2-1.4,0.3-2.2,0.2c-0.7-0.1-1.4-0.3-2.1-0.7c-0.7-0.4-1.2-0.9-1.7-1.5c-0.5-0.7-0.8-1.4-1-2.1
				C1237.6,154.6,1237.5,153.9,1237.6,153.1z"/>
			<path class="st2" d="M1270.3,145.5c1.7-1,2.9-2.2,3.3-3.4c0.5-1.2,0.4-2.4-0.4-3.6c-0.7-1.2-1.7-1.8-2.9-1.9
				c-0.6-0.1-1.2,0-1.9,0.2c0.2-0.3,0.4-0.6,0.6-1c0.5-1.1,0.4-2.2-0.3-3.3c-0.7-1.2-1.7-1.8-2.9-1.9c-1.2-0.1-2.6,0.3-4.2,1.3
				l-6.2,3.7l8.3,13.9L1270.3,145.5z M1259.2,136l3.5-2.1c0.8-0.5,1.6-0.7,2.2-0.6c0.6,0.1,1.1,0.4,1.5,1.1c0.4,0.6,0.5,1.3,0.2,1.9
				c-0.2,0.6-0.8,1.1-1.6,1.6l-3.5,2.1L1259.2,136z M1266.6,139.4c0.9-0.5,1.7-0.8,2.4-0.7c0.7,0.1,1.2,0.4,1.6,1.1
				c0.4,0.7,0.5,1.4,0.3,2c-0.3,0.6-0.8,1.2-1.8,1.7l-3.9,2.4l-2.5-4.1L1266.6,139.4z"/>
			<path class="st2" d="M1282.3,133.4c0.8,0.7,1.7,1.3,2.8,1.7c1,0.4,2.1,0.5,3.3,0.5c1.1-0.1,2.3-0.4,3.4-0.9
				c1.1-0.5,2.1-1.2,2.9-2s1.4-1.7,1.8-2.7c0.4-1,0.6-2.1,0.6-3.2c0-1.1-0.3-2.2-0.8-3.3s-1.2-2-2-2.8c-0.8-0.7-1.7-1.3-2.7-1.7
				c-1-0.4-2.1-0.5-3.2-0.4c-1.1,0.1-2.3,0.4-3.4,0.9c-1.2,0.5-2.1,1.2-2.9,2c-0.8,0.8-1.4,1.7-1.8,2.7c-0.4,1-0.6,2.1-0.6,3.2
				c0,1.1,0.3,2.2,0.8,3.3C1280.9,131.7,1281.5,132.6,1282.3,133.4z M1282.9,125c0.3-0.7,0.6-1.3,1.2-1.8c0.5-0.5,1.2-1,1.9-1.3
				c0.7-0.3,1.5-0.5,2.2-0.6c0.7,0,1.4,0.1,2.1,0.3c0.7,0.3,1.3,0.6,1.8,1.2c0.5,0.5,1,1.2,1.3,1.9c0.3,0.8,0.5,1.5,0.6,2.3
				c0,0.7-0.1,1.5-0.3,2.1c-0.3,0.7-0.6,1.3-1.1,1.8c-0.5,0.5-1.1,1-1.9,1.3c-0.7,0.3-1.5,0.5-2.2,0.6c-0.8,0-1.5-0.1-2.1-0.3
				c-0.7-0.3-1.3-0.6-1.8-1.2c-0.6-0.5-1-1.1-1.3-1.9c-0.3-0.8-0.5-1.5-0.5-2.3C1282.5,126.4,1282.7,125.7,1282.9,125z"/>
			<polygon class="st2" points="1311.2,116.3 1309.3,110.2 1307,111 1309.2,117 			"/>
			<polygon class="st2" points="1307,117.7 1305.1,111.6 1302.8,112.4 1305,118.4 			"/>
		</g>
		<g>
			<path class="st2" d="M1471.9,114.7c-0.9-0.8-1.9-1.4-3.2-1.9c-1.2-0.4-2.3-0.6-3.4-0.6c-1.1,0-2.2,0.3-3.2,0.7
				c-1,0.4-1.9,1.1-2.6,1.9c-0.7,0.8-1.3,1.8-1.7,2.9c-0.4,1.1-0.6,2.3-0.5,3.3c0.1,1.1,0.3,2.1,0.8,3.1c0.5,1,1.1,1.8,2,2.6
				c0.8,0.7,1.9,1.3,3,1.8c1.3,0.5,2.5,0.7,3.7,0.6c1.2-0.1,2.3-0.4,3.3-1l-1.2-2.4c-0.8,0.4-1.6,0.6-2.4,0.7
				c-0.8,0-1.6-0.1-2.4-0.4c-0.8-0.3-1.5-0.7-2-1.2c-0.6-0.5-1-1.1-1.3-1.7c-0.3-0.7-0.5-1.4-0.5-2.1c0-0.8,0.1-1.5,0.4-2.3
				c0.3-0.8,0.7-1.4,1.2-2c0.5-0.6,1.1-1,1.8-1.3c0.7-0.3,1.4-0.5,2.1-0.5c0.8,0,1.5,0.1,2.3,0.4c0.8,0.3,1.5,0.7,2,1.2
				c0.6,0.5,1,1.2,1.4,2l2.4-1.1C1473.4,116.4,1472.8,115.5,1471.9,114.7z"/>
			<polygon class="st2" points="1495.5,124.8 1492.6,130.8 1485.1,127.1 1488,121.1 1485.3,119.8 1478.2,134.3 1480.9,135.6 
				1483.9,129.4 1491.4,133.1 1488.4,139.3 1491,140.7 1498.2,126.2 			"/>
			<path class="st2" d="M1504.9,144.4l6.8,4.4l-0.7,4l2.7,1.7l2.6-17.6l-2.5-1.6L1499,145l2.6,1.7L1504.9,144.4z M1507,143l6.4-4.3
				l-1.3,7.6L1507,143z"/>
			<path class="st2" d="M1535.5,162.2c1-0.3,1.8-0.9,2.6-1.9c0.8-0.9,1.2-1.9,1.3-2.9c0.1-1-0.1-2-0.6-3c-0.5-1-1.3-1.9-2.4-2.8
				l-5.2-4.2l-10.2,12.6l2.3,1.9l3-3.7l2.8,2.3c0.2,0.1,0.3,0.3,0.5,0.4l-0.4,5.8l2.5,2l0.4-6.5c0.1,0,0.2,0.1,0.2,0.1
				C1533.5,162.5,1534.5,162.5,1535.5,162.2z M1527.8,156.2l4-5l2.7,2.2c1,0.8,1.6,1.7,1.8,2.5c0.2,0.9-0.1,1.7-0.7,2.5
				c-0.6,0.8-1.4,1.2-2.3,1.2c-0.9,0-1.8-0.4-2.9-1.2L1527.8,156.2z"/>
			
				<rect x="1537.8" y="169.2" transform="matrix(0.6918 -0.722 0.722 0.6918 353.1196 1168.7736)" class="st2" width="16.2" height="3"/>
			<polygon class="st2" points="1551.6,188.2 1553.6,190.4 1563.7,181.3 1567.3,185.3 1569.2,183.6 1560,173.4 1558.1,175.1 
				1561.7,179.1 			"/>
			<path class="st2" d="M1562.9,201.6l4-0.9l4.8,6.5l-2.1,3.5l1.9,2.6l8.7-15.5l-1.8-2.4l-17.3,3.7L1562.9,201.6z M1569.4,200.1
				l7.5-1.7l-3.9,6.6L1569.4,200.1z"/>
			<path class="st2" d="M1580.4,227.9c1,1.8,2.2,3,3.4,3.5c1.2,0.5,2.4,0.4,3.6-0.3c0.8-0.5,1.4-1,1.7-1.7c0.3-0.7,0.5-1.4,0.4-2.2
				c0-0.2-0.1-0.4-0.1-0.6c0.6,0.4,1.3,0.6,2,0.7c0.7,0,1.5-0.2,2.2-0.6c1.1-0.6,1.7-1.6,1.9-2.9c0.2-1.3-0.3-2.7-1.2-4.4l-3.8-6.6
				l-14,8.1L1580.4,227.9z M1586.1,228.4c-0.7,0.4-1.4,0.4-2,0.1c-0.6-0.3-1.2-1-1.8-1.9l-2.4-4.2l4-2.3l2.4,4.2
				c0.6,1,0.8,1.8,0.8,2.5C1587.2,227.4,1586.8,228,1586.1,228.4z M1592,220.3c0.5,0.9,0.8,1.7,0.7,2.4c0,0.7-0.4,1.2-1,1.6
				c-0.6,0.4-1.3,0.4-1.9,0.1c-0.6-0.3-1.2-0.9-1.7-1.8l-2.1-3.7l3.9-2.2L1592,220.3z"/>
			<polygon class="st2" points="1592.8,253 1595.1,251.9 1591.6,244.2 1604.1,238.6 1602.8,235.9 1588.1,242.5 			"/>
			<polygon class="st2" points="1600.1,273.2 1602.5,272.4 1599.6,263.8 1603.8,262.4 1606.3,269.8 1608.6,269 1606.1,261.6 
				1610.1,260.2 1612.9,268.6 1615.3,267.8 1611.5,256.6 1596.2,261.8 			"/>
			<polygon class="st2" points="1606.3,299.4 1612.4,298.4 1613.7,306.1 1616.2,305.7 1614.9,298 1619.7,297.1 1621.2,305.8 
				1623.7,305.4 1621.8,293.7 1605.8,296.4 			"/>
			<path class="st2" d="M1610.7,319.6c-1.2,1.3-1.7,3.1-1.5,5.3c0.1,2.2,0.9,3.9,2.2,5.1c1.3,1.2,3.2,1.7,5.5,1.5l9.1-0.6l-0.2-3
				l-9,0.6c-1.7,0.1-2.9-0.2-3.7-0.8c-0.8-0.7-1.2-1.6-1.3-2.9c-0.1-1.3,0.2-2.3,0.9-3.1c0.7-0.8,1.9-1.2,3.6-1.3l9-0.6l-0.2-3
				l-9.1,0.6C1613.6,317.5,1611.8,318.2,1610.7,319.6z"/>
			<polygon class="st2" points="1626.1,343.9 1609.9,343.1 1609.7,346.1 1620.7,346.6 1609.3,355 1609.2,357.4 1625.3,358.2 
				1625.5,355.3 1614.5,354.7 1625.9,346.4 			"/>
			<path class="st2" d="M1606.8,375.7c-0.3,1.7-0.2,3.3,0.2,4.7c0.4,1.4,1.2,2.6,2.3,3.5c1.1,0.9,2.4,1.5,4,1.8
				c1.6,0.3,3.1,0.1,4.4-0.4c1.3-0.5,2.4-1.4,3.3-2.6c0.9-1.2,1.5-2.7,1.7-4.4l1.2-7l-16-2.6L1606.8,375.7z M1609.4,375.9l0.6-3.9
				l10.9,1.8l-0.6,3.9c-0.2,1.2-0.6,2.2-1.2,3c-0.6,0.8-1.3,1.4-2.2,1.7c-0.9,0.4-1.9,0.4-3,0.3c-1.1-0.2-2-0.6-2.8-1.2
				c-0.7-0.6-1.3-1.4-1.6-2.4C1609.2,378.2,1609.2,377.1,1609.4,375.9z"/>
			<polygon class="st2" points="1608.2,411.7 1614.2,413.9 1614.9,411.6 1608.8,409.7 			"/>
			<polygon class="st2" points="1606.8,416 1612.8,418.2 1613.6,415.8 1607.4,414 			"/>
			<path class="st2" d="M1592.6,425.7l4.3,1.9l-1.4,3.4c-0.1,0.2-0.2,0.4-0.2,0.6l-5.7,1.2l-1.3,3l6.4-1.3c0,0.1,0,0.2,0,0.3
				c0,1.1,0.3,2.1,0.9,3c0.6,0.8,1.4,1.5,2.5,2c1.1,0.5,2.2,0.6,3.2,0.5c1-0.2,1.9-0.6,2.8-1.4c0.8-0.8,1.5-1.8,2.1-3.1l2.6-6.1
				l-14.8-6.4L1592.6,425.7z M1603.7,434.4c-0.5,1.2-1.2,2-2,2.4c-0.8,0.4-1.6,0.4-2.6,0c-0.9-0.4-1.5-1-1.8-1.9
				c-0.3-0.8-0.1-1.9,0.4-3.1l1.4-3.2l5.9,2.6L1603.7,434.4z"/>
			<polygon class="st2" points="1577.8,455.2 1580,456.5 1584.5,448.5 1588.4,450.7 1584.5,457.5 1586.7,458.7 1590.5,451.9 
				1594.2,454 1589.9,461.6 1592.1,462.9 1597.9,452.6 1583.8,444.7 			"/>
			<polygon class="st2" points="1570.6,466.4 1579.5,472.8 1565.4,473.6 1564,475.7 1577.1,485.1 1578.9,482.6 1569.9,476.3 
				1584,475.4 1585.5,473.4 1572.3,464 			"/>
			<path class="st2" d="M1563.7,489.1c-0.9-0.8-1.8-1.4-2.9-1.7c-1-0.4-2.1-0.5-3.2-0.4c-1.1,0.1-2.1,0.4-3.2,0.9
				c-1,0.5-2,1.2-2.8,2.2c-0.8,0.9-1.5,1.9-1.9,3s-0.6,2.1-0.6,3.2c0,1.1,0.3,2.1,0.7,3.1c0.5,1,1.1,1.9,2,2.7
				c0.9,0.8,1.9,1.4,2.9,1.8c1,0.4,2.1,0.5,3.2,0.4c1.1-0.1,2.1-0.4,3.1-0.9c1-0.5,1.9-1.2,2.8-2.2c0.8-0.9,1.5-1.9,1.9-3
				c0.4-1.1,0.6-2.1,0.6-3.2c0-1.1-0.3-2.1-0.7-3.1C1565.2,490.8,1564.6,489.9,1563.7,489.1z M1563.2,497.4c-0.3,0.7-0.7,1.4-1.2,2
				c-0.5,0.6-1.2,1.1-1.8,1.4c-0.7,0.3-1.4,0.5-2.1,0.5c-0.7,0-1.4-0.1-2.1-0.3c-0.7-0.3-1.4-0.7-2-1.2c-0.6-0.6-1.1-1.2-1.4-1.9
				c-0.3-0.7-0.5-1.4-0.5-2.1c0-0.7,0.1-1.4,0.3-2.1c0.3-0.7,0.7-1.3,1.2-1.9c0.5-0.6,1.2-1.1,1.8-1.4c0.7-0.3,1.4-0.5,2.1-0.5
				c0.7,0,1.4,0.1,2.2,0.3c0.7,0.2,1.4,0.6,2,1.2c0.6,0.6,1.1,1.2,1.4,1.9c0.3,0.7,0.5,1.4,0.5,2.1
				C1563.6,496,1563.5,496.7,1563.2,497.4z"/>
			<polygon class="st2" points="1533.2,508.4 1538.8,525.2 1541,523.2 1536.7,510.3 1549.1,515.9 1551.5,513.8 1535.4,506.5 			"/>
			<path class="st2" d="M1520.9,518.6l0.9,4l-6.6,4.7l-3.5-2.1l-2.6,1.9l15.4,8.8l2.4-1.7l-3.6-17.4L1520.9,518.6z M1522.3,525.1
				l1.7,7.5l-6.6-4L1522.3,525.1z"/>
			<polygon class="st2" points="1506.1,544.9 1499.3,533.1 1496.7,534.6 1503.5,546.4 1498.9,549.1 1500.2,551.3 1512,544.3 
				1510.8,542.2 			"/>
			<polygon class="st2" points="1472.7,546.6 1473.8,548.9 1482.1,545.1 1484,549.1 1476.9,552.4 1477.9,554.6 1485,551.4 
				1486.7,555.2 1478.7,558.8 1479.8,561.2 1490.5,556.2 1483.8,541.5 			"/>
			<polygon class="st2" points="1465,560 1467,566.1 1469.3,565.3 1467,559.3 			"/>
			<polygon class="st2" points="1460.8,561.5 1462.8,567.6 1465.1,566.8 1462.8,560.8 			"/>
		</g>
		<g>
			<path class="st2" d="M1375.6,105.6l-0.1-2.5c3.1-0.1,6.2-0.2,9.2-0.2c2.9,0,5.8,0.1,8.8,0.2l-0.1,2.5c-2.9-0.1-5.8-0.2-8.7-0.2
				C1381.7,105.4,1378.7,105.4,1375.6,105.6z"/>
			<path class="st2" d="M1375.6,105.6l-0.1-2.5c3.1-0.1,6.2-0.2,9.2-0.2c2.9,0,5.8,0.1,8.8,0.2l-0.1,2.5c-2.9-0.1-5.8-0.2-8.7-0.2
				C1381.7,105.4,1378.7,105.4,1375.6,105.6z"/>
		</g>
		<path class="st2" d="M1289.9,276.9c-2.1,2.2-4.7,5.5-6.8,9.8c-0.6,1.3-1.1,2.6-1.6,3.8c-1.6-14.7-2.2-36.7,0.5-55.7
			c2.5-17.7,7.5-35,14.6-51.6c5.1-11.9,11.5-23.5,18.8-34.5c0.6-0.9,0.5-2-0.3-2.7c-0.8-0.7-1.9-0.8-2.8-0.1
			c-16.5,13.1-30.1,30.1-39.4,49c-4.3,8.8-7.4,17.4-9.6,25.6c0-0.2,0-0.4,0-0.5c-0.1-11.8-2.7-21.8-4.9-28.2
			c-2.2-6.4-5-12.1-6.6-13.3c-0.8-0.6-1.6-0.5-2-0.4c-0.6,0.2-1,0.5-1.3,1.1c-0.5,1-0.3,1.8,0.4,4.1c1.3,4.3,4.1,13.3,2.8,24.5
			c-1.2,10.1-5.2,16.2-9.4,22.7c-2.9,4.4-5.9,9-8.1,15c-2.7,7.3-3.4,14.7-3.1,21.6c-1.4-2.4-2.9-4.8-4.6-7.3
			c-7.6-10.9-17.8-19.8-21.5-20.3c-1-0.1-1.7,0.2-2.1,0.6c-0.8,0.6-1.4,1.9-0.2,4c0.5,0.8,1.2,1.8,2.1,3.1c3.1,4.5,9,12.9,12.2,24.7
			c1.6,5.7,1.6,8.8,1.7,12.8c0.1,4,0.1,8.5,1.7,16.7c1.7,9.2,4.2,16.6,5.8,21.6c-1.6-2.1-3.7-4.7-6.2-7.4
			c-6.8-7.4-13.8-12.4-18.5-15.4c-3.2-2-9.2-5.4-11.5-5.3c-1,0.1-1.5,0.6-1.8,0.9c-0.3,0.5-0.5,1.1-0.4,1.7c0.2,1.1,0.9,1.6,2.7,2.9
			c3.1,2.2,9.6,6.7,14.7,14.9c3.5,5.7,4.1,9.5,4.9,14.4c0.7,4.5,1.5,9.6,4.6,17.1c3.7,9,10,17.9,14.6,24.4c1.2,1.7,2.5,3.6,3.6,5.2
			c-0.1,0-0.2-0.1-0.3-0.1c-1.5-0.9-3.4-2.3-6-4.3c-4.7-3.7-9.2-7.9-11.8-10.9c-3.6-4.3-4.5-6.5-5.6-9c-1.1-2.6-2.3-5.5-6.3-10.8
			c-0.9-1.2-1.9-2.5-2.9-3.8c-7.8-10.2-10.6-13.4-12.9-13.6c-0.7-0.1-1.4,0.1-2,0.6c-1.8,1.6-0.6,4.1-0.2,5.1c0.7,1.4,1.7,3.2,3,5.3
			c2.3,3.7,5.1,8.4,7.3,13.7c5.7,13.4,6.3,19.9,7.1,27.4c0.5,4.9,1.1,10.4,3.1,18.4c5,19.5,18.3,35.4,27.1,45.9
			c2.4,2.9,4.5,5.3,5.9,7.3c1,1.4,1.5,2.3,1.7,2.9c-0.5,0-1.2-0.1-2-0.1c-1.8-0.1-4.6-0.3-8.5-0.4c-2.5,0-7.1-0.1-11.2,0
			c-5.9,0.3-9.2,0.9-9.7,3.4c-0.1,0.4-0.1,1.6,1,2.6c0.4,0.3,0.9,0.7,1.6,1c1,0.5,2.5,1,4.2,1.6c3.5,1.2,8.3,2.9,13,5.6
			c10.1,5.7,14.2,11.1,19,17.3c1.6,2.1,3.3,4.3,5.3,6.7c5.3,6.6,5.2,5.6,5.6,5.4c0.9-0.5,0.2-3.5-0.1-4.3c-0.2-0.6-0.3-1.2-0.5-1.8
			l0,0c0,0,0,0-0.1-0.1c-7.5-27.2-13-92.2-14.6-97.3c0-0.1-0.4-1.4-0.1-1.2c0,0,0.8,0.7,2.7,3c0.1,0.1,0.3,0.4,0.4,0.7
			c0.3,0.6,1,2.4,1.1,2.5c0.6,2.2,8.9,41.8,13.5,69.9c0.3,2.1,0.6,3.6,0.8,5.3c1.8,14.4,1.6,23.3,1.5,24.5c-0.1,1.1-0.3,3.2-0.2,3.4
			l2.6,1.5c2.9,1.6,11,5.9,11,5.9l-0.2-0.6c-0.6-1.9-1.2-3.9-1.6-5.9c-0.8-3.6-2.4-10.3-2.6-11.3c-0.2-1.3-7.2-48.3-11-68.3
			c-0.7-3.9-1.4-8.6-4.6-26.1c0-0.1-0.3-0.6-0.2-1.2c0.1-0.4,0.3-0.6,0.3-0.7c3.8-4.8,3.7-19.3,3.7-19.3
			c-0.1-18.9-1.9-28.9-1.9-28.9c-5-27.4-14.4-48.2-18.1-56.1c-1.1-2.2-2.1-4.3-3.2-6.4c-0.1-0.2-0.2-0.5-0.3-0.7
			c-0.4-1.5-0.7-3.1-1-4.7c-1.8-10.3-1.1-19.8,2-28.1c2.1-5.6,4.9-9.9,7.7-14.2c4.3-6.6,8.7-13.3,10.1-24.5c0.4-3.3,0.5-6.4,0.3-9.3
			c1.6,6,2.8,13.2,2.9,21c0.1,13.7-3.3,24.8-5.2,30.7c-0.1,0.5-0.3,0.9-0.4,1.3c-0.3,1-0.5,1.8-0.6,2.3c0,0.1,0,0.1,0,0.2
			c0,0.1-0.1,0.3-0.1,0.4c-1.6,9.3,0.7,22,3.9,36.5c3.2,14.1,3.9,28.7,6.5,43c2.2,12,2.5,15.8,12.6,116.8c0.9,8.5,2.4,15.6,2.6,25.8
			c0.1,4.8,0.2,27.8,0,28.4l-0.1,0.5l1,0.3c0,0,18.4,4.6,22.4,5.4l1.5-34.6c-2.6,4.5-5.2,9.3-7.8,14.5c-1.9,3.9-3.7,7.7-5.3,11.5
			c-0.3-8.4-0.7-16.9-1.2-25.4c-1.3-25.2-3.2-49.6-5.4-73.5c0.3,0.4,0.7,0.9,1,1.3c1.9,2.5,3.6,5.7,5.2,8.5
			c2.5,4.6,5.2,8.9,7.5,13.7c-0.2-6.7-0.8-14.3-1-21c-3-1.1-6.1-1.3-9.1-2.4c-1.4-1.9-2.5-3.3-3.9-5.2c-1.9-22.3-3.4-40.7-4.6-63.1
			c-0.6-10.5-1.3-23.3-2.2-34.3l2.6,8.2c3.4,9.7,7,21.4,9.9,31.3c3.3,11.3,5.7,21.7,8.7,32.7c-0.1-7.7,0-27.1,0.1-36.7
			c-7.5-11.3-11.7-24.2-11.7-37.9C1286,291.5,1287.4,284,1289.9,276.9z M1218.9,345.1c-2.9-7.1-3.7-11.9-4.4-16.2
			c-0.8-5.2-1.5-9.6-5.5-16c-1.2-1.9-2.5-3.7-3.8-5.3c3.8,2.9,7.9,6.4,11.8,10.7c0.1,0.1,0.2,0.3,0.4,0.4c2.5,4.1,4.2,8.7,5,13.5
			c0.1,0.7,0.2,1.5,0.3,2.3l0,0v0c1.2,8.5,3.1,19.2,5.3,27.1C1224.7,356.5,1221.2,350.8,1218.9,345.1z M1236.1,437.4
			c-8.6-10.2-21.5-25.7-26.2-44.2c-2-7.7-2.5-12.8-3-17.8c-0.8-7.5-1.5-14.6-7.4-28.6c-1.6-3.8-3.5-7.4-5.3-10.4
			c1,1.3,1.9,2.5,2.7,3.6c1,1.4,2,2.7,3,3.9c3.7,4.8,4.8,7.4,5.8,9.8c1.1,2.8,2.2,5.3,6.2,10.1c2.6,3.1,7,7.2,11.7,10.9
			c4.5,4.5,8.7,10.5,9.9,15.6l3.1,14.4c2,13.2,3.8,28.5,5.1,39.5C1240.2,442.3,1238.3,440.1,1236.1,437.4z M1242.9,455.6l-0.1,5
			c0.1,2.7-2.1,4.5-6.8,2.7c-1.5-1-3.1-2-4.9-3.1c-5.1-2.9-10.1-4.6-13.7-5.9c-0.2-0.1-0.5-0.2-0.7-0.2c0.9-0.1,2.1-0.1,3.6-0.2
			c3.7-0.1,7.6,0,9.8,0c3.8,0.1,6.4,0.3,8.2,0.4c2,0.2,3.5,0.3,4.6-0.1C1242.8,454.7,1242.9,455.1,1242.9,455.6L1242.9,455.6z
			 M1240.3,307.6c2.4,11.6,3.8,16.6,4.4,21.1c1.1,7.6,0.7,6.2,2.2,17c1.1,7.6,2.2,14.9,2.9,22.9c0.2,2.2,0.6,7.6,0,14.1
			c-0.1,1-0.4,1.8-0.6,2.4c-1.6-0.6-4.5-1.8-6.1-2.5c-5.6-37.5-11.1-72.8-16.7-110.3c1.3,1.8,4.5,6.6,6.1,10.1
			C1234.9,287.2,1237.2,292.2,1240.3,307.6z M1277.9,234.2c-2.5,17.4-2.2,37.4-1,52.1c0,0.2,0,1,0.1,2.3c-2.5-3.4-5.3-7.7-7.8-12.8
			c-6.2-12.6-7.1-32.5-2-53.3c2.1-8.3,5.2-17,9.6-25.9c6.9-14.1,16.3-27.1,27.6-38.1c-4.3,7.4-8.2,15.1-11.5,22.9
			C1285.5,198.5,1280.5,216.2,1277.9,234.2z"/>
		<path class="st2" d="M1340.5,397.8l0.6,111.6c-3.1-20.7-4.8-40-8-60.7c-3.9-25.5-7.3-51.8-11.3-78.7c-0.2-3.5,1.2-5.7,3.6-6.7
			c-8.4-5.2-15.8-11.4-21.8-18.4c0.5,3.3,0.9,6.7,1.4,10.5c1.3,41.2,2.2,88.3,3.4,130.6c0.3,8.8-0.2,17.5-1.4,26.2l-0.4,3.1
			c1,1.3,2.6,2.4,3.9,3.7c1.5,1.6,5.7,4.5,7.1,5.7c-0.4-2.6-0.9-5.3-1.5-8c-2.3-10.5-3.5-21.3-3.9-32.1c-1.4-39-2.9-77-4.1-116.2
			c8.7,56.5,16,111.6,24.6,168c2.5,1.3,5.2,2.6,8.1,3.9c2.1,0.9,4.2,1.8,6.2,2.5l-2.6-21.8l-0.4-117.4c0-4,0.4-9.4,1.1-13.3
			c0.3-1.7,0.9-4.7,1.3-6.2c1-3.4,2-7,6-9.3c-4.5-1.3-8.9-2.8-13.1-4.6C1340,381.4,1340.5,397.8,1340.5,397.8z"/>
		<g>
			<path class="st2" d="M1421.2,384c0.6,3.3,0.9,6.9,0.7,10.2c-2.5,44.4-5.4,83.4-9.5,127.8c-0.7,7.7-1.5,13.9-2.6,21.5
				c1.9-0.8,6.6-2.6,8.6-3.3c-0.4-6.7-1.1-12.6-1.5-19.3c1.1-12.6,1.8-22.9,2.9-35.5c4.2-9.2,8.6-17,12.9-26.2
				c0.4,18.3,0.7,34.4,1,52.7c-0.3,8-0.4,15.2-0.7,23.2c3.2-1,7.1-2.7,10.7-4.5c2.9-1.4,7-3.5,9.6-5.4c-2-0.2-4.1-3.9-4.4-5.9
				c0-0.3-0.1-0.5-0.1-0.8c-1.9-10-2.5-20.2-2.9-30.5c-0.6-15.7-0.6-30.9-0.8-40c-0.4-28.7-0.3-39.8-0.9-62.5
				c-0.2-8.7,0.3-16.4,1.1-23.3c-8,5.1-17,9.3-26.8,12.2C1420.3,377.5,1420.9,382.4,1421.2,384z M1426.3,384.2c0,0,3,14.3,6.1,69.6
				c-4,8.7-8.8,17-12.8,25.7c1.7-13.4,2.6-32.9,4-57.4C1425,399.5,1426.3,384.2,1426.3,384.2z"/>
			<path class="st2" d="M1583.6,324.4c-0.5-0.5-1.2-0.7-2-0.6c-2.3,0.2-5.1,3.4-12.9,13.6c-1,1.4-2,2.6-2.9,3.8
				c-4.1,5.3-5.3,8.2-6.3,10.8c-1,2.5-1.9,4.7-5.6,9c-2.4,2.9-6.8,6.6-11.7,9.9c-2.8,1.9-5,3.1-6.5,3.9c0.9-1.3,2.1-2.8,3.2-4.2
				c4.8-6.1,11.3-14.5,15.2-24c3.1-7.6,3.9-12.6,4.6-17.1c0.8-4.9,1.4-8.8,4.9-14.4c5-8.1,11.5-12.7,14.7-14.9
				c1.8-1.2,2.5-1.8,2.7-2.9c0.1-0.6,0-1.2-0.4-1.7c-0.2-0.3-0.8-0.9-1.8-0.9c-2.2-0.1-8.3,3.3-11.5,5.3c-4.7,3-11.7,8-18.5,15.4
				c-2.5,2.7-4.5,5.3-6.2,7.4c1.7-5,4.1-12.4,5.8-21.6c1.5-8.2,1.6-12.7,1.7-16.7c0.1-4,0.1-7.1,1.7-12.8
				c3.2-11.7,9.1-20.1,12.2-24.7c0.9-1.3,1.6-2.3,2.1-3.1c1.2-2.2,0.6-3.4-0.2-4c-0.4-0.3-1.1-0.7-2.1-0.6
				c-3.7,0.5-13.9,9.5-21.5,20.3c-1.6,2.2-2.9,4.4-4.1,6.4c0.1-6.2-0.8-13.3-3.5-20.7c-2.2-6-5.2-10.6-8.1-15
				c-4.2-6.4-8.2-12.5-9.4-22.7c-1.3-11.2,1.5-20.2,2.8-24.5c0.7-2.3,1-3.1,0.4-4.1c-0.3-0.5-0.8-0.9-1.3-1.1
				c-0.4-0.1-1.2-0.2-2,0.4c-1.6,1.2-4.4,6.9-6.6,13.3c-2.2,6.3-4.8,16.4-4.9,28.2c0,0.3,0,0.7,0,1c-2.2-8.3-5.3-17.2-9.7-26.2
				c-9.2-18.9-22.8-35.8-39.4-49c-0.8-0.7-2-0.6-2.8,0.1c-0.8,0.7-0.9,1.9-0.3,2.7c7.3,10.9,13.7,22.5,18.8,34.5
				c7.1,16.6,12.1,33.9,14.6,51.6c2.5,17.6,2.1,37.8,0.8,52.4c-0.1,0.4-0.2,0.9-0.3,1.6c-0.4-0.9-1-1.9-1.7-3.1
				c-2.1-3.8-5.1-6.8-6.7-9c0,0,0,0,0,0c0.5,1.3,0.9,2.5,1.2,3.8c0,0,0,0,0,0c1.4,4.9,2.3,9.9,2.6,15v0c0.1,1.2,0.1,2.4,0.1,3.6
				c0,1.4,0,2.7-0.1,4.1c0,0,0,0,0,0c-0.1,2.1-0.4,4.1-0.7,6.2c0,0,0,0,0,0c-0.1,0.6-0.2,1.2-0.3,1.8v0c-0.2,0.8-0.3,1.6-0.5,2.5
				c0,0,0,0,0,0c0,0.2-0.1,0.3-0.1,0.5c-0.3,1.2-0.6,2.5-1,3.7c0,0,0,0,0,0c-0.1,0.2-0.1,0.4-0.2,0.6c-0.4,1.3-0.8,2.5-1.3,3.8
				c-0.1,0.2-0.1,0.3-0.2,0.5c0,0,0,0,0,0c-0.4,1-0.8,2-1.3,3.1c0,0,0,0,0,0c-0.1,0.1-0.1,0.3-0.2,0.4c-1.6,3.7-3.6,7.2-5.8,10.6
				c0,0,0,0,0,0c0,0,0,0,0,0.1c-4.8,7.2-10.9,13.8-18,19.5c0.8,13.4,0.4,41.5,0.9,46.6c4.3-13.5,12.5-42.9,17.7-54.5l0.1-0.1
				c1,60.7-0.4,66.9-3,113.6c-0.4,6.2-2.7,30-3.9,36.1c-1.4,7.2-1.7,12.1-6.8,24.6l4.7-3.4c2-1.5,3.7-3,5.6-4.7
				c1.5-1.4,2.4-2.4,5-3.3c0,0,0,0,0,0c1.6-0.6,3.1-1.1,4.8-1.5c0.8-0.2,1.7-0.4,2.6-0.6c-0.3-9-0.7-18-1-27.1
				c4.2-62.9,6.3-121.1,10.5-184c0.4-5.5,1.8-15.8,7.2-7.5c4.1,7.2,7.9,13.5,9.6,33.1c1.3,17.9,1,31.1,0.7,41
				c-0.3,10.5-0.2,42.3-10.5,109.5c-2.1,13.7-3,19-10.3,33.1c4.8-1.5,11.5-4.5,14.2-6.2c4.2-2.5,7-5,8.3-6.2c3.3-3,5.3-5.7,7.1-8.1
				c1.1-1.5,1.8-2.5,2.4-3.4c5.7-7.2,11.2-13.9,21.1-19.6c4.7-2.7,9.5-4.4,13-5.6c1.8-0.6,3.2-1.1,4.2-1.6c0.7-0.3,3-1.4,2.6-3.6
				c-0.5-2.5-3.8-3.1-9.7-3.4c-4.1-0.2-8.7-0.1-11.2,0c-3.9,0.1-6.7,0.3-8.5,0.4c-0.8,0.1-1.5,0.1-2.1,0.1c0.2-0.5,0.6-1.5,1.6-3.1
				c1.4-2.1,3.4-4.8,5.7-7.8c8-10.5,20-26.3,24.9-45.4c1.6-6.5,2.6-11.2,3.4-15.4c1.7-8.7,3-15,9.4-30.1c2.3-5.3,5.1-10,7.3-13.7
				c1.3-2.1,2.3-3.9,3-5.3C1584.2,328.5,1585.4,326,1583.6,324.4z M1500.1,239.6c-1.5,14.8-2.9,26.1-7.9,42.8
				c1-14.2,1-32.2-1.3-48.2c-2.6-18-7.6-35.7-14.9-52.7c-3.4-7.8-7.2-15.5-11.5-22.9c11.3,11,20.7,24,27.6,38.1
				c1.5,3.2,2.9,6.3,4.2,9.4c-0.1-0.2-0.3-0.3-0.4-0.5C1501.3,218.9,1500.6,235,1500.1,239.6z M1538.3,300.8c0,0,0.1,0.1,0.1,0.1
				c3.1,4,1.6,14,1,18.5c-0.3,0.9-0.6,1.8-0.8,2.6c-0.7,2.3-1.3,4-1.7,5.4c-0.2,1-0.8,3.5,1.2,4.5c1.9,0.9,3.5-0.8,4-1.4
				c0.7-0.8,1.6-2,2.7-3.4c1.7-2.3,4.1-5.4,7.2-8.8c3.9-4.2,8-7.8,11.8-10.7c-1.3,1.6-2.6,3.3-3.8,5.3c-3.9,6.4-4.7,10.8-5.5,16
				c-0.7,4.3-1.5,9.1-4.4,16.2c-3.6,8.9-7,14.1-11.7,20.1c-0.6,0.8-1.2,1.5-1.7,2.2c-1.5,1.8-3.9,5.4-4.9,7.3
				c-1.1,2.1-2.7,5.8-5.7,7.6l0,0l-4,1.8l4.2-87.3C1526.8,292.5,1535.5,297.3,1538.3,300.8z M1513.1,261.6c0-0.4-0.1-0.9-0.2-1.5
				c-1.7-12-3.2-23.7-3.2-35.9c0-1.4,0-2.7,0-4.1c0.1-7.8,1.3-15,2.9-21c-0.2,2.9-0.1,6,0.3,9.3c1.3,11.1,5.8,17.9,10.1,24.5
				c2.8,4.2,5.6,8.6,7.7,14.2c2.6,6.9,3.4,13.4,3.3,19.2c-0.1,7.5-2.3,15-6.6,21.1c-1.7,2.4-3.5,4.2-4.9,5.3
				c-3.3,2.4-9.6,4.6-12.8,3.9C1501.3,294.1,1514.2,285.3,1513.1,261.6z M1569.5,346.8c-6.6,15.5-7.9,22-9.6,31
				c-0.8,4.1-1.7,8.8-3.4,15.1c-4.7,18.3-16.4,33.7-24.1,43.9c-3.8,5-6.5,8.6-7.7,11.4c-1.3,2.2-2.6,4.8-3.2,6.2
				c-3.7,9.7-5.8,20.1-9.5,29.8c4.1-34.6,7.4-61.6,9.9-96.9c3.8-0.8,7.7,0.1,11.3,1.6l7.2,3c0,0-0.2-7.2-0.1-10
				c0.1-3.4,2.6-6.2,5.3-8.3c4.8-3.4,9.1-7.1,11.6-10c4.1-4.8,5.1-7.4,6.2-10.1c1-2.5,2-5,5.8-9.8c0.9-1.2,1.9-2.5,3-3.9
				c0.8-1.1,1.7-2.3,2.7-3.6C1573.1,339.4,1571.2,343,1569.5,346.8z"/>
		</g>
	</g>
</g>
</svg>
