<?xml version="1.0" encoding="utf-8"?>
<!-- Generator: Adobe Illustrator 28.3.0, SVG Export Plug-In . SVG Version: 6.00 Build 0)  -->
<svg version="1.1" id="Layer_1" xmlns="http://www.w3.org/2000/svg" xmlns:xlink="http://www.w3.org/1999/xlink" x="0px" y="0px"
	 viewBox="0 0 480 400" style="enable-background:new 0 0 480 400;" xml:space="preserve">
<style type="text/css">
	.st0{fill:url(#SVGID_1_);}
	.st1{opacity:0.7;clip-path:url(#SVGID_00000125580334694833783330000010948563933156850101_);}
	.st2{fill:#FFD300;}
	.st3{fill:url(#SVGID_00000037679465539917877040000004226126883450011564_);}
	.st4{fill:none;}
</style>
<g>
	<linearGradient id="SVGID_1_" gradientUnits="userSpaceOnUse" x1="237.8622" y1="213.6287" x2="205.9366" y2="417.1539">
		<stop  offset="0" style="stop-color:#001E5A"/>
		<stop  offset="0.2595" style="stop-color:#02205A"/>
		<stop  offset="0.3969" style="stop-color:#0A265A"/>
		<stop  offset="0.5058" style="stop-color:#18305A"/>
		<stop  offset="0.5996" style="stop-color:#2B3E5A"/>
		<stop  offset="0.6838" style="stop-color:#44515A"/>
		<stop  offset="0.7612" style="stop-color:#63675A"/>
		<stop  offset="0.8333" style="stop-color:#87835A"/>
		<stop  offset="0.9012" style="stop-color:#B1A25A"/>
		<stop  offset="0.9635" style="stop-color:#E0C55A"/>
		<stop  offset="1" style="stop-color:#FFDC5A"/>
	</linearGradient>
	<rect class="st0" width="480" height="400"/>
	<g>
		<defs>
			<rect id="SVGID_00000161608081262383688800000013599217198465007278_" width="480" height="400"/>
		</defs>
		<clipPath id="SVGID_00000062158650188885195140000012530450366001643190_">
			<use xlink:href="#SVGID_00000161608081262383688800000013599217198465007278_"  style="overflow:visible;"/>
		</clipPath>
		<g style="opacity:0.7;clip-path:url(#SVGID_00000062158650188885195140000012530450366001643190_);">
			<circle class="st2" cx="321.1" cy="291.46" r="205.98"/>
			
				<linearGradient id="SVGID_00000072983181105353833950000013468479692908669830_" gradientUnits="userSpaceOnUse" x1="320.9613" y1="490.5564" x2="320.9613" y2="92.3235">
				<stop  offset="0" style="stop-color:#0073B1"/>
				<stop  offset="0.2825" style="stop-color:#006FAE"/>
				<stop  offset="0.5386" style="stop-color:#0064A4"/>
				<stop  offset="0.7836" style="stop-color:#015295"/>
				<stop  offset="1" style="stop-color:#013B81"/>
			</linearGradient>
			<path style="fill:url(#SVGID_00000072983181105353833950000013468479692908669830_);" d="M326.8,490.47L326.8,490.47
				c-109.92,3.23-201.64-83.27-204.87-193.19l0,0C118.71,187.36,205.2,95.64,315.12,92.41l0,0
				c109.92-3.23,201.64,83.27,204.87,193.19l0,0C523.22,395.52,436.72,487.24,326.8,490.47z"/>
			<path class="st2" d="M315.96,445.5c5.11-13.73,3.86-56.27,3.72-61.37c-0.43-15.38-0.66-24.33-2.09-36.06
				c-0.79-6.45-2.88-22.27-9.93-23.62c-0.93-0.18-2.84-0.23-4.52,0.94c-2.26,1.58-4.57,6.08-5.49,9.79
				c-1.4,5.61-2.22,14.3-2.22,14.3c-0.56,6.31-0.62,8.21-0.72,31.81c-0.09,22.79,0.77,28.58,1.94,42.17c0,0,0.34,5.81,3.29,16.84
				c1.43,5.33,4.24,9.23,7.03,10.97c0.87,0.55,3.31,0.94,4.74-0.04C314.23,449.52,315.4,446.99,315.96,445.5z M308.7,430.2
				c-1.58-4.97-1.83-6.01-3.64-14.71c-1.44-6.93-2.29-11.97-3.44-20.31c-1.78-12.97-0.96-11.69-2.68-25.46
				c0,0-2.33-18.61-0.06-31.41c0.16-0.89,0.49-2.42,1.22-2.6c1.05-0.26,2.35,2.39,3.31,4.56c3.62,8.21,5.12,16.01,5.39,17.49
				c1.77,9.52,2.66,14.27,3,16.48c2.16,13.87,2.99,23.96,3.17,26.14c0.46,5.74,0.69,9.81,0.87,15.25c0.3,8.8,0.37,9.96,0.34,11.92
				c0,0,0.03,4.07-0.85,10.63c-0.11,0.81-0.62,2.77-1.2,2.91c-0.67,0.16-1.43-1.19-2.07-2.44C309.37,433.39,308.7,430.2,308.7,430.2
				z"/>
			<path class="st2" d="M320.91,316.59c1.51,14.32,2.83,31.5,3.24,37.99c1.53,23.86,1.36,32.2,1.24,67.61
				c-0.05,14.81-2.93,32.2-11.09,50.28c8.48-14.36,18.06-20.97,21.81-23.05c-0.54-8.4,0.15-16.4,0.62-24.8l6.04-127.59v0
				c1.44-25.32,5.88-28.35,7.72-30.76c5.84-7.63,7.58-14.68,7.13-14.97c-0.31-0.2-1.73,3.31-5.8,6.48
				c-3.64,2.83-6.84,3.87-11.36,4.08l-0.19,14.58c0.01-0.01,0.02-0.01,0.03-0.01c-0.24,15.83-1.46,42.33-1.7,51.7
				c-1.41,37.04-4.15,76.81-6.44,114.92l-2.05-160.46c0.01,0,0.02-0.01,0.02-0.01l-0.17-20.36c-7.05,0.33-12.77,1.05-18.47,2.95
				c-5.96,1.98-17.61,7.32-21.28,25.08c5-7.7,10.1-11.98,16.02-11.98C311.93,278.26,317.81,286.45,320.91,316.59z"/>
			<g>
				<path class="st2" d="M264.73,454.65c-1.48-0.5-2.73-0.57-3.75-0.21c-1.03,0.36-1.74,1.12-2.13,2.27
					c-0.38,1.12-0.3,2.09,0.23,2.92c0.54,0.83,1.51,1.48,2.91,1.96l3.47,1.18l-0.97,2.87l-6.99-2.37l-0.61,1.81l9.15,3.11
					l3.98-11.74L264.73,454.65z M266.04,461.1l-3.02-1.02c-1.71-0.58-2.36-1.47-1.95-2.68c0.21-0.61,0.59-1.01,1.13-1.19
					c0.55-0.18,1.24-0.12,2.08,0.16l3.02,1.02L266.04,461.1z"/>
				<path class="st2" d="M253.36,450.19c-0.6-0.28-1.16-0.37-1.69-0.26c-0.53,0.1-1.05,0.39-1.56,0.87
					c-0.51,0.47-1.02,1.11-1.53,1.9c-0.51,0.79-1.04,1.73-1.6,2.81l-1.4,2.77l-4.42-2.05l4.41-9.47l-2.07-0.96l-5.23,11.24
					l8.27,3.85l2.32-4.57c0.54-1.04,1.03-1.89,1.48-2.55c0.45-0.66,0.89-1.11,1.32-1.36c0.43-0.24,0.88-0.26,1.34-0.04
					c0.17,0.08,0.32,0.18,0.45,0.29l1-1.76c-0.19-0.15-0.37-0.28-0.55-0.39C253.72,450.37,253.54,450.28,253.36,450.19z"/>
				<path class="st2" d="M232.51,443.01l-5.29-3.23l0.45-3.09l-2.07-1.26l-1.68,13.49l1.93,1.18l11.22-7.68l-2.01-1.23
					L232.51,443.01z M230.91,444.15l-4.81,3.42l0.84-5.84L230.91,444.15z"/>
				<polygon class="st2" points="211.56,438.15 206.67,434.43 205.48,435.97 212.19,441.07 219.69,431.2 217.87,429.82 				"/>
				<path class="st2" d="M206.61,422.9c-0.05-0.83-0.27-1.65-0.65-2.44c-0.39-0.79-0.93-1.51-1.63-2.16
					c-0.7-0.65-1.46-1.13-2.27-1.46c-0.81-0.32-1.63-0.47-2.46-0.45c-0.83,0.02-1.63,0.2-2.4,0.55c-0.77,0.34-1.46,0.85-2.09,1.53
					c-0.62,0.68-1.08,1.41-1.37,2.21c-0.29,0.8-0.4,1.61-0.35,2.43c0.05,0.82,0.27,1.63,0.65,2.41c0.39,0.78,0.93,1.5,1.63,2.15
					c0.71,0.66,1.47,1.14,2.29,1.46c0.81,0.32,1.64,0.47,2.47,0.46c0.83-0.01,1.63-0.19,2.4-0.53c0.77-0.34,1.46-0.85,2.09-1.53
					c0.62-0.67,1.07-1.4,1.35-2.19C206.55,424.55,206.66,423.74,206.61,422.9z M204.16,424.47c-0.2,0.54-0.51,1.04-0.93,1.5
					c-0.43,0.47-0.91,0.82-1.43,1.05c-0.52,0.23-1.06,0.36-1.61,0.39c-0.55,0.03-1.1-0.06-1.64-0.27c-0.54-0.21-1.04-0.52-1.5-0.95
					c-0.46-0.42-0.81-0.89-1.05-1.41c-0.24-0.51-0.38-1.05-0.4-1.6c-0.03-0.55,0.06-1.1,0.27-1.63c0.2-0.53,0.52-1.04,0.96-1.5
					c0.43-0.47,0.91-0.82,1.43-1.07c0.52-0.24,1.06-0.37,1.61-0.4c0.55-0.02,1.09,0.07,1.62,0.27c0.53,0.2,1.02,0.51,1.48,0.94
					c0.46,0.42,0.81,0.9,1.06,1.42c0.25,0.52,0.38,1.06,0.4,1.61C204.44,423.37,204.35,423.92,204.16,424.47z"/>
				<path class="st2" d="M193.62,410.84l3.48-2.98l-1.4-1.62l-2,1.72l-6.22-7.2l2-1.72l-1.39-1.61l-3.47,3l1.17,1.35l-7.91,6.83
					l5.94,6.87l3.05-2.45c0.74-0.59,1.44-1.11,2.09-1.57c0.66-0.46,1.26-0.82,1.82-1.08c0.55-0.26,1.05-0.39,1.48-0.38
					c0.43,0.01,0.79,0.18,1.08,0.53L193.62,410.84z M190.83,408.29c-0.46,0.08-0.96,0.27-1.5,0.57c-0.54,0.3-1.11,0.65-1.72,1.08
					c-0.61,0.42-1.23,0.9-1.87,1.42l-1.72,1.37l-3.17-3.67l6.43-5.56l4.12,4.77C191.21,408.25,191.03,408.25,190.83,408.29z"/>
				
					<rect x="169.71" y="394.61" transform="matrix(0.812 -0.5837 0.5837 0.812 -197.9195 177.0834)" class="st2" width="12.39" height="2.28"/>
				<polygon class="st2" points="174.16,382.02 163.22,380.76 170.78,376.3 169.62,374.33 158.95,380.63 160.03,382.47 171,383.73 
					163.42,388.21 164.58,390.17 175.25,383.88 				"/>
				<path class="st2" d="M159.25,384.1c-0.66-0.24-1.35-0.16-2.05,0.25l0.81,1.37c0.38-0.21,0.75-0.25,1.1-0.12
					c0.35,0.13,0.65,0.41,0.91,0.85c0.26,0.44,0.36,0.84,0.3,1.2c-0.06,0.36-0.27,0.66-0.64,0.89l0.81,1.37
					c0.7-0.42,1.1-0.98,1.21-1.67c0.11-0.69-0.1-1.49-0.64-2.41C160.51,384.92,159.91,384.34,159.25,384.1z"/>
				<polygon class="st2" points="164.67,364.4 159.81,366.55 157.22,360.69 162.07,358.54 161.15,356.45 149.82,361.47 
					150.74,363.56 155.42,361.49 158.02,367.35 153.34,369.42 154.27,371.52 165.6,366.5 				"/>
				<polygon class="st2" points="157.41,346.14 147.05,342.4 155.44,339.8 154.76,337.62 142.92,341.29 143.56,343.34 
					153.94,347.09 145.53,349.7 146.21,351.88 158.05,348.2 				"/>
				<polygon class="st2" points="152.24,326.95 142.38,322.05 151.02,320.42 150.59,318.18 138.41,320.47 138.81,322.57 
					148.69,327.49 140.04,329.12 140.46,331.36 152.64,329.07 				"/>
				<path class="st2" d="M137.52,323.84c-0.54-0.45-1.21-0.61-2.02-0.47l0.29,1.57c0.43-0.07,0.79,0.02,1.08,0.26
					c0.29,0.24,0.48,0.61,0.57,1.11c0.09,0.5,0.05,0.91-0.13,1.23c-0.18,0.32-0.48,0.53-0.91,0.62l0.29,1.57
					c0.8-0.16,1.37-0.55,1.71-1.16c0.34-0.61,0.41-1.44,0.22-2.48C138.42,325.04,138.06,324.29,137.52,323.84z"/>
				<path class="st2" d="M135.76,293.68l1.27-0.01c0.07,1.21,0.27,2.28,0.63,3.18c0.43,1.09,1.05,1.92,1.86,2.5
					c0.81,0.57,1.8,0.86,2.95,0.85c1.16-0.01,2.14-0.3,2.93-0.88c0.8-0.58,1.41-1.42,1.82-2.51c0.34-0.9,0.53-1.97,0.58-3.18
					l1.34-0.01l-0.01-2.12l-1.33,0.01c-0.06-1.25-0.26-2.34-0.62-3.25c-0.42-1.07-1.05-1.88-1.86-2.43
					c-0.82-0.56-1.79-0.83-2.93-0.83c-1.16,0.01-2.14,0.29-2.94,0.87c-0.81,0.57-1.42,1.4-1.84,2.48c-0.35,0.9-0.54,1.98-0.59,3.22
					l-1.27,0.01L135.76,293.68z M145.68,295.49c-0.26,0.79-0.66,1.4-1.2,1.82c-0.54,0.42-1.21,0.63-2.02,0.64
					c-0.81,0-1.49-0.19-2.03-0.58c-0.54-0.39-0.94-0.99-1.21-1.78c-0.18-0.54-0.28-1.2-0.34-1.92l7.13-0.04
					C145.95,294.32,145.86,294.96,145.68,295.49z M139.2,289.57c0.27-0.77,0.67-1.36,1.2-1.76c0.53-0.4,1.19-0.61,1.98-0.61
					c0.8,0,1.48,0.19,2.02,0.58c0.55,0.39,0.96,0.98,1.24,1.75c0.2,0.55,0.31,1.23,0.37,1.97l-7.14,0.04
					C138.91,290.81,139,290.13,139.2,289.57z"/>
				<path class="st2" d="M138.58,275.04c0.5,0.66,1.11,1.21,1.84,1.62c0.73,0.42,1.55,0.68,2.47,0.79c0.9,0.11,1.76,0.04,2.56-0.2
					c0.81-0.24,1.53-0.62,2.18-1.15c0.64-0.53,1.17-1.19,1.58-1.96c0.41-0.78,0.67-1.64,0.78-2.59c0.11-0.95,0.06-1.85-0.16-2.69
					c-0.22-0.85-0.58-1.6-1.08-2.26c-0.51-0.66-1.12-1.2-1.85-1.62c-0.73-0.42-1.55-0.68-2.47-0.79c-0.91-0.11-1.78-0.04-2.59,0.2
					c-0.81,0.24-1.54,0.62-2.17,1.15c-0.64,0.53-1.16,1.17-1.56,1.95c-0.41,0.77-0.66,1.63-0.77,2.58
					c-0.11,0.96-0.06,1.87,0.16,2.71C137.72,273.62,138.08,274.37,138.58,275.04z M139.34,270.3c0.07-0.62,0.25-1.18,0.52-1.68
					c0.27-0.5,0.62-0.92,1.06-1.27c0.43-0.35,0.93-0.6,1.48-0.75c0.55-0.15,1.14-0.19,1.78-0.11c0.63,0.07,1.2,0.25,1.7,0.53
					c0.5,0.28,0.92,0.63,1.27,1.07c0.34,0.43,0.59,0.92,0.74,1.47c0.15,0.55,0.19,1.13,0.12,1.75c-0.07,0.62-0.25,1.19-0.52,1.7
					c-0.27,0.51-0.63,0.93-1.07,1.27c-0.44,0.34-0.93,0.59-1.49,0.75c-0.55,0.16-1.14,0.21-1.76,0.13c-0.63-0.07-1.2-0.25-1.69-0.54
					c-0.5-0.28-0.92-0.64-1.26-1.07c-0.35-0.43-0.6-0.93-0.74-1.49C139.3,271.51,139.27,270.92,139.34,270.3z"/>
				<polygon class="st2" points="152.56,254.92 147.39,253.7 148.86,247.46 154.03,248.68 154.56,246.46 142.49,243.61 
					141.97,245.83 146.95,247.01 145.47,253.25 140.49,252.07 139.96,254.31 152.03,257.16 				"/>
				<path class="st2" d="M151.88,235.11c0.72,0.35,1.33,0.7,1.83,1.06c0.5,0.36,0.85,0.72,1.06,1.11c0.21,0.38,0.23,0.78,0.07,1.2
					l-0.14,0.38l4.31,1.57l0.73-2.02l-2.48-0.89l3.23-8.94l2.48,0.9l0.72-2l-4.31-1.56l-0.61,1.68l-9.83-3.54l-3.08,8.54l3.63,1.46
					C150.36,234.41,151.16,234.76,151.88,235.11z M150,226.84l7.99,2.88l-2.14,5.92c-0.07-0.16-0.17-0.32-0.3-0.48
					c-0.3-0.36-0.71-0.7-1.23-1.03c-0.52-0.33-1.12-0.65-1.79-0.97c-0.67-0.32-1.39-0.63-2.16-0.94l-2.04-0.83L150,226.84z"/>
				<polygon class="st2" points="164.48,202.91 160.24,200.43 159.34,202.07 163.7,204.32 				"/>
				<polygon class="st2" points="162.83,205.91 158.6,203.42 157.7,205.07 162.06,207.32 				"/>
				<path class="st2" d="M167.48,192.38c0.19-0.57,0.44-1.07,0.74-1.52c0.3-0.45,0.62-0.81,0.97-1.1c0.35-0.29,0.7-0.46,1.06-0.53
					c0.36-0.07,0.69,0,1.01,0.21c0.42,0.28,0.64,0.66,0.65,1.13c0.01,0.47-0.17,0.99-0.56,1.57l-1.5,2.25l1.52,1.01l1.59-2.39
					c0.44-0.67,0.91-1.11,1.39-1.33c0.48-0.22,0.95-0.17,1.4,0.13c0.37,0.25,0.6,0.59,0.68,1.02c0.08,0.43,0.05,0.9-0.11,1.42
					c-0.15,0.52-0.4,1.03-0.75,1.53c-0.35,0.5-0.78,0.97-1.3,1.39c-0.52,0.42-1.07,0.75-1.67,0.99l1,1.56
					c0.72-0.31,1.39-0.72,2-1.22c0.61-0.5,1.14-1.06,1.58-1.67c0.44-0.61,0.79-1.24,1.05-1.89c0.25-0.65,0.4-1.28,0.44-1.91
					c0.04-0.63-0.05-1.19-0.27-1.7c-0.22-0.51-0.58-0.93-1.08-1.26c-0.53-0.35-1.09-0.53-1.68-0.53c-0.59,0-1.17,0.18-1.73,0.54
					c-0.14,0.09-0.27,0.22-0.4,0.33c0.01-0.06,0.04-0.11,0.05-0.17c0.09-0.59,0.03-1.14-0.18-1.64c-0.21-0.5-0.56-0.92-1.05-1.24
					c-0.55-0.37-1.13-0.52-1.73-0.46c-0.61,0.06-1.21,0.27-1.81,0.64c-0.6,0.37-1.16,0.87-1.66,1.5c-0.5,0.63-0.93,1.34-1.26,2.14
					c-0.34,0.8-0.55,1.64-0.62,2.54l1.93,0.43C167.18,193.54,167.29,192.95,167.48,192.38z"/>
				<path class="st2" d="M185.46,185l-1.42-2.78l3.96-4.77l2.99,0.89l1.55-1.87l-13.11-3.61l-1.45,1.74l5.98,12.21L185.46,185z
					 M183.14,180.47l-2.69-5.26l5.66,1.68L183.14,180.47z"/>
				<polygon class="st2" points="199.17,169.62 195.49,165.79 200.11,161.35 203.79,165.18 205.44,163.59 196.85,154.66 
					195.2,156.25 198.75,159.93 194.13,164.38 190.58,160.69 188.92,162.28 197.51,171.22 				"/>
				<path class="st2" d="M207.62,153.48c0.55,0.72,1.19,1.29,1.92,1.71c0.73,0.41,1.51,0.67,2.34,0.76c0.83,0.1,1.67,0.02,2.51-0.22
					c0.85-0.24,1.65-0.66,2.41-1.24c0.76-0.58,1.37-1.24,1.83-1.98c0.46-0.74,0.75-1.52,0.87-2.35c0.12-0.82,0.08-1.64-0.12-2.46
					c-0.21-0.82-0.59-1.59-1.15-2.32c-0.56-0.73-1.21-1.31-1.94-1.73c-0.74-0.42-1.51-0.68-2.33-0.77
					c-0.82-0.09-1.65-0.02-2.49,0.23c-0.84,0.25-1.64,0.66-2.4,1.24c-0.77,0.59-1.38,1.25-1.84,2c-0.45,0.75-0.75,1.53-0.88,2.35
					c-0.13,0.82-0.09,1.64,0.11,2.45C206.68,151.98,207.06,152.75,207.62,153.48z M208.55,148.84c0.07-0.55,0.25-1.07,0.55-1.57
					c0.3-0.49,0.7-0.93,1.19-1.31c0.5-0.38,1.02-0.64,1.57-0.79c0.55-0.15,1.1-0.19,1.65-0.12c0.55,0.07,1.07,0.25,1.56,0.55
					c0.49,0.29,0.93,0.69,1.32,1.2c0.39,0.51,0.65,1.04,0.8,1.59c0.15,0.56,0.19,1.11,0.11,1.65c-0.07,0.55-0.25,1.06-0.54,1.55
					c-0.29,0.49-0.68,0.92-1.18,1.3c-0.5,0.38-1.02,0.65-1.58,0.8c-0.56,0.16-1.11,0.2-1.66,0.12c-0.55-0.08-1.07-0.26-1.57-0.55
					c-0.5-0.29-0.94-0.68-1.32-1.18c-0.39-0.51-0.65-1.04-0.79-1.59C208.52,149.94,208.48,149.39,208.55,148.84z"/>
				<path class="st2" d="M233.62,142.96c1.34-0.8,2.19-1.66,2.56-2.59c0.37-0.93,0.27-1.86-0.29-2.79c-0.54-0.9-1.27-1.39-2.2-1.47
					c-0.45-0.04-0.94,0.02-1.45,0.17c0.18-0.24,0.33-0.49,0.44-0.75c0.35-0.85,0.27-1.71-0.24-2.57c-0.53-0.89-1.27-1.37-2.23-1.44
					c-0.95-0.07-2.03,0.25-3.23,0.97l-4.76,2.84l6.36,10.64L233.62,142.96z M225.08,135.69l2.64-1.58c0.64-0.38,1.2-0.55,1.69-0.49
					c0.49,0.05,0.88,0.33,1.17,0.82c0.3,0.5,0.35,0.97,0.17,1.42c-0.18,0.45-0.59,0.87-1.23,1.25l-2.64,1.58L225.08,135.69z
					 M230.77,138.34c0.7-0.42,1.3-0.6,1.8-0.55c0.5,0.05,0.91,0.33,1.22,0.85c0.33,0.55,0.39,1.05,0.2,1.52
					c-0.19,0.47-0.64,0.91-1.34,1.33l-3.02,1.81l-1.88-3.15L230.77,138.34z"/>
				<path class="st2" d="M242.79,133.69c0.62,0.57,1.32,0.99,2.11,1.27c0.79,0.28,1.62,0.39,2.5,0.34c0.88-0.05,1.75-0.27,2.62-0.66
					c0.87-0.39,1.61-0.9,2.23-1.52c0.61-0.62,1.07-1.32,1.38-2.09c0.3-0.77,0.45-1.58,0.43-2.42c-0.02-0.84-0.22-1.68-0.6-2.52
					s-0.88-1.54-1.5-2.12c-0.62-0.57-1.32-1-2.1-1.27c-0.78-0.28-1.6-0.39-2.48-0.34c-0.87,0.05-1.74,0.27-2.61,0.67
					c-0.88,0.4-1.63,0.91-2.24,1.54s-1.07,1.32-1.38,2.09c-0.31,0.77-0.46,1.58-0.44,2.42c0.02,0.84,0.22,1.68,0.6,2.52
					C241.67,132.43,242.17,133.12,242.79,133.69z M243.25,127.28c0.19-0.52,0.49-0.99,0.89-1.4c0.4-0.42,0.89-0.75,1.46-1.01
					c0.57-0.26,1.14-0.4,1.7-0.42c0.57-0.02,1.11,0.06,1.63,0.25s0.99,0.49,1.4,0.88c0.41,0.4,0.75,0.88,1.01,1.47
					c0.26,0.58,0.4,1.16,0.43,1.73c0.02,0.57-0.07,1.12-0.26,1.63c-0.19,0.52-0.49,0.98-0.88,1.39c-0.39,0.41-0.87,0.74-1.44,1
					c-0.57,0.26-1.14,0.4-1.72,0.43c-0.58,0.03-1.12-0.06-1.64-0.26c-0.52-0.2-0.99-0.49-1.41-0.89c-0.42-0.39-0.76-0.87-1.02-1.44
					c-0.26-0.58-0.4-1.16-0.41-1.73C242.97,128.35,243.06,127.8,243.25,127.28z"/>
				<polygon class="st2" points="264.93,120.61 263.47,115.92 261.7,116.53 263.41,121.13 				"/>
				<polygon class="st2" points="261.7,121.72 260.24,117.03 258.46,117.64 260.17,122.24 				"/>
			</g>
			<g>
				<path class="st2" d="M388.04,119.36c-0.67-0.61-1.48-1.09-2.43-1.44c-0.9-0.33-1.78-0.48-2.64-0.46
					c-0.86,0.02-1.67,0.2-2.44,0.54c-0.76,0.34-1.43,0.81-2,1.42c-0.57,0.61-1.02,1.35-1.34,2.23c-0.32,0.88-0.45,1.73-0.41,2.57
					c0.05,0.83,0.25,1.63,0.62,2.37c0.36,0.75,0.87,1.41,1.51,1.97c0.65,0.57,1.42,1.02,2.32,1.34c0.97,0.35,1.9,0.5,2.81,0.46
					c0.91-0.05,1.75-0.29,2.53-0.74l-0.92-1.82c-0.6,0.31-1.21,0.48-1.81,0.52c-0.6,0.04-1.21-0.05-1.8-0.27
					c-0.61-0.22-1.13-0.52-1.56-0.91c-0.43-0.38-0.77-0.83-1.01-1.33c-0.24-0.5-0.37-1.04-0.4-1.62c-0.03-0.58,0.07-1.16,0.28-1.76
					c0.22-0.6,0.52-1.11,0.92-1.53c0.39-0.42,0.84-0.75,1.35-0.98c0.5-0.23,1.05-0.35,1.62-0.37c0.58-0.02,1.17,0.09,1.78,0.31
					c0.6,0.22,1.12,0.54,1.56,0.95c0.44,0.42,0.79,0.93,1.06,1.54l1.88-0.81C389.2,120.7,388.71,119.97,388.04,119.36z"/>
				<polygon class="st2" points="406.15,127.15 403.89,131.74 398.14,128.89 400.41,124.31 398.35,123.29 392.85,134.4 
					394.91,135.42 397.27,130.66 403.01,133.5 400.66,138.26 402.71,139.27 408.2,128.16 				"/>
				<path class="st2" d="M413.34,142.15l5.22,3.35l-0.52,3.08l2.04,1.31l1.99-13.45l-1.91-1.23l-11.39,7.41l1.98,1.27L413.34,142.15
					z M414.97,141.05l4.89-3.3l-0.98,5.82L414.97,141.05z"/>
				<path class="st2" d="M436.77,155.75c0.74-0.24,1.39-0.71,1.96-1.42c0.58-0.72,0.91-1.47,0.99-2.25
					c0.08-0.78-0.07-1.55-0.46-2.32c-0.39-0.76-1.02-1.49-1.87-2.18l-3.97-3.2l-7.78,9.65l1.79,1.45l2.27-2.81l2.18,1.76
					c0.13,0.1,0.26,0.19,0.39,0.29l-0.31,4.42l1.93,1.56l0.34-4.96c0.06,0.02,0.13,0.05,0.19,0.06
					C435.25,156,436.03,155.99,436.77,155.75z M430.89,151.19l3.1-3.85l2.09,1.69c0.79,0.64,1.25,1.28,1.38,1.94
					c0.13,0.66-0.05,1.29-0.54,1.9c-0.49,0.61-1.07,0.92-1.74,0.94c-0.67,0.02-1.41-0.29-2.2-0.93L430.89,151.19z"/>
				
					<rect x="438.51" y="161.13" transform="matrix(0.6918 -0.722 0.722 0.6918 19.8648 371.1051)" class="st2" width="12.39" height="2.3"/>
				<polygon class="st2" points="449.09,175.68 450.63,177.4 458.41,170.42 461.15,173.47 462.6,172.17 455.57,164.35 
					454.12,165.65 456.87,168.7 				"/>
				<path class="st2" d="M457.8,186l3.04-0.7l3.67,5l-1.59,2.69l1.44,1.96l6.68-11.85l-1.34-1.83l-13.29,2.84L457.8,186z
					 M462.76,184.85l5.75-1.33l-3,5.08L462.76,184.85z"/>
				<path class="st2" d="M471.17,206.12c0.8,1.38,1.66,2.27,2.57,2.67c0.92,0.4,1.83,0.34,2.75-0.19c0.62-0.36,1.06-0.8,1.32-1.32
					c0.26-0.52,0.36-1.08,0.3-1.69c-0.02-0.16-0.07-0.33-0.11-0.49c0.46,0.3,0.96,0.47,1.5,0.5c0.56,0.03,1.12-0.12,1.69-0.45
					c0.85-0.49,1.33-1.22,1.44-2.19c0.12-0.97-0.2-2.09-0.94-3.37l-2.92-5.04l-10.73,6.21L471.17,206.12z M475.54,206.5
					c-0.54,0.31-1.05,0.34-1.53,0.09c-0.48-0.26-0.93-0.75-1.35-1.49l-1.87-3.23l3.1-1.79l1.87,3.23c0.43,0.74,0.63,1.38,0.61,1.92
					C476.35,205.77,476.07,206.19,475.54,206.5z M480.03,200.28c0.4,0.68,0.58,1.29,0.55,1.81c-0.03,0.52-0.29,0.92-0.79,1.21
					c-0.49,0.28-0.97,0.31-1.43,0.07c-0.46-0.24-0.89-0.7-1.29-1.38l-1.63-2.82l2.96-1.71L480.03,200.28z"/>
				<polygon class="st2" points="480.67,225.33 482.45,224.53 479.78,218.62 489.31,214.33 488.36,212.23 477.06,217.32 				"/>
				<polygon class="st2" points="486.25,240.86 488.09,240.23 485.85,233.61 489.07,232.52 490.99,238.19 492.78,237.58 
					490.87,231.91 493.9,230.88 496.06,237.28 497.91,236.65 495.01,228.08 483.27,232.05 				"/>
				<polygon class="st2" points="491.02,260.9 495.71,260.11 496.71,266.01 498.6,265.69 497.6,259.79 501.32,259.16 502.44,265.81 
					504.36,265.49 502.86,256.57 490.63,258.63 				"/>
				<path class="st2" d="M494.37,276.35c-0.89,1.02-1.29,2.37-1.18,4.06c0.11,1.7,0.67,2.99,1.68,3.89c1.01,0.9,2.43,1.29,4.24,1.18
					l6.96-0.44l-0.14-2.26l-6.89,0.44c-1.27,0.08-2.21-0.13-2.83-0.64c-0.61-0.51-0.95-1.26-1.01-2.26c-0.06-1,0.18-1.79,0.72-2.38
					c0.54-0.58,1.45-0.92,2.72-1l6.89-0.44l-0.15-2.3l-6.96,0.44C496.61,274.76,495.26,275.33,494.37,276.35z"/>
				<polygon class="st2" points="506.15,294.99 493.77,294.38 493.66,296.66 502.05,297.07 493.32,303.47 493.23,305.36 
					505.61,305.97 505.72,303.7 497.32,303.29 506.06,296.88 				"/>
				<path class="st2" d="M491.44,319.36c-0.21,1.3-0.15,2.5,0.19,3.59c0.34,1.09,0.92,1.99,1.75,2.7c0.83,0.71,1.85,1.17,3.08,1.37
					c1.22,0.2,2.34,0.1,3.35-0.31c1.01-0.41,1.85-1.07,2.53-2c0.67-0.92,1.12-2.04,1.33-3.34l0.88-5.36l-12.23-2.02L491.44,319.36z
					 M493.38,319.53l0.49-2.95l8.39,1.38l-0.49,2.95c-0.15,0.92-0.46,1.69-0.92,2.3c-0.46,0.61-1.03,1.06-1.71,1.33
					c-0.68,0.28-1.45,0.34-2.31,0.2c-0.84-0.14-1.54-0.45-2.11-0.93c-0.57-0.48-0.97-1.09-1.21-1.81
					C493.27,321.28,493.23,320.45,493.38,319.53z"/>
				<polygon class="st2" points="492.44,346.97 497.06,348.64 497.64,346.85 492.95,345.44 				"/>
				<polygon class="st2" points="491.37,350.22 495.99,351.88 496.58,350.1 491.88,348.69 				"/>
				<path class="st2" d="M480.53,357.7l3.32,1.43l-1.11,2.57c-0.07,0.15-0.12,0.3-0.17,0.45l-4.34,0.88l-0.98,2.28l4.87-1
					c0,0.07-0.01,0.14-0.01,0.2c0.01,0.86,0.23,1.62,0.66,2.26c0.43,0.65,1.06,1.15,1.89,1.51c0.85,0.37,1.66,0.48,2.43,0.36
					c0.78-0.13,1.48-0.48,2.11-1.07c0.63-0.58,1.16-1.38,1.6-2.39l2.02-4.68l-11.38-4.92L480.53,357.7z M489.05,364.31
					c-0.4,0.93-0.9,1.55-1.5,1.85c-0.6,0.3-1.26,0.3-1.97-0.01c-0.72-0.31-1.17-0.79-1.37-1.43c-0.2-0.64-0.09-1.43,0.31-2.37
					l1.07-2.47l4.53,1.96L489.05,364.31z"/>
				<polygon class="st2" points="469.19,380.29 470.89,381.25 474.32,375.15 477.28,376.81 474.35,382.03 476,382.96 478.93,377.74 
					481.73,379.31 478.42,385.19 480.12,386.15 484.55,378.26 473.74,372.19 				"/>
				<polygon class="st2" points="463.65,388.85 470.49,393.73 459.69,394.4 458.59,395.94 468.68,403.14 470,401.29 463.15,396.41 
					473.96,395.73 475.06,394.19 464.97,386.99 				"/>
				<path class="st2" d="M458.35,406.21c-0.67-0.61-1.41-1.05-2.2-1.33c-0.8-0.27-1.61-0.38-2.44-0.32
					c-0.83,0.06-1.64,0.28-2.43,0.68s-1.5,0.95-2.14,1.66c-0.64,0.71-1.12,1.47-1.43,2.28c-0.31,0.81-0.46,1.64-0.43,2.47
					c0.03,0.83,0.22,1.63,0.57,2.39c0.35,0.76,0.87,1.45,1.55,2.07c0.68,0.62,1.42,1.07,2.22,1.34c0.8,0.28,1.61,0.39,2.44,0.33
					c0.82-0.06,1.63-0.28,2.4-0.68c0.78-0.39,1.49-0.95,2.13-1.65c0.65-0.72,1.13-1.49,1.44-2.3c0.31-0.82,0.46-1.64,0.43-2.47
					c-0.02-0.83-0.21-1.63-0.56-2.39C459.55,407.52,459.04,406.83,458.35,406.21z M458.03,412.59c-0.2,0.54-0.51,1.04-0.93,1.51
					c-0.42,0.46-0.88,0.82-1.39,1.07c-0.51,0.25-1.04,0.39-1.6,0.42c-0.55,0.03-1.1-0.05-1.64-0.25c-0.54-0.2-1.04-0.51-1.51-0.94
					c-0.47-0.43-0.83-0.9-1.08-1.42c-0.25-0.52-0.38-1.05-0.41-1.6c-0.03-0.55,0.06-1.09,0.25-1.62c0.19-0.53,0.5-1.03,0.92-1.49
					c0.42-0.46,0.89-0.82,1.41-1.08c0.52-0.26,1.05-0.4,1.61-0.42c0.55-0.02,1.1,0.06,1.65,0.25c0.54,0.19,1.05,0.49,1.51,0.91
					c0.47,0.43,0.83,0.9,1.07,1.42c0.24,0.52,0.37,1.06,0.41,1.61C458.31,411.5,458.23,412.05,458.03,412.59z"/>
				<polygon class="st2" points="435.03,421.05 439.29,433.88 440.99,432.35 437.73,422.45 447.17,426.81 449.02,425.14 
					436.71,419.53 				"/>
				<path class="st2" d="M425.56,428.85l0.68,3.05l-5.03,3.63l-2.67-1.61l-1.97,1.42l11.79,6.78l1.84-1.33l-2.73-13.31
					L425.56,428.85z M426.67,433.81l1.29,5.76l-5.06-3.04L426.67,433.81z"/>
				<polygon class="st2" points="414.27,448.96 409,439.93 407.01,441.09 412.28,450.12 408.73,452.19 409.71,453.87 418.8,448.57 
					417.82,446.89 				"/>
				<polygon class="st2" points="388.69,450.29 389.5,452.06 395.86,449.14 397.28,452.22 391.84,454.72 392.63,456.45 
					398.07,453.95 399.41,456.86 393.28,459.68 394.09,461.45 402.32,457.66 397.14,446.4 				"/>
				<polygon class="st2" points="382.76,460.59 384.28,465.26 386.05,464.63 384.28,460.05 				"/>
				<polygon class="st2" points="379.54,461.74 381.06,466.41 382.83,465.78 381.06,461.2 				"/>
			</g>
			<g>
				<path class="st2" d="M314.29,112.38l-0.08-1.93c2.37-0.1,4.74-0.15,7.04-0.15c2.19,0,4.45,0.05,6.71,0.13l-0.08,1.93
					c-2.24-0.09-4.48-0.13-6.64-0.13C318.97,112.24,316.63,112.28,314.29,112.38z"/>
				<path class="st2" d="M314.29,112.38l-0.08-1.93c2.37-0.1,4.74-0.15,7.04-0.15c2.19,0,4.45,0.05,6.71,0.13l-0.08,1.93
					c-2.24-0.09-4.48-0.13-6.64-0.13C318.97,112.24,316.63,112.28,314.29,112.38z"/>
			</g>
			<path class="st2" d="M248.62,243.66c-1.64,1.72-3.61,4.19-5.2,7.52c-0.48,1.02-0.88,2-1.2,2.93c-1.2-11.29-1.71-28.15,0.38-42.68
				c1.95-13.53,5.71-26.83,11.18-39.54c3.94-9.15,8.79-18.03,14.41-26.41c0.45-0.67,0.35-1.56-0.25-2.1
				c-0.59-0.55-1.48-0.58-2.12-0.08c-12.66,10.07-23.09,23.05-30.16,37.53c-3.3,6.75-5.66,13.37-7.34,19.65c0-0.13,0-0.27,0-0.4
				c-0.08-9.03-2.07-16.72-3.73-21.58c-1.67-4.9-3.85-9.28-5.06-10.19c-0.64-0.48-1.25-0.4-1.55-0.31c-0.44,0.12-0.8,0.41-1.01,0.82
				c-0.41,0.75-0.21,1.4,0.33,3.13c1.03,3.32,3.17,10.22,2.14,18.79c-0.93,7.77-3.99,12.43-7.22,17.36
				c-2.22,3.38-4.51,6.88-6.22,11.5c-2.07,5.62-2.63,11.3-2.38,16.55c-1.04-1.84-2.21-3.71-3.51-5.57
				c-5.82-8.32-13.63-15.2-16.46-15.57c-0.78-0.1-1.3,0.17-1.6,0.43c-0.58,0.49-1.07,1.42-0.13,3.09c0.35,0.62,0.89,1.39,1.58,2.38
				c2.41,3.46,6.89,9.89,9.37,18.89c1.21,4.38,1.25,6.77,1.3,9.8c0.05,3.05,0.11,6.5,1.29,12.76c1.33,7.03,3.18,12.69,4.45,16.52
				c-1.25-1.63-2.81-3.61-4.73-5.69c-5.19-5.64-10.57-9.53-14.16-11.79c-2.46-1.55-7.08-4.15-8.8-4.05
				c-0.76,0.05-1.17,0.47-1.35,0.72c-0.26,0.37-0.37,0.82-0.29,1.27c0.14,0.84,0.71,1.24,2.08,2.2c2.4,1.68,7.38,5.17,11.24,11.41
				c2.68,4.33,3.15,7.3,3.76,11.07c0.55,3.44,1.18,7.34,3.54,13.13c2.83,6.93,7.66,13.74,11.2,18.72c0.92,1.29,1.95,2.75,2.75,3.96
				c-0.08-0.02-0.16-0.04-0.24-0.06c-1.13-0.72-2.64-1.77-4.58-3.29c-3.62-2.85-7.08-6.04-9.03-8.33c-2.78-3.28-3.46-4.96-4.25-6.9
				c-0.81-1.99-1.73-4.25-4.86-8.28c-0.71-0.91-1.45-1.89-2.25-2.93c-5.96-7.82-8.09-10.28-9.85-10.45
				c-0.56-0.06-1.1,0.11-1.51,0.47c-1.38,1.22-0.47,3.15-0.12,3.88c0.51,1.07,1.34,2.45,2.3,4.04c1.73,2.85,3.88,6.41,5.62,10.5
				c4.35,10.27,4.85,15.23,5.44,20.98c0.38,3.73,0.81,7.97,2.37,14.1c3.82,14.95,14,27.12,20.74,35.17
				c1.83,2.19,3.42,4.08,4.51,5.61c0.79,1.1,1.16,1.79,1.33,2.19c-0.4-0.02-0.94-0.06-1.5-0.1c-1.39-0.11-3.49-0.27-6.51-0.33
				c-1.9-0.04-5.44-0.11-8.59,0.03c-4.55,0.2-7.07,0.68-7.42,2.6c-0.06,0.34-0.11,1.21,0.75,1.98c0.3,0.26,0.68,0.5,1.21,0.75
				c0.8,0.38,1.88,0.75,3.25,1.23c2.68,0.94,6.36,2.22,9.98,4.27c7.73,4.39,10.88,8.51,14.54,13.28c1.26,1.64,2.55,3.32,4.08,5.11
				c4.04,5.06,3.96,4.28,4.27,4.13c0.71-0.35,0.13-2.67-0.05-3.26c-0.13-0.44-0.26-0.9-0.39-1.37l0.03-0.02
				c-0.02-0.02-0.03-0.03-0.05-0.05c-5.75-20.84-9.97-70.66-11.19-74.56c-0.03-0.08-0.27-1.08-0.11-0.89c0,0,0.62,0.55,2.05,2.3
				c0.08,0.1,0.22,0.34,0.33,0.55c0.25,0.48,0.79,1.85,0.81,1.91c0.42,1.65,6.81,32,10.35,53.59c0.27,1.62,0.43,2.75,0.6,4.03
				c1.4,11.03,1.23,17.83,1.19,18.76c-0.04,0.85-0.2,2.43-0.17,2.6l2,1.11c2.2,1.24,8.46,4.53,8.46,4.53l-0.14-0.43
				c-0.49-1.49-0.9-3-1.24-4.53c-0.6-2.75-1.83-7.87-1.98-8.64c-0.19-0.96-5.51-37.02-8.42-52.36c-0.57-2.99-1.05-6.56-3.53-20.01
				c-0.01-0.06-0.25-0.44-0.16-0.89c0.06-0.29,0.22-0.48,0.25-0.51c2.92-3.65,2.86-14.81,2.86-14.81
				c-0.09-14.51-1.49-22.17-1.49-22.17c-3.84-20.98-11.03-36.95-13.88-42.96c-0.81-1.7-1.62-3.33-2.43-4.9
				c-0.06-0.16-0.15-0.41-0.21-0.57c-0.27-1.15-0.52-2.35-0.74-3.6c-1.37-7.91-0.86-15.17,1.5-21.56c1.58-4.28,3.77-7.62,5.89-10.85
				c3.29-5.03,6.7-10.22,7.72-18.75c0.3-2.52,0.35-4.91,0.23-7.14c1.22,4.59,2.18,10.11,2.23,16.12
				c0.09,10.49-2.56,18.98-3.99,23.54c-0.11,0.35-0.21,0.68-0.3,0.98c-0.25,0.76-0.42,1.35-0.5,1.76c-0.01,0.04-0.02,0.09-0.02,0.13
				c-0.02,0.11-0.04,0.21-0.05,0.3c-1.24,7.14,0.52,16.86,3.02,28c2.43,10.82,3,21.99,4.99,32.91c1.67,9.16,1.89,12.11,9.65,89.49
				c0.65,6.51,1.87,11.94,1.98,19.77c0.05,3.67,0.12,21.29,0.01,21.77l-0.07,0.37l0.75,0.2c0,0,14.09,3.53,17.18,4.16l1.11-26.47
				c-1.99,3.44-4,7.15-5.96,11.11c-1.49,3.01-2.84,5.94-4.07,8.77c-0.25-6.43-0.54-12.92-0.88-19.45c-1.01-19.33-2.42-38-4.13-56.35
				c0.26,0.32,0.52,0.65,0.78,0.99c1.48,1.95,2.78,4.35,3.95,6.5c1.92,3.52,3.96,6.81,5.77,10.52c-0.16-5.14-0.64-10.93-0.8-16.08
				c-2.33-0.83-4.65-0.96-6.98-1.84c-1.09-1.44-1.93-2.56-3.02-4c-1.43-17.12-2.61-31.19-3.55-48.34
				c-0.44-8.07-1.01-17.89-1.66-26.26l1.96,6.26c2.64,7.46,5.37,16.37,7.59,23.97c2.52,8.66,4.34,16.66,6.64,25.07
				c-0.05-5.91,0.03-20.74,0.07-28.1c-5.76-8.66-8.98-18.52-8.98-29.06C245.62,254.83,246.68,249.09,248.62,243.66z M194.17,295.92
				c-2.22-5.45-2.82-9.15-3.34-12.42c-0.63-3.95-1.18-7.37-4.2-12.25c-0.92-1.49-1.9-2.83-2.89-4.04c2.93,2.2,6.08,4.93,9.05,8.16
				c0.1,0.1,0.19,0.21,0.29,0.31c1.94,3.17,3.25,6.69,3.85,10.37c0.07,0.56,0.15,1.14,0.24,1.73l0,0v0
				c0.92,6.53,2.39,14.71,4.04,20.75C198.62,304.67,195.95,300.28,194.17,295.92z M207.38,366.64
				c-6.55-7.83-16.45-19.65-20.09-33.89c-1.51-5.9-1.9-9.83-2.29-13.62c-0.58-5.76-1.14-11.19-5.68-21.91
				c-1.24-2.94-2.71-5.64-4.06-7.95c0.75,0.97,1.47,1.92,2.09,2.73c0.8,1.05,1.55,2.04,2.27,2.96c2.86,3.68,3.66,5.63,4.42,7.52
				c0.86,2.11,1.67,4.1,4.78,7.77c1.99,2.34,5.39,5.51,9,8.38c3.43,3.43,6.65,8.02,7.55,11.98l2.41,11.03
				c1.51,10.09,2.91,21.85,3.87,30.28C210.54,370.41,209.09,368.68,207.38,366.64z M212.6,380.59l-0.08,3.83
				c0.09,2.05-1.59,3.44-5.23,2.07c-1.14-0.78-2.39-1.56-3.78-2.35c-3.87-2.2-7.71-3.54-10.51-4.52c-0.17-0.06-0.35-0.12-0.52-0.18
				c0.73-0.06,1.62-0.11,2.73-0.15c2.81-0.09,5.84-0.03,7.47,0.01c2.92,0.06,4.89,0.21,6.32,0.32c1.56,0.12,2.67,0.2,3.5-0.1
				C212.53,379.87,212.57,380.23,212.6,380.59L212.6,380.59z M210.64,267.21c1.83,8.87,2.89,12.74,3.39,16.18
				c0.85,5.84,0.53,4.71,1.68,13.02c0.81,5.83,1.68,11.45,2.19,17.52c0.14,1.7,0.48,5.79,0.02,10.8c-0.07,0.79-0.31,1.41-0.42,1.82
				c-1.21-0.49-3.46-1.4-4.67-1.9c-4.26-28.7-8.53-55.79-12.79-84.49c0.99,1.34,3.46,5.05,4.7,7.71
				C206.45,251.56,208.19,255.38,210.64,267.21z M239.41,210.98c-1.93,13.37-1.69,28.65-0.73,39.95c0,0.19,0.02,0.8,0.1,1.77
				c-1.93-2.59-4.05-5.86-5.99-9.81c-4.73-9.62-5.41-24.88-1.55-40.8c1.64-6.32,3.99-13.01,7.32-19.83
				c5.28-10.81,12.48-20.75,21.11-29.21c-3.31,5.7-6.27,11.58-8.85,17.57C245.24,183.59,241.4,197.17,239.41,210.98z"/>
			<path class="st2" d="M287.37,336.31l0.43,85.48c-2.4-15.88-3.68-30.64-6.14-46.51c-3.02-19.57-5.6-39.7-8.69-60.32
				c-0.18-2.68,0.9-4.4,2.74-5.15c-6.45-3.95-12.09-8.73-16.69-14.13c0.35,2.55,0.7,5.1,1.09,8.05
				c0.99,31.57,1.71,67.64,2.64,100.06c0.19,6.71-0.17,13.41-1.09,20.06l-0.33,2.41c0.79,0.98,1.99,1.83,2.96,2.87
				c1.17,1.25,4.35,3.41,5.46,4.41c-0.3-1.96-0.72-4.02-1.18-6.12c-1.77-8.07-2.71-16.3-3.01-24.56c-1.09-29.91-2.19-59-3.16-89
				c6.64,43.25,12.24,85.5,18.88,128.75c1.92,1.01,3.98,2.01,6.2,2.98c1.63,0.71,3.22,1.36,4.75,1.94l-2-16.71l-0.29-89.94
				c-0.01-3.07,0.32-7.2,0.85-10.22c0.23-1.34,0.68-3.58,1.03-4.74c0.78-2.6,1.57-5.35,4.62-7.14c-3.46-0.97-6.8-2.14-10.02-3.49
				C286.99,323.74,287.37,336.31,287.37,336.31z"/>
			<g>
				<path class="st2" d="M349.2,325.68c0.43,2.53,0.66,5.25,0.52,7.8c-1.89,34.04-4.14,63.87-7.28,97.93
					c-0.54,5.88-1.16,10.68-1.95,16.45c1.46-0.58,5.09-1.97,6.55-2.55c-0.28-5.11-0.88-9.68-1.16-14.8
					c0.87-9.64,1.36-17.55,2.23-27.2c3.25-7.07,6.62-13.03,9.87-20.1c0.28,14.05,0.5,26.35,0.78,40.41
					c-0.2,6.13-0.34,11.63-0.54,17.76c2.46-0.75,5.46-2.05,8.16-3.41c2.19-1.1,5.39-2.71,7.34-4.16c-1.54-0.17-3.11-3.02-3.4-4.5
					c-0.04-0.19-0.07-0.38-0.11-0.58c-1.48-7.69-1.92-15.51-2.21-23.33c-0.44-12.06-0.48-23.7-0.59-30.62
					c-0.33-21.99-0.23-30.5-0.7-47.92c-0.18-6.69,0.26-12.55,0.87-17.86c-6.14,3.93-13.04,7.1-20.5,9.34
					C348.54,320.7,348.96,324.46,349.2,325.68z M353.09,325.87c0,0,2.29,10.92,4.68,53.29c-3.06,6.67-6.75,12.99-9.81,19.65
					c1.3-10.27,1.98-25.21,3.1-43.95C352.1,337.6,353.09,325.87,353.09,325.87z"/>
				<path class="st2" d="M473.61,280.05c-0.41-0.36-0.95-0.53-1.51-0.47c-1.75,0.17-3.89,2.64-9.85,10.45
					c-0.79,1.04-1.54,2.02-2.25,2.93c-3.14,4.03-4.05,6.29-4.86,8.28c-0.79,1.94-1.47,3.62-4.25,6.9c-1.87,2.2-5.22,5.04-8.97,7.58
					c-2.13,1.44-3.81,2.4-5.02,3c0.72-0.99,1.64-2.17,2.46-3.22c3.66-4.7,8.68-11.14,11.63-18.36c2.36-5.79,2.99-9.69,3.54-13.13
					c0.6-3.76,1.08-6.73,3.76-11.07c3.86-6.24,8.84-9.74,11.24-11.41c1.37-0.96,1.93-1.35,2.08-2.2c0.08-0.45-0.03-0.9-0.29-1.27
					c-0.18-0.25-0.59-0.67-1.35-0.72c-1.71-0.1-6.34,2.49-8.8,4.05c-3.6,2.27-8.98,6.15-14.16,11.79c-1.92,2.09-3.48,4.06-4.73,5.69
					c1.26-3.82,3.11-9.48,4.45-16.52c1.19-6.26,1.24-9.71,1.29-12.76c0.05-3.03,0.09-5.42,1.3-9.8c2.48-8.99,6.96-15.43,9.37-18.89
					c0.69-0.99,1.23-1.76,1.58-2.38c0.95-1.67,0.46-2.6-0.13-3.09c-0.3-0.25-0.82-0.53-1.6-0.43c-2.83,0.37-10.64,7.26-16.46,15.57
					c-1.19,1.7-2.25,3.35-3.18,4.92c0.08-4.77-0.6-10.17-2.72-15.9c-1.71-4.62-4-8.12-6.22-11.5c-3.23-4.93-6.29-9.59-7.22-17.36
					c-1.03-8.56,1.11-15.47,2.14-18.79c0.54-1.73,0.74-2.38,0.33-3.13c-0.22-0.4-0.58-0.69-1.01-0.82
					c-0.31-0.09-0.92-0.16-1.55,0.31c-1.21,0.9-3.39,5.28-5.06,10.19c-1.66,4.86-3.65,12.54-3.73,21.58c0,0.26,0,0.53-0.01,0.79
					c-1.68-6.4-4.08-13.15-7.44-20.04c-7.07-14.48-17.51-27.46-30.16-37.53c-0.63-0.5-1.52-0.47-2.12,0.08
					c-0.59,0.55-0.7,1.43-0.25,2.11c5.62,8.37,10.47,17.26,14.41,26.4c5.47,12.71,9.23,26.01,11.18,39.54
					c1.94,13.48,1.64,28.97,0.63,40.15c-0.05,0.29-0.12,0.71-0.23,1.24c-0.34-0.66-0.77-1.43-1.31-2.4c-1.6-2.88-3.87-5.2-5.14-6.87
					c0,0,0,0,0,0c0.35,0.97,0.66,1.94,0.95,2.92c0,0,0,0,0,0c1.09,3.72,1.78,7.57,1.99,11.51v0c0.05,0.92,0.09,1.85,0.09,2.78
					c0,1.05-0.03,2.1-0.1,3.14c0,0,0,0,0,0c-0.1,1.6-0.3,3.17-0.54,4.74c0,0,0,0,0,0.01c-0.07,0.47-0.13,0.93-0.22,1.4v0
					c-0.12,0.63-0.27,1.26-0.41,1.88c0,0,0,0,0,0c-0.03,0.12-0.05,0.23-0.08,0.35c-0.22,0.95-0.47,1.89-0.75,2.82c0,0,0,0.01,0,0.01
					c-0.04,0.15-0.09,0.3-0.13,0.45c-0.3,0.98-0.62,1.95-0.98,2.91c-0.04,0.13-0.09,0.26-0.14,0.39c0,0,0,0,0,0
					c-0.3,0.79-0.63,1.56-0.96,2.34c0,0,0,0.01,0,0.01c-0.04,0.1-0.08,0.19-0.12,0.29c-1.24,2.82-2.73,5.54-4.45,8.15c0,0,0,0,0,0
					c-0.01,0.01-0.02,0.03-0.03,0.04c-3.65,5.54-8.32,10.57-13.81,14.93c0.6,10.26,0.34,31.81,0.65,35.67
					c3.31-10.33,9.59-32.86,13.57-41.78l0.07-0.09c0.75,46.49-0.28,51.22-2.33,87.01c-0.27,4.76-2.1,23-2.97,27.69
					c-1.03,5.54-1.31,9.3-5.23,18.86l3.64-2.62c1.57-1.12,2.87-2.27,4.27-3.59c1.14-1.08,1.83-1.82,3.82-2.51c0,0,0,0,0.01,0
					c1.19-0.45,2.4-0.83,3.64-1.13c0.61-0.15,1.31-0.31,2.02-0.48c-0.25-6.91-0.5-13.83-0.75-20.74
					c3.19-48.22,4.85-92.8,8.07-140.95c0.28-4.2,1.4-12.07,5.49-5.78c3.17,5.5,6.05,10.35,7.33,25.37
					c0.97,13.73,0.74,23.83,0.55,31.45c-0.2,8.05-0.17,32.38-8.07,83.89c-1.61,10.5-2.26,14.56-7.87,25.35
					c3.7-1.16,8.79-3.48,10.87-4.74c3.18-1.92,5.37-3.85,6.32-4.73c2.49-2.31,4.04-4.36,5.42-6.2c0.84-1.12,1.39-1.94,1.81-2.62
					c4.33-5.49,8.54-10.68,16.19-15.02c3.62-2.06,7.29-3.34,9.98-4.27c1.37-0.48,2.44-0.85,3.25-1.23c0.56-0.26,2.26-1.06,1.96-2.73
					c-0.35-1.93-2.88-2.4-7.42-2.6c-3.15-0.14-6.69-0.07-8.59-0.03c-3.02,0.06-5.11,0.22-6.5,0.33c-0.59,0.05-1.17,0.09-1.58,0.1
					c0.13-0.4,0.46-1.13,1.26-2.37c1.04-1.61,2.58-3.64,4.36-5.99c6.09-8.03,15.3-20.16,19.04-34.81c1.26-4.95,1.98-8.57,2.61-11.77
					c1.32-6.68,2.28-11.5,7.19-23.1c1.73-4.09,3.89-7.64,5.62-10.5c0.96-1.59,1.8-2.97,2.3-4.04
					C474.08,283.2,474.99,281.26,473.61,280.05z M409.69,215.11c-1.16,11.37-2.21,20.02-6.06,32.78
					c0.75-10.91,0.79-24.71-0.97-36.91c-1.99-13.81-5.83-27.39-11.41-40.35c-2.58-5.99-5.54-11.87-8.85-17.57
					c8.63,8.46,15.84,18.4,21.11,29.21c1.18,2.42,2.24,4.82,3.18,7.19c-0.1-0.12-0.19-0.24-0.29-0.36
					C410.59,199.22,410.05,211.55,409.69,215.11z M438.91,261.95c0.02,0.03,0.04,0.06,0.07,0.08c2.36,3.03,1.2,10.74,0.78,14.16
					c-0.23,0.71-0.45,1.36-0.65,1.97c-0.57,1.73-1.02,3.09-1.27,4.11c-0.18,0.74-0.65,2.71,0.9,3.48c1.44,0.72,2.66-0.61,3.06-1.05
					c0.57-0.62,1.23-1.5,2.08-2.62c1.33-1.76,3.15-4.17,5.49-6.72c2.98-3.24,6.13-5.96,9.05-8.16c-0.99,1.21-1.96,2.55-2.89,4.04
					c-3.02,4.88-3.56,8.3-4.2,12.25c-0.52,3.27-1.12,6.97-3.34,12.42c-2.78,6.81-5.39,10.84-8.94,15.39
					c-0.46,0.59-0.9,1.16-1.31,1.69c-1.18,1.41-2.99,4.17-3.75,5.6c-0.86,1.63-2.05,4.48-4.4,5.86l0,0l-3.09,1.41l3.23-66.89
					C430.09,255.6,436.8,259.29,438.91,261.95z M419.61,231.91c-0.02-0.34-0.06-0.73-0.12-1.16c-1.27-9.22-2.48-18.17-2.44-27.48
					c0-1.04,0.01-2.09,0.02-3.15c0.05-6.01,1.01-11.53,2.23-16.12c-0.12,2.22-0.07,4.62,0.23,7.14c1.02,8.52,4.43,13.72,7.72,18.75
					c2.12,3.23,4.31,6.57,5.89,10.85c1.96,5.3,2.59,10.3,2.51,14.73c-0.1,5.77-1.74,11.46-5.09,16.16
					c-1.31,1.84-2.65,3.24-3.75,4.04c-2.55,1.87-7.34,3.51-9.79,2.98C410.55,256.83,420.47,250.1,419.61,231.91z M462.85,297.21
					c-5.04,11.9-6.02,16.86-7.39,23.73c-0.63,3.16-1.33,6.73-2.58,11.6c-3.58,14.02-12.55,25.84-18.49,33.66
					c-2.89,3.8-5,6.59-5.9,8.75c-1,1.72-1.99,3.67-2.44,4.76c-2.83,7.43-4.48,15.43-7.32,22.86c3.17-26.54,5.68-47.16,7.57-74.24
					c2.91-0.62,5.9,0.08,8.65,1.23l5.52,2.32c0,0-0.18-5.5-0.1-7.63c0.09-2.59,1.96-4.74,4.05-6.33c3.69-2.57,6.99-5.41,8.92-7.68
					c3.11-3.67,3.92-5.66,4.78-7.77c0.77-1.89,1.56-3.84,4.42-7.52c0.71-0.92,1.47-1.91,2.27-2.96c0.62-0.81,1.34-1.76,2.09-2.73
					C465.56,291.56,464.09,294.27,462.85,297.21z"/>
			</g>
		</g>
	</g>
	<rect class="st4" width="480" height="400"/>
</g>
</svg>
