<?xml version="1.0"?>

<svg xmlns="http://www.w3.org/2000/svg" xmlns:xlink="http://www.w3.org/1999/xlink" version="1.1" viewBox="0 0 1399 1399">
<g transform="scale(2.732421875)">
<polygon stroke="none" points="160,32 32,32 32,160 0,160 0,0 160,0 " fill="#ffe600"/>
<polygon stroke="none" points="480,160 480,32 352,32 352,0 512,0 512,160" fill="#ffe600"/>
<polygon stroke="none" points="352,480 480,480 480,352 512,352 512,512 352,512" fill="#ffe600"/>
<polygon stroke="none" points="32,352 32,480 160,480 160,512 0,512 0,352" fill="#ffe600"/>
</g>
<g transform="translate(116,116)">
<defs/>
<rect x="46" y="46" width="29" height="29" fill="#001e5a"/>
<rect x="75" y="46" width="29" height="29" fill="#001e5a"/>
<rect x="104" y="46" width="29" height="29" fill="#001e5a"/>
<rect x="133" y="46" width="29" height="29" fill="#001e5a"/>
<rect x="162" y="46" width="29" height="29" fill="#001e5a"/>
<rect x="191" y="46" width="29" height="29" fill="#001e5a"/>
<rect x="220" y="46" width="29" height="29" fill="#001e5a"/>
<rect x="394" y="46" width="29" height="29" fill="#001e5a"/>
<rect x="481" y="46" width="29" height="29" fill="#001e5a"/>
<rect x="539" y="46" width="29" height="29" fill="#001e5a"/>
<rect x="655" y="46" width="29" height="29" fill="#001e5a"/>
<rect x="684" y="46" width="29" height="29" fill="#001e5a"/>
<rect x="713" y="46" width="29" height="29" fill="#001e5a"/>
<rect x="800" y="46" width="29" height="29" fill="#001e5a"/>
<rect x="858" y="46" width="29" height="29" fill="#001e5a"/>
<rect x="916" y="46" width="29" height="29" fill="#001e5a"/>
<rect x="945" y="46" width="29" height="29" fill="#001e5a"/>
<rect x="974" y="46" width="29" height="29" fill="#001e5a"/>
<rect x="1003" y="46" width="29" height="29" fill="#001e5a"/>
<rect x="1032" y="46" width="29" height="29" fill="#001e5a"/>
<rect x="1061" y="46" width="29" height="29" fill="#001e5a"/>
<rect x="1090" y="46" width="29" height="29" fill="#001e5a"/>
<rect x="46" y="75" width="29" height="29" fill="#001e5a"/>
<rect x="220" y="75" width="29" height="29" fill="#001e5a"/>
<rect x="336" y="75" width="29" height="29" fill="#001e5a"/>
<rect x="365" y="75" width="29" height="29" fill="#001e5a"/>
<rect x="539" y="75" width="29" height="29" fill="#001e5a"/>
<rect x="568" y="75" width="29" height="29" fill="#001e5a"/>
<rect x="626" y="75" width="29" height="29" fill="#001e5a"/>
<rect x="655" y="75" width="29" height="29" fill="#001e5a"/>
<rect x="684" y="75" width="29" height="29" fill="#001e5a"/>
<rect x="713" y="75" width="29" height="29" fill="#001e5a"/>
<rect x="742" y="75" width="29" height="29" fill="#001e5a"/>
<rect x="771" y="75" width="29" height="29" fill="#001e5a"/>
<rect x="829" y="75" width="29" height="29" fill="#001e5a"/>
<rect x="916" y="75" width="29" height="29" fill="#001e5a"/>
<rect x="1090" y="75" width="29" height="29" fill="#001e5a"/>
<rect x="46" y="104" width="29" height="29" fill="#001e5a"/>
<rect x="104" y="104" width="29" height="29" fill="#001e5a"/>
<rect x="133" y="104" width="29" height="29" fill="#001e5a"/>
<rect x="162" y="104" width="29" height="29" fill="#001e5a"/>
<rect x="220" y="104" width="29" height="29" fill="#001e5a"/>
<rect x="423" y="104" width="29" height="29" fill="#001e5a"/>
<rect x="452" y="104" width="29" height="29" fill="#001e5a"/>
<rect x="568" y="104" width="29" height="29" fill="#001e5a"/>
<rect x="597" y="104" width="29" height="29" fill="#001e5a"/>
<rect x="626" y="104" width="29" height="29" fill="#001e5a"/>
<rect x="742" y="104" width="29" height="29" fill="#001e5a"/>
<rect x="771" y="104" width="29" height="29" fill="#001e5a"/>
<rect x="800" y="104" width="29" height="29" fill="#001e5a"/>
<rect x="829" y="104" width="29" height="29" fill="#001e5a"/>
<rect x="916" y="104" width="29" height="29" fill="#001e5a"/>
<rect x="974" y="104" width="29" height="29" fill="#001e5a"/>
<rect x="1003" y="104" width="29" height="29" fill="#001e5a"/>
<rect x="1032" y="104" width="29" height="29" fill="#001e5a"/>
<rect x="1090" y="104" width="29" height="29" fill="#001e5a"/>
<rect x="46" y="133" width="29" height="29" fill="#001e5a"/>
<rect x="104" y="133" width="29" height="29" fill="#001e5a"/>
<rect x="133" y="133" width="29" height="29" fill="#001e5a"/>
<rect x="162" y="133" width="29" height="29" fill="#001e5a"/>
<rect x="220" y="133" width="29" height="29" fill="#001e5a"/>
<rect x="307" y="133" width="29" height="29" fill="#001e5a"/>
<rect x="336" y="133" width="29" height="29" fill="#001e5a"/>
<rect x="394" y="133" width="29" height="29" fill="#001e5a"/>
<rect x="452" y="133" width="29" height="29" fill="#001e5a"/>
<rect x="481" y="133" width="29" height="29" fill="#001e5a"/>
<rect x="597" y="133" width="29" height="29" fill="#001e5a"/>
<rect x="684" y="133" width="29" height="29" fill="#001e5a"/>
<rect x="742" y="133" width="29" height="29" fill="#001e5a"/>
<rect x="771" y="133" width="29" height="29" fill="#001e5a"/>
<rect x="829" y="133" width="29" height="29" fill="#001e5a"/>
<rect x="916" y="133" width="29" height="29" fill="#001e5a"/>
<rect x="974" y="133" width="29" height="29" fill="#001e5a"/>
<rect x="1003" y="133" width="29" height="29" fill="#001e5a"/>
<rect x="1032" y="133" width="29" height="29" fill="#001e5a"/>
<rect x="1090" y="133" width="29" height="29" fill="#001e5a"/>
<rect x="46" y="162" width="29" height="29" fill="#001e5a"/>
<rect x="104" y="162" width="29" height="29" fill="#001e5a"/>
<rect x="133" y="162" width="29" height="29" fill="#001e5a"/>
<rect x="162" y="162" width="29" height="29" fill="#001e5a"/>
<rect x="220" y="162" width="29" height="29" fill="#001e5a"/>
<rect x="278" y="162" width="29" height="29" fill="#001e5a"/>
<rect x="365" y="162" width="29" height="29" fill="#001e5a"/>
<rect x="394" y="162" width="29" height="29" fill="#001e5a"/>
<rect x="539" y="162" width="29" height="29" fill="#001e5a"/>
<rect x="568" y="162" width="29" height="29" fill="#001e5a"/>
<rect x="800" y="162" width="29" height="29" fill="#001e5a"/>
<rect x="829" y="162" width="29" height="29" fill="#001e5a"/>
<rect x="916" y="162" width="29" height="29" fill="#001e5a"/>
<rect x="974" y="162" width="29" height="29" fill="#001e5a"/>
<rect x="1003" y="162" width="29" height="29" fill="#001e5a"/>
<rect x="1032" y="162" width="29" height="29" fill="#001e5a"/>
<rect x="1090" y="162" width="29" height="29" fill="#001e5a"/>
<rect x="46" y="191" width="29" height="29" fill="#001e5a"/>
<rect x="220" y="191" width="29" height="29" fill="#001e5a"/>
<rect x="307" y="191" width="29" height="29" fill="#001e5a"/>
<rect x="336" y="191" width="29" height="29" fill="#001e5a"/>
<rect x="365" y="191" width="29" height="29" fill="#001e5a"/>
<rect x="394" y="191" width="29" height="29" fill="#001e5a"/>
<rect x="481" y="191" width="29" height="29" fill="#001e5a"/>
<rect x="510" y="191" width="29" height="29" fill="#001e5a"/>
<rect x="539" y="191" width="29" height="29" fill="#001e5a"/>
<rect x="568" y="191" width="29" height="29" fill="#001e5a"/>
<rect x="626" y="191" width="29" height="29" fill="#001e5a"/>
<rect x="655" y="191" width="29" height="29" fill="#001e5a"/>
<rect x="771" y="191" width="29" height="29" fill="#001e5a"/>
<rect x="829" y="191" width="29" height="29" fill="#001e5a"/>
<rect x="916" y="191" width="29" height="29" fill="#001e5a"/>
<rect x="1090" y="191" width="29" height="29" fill="#001e5a"/>
<rect x="46" y="220" width="29" height="29" fill="#001e5a"/>
<rect x="75" y="220" width="29" height="29" fill="#001e5a"/>
<rect x="104" y="220" width="29" height="29" fill="#001e5a"/>
<rect x="133" y="220" width="29" height="29" fill="#001e5a"/>
<rect x="162" y="220" width="29" height="29" fill="#001e5a"/>
<rect x="191" y="220" width="29" height="29" fill="#001e5a"/>
<rect x="220" y="220" width="29" height="29" fill="#001e5a"/>
<rect x="278" y="220" width="29" height="29" fill="#001e5a"/>
<rect x="336" y="220" width="29" height="29" fill="#001e5a"/>
<rect x="394" y="220" width="29" height="29" fill="#001e5a"/>
<rect x="452" y="220" width="29" height="29" fill="#001e5a"/>
<rect x="510" y="220" width="29" height="29" fill="#001e5a"/>
<rect x="568" y="220" width="29" height="29" fill="#001e5a"/>
<rect x="626" y="220" width="29" height="29" fill="#001e5a"/>
<rect x="684" y="220" width="29" height="29" fill="#001e5a"/>
<rect x="742" y="220" width="29" height="29" fill="#001e5a"/>
<rect x="800" y="220" width="29" height="29" fill="#001e5a"/>
<rect x="858" y="220" width="29" height="29" fill="#001e5a"/>
<rect x="916" y="220" width="29" height="29" fill="#001e5a"/>
<rect x="945" y="220" width="29" height="29" fill="#001e5a"/>
<rect x="974" y="220" width="29" height="29" fill="#001e5a"/>
<rect x="1003" y="220" width="29" height="29" fill="#001e5a"/>
<rect x="1032" y="220" width="29" height="29" fill="#001e5a"/>
<rect x="1061" y="220" width="29" height="29" fill="#001e5a"/>
<rect x="1090" y="220" width="29" height="29" fill="#001e5a"/>
<rect x="278" y="249" width="29" height="29" fill="#001e5a"/>
<rect x="336" y="249" width="29" height="29" fill="#001e5a"/>
<rect x="365" y="249" width="29" height="29" fill="#001e5a"/>
<rect x="423" y="249" width="29" height="29" fill="#001e5a"/>
<rect x="481" y="249" width="29" height="29" fill="#001e5a"/>
<rect x="568" y="249" width="29" height="29" fill="#001e5a"/>
<rect x="626" y="249" width="29" height="29" fill="#001e5a"/>
<rect x="655" y="249" width="29" height="29" fill="#001e5a"/>
<rect x="713" y="249" width="29" height="29" fill="#001e5a"/>
<rect x="742" y="249" width="29" height="29" fill="#001e5a"/>
<rect x="800" y="249" width="29" height="29" fill="#001e5a"/>
<rect x="829" y="249" width="29" height="29" fill="#001e5a"/>
<rect x="104" y="278" width="29" height="29" fill="#001e5a"/>
<rect x="133" y="278" width="29" height="29" fill="#001e5a"/>
<rect x="220" y="278" width="29" height="29" fill="#001e5a"/>
<rect x="249" y="278" width="29" height="29" fill="#001e5a"/>
<rect x="278" y="278" width="29" height="29" fill="#001e5a"/>
<rect x="394" y="278" width="29" height="29" fill="#001e5a"/>
<rect x="452" y="278" width="29" height="29" fill="#001e5a"/>
<rect x="539" y="278" width="29" height="29" fill="#001e5a"/>
<rect x="597" y="278" width="29" height="29" fill="#001e5a"/>
<rect x="771" y="278" width="29" height="29" fill="#001e5a"/>
<rect x="858" y="278" width="29" height="29" fill="#001e5a"/>
<rect x="887" y="278" width="29" height="29" fill="#001e5a"/>
<rect x="916" y="278" width="29" height="29" fill="#001e5a"/>
<rect x="974" y="278" width="29" height="29" fill="#001e5a"/>
<rect x="46" y="307" width="29" height="29" fill="#001e5a"/>
<rect x="75" y="307" width="29" height="29" fill="#001e5a"/>
<rect x="162" y="307" width="29" height="29" fill="#001e5a"/>
<rect x="191" y="307" width="29" height="29" fill="#001e5a"/>
<rect x="249" y="307" width="29" height="29" fill="#001e5a"/>
<rect x="278" y="307" width="29" height="29" fill="#001e5a"/>
<rect x="307" y="307" width="29" height="29" fill="#001e5a"/>
<rect x="336" y="307" width="29" height="29" fill="#001e5a"/>
<rect x="365" y="307" width="29" height="29" fill="#001e5a"/>
<rect x="423" y="307" width="29" height="29" fill="#001e5a"/>
<rect x="568" y="307" width="29" height="29" fill="#001e5a"/>
<rect x="684" y="307" width="29" height="29" fill="#001e5a"/>
<rect x="742" y="307" width="29" height="29" fill="#001e5a"/>
<rect x="916" y="307" width="29" height="29" fill="#001e5a"/>
<rect x="945" y="307" width="29" height="29" fill="#001e5a"/>
<rect x="974" y="307" width="29" height="29" fill="#001e5a"/>
<rect x="1061" y="307" width="29" height="29" fill="#001e5a"/>
<rect x="104" y="336" width="29" height="29" fill="#001e5a"/>
<rect x="220" y="336" width="29" height="29" fill="#001e5a"/>
<rect x="365" y="336" width="29" height="29" fill="#001e5a"/>
<rect x="394" y="336" width="29" height="29" fill="#001e5a"/>
<rect x="481" y="336" width="29" height="29" fill="#001e5a"/>
<rect x="510" y="336" width="29" height="29" fill="#001e5a"/>
<rect x="539" y="336" width="29" height="29" fill="#001e5a"/>
<rect x="568" y="336" width="29" height="29" fill="#001e5a"/>
<rect x="684" y="336" width="29" height="29" fill="#001e5a"/>
<rect x="742" y="336" width="29" height="29" fill="#001e5a"/>
<rect x="771" y="336" width="29" height="29" fill="#001e5a"/>
<rect x="800" y="336" width="29" height="29" fill="#001e5a"/>
<rect x="974" y="336" width="29" height="29" fill="#001e5a"/>
<rect x="1032" y="336" width="29" height="29" fill="#001e5a"/>
<rect x="1061" y="336" width="29" height="29" fill="#001e5a"/>
<rect x="1090" y="336" width="29" height="29" fill="#001e5a"/>
<rect x="75" y="365" width="29" height="29" fill="#001e5a"/>
<rect x="104" y="365" width="29" height="29" fill="#001e5a"/>
<rect x="278" y="365" width="29" height="29" fill="#001e5a"/>
<rect x="307" y="365" width="29" height="29" fill="#001e5a"/>
<rect x="336" y="365" width="29" height="29" fill="#001e5a"/>
<rect x="365" y="365" width="29" height="29" fill="#001e5a"/>
<rect x="394" y="365" width="29" height="29" fill="#001e5a"/>
<rect x="423" y="365" width="29" height="29" fill="#001e5a"/>
<rect x="481" y="365" width="29" height="29" fill="#001e5a"/>
<rect x="510" y="365" width="29" height="29" fill="#001e5a"/>
<rect x="568" y="365" width="29" height="29" fill="#001e5a"/>
<rect x="684" y="365" width="29" height="29" fill="#001e5a"/>
<rect x="887" y="365" width="29" height="29" fill="#001e5a"/>
<rect x="916" y="365" width="29" height="29" fill="#001e5a"/>
<rect x="1003" y="365" width="29" height="29" fill="#001e5a"/>
<rect x="1032" y="365" width="29" height="29" fill="#001e5a"/>
<rect x="1090" y="365" width="29" height="29" fill="#001e5a"/>
<rect x="46" y="394" width="29" height="29" fill="#001e5a"/>
<rect x="75" y="394" width="29" height="29" fill="#001e5a"/>
<rect x="104" y="394" width="29" height="29" fill="#001e5a"/>
<rect x="191" y="394" width="29" height="29" fill="#001e5a"/>
<rect x="220" y="394" width="29" height="29" fill="#001e5a"/>
<rect x="249" y="394" width="29" height="29" fill="#001e5a"/>
<rect x="278" y="394" width="29" height="29" fill="#001e5a"/>
<rect x="365" y="394" width="29" height="29" fill="#001e5a"/>
<rect x="510" y="394" width="29" height="29" fill="#001e5a"/>
<rect x="539" y="394" width="29" height="29" fill="#001e5a"/>
<rect x="597" y="394" width="29" height="29" fill="#001e5a"/>
<rect x="684" y="394" width="29" height="29" fill="#001e5a"/>
<rect x="742" y="394" width="29" height="29" fill="#001e5a"/>
<rect x="771" y="394" width="29" height="29" fill="#001e5a"/>
<rect x="800" y="394" width="29" height="29" fill="#001e5a"/>
<rect x="829" y="394" width="29" height="29" fill="#001e5a"/>
<rect x="858" y="394" width="29" height="29" fill="#001e5a"/>
<rect x="887" y="394" width="29" height="29" fill="#001e5a"/>
<rect x="916" y="394" width="29" height="29" fill="#001e5a"/>
<rect x="945" y="394" width="29" height="29" fill="#001e5a"/>
<rect x="1003" y="394" width="29" height="29" fill="#001e5a"/>
<rect x="1032" y="394" width="29" height="29" fill="#001e5a"/>
<rect x="1061" y="394" width="29" height="29" fill="#001e5a"/>
<rect x="1090" y="394" width="29" height="29" fill="#001e5a"/>
<rect x="46" y="423" width="29" height="29" fill="#001e5a"/>
<rect x="133" y="423" width="29" height="29" fill="#001e5a"/>
<rect x="162" y="423" width="29" height="29" fill="#001e5a"/>
<rect x="249" y="423" width="29" height="29" fill="#001e5a"/>
<rect x="278" y="423" width="29" height="29" fill="#001e5a"/>
<rect x="307" y="423" width="29" height="29" fill="#001e5a"/>
<rect x="336" y="423" width="29" height="29" fill="#001e5a"/>
<rect x="394" y="423" width="29" height="29" fill="#001e5a"/>
<rect x="452" y="423" width="29" height="29" fill="#001e5a"/>
<rect x="481" y="423" width="29" height="29" fill="#001e5a"/>
<rect x="539" y="423" width="29" height="29" fill="#001e5a"/>
<rect x="568" y="423" width="29" height="29" fill="#001e5a"/>
<rect x="597" y="423" width="29" height="29" fill="#001e5a"/>
<rect x="887" y="423" width="29" height="29" fill="#001e5a"/>
<rect x="974" y="423" width="29" height="29" fill="#001e5a"/>
<rect x="104" y="452" width="29" height="29" fill="#001e5a"/>
<rect x="162" y="452" width="29" height="29" fill="#001e5a"/>
<rect x="220" y="452" width="29" height="29" fill="#001e5a"/>
<rect x="278" y="452" width="29" height="29" fill="#001e5a"/>
<rect x="336" y="452" width="29" height="29" fill="#001e5a"/>
<rect x="365" y="452" width="29" height="29" fill="#001e5a"/>
<rect x="394" y="452" width="29" height="29" fill="#001e5a"/>
<rect x="452" y="452" width="29" height="29" fill="#001e5a"/>
<rect x="481" y="452" width="29" height="29" fill="#001e5a"/>
<rect x="539" y="452" width="29" height="29" fill="#001e5a"/>
<rect x="713" y="452" width="29" height="29" fill="#001e5a"/>
<rect x="742" y="452" width="29" height="29" fill="#001e5a"/>
<rect x="800" y="452" width="29" height="29" fill="#001e5a"/>
<rect x="858" y="452" width="29" height="29" fill="#001e5a"/>
<rect x="887" y="452" width="29" height="29" fill="#001e5a"/>
<rect x="945" y="452" width="29" height="29" fill="#001e5a"/>
<rect x="974" y="452" width="29" height="29" fill="#001e5a"/>
<rect x="1061" y="452" width="29" height="29" fill="#001e5a"/>
<rect x="46" y="481" width="29" height="29" fill="#001e5a"/>
<rect x="104" y="481" width="29" height="29" fill="#001e5a"/>
<rect x="249" y="481" width="29" height="29" fill="#001e5a"/>
<rect x="336" y="481" width="29" height="29" fill="#001e5a"/>
<rect x="423" y="481" width="29" height="29" fill="#001e5a"/>
<rect x="452" y="481" width="29" height="29" fill="#001e5a"/>
<rect x="481" y="481" width="29" height="29" fill="#001e5a"/>
<rect x="510" y="481" width="29" height="29" fill="#001e5a"/>
<rect x="539" y="481" width="29" height="29" fill="#001e5a"/>
<rect x="568" y="481" width="29" height="29" fill="#001e5a"/>
<rect x="626" y="481" width="29" height="29" fill="#001e5a"/>
<rect x="655" y="481" width="29" height="29" fill="#001e5a"/>
<rect x="858" y="481" width="29" height="29" fill="#001e5a"/>
<rect x="945" y="481" width="29" height="29" fill="#001e5a"/>
<rect x="75" y="510" width="29" height="29" fill="#001e5a"/>
<rect x="133" y="510" width="29" height="29" fill="#001e5a"/>
<rect x="162" y="510" width="29" height="29" fill="#001e5a"/>
<rect x="220" y="510" width="29" height="29" fill="#001e5a"/>
<rect x="249" y="510" width="29" height="29" fill="#001e5a"/>
<rect x="307" y="510" width="29" height="29" fill="#001e5a"/>
<rect x="365" y="510" width="29" height="29" fill="#001e5a"/>
<rect x="394" y="510" width="29" height="29" fill="#001e5a"/>
<rect x="481" y="510" width="29" height="29" fill="#001e5a"/>
<rect x="539" y="510" width="29" height="29" fill="#001e5a"/>
<rect x="655" y="510" width="29" height="29" fill="#001e5a"/>
<rect x="771" y="510" width="29" height="29" fill="#001e5a"/>
<rect x="800" y="510" width="29" height="29" fill="#001e5a"/>
<rect x="916" y="510" width="29" height="29" fill="#001e5a"/>
<rect x="1003" y="510" width="29" height="29" fill="#001e5a"/>
<rect x="1032" y="510" width="29" height="29" fill="#001e5a"/>
<rect x="104" y="539" width="29" height="29" fill="#001e5a"/>
<rect x="162" y="539" width="29" height="29" fill="#001e5a"/>
<rect x="191" y="539" width="29" height="29" fill="#001e5a"/>
<rect x="249" y="539" width="29" height="29" fill="#001e5a"/>
<rect x="394" y="539" width="29" height="29" fill="#001e5a"/>
<rect x="423" y="539" width="29" height="29" fill="#001e5a"/>
<rect x="452" y="539" width="29" height="29" fill="#001e5a"/>
<rect x="510" y="539" width="29" height="29" fill="#001e5a"/>
<rect x="539" y="539" width="29" height="29" fill="#001e5a"/>
<rect x="568" y="539" width="29" height="29" fill="#001e5a"/>
<rect x="597" y="539" width="29" height="29" fill="#001e5a"/>
<rect x="626" y="539" width="29" height="29" fill="#001e5a"/>
<rect x="684" y="539" width="29" height="29" fill="#001e5a"/>
<rect x="742" y="539" width="29" height="29" fill="#001e5a"/>
<rect x="771" y="539" width="29" height="29" fill="#001e5a"/>
<rect x="829" y="539" width="29" height="29" fill="#001e5a"/>
<rect x="887" y="539" width="29" height="29" fill="#001e5a"/>
<rect x="974" y="539" width="29" height="29" fill="#001e5a"/>
<rect x="1003" y="539" width="29" height="29" fill="#001e5a"/>
<rect x="1032" y="539" width="29" height="29" fill="#001e5a"/>
<rect x="46" y="568" width="29" height="29" fill="#001e5a"/>
<rect x="75" y="568" width="29" height="29" fill="#001e5a"/>
<rect x="133" y="568" width="29" height="29" fill="#001e5a"/>
<rect x="162" y="568" width="29" height="29" fill="#001e5a"/>
<rect x="191" y="568" width="29" height="29" fill="#001e5a"/>
<rect x="220" y="568" width="29" height="29" fill="#001e5a"/>
<rect x="249" y="568" width="29" height="29" fill="#001e5a"/>
<rect x="278" y="568" width="29" height="29" fill="#001e5a"/>
<rect x="307" y="568" width="29" height="29" fill="#001e5a"/>
<rect x="336" y="568" width="29" height="29" fill="#001e5a"/>
<rect x="365" y="568" width="29" height="29" fill="#001e5a"/>
<rect x="423" y="568" width="29" height="29" fill="#001e5a"/>
<rect x="539" y="568" width="29" height="29" fill="#001e5a"/>
<rect x="597" y="568" width="29" height="29" fill="#001e5a"/>
<rect x="626" y="568" width="29" height="29" fill="#001e5a"/>
<rect x="771" y="568" width="29" height="29" fill="#001e5a"/>
<rect x="916" y="568" width="29" height="29" fill="#001e5a"/>
<rect x="974" y="568" width="29" height="29" fill="#001e5a"/>
<rect x="1003" y="568" width="29" height="29" fill="#001e5a"/>
<rect x="1032" y="568" width="29" height="29" fill="#001e5a"/>
<rect x="1061" y="568" width="29" height="29" fill="#001e5a"/>
<rect x="1090" y="568" width="29" height="29" fill="#001e5a"/>
<rect x="75" y="597" width="29" height="29" fill="#001e5a"/>
<rect x="133" y="597" width="29" height="29" fill="#001e5a"/>
<rect x="162" y="597" width="29" height="29" fill="#001e5a"/>
<rect x="249" y="597" width="29" height="29" fill="#001e5a"/>
<rect x="278" y="597" width="29" height="29" fill="#001e5a"/>
<rect x="336" y="597" width="29" height="29" fill="#001e5a"/>
<rect x="365" y="597" width="29" height="29" fill="#001e5a"/>
<rect x="394" y="597" width="29" height="29" fill="#001e5a"/>
<rect x="510" y="597" width="29" height="29" fill="#001e5a"/>
<rect x="539" y="597" width="29" height="29" fill="#001e5a"/>
<rect x="713" y="597" width="29" height="29" fill="#001e5a"/>
<rect x="771" y="597" width="29" height="29" fill="#001e5a"/>
<rect x="800" y="597" width="29" height="29" fill="#001e5a"/>
<rect x="829" y="597" width="29" height="29" fill="#001e5a"/>
<rect x="858" y="597" width="29" height="29" fill="#001e5a"/>
<rect x="887" y="597" width="29" height="29" fill="#001e5a"/>
<rect x="916" y="597" width="29" height="29" fill="#001e5a"/>
<rect x="974" y="597" width="29" height="29" fill="#001e5a"/>
<rect x="1003" y="597" width="29" height="29" fill="#001e5a"/>
<rect x="1032" y="597" width="29" height="29" fill="#001e5a"/>
<rect x="1061" y="597" width="29" height="29" fill="#001e5a"/>
<rect x="1090" y="597" width="29" height="29" fill="#001e5a"/>
<rect x="75" y="626" width="29" height="29" fill="#001e5a"/>
<rect x="104" y="626" width="29" height="29" fill="#001e5a"/>
<rect x="133" y="626" width="29" height="29" fill="#001e5a"/>
<rect x="191" y="626" width="29" height="29" fill="#001e5a"/>
<rect x="220" y="626" width="29" height="29" fill="#001e5a"/>
<rect x="249" y="626" width="29" height="29" fill="#001e5a"/>
<rect x="278" y="626" width="29" height="29" fill="#001e5a"/>
<rect x="365" y="626" width="29" height="29" fill="#001e5a"/>
<rect x="452" y="626" width="29" height="29" fill="#001e5a"/>
<rect x="481" y="626" width="29" height="29" fill="#001e5a"/>
<rect x="510" y="626" width="29" height="29" fill="#001e5a"/>
<rect x="539" y="626" width="29" height="29" fill="#001e5a"/>
<rect x="597" y="626" width="29" height="29" fill="#001e5a"/>
<rect x="626" y="626" width="29" height="29" fill="#001e5a"/>
<rect x="655" y="626" width="29" height="29" fill="#001e5a"/>
<rect x="742" y="626" width="29" height="29" fill="#001e5a"/>
<rect x="800" y="626" width="29" height="29" fill="#001e5a"/>
<rect x="887" y="626" width="29" height="29" fill="#001e5a"/>
<rect x="916" y="626" width="29" height="29" fill="#001e5a"/>
<rect x="945" y="626" width="29" height="29" fill="#001e5a"/>
<rect x="1090" y="626" width="29" height="29" fill="#001e5a"/>
<rect x="75" y="655" width="29" height="29" fill="#001e5a"/>
<rect x="104" y="655" width="29" height="29" fill="#001e5a"/>
<rect x="191" y="655" width="29" height="29" fill="#001e5a"/>
<rect x="307" y="655" width="29" height="29" fill="#001e5a"/>
<rect x="365" y="655" width="29" height="29" fill="#001e5a"/>
<rect x="394" y="655" width="29" height="29" fill="#001e5a"/>
<rect x="423" y="655" width="29" height="29" fill="#001e5a"/>
<rect x="452" y="655" width="29" height="29" fill="#001e5a"/>
<rect x="510" y="655" width="29" height="29" fill="#001e5a"/>
<rect x="597" y="655" width="29" height="29" fill="#001e5a"/>
<rect x="626" y="655" width="29" height="29" fill="#001e5a"/>
<rect x="684" y="655" width="29" height="29" fill="#001e5a"/>
<rect x="771" y="655" width="29" height="29" fill="#001e5a"/>
<rect x="800" y="655" width="29" height="29" fill="#001e5a"/>
<rect x="887" y="655" width="29" height="29" fill="#001e5a"/>
<rect x="945" y="655" width="29" height="29" fill="#001e5a"/>
<rect x="1003" y="655" width="29" height="29" fill="#001e5a"/>
<rect x="1061" y="655" width="29" height="29" fill="#001e5a"/>
<rect x="191" y="684" width="29" height="29" fill="#001e5a"/>
<rect x="220" y="684" width="29" height="29" fill="#001e5a"/>
<rect x="278" y="684" width="29" height="29" fill="#001e5a"/>
<rect x="307" y="684" width="29" height="29" fill="#001e5a"/>
<rect x="365" y="684" width="29" height="29" fill="#001e5a"/>
<rect x="394" y="684" width="29" height="29" fill="#001e5a"/>
<rect x="423" y="684" width="29" height="29" fill="#001e5a"/>
<rect x="510" y="684" width="29" height="29" fill="#001e5a"/>
<rect x="568" y="684" width="29" height="29" fill="#001e5a"/>
<rect x="626" y="684" width="29" height="29" fill="#001e5a"/>
<rect x="655" y="684" width="29" height="29" fill="#001e5a"/>
<rect x="684" y="684" width="29" height="29" fill="#001e5a"/>
<rect x="742" y="684" width="29" height="29" fill="#001e5a"/>
<rect x="771" y="684" width="29" height="29" fill="#001e5a"/>
<rect x="858" y="684" width="29" height="29" fill="#001e5a"/>
<rect x="887" y="684" width="29" height="29" fill="#001e5a"/>
<rect x="945" y="684" width="29" height="29" fill="#001e5a"/>
<rect x="1032" y="684" width="29" height="29" fill="#001e5a"/>
<rect x="46" y="713" width="29" height="29" fill="#001e5a"/>
<rect x="104" y="713" width="29" height="29" fill="#001e5a"/>
<rect x="133" y="713" width="29" height="29" fill="#001e5a"/>
<rect x="162" y="713" width="29" height="29" fill="#001e5a"/>
<rect x="191" y="713" width="29" height="29" fill="#001e5a"/>
<rect x="278" y="713" width="29" height="29" fill="#001e5a"/>
<rect x="307" y="713" width="29" height="29" fill="#001e5a"/>
<rect x="423" y="713" width="29" height="29" fill="#001e5a"/>
<rect x="539" y="713" width="29" height="29" fill="#001e5a"/>
<rect x="597" y="713" width="29" height="29" fill="#001e5a"/>
<rect x="626" y="713" width="29" height="29" fill="#001e5a"/>
<rect x="655" y="713" width="29" height="29" fill="#001e5a"/>
<rect x="829" y="713" width="29" height="29" fill="#001e5a"/>
<rect x="887" y="713" width="29" height="29" fill="#001e5a"/>
<rect x="916" y="713" width="29" height="29" fill="#001e5a"/>
<rect x="1003" y="713" width="29" height="29" fill="#001e5a"/>
<rect x="1061" y="713" width="29" height="29" fill="#001e5a"/>
<rect x="46" y="742" width="29" height="29" fill="#001e5a"/>
<rect x="75" y="742" width="29" height="29" fill="#001e5a"/>
<rect x="162" y="742" width="29" height="29" fill="#001e5a"/>
<rect x="191" y="742" width="29" height="29" fill="#001e5a"/>
<rect x="220" y="742" width="29" height="29" fill="#001e5a"/>
<rect x="249" y="742" width="29" height="29" fill="#001e5a"/>
<rect x="278" y="742" width="29" height="29" fill="#001e5a"/>
<rect x="336" y="742" width="29" height="29" fill="#001e5a"/>
<rect x="365" y="742" width="29" height="29" fill="#001e5a"/>
<rect x="394" y="742" width="29" height="29" fill="#001e5a"/>
<rect x="452" y="742" width="29" height="29" fill="#001e5a"/>
<rect x="510" y="742" width="29" height="29" fill="#001e5a"/>
<rect x="539" y="742" width="29" height="29" fill="#001e5a"/>
<rect x="597" y="742" width="29" height="29" fill="#001e5a"/>
<rect x="626" y="742" width="29" height="29" fill="#001e5a"/>
<rect x="684" y="742" width="29" height="29" fill="#001e5a"/>
<rect x="713" y="742" width="29" height="29" fill="#001e5a"/>
<rect x="742" y="742" width="29" height="29" fill="#001e5a"/>
<rect x="800" y="742" width="29" height="29" fill="#001e5a"/>
<rect x="829" y="742" width="29" height="29" fill="#001e5a"/>
<rect x="858" y="742" width="29" height="29" fill="#001e5a"/>
<rect x="916" y="742" width="29" height="29" fill="#001e5a"/>
<rect x="945" y="742" width="29" height="29" fill="#001e5a"/>
<rect x="1003" y="742" width="29" height="29" fill="#001e5a"/>
<rect x="1032" y="742" width="29" height="29" fill="#001e5a"/>
<rect x="1061" y="742" width="29" height="29" fill="#001e5a"/>
<rect x="1090" y="742" width="29" height="29" fill="#001e5a"/>
<rect x="75" y="771" width="29" height="29" fill="#001e5a"/>
<rect x="104" y="771" width="29" height="29" fill="#001e5a"/>
<rect x="133" y="771" width="29" height="29" fill="#001e5a"/>
<rect x="162" y="771" width="29" height="29" fill="#001e5a"/>
<rect x="191" y="771" width="29" height="29" fill="#001e5a"/>
<rect x="365" y="771" width="29" height="29" fill="#001e5a"/>
<rect x="394" y="771" width="29" height="29" fill="#001e5a"/>
<rect x="423" y="771" width="29" height="29" fill="#001e5a"/>
<rect x="510" y="771" width="29" height="29" fill="#001e5a"/>
<rect x="597" y="771" width="29" height="29" fill="#001e5a"/>
<rect x="713" y="771" width="29" height="29" fill="#001e5a"/>
<rect x="742" y="771" width="29" height="29" fill="#001e5a"/>
<rect x="800" y="771" width="29" height="29" fill="#001e5a"/>
<rect x="974" y="771" width="29" height="29" fill="#001e5a"/>
<rect x="1003" y="771" width="29" height="29" fill="#001e5a"/>
<rect x="1061" y="771" width="29" height="29" fill="#001e5a"/>
<rect x="1090" y="771" width="29" height="29" fill="#001e5a"/>
<rect x="75" y="800" width="29" height="29" fill="#001e5a"/>
<rect x="104" y="800" width="29" height="29" fill="#001e5a"/>
<rect x="133" y="800" width="29" height="29" fill="#001e5a"/>
<rect x="220" y="800" width="29" height="29" fill="#001e5a"/>
<rect x="249" y="800" width="29" height="29" fill="#001e5a"/>
<rect x="278" y="800" width="29" height="29" fill="#001e5a"/>
<rect x="365" y="800" width="29" height="29" fill="#001e5a"/>
<rect x="423" y="800" width="29" height="29" fill="#001e5a"/>
<rect x="481" y="800" width="29" height="29" fill="#001e5a"/>
<rect x="510" y="800" width="29" height="29" fill="#001e5a"/>
<rect x="539" y="800" width="29" height="29" fill="#001e5a"/>
<rect x="626" y="800" width="29" height="29" fill="#001e5a"/>
<rect x="655" y="800" width="29" height="29" fill="#001e5a"/>
<rect x="713" y="800" width="29" height="29" fill="#001e5a"/>
<rect x="858" y="800" width="29" height="29" fill="#001e5a"/>
<rect x="887" y="800" width="29" height="29" fill="#001e5a"/>
<rect x="945" y="800" width="29" height="29" fill="#001e5a"/>
<rect x="1032" y="800" width="29" height="29" fill="#001e5a"/>
<rect x="1061" y="800" width="29" height="29" fill="#001e5a"/>
<rect x="1090" y="800" width="29" height="29" fill="#001e5a"/>
<rect x="46" y="829" width="29" height="29" fill="#001e5a"/>
<rect x="104" y="829" width="29" height="29" fill="#001e5a"/>
<rect x="133" y="829" width="29" height="29" fill="#001e5a"/>
<rect x="162" y="829" width="29" height="29" fill="#001e5a"/>
<rect x="191" y="829" width="29" height="29" fill="#001e5a"/>
<rect x="278" y="829" width="29" height="29" fill="#001e5a"/>
<rect x="481" y="829" width="29" height="29" fill="#001e5a"/>
<rect x="539" y="829" width="29" height="29" fill="#001e5a"/>
<rect x="684" y="829" width="29" height="29" fill="#001e5a"/>
<rect x="713" y="829" width="29" height="29" fill="#001e5a"/>
<rect x="771" y="829" width="29" height="29" fill="#001e5a"/>
<rect x="858" y="829" width="29" height="29" fill="#001e5a"/>
<rect x="887" y="829" width="29" height="29" fill="#001e5a"/>
<rect x="945" y="829" width="29" height="29" fill="#001e5a"/>
<rect x="1003" y="829" width="29" height="29" fill="#001e5a"/>
<rect x="1032" y="829" width="29" height="29" fill="#001e5a"/>
<rect x="104" y="858" width="29" height="29" fill="#001e5a"/>
<rect x="133" y="858" width="29" height="29" fill="#001e5a"/>
<rect x="191" y="858" width="29" height="29" fill="#001e5a"/>
<rect x="220" y="858" width="29" height="29" fill="#001e5a"/>
<rect x="278" y="858" width="29" height="29" fill="#001e5a"/>
<rect x="307" y="858" width="29" height="29" fill="#001e5a"/>
<rect x="336" y="858" width="29" height="29" fill="#001e5a"/>
<rect x="365" y="858" width="29" height="29" fill="#001e5a"/>
<rect x="394" y="858" width="29" height="29" fill="#001e5a"/>
<rect x="423" y="858" width="29" height="29" fill="#001e5a"/>
<rect x="481" y="858" width="29" height="29" fill="#001e5a"/>
<rect x="568" y="858" width="29" height="29" fill="#001e5a"/>
<rect x="597" y="858" width="29" height="29" fill="#001e5a"/>
<rect x="626" y="858" width="29" height="29" fill="#001e5a"/>
<rect x="655" y="858" width="29" height="29" fill="#001e5a"/>
<rect x="684" y="858" width="29" height="29" fill="#001e5a"/>
<rect x="742" y="858" width="29" height="29" fill="#001e5a"/>
<rect x="771" y="858" width="29" height="29" fill="#001e5a"/>
<rect x="858" y="858" width="29" height="29" fill="#001e5a"/>
<rect x="887" y="858" width="29" height="29" fill="#001e5a"/>
<rect x="916" y="858" width="29" height="29" fill="#001e5a"/>
<rect x="945" y="858" width="29" height="29" fill="#001e5a"/>
<rect x="974" y="858" width="29" height="29" fill="#001e5a"/>
<rect x="1032" y="858" width="29" height="29" fill="#001e5a"/>
<rect x="278" y="887" width="29" height="29" fill="#001e5a"/>
<rect x="336" y="887" width="29" height="29" fill="#001e5a"/>
<rect x="365" y="887" width="29" height="29" fill="#001e5a"/>
<rect x="394" y="887" width="29" height="29" fill="#001e5a"/>
<rect x="423" y="887" width="29" height="29" fill="#001e5a"/>
<rect x="568" y="887" width="29" height="29" fill="#001e5a"/>
<rect x="597" y="887" width="29" height="29" fill="#001e5a"/>
<rect x="626" y="887" width="29" height="29" fill="#001e5a"/>
<rect x="684" y="887" width="29" height="29" fill="#001e5a"/>
<rect x="713" y="887" width="29" height="29" fill="#001e5a"/>
<rect x="771" y="887" width="29" height="29" fill="#001e5a"/>
<rect x="800" y="887" width="29" height="29" fill="#001e5a"/>
<rect x="858" y="887" width="29" height="29" fill="#001e5a"/>
<rect x="974" y="887" width="29" height="29" fill="#001e5a"/>
<rect x="1003" y="887" width="29" height="29" fill="#001e5a"/>
<rect x="1032" y="887" width="29" height="29" fill="#001e5a"/>
<rect x="1061" y="887" width="29" height="29" fill="#001e5a"/>
<rect x="1090" y="887" width="29" height="29" fill="#001e5a"/>
<rect x="46" y="916" width="29" height="29" fill="#001e5a"/>
<rect x="75" y="916" width="29" height="29" fill="#001e5a"/>
<rect x="104" y="916" width="29" height="29" fill="#001e5a"/>
<rect x="133" y="916" width="29" height="29" fill="#001e5a"/>
<rect x="162" y="916" width="29" height="29" fill="#001e5a"/>
<rect x="191" y="916" width="29" height="29" fill="#001e5a"/>
<rect x="220" y="916" width="29" height="29" fill="#001e5a"/>
<rect x="278" y="916" width="29" height="29" fill="#001e5a"/>
<rect x="365" y="916" width="29" height="29" fill="#001e5a"/>
<rect x="394" y="916" width="29" height="29" fill="#001e5a"/>
<rect x="423" y="916" width="29" height="29" fill="#001e5a"/>
<rect x="452" y="916" width="29" height="29" fill="#001e5a"/>
<rect x="539" y="916" width="29" height="29" fill="#001e5a"/>
<rect x="684" y="916" width="29" height="29" fill="#001e5a"/>
<rect x="713" y="916" width="29" height="29" fill="#001e5a"/>
<rect x="742" y="916" width="29" height="29" fill="#001e5a"/>
<rect x="771" y="916" width="29" height="29" fill="#001e5a"/>
<rect x="800" y="916" width="29" height="29" fill="#001e5a"/>
<rect x="858" y="916" width="29" height="29" fill="#001e5a"/>
<rect x="916" y="916" width="29" height="29" fill="#001e5a"/>
<rect x="974" y="916" width="29" height="29" fill="#001e5a"/>
<rect x="1003" y="916" width="29" height="29" fill="#001e5a"/>
<rect x="1032" y="916" width="29" height="29" fill="#001e5a"/>
<rect x="1090" y="916" width="29" height="29" fill="#001e5a"/>
<rect x="46" y="945" width="29" height="29" fill="#001e5a"/>
<rect x="220" y="945" width="29" height="29" fill="#001e5a"/>
<rect x="365" y="945" width="29" height="29" fill="#001e5a"/>
<rect x="394" y="945" width="29" height="29" fill="#001e5a"/>
<rect x="423" y="945" width="29" height="29" fill="#001e5a"/>
<rect x="481" y="945" width="29" height="29" fill="#001e5a"/>
<rect x="539" y="945" width="29" height="29" fill="#001e5a"/>
<rect x="597" y="945" width="29" height="29" fill="#001e5a"/>
<rect x="684" y="945" width="29" height="29" fill="#001e5a"/>
<rect x="713" y="945" width="29" height="29" fill="#001e5a"/>
<rect x="742" y="945" width="29" height="29" fill="#001e5a"/>
<rect x="800" y="945" width="29" height="29" fill="#001e5a"/>
<rect x="858" y="945" width="29" height="29" fill="#001e5a"/>
<rect x="974" y="945" width="29" height="29" fill="#001e5a"/>
<rect x="1032" y="945" width="29" height="29" fill="#001e5a"/>
<rect x="1090" y="945" width="29" height="29" fill="#001e5a"/>
<rect x="46" y="974" width="29" height="29" fill="#001e5a"/>
<rect x="104" y="974" width="29" height="29" fill="#001e5a"/>
<rect x="133" y="974" width="29" height="29" fill="#001e5a"/>
<rect x="162" y="974" width="29" height="29" fill="#001e5a"/>
<rect x="220" y="974" width="29" height="29" fill="#001e5a"/>
<rect x="336" y="974" width="29" height="29" fill="#001e5a"/>
<rect x="394" y="974" width="29" height="29" fill="#001e5a"/>
<rect x="452" y="974" width="29" height="29" fill="#001e5a"/>
<rect x="510" y="974" width="29" height="29" fill="#001e5a"/>
<rect x="539" y="974" width="29" height="29" fill="#001e5a"/>
<rect x="568" y="974" width="29" height="29" fill="#001e5a"/>
<rect x="626" y="974" width="29" height="29" fill="#001e5a"/>
<rect x="655" y="974" width="29" height="29" fill="#001e5a"/>
<rect x="684" y="974" width="29" height="29" fill="#001e5a"/>
<rect x="742" y="974" width="29" height="29" fill="#001e5a"/>
<rect x="771" y="974" width="29" height="29" fill="#001e5a"/>
<rect x="829" y="974" width="29" height="29" fill="#001e5a"/>
<rect x="858" y="974" width="29" height="29" fill="#001e5a"/>
<rect x="887" y="974" width="29" height="29" fill="#001e5a"/>
<rect x="916" y="974" width="29" height="29" fill="#001e5a"/>
<rect x="945" y="974" width="29" height="29" fill="#001e5a"/>
<rect x="974" y="974" width="29" height="29" fill="#001e5a"/>
<rect x="1032" y="974" width="29" height="29" fill="#001e5a"/>
<rect x="1061" y="974" width="29" height="29" fill="#001e5a"/>
<rect x="46" y="1003" width="29" height="29" fill="#001e5a"/>
<rect x="104" y="1003" width="29" height="29" fill="#001e5a"/>
<rect x="133" y="1003" width="29" height="29" fill="#001e5a"/>
<rect x="162" y="1003" width="29" height="29" fill="#001e5a"/>
<rect x="220" y="1003" width="29" height="29" fill="#001e5a"/>
<rect x="278" y="1003" width="29" height="29" fill="#001e5a"/>
<rect x="307" y="1003" width="29" height="29" fill="#001e5a"/>
<rect x="452" y="1003" width="29" height="29" fill="#001e5a"/>
<rect x="539" y="1003" width="29" height="29" fill="#001e5a"/>
<rect x="742" y="1003" width="29" height="29" fill="#001e5a"/>
<rect x="800" y="1003" width="29" height="29" fill="#001e5a"/>
<rect x="829" y="1003" width="29" height="29" fill="#001e5a"/>
<rect x="858" y="1003" width="29" height="29" fill="#001e5a"/>
<rect x="916" y="1003" width="29" height="29" fill="#001e5a"/>
<rect x="945" y="1003" width="29" height="29" fill="#001e5a"/>
<rect x="1061" y="1003" width="29" height="29" fill="#001e5a"/>
<rect x="1090" y="1003" width="29" height="29" fill="#001e5a"/>
<rect x="46" y="1032" width="29" height="29" fill="#001e5a"/>
<rect x="104" y="1032" width="29" height="29" fill="#001e5a"/>
<rect x="133" y="1032" width="29" height="29" fill="#001e5a"/>
<rect x="162" y="1032" width="29" height="29" fill="#001e5a"/>
<rect x="220" y="1032" width="29" height="29" fill="#001e5a"/>
<rect x="278" y="1032" width="29" height="29" fill="#001e5a"/>
<rect x="423" y="1032" width="29" height="29" fill="#001e5a"/>
<rect x="452" y="1032" width="29" height="29" fill="#001e5a"/>
<rect x="510" y="1032" width="29" height="29" fill="#001e5a"/>
<rect x="539" y="1032" width="29" height="29" fill="#001e5a"/>
<rect x="568" y="1032" width="29" height="29" fill="#001e5a"/>
<rect x="684" y="1032" width="29" height="29" fill="#001e5a"/>
<rect x="713" y="1032" width="29" height="29" fill="#001e5a"/>
<rect x="742" y="1032" width="29" height="29" fill="#001e5a"/>
<rect x="771" y="1032" width="29" height="29" fill="#001e5a"/>
<rect x="800" y="1032" width="29" height="29" fill="#001e5a"/>
<rect x="829" y="1032" width="29" height="29" fill="#001e5a"/>
<rect x="887" y="1032" width="29" height="29" fill="#001e5a"/>
<rect x="945" y="1032" width="29" height="29" fill="#001e5a"/>
<rect x="974" y="1032" width="29" height="29" fill="#001e5a"/>
<rect x="1032" y="1032" width="29" height="29" fill="#001e5a"/>
<rect x="1061" y="1032" width="29" height="29" fill="#001e5a"/>
<rect x="46" y="1061" width="29" height="29" fill="#001e5a"/>
<rect x="220" y="1061" width="29" height="29" fill="#001e5a"/>
<rect x="307" y="1061" width="29" height="29" fill="#001e5a"/>
<rect x="336" y="1061" width="29" height="29" fill="#001e5a"/>
<rect x="365" y="1061" width="29" height="29" fill="#001e5a"/>
<rect x="394" y="1061" width="29" height="29" fill="#001e5a"/>
<rect x="423" y="1061" width="29" height="29" fill="#001e5a"/>
<rect x="452" y="1061" width="29" height="29" fill="#001e5a"/>
<rect x="568" y="1061" width="29" height="29" fill="#001e5a"/>
<rect x="626" y="1061" width="29" height="29" fill="#001e5a"/>
<rect x="684" y="1061" width="29" height="29" fill="#001e5a"/>
<rect x="771" y="1061" width="29" height="29" fill="#001e5a"/>
<rect x="800" y="1061" width="29" height="29" fill="#001e5a"/>
<rect x="829" y="1061" width="29" height="29" fill="#001e5a"/>
<rect x="887" y="1061" width="29" height="29" fill="#001e5a"/>
<rect x="974" y="1061" width="29" height="29" fill="#001e5a"/>
<rect x="1003" y="1061" width="29" height="29" fill="#001e5a"/>
<rect x="1032" y="1061" width="29" height="29" fill="#001e5a"/>
<rect x="1061" y="1061" width="29" height="29" fill="#001e5a"/>
<rect x="1090" y="1061" width="29" height="29" fill="#001e5a"/>
<rect x="46" y="1090" width="29" height="29" fill="#001e5a"/>
<rect x="75" y="1090" width="29" height="29" fill="#001e5a"/>
<rect x="104" y="1090" width="29" height="29" fill="#001e5a"/>
<rect x="133" y="1090" width="29" height="29" fill="#001e5a"/>
<rect x="162" y="1090" width="29" height="29" fill="#001e5a"/>
<rect x="191" y="1090" width="29" height="29" fill="#001e5a"/>
<rect x="220" y="1090" width="29" height="29" fill="#001e5a"/>
<rect x="307" y="1090" width="29" height="29" fill="#001e5a"/>
<rect x="336" y="1090" width="29" height="29" fill="#001e5a"/>
<rect x="394" y="1090" width="29" height="29" fill="#001e5a"/>
<rect x="510" y="1090" width="29" height="29" fill="#001e5a"/>
<rect x="539" y="1090" width="29" height="29" fill="#001e5a"/>
<rect x="568" y="1090" width="29" height="29" fill="#001e5a"/>
<rect x="626" y="1090" width="29" height="29" fill="#001e5a"/>
<rect x="655" y="1090" width="29" height="29" fill="#001e5a"/>
<rect x="684" y="1090" width="29" height="29" fill="#001e5a"/>
<rect x="800" y="1090" width="29" height="29" fill="#001e5a"/>
<rect x="858" y="1090" width="29" height="29" fill="#001e5a"/>
<rect x="945" y="1090" width="29" height="29" fill="#001e5a"/>
<rect x="1003" y="1090" width="29" height="29" fill="#001e5a"/>
<rect x="1061" y="1090" width="29" height="29" fill="#001e5a"/>
<rect x="1090" y="1090" width="29" height="29" fill="#001e5a"/>
</g>
</svg>

