<?xml version="1.0"?>

<svg xmlns="http://www.w3.org/2000/svg" xmlns:xlink="http://www.w3.org/1999/xlink" version="1.1" viewBox="0 0 1908 1908">
<g transform="scale(3.7265625)">
<polygon stroke="none" points="160,32 32,32 32,160 0,160 0,0 160,0 " fill="#faf205"/>
<polygon stroke="none" points="480,160 480,32 352,32 352,0 512,0 512,160" fill="#faf205"/>
<polygon stroke="none" points="352,480 480,480 480,352 512,352 512,512 352,512" fill="#faf205"/>
<polygon stroke="none" points="32,352 32,480 160,480 160,512 0,512 0,352" fill="#faf205"/>
</g>
<g transform="translate(159,159)">
<defs/>
<rect x="0" y="0" width="1590" height="1590" fill="#ffffff" fill-opacity="0.99212598425197"/>
<rect x="55" y="55" width="40" height="40" fill="#063a8e"/>
<rect x="95" y="55" width="40" height="40" fill="#063a8e"/>
<rect x="135" y="55" width="40" height="40" fill="#063a8e"/>
<rect x="175" y="55" width="40" height="40" fill="#063a8e"/>
<rect x="215" y="55" width="40" height="40" fill="#063a8e"/>
<rect x="255" y="55" width="40" height="40" fill="#063a8e"/>
<rect x="295" y="55" width="40" height="40" fill="#063a8e"/>
<rect x="455" y="55" width="40" height="40" fill="#063a8e"/>
<rect x="575" y="55" width="40" height="40" fill="#063a8e"/>
<rect x="615" y="55" width="40" height="40" fill="#063a8e"/>
<rect x="655" y="55" width="40" height="40" fill="#063a8e"/>
<rect x="695" y="55" width="40" height="40" fill="#063a8e"/>
<rect x="855" y="55" width="40" height="40" fill="#063a8e"/>
<rect x="1055" y="55" width="40" height="40" fill="#063a8e"/>
<rect x="1255" y="55" width="40" height="40" fill="#063a8e"/>
<rect x="1295" y="55" width="40" height="40" fill="#063a8e"/>
<rect x="1335" y="55" width="40" height="40" fill="#063a8e"/>
<rect x="1375" y="55" width="40" height="40" fill="#063a8e"/>
<rect x="1415" y="55" width="40" height="40" fill="#063a8e"/>
<rect x="1455" y="55" width="40" height="40" fill="#063a8e"/>
<rect x="1495" y="55" width="40" height="40" fill="#063a8e"/>
<rect x="55" y="95" width="40" height="40" fill="#063a8e"/>
<rect x="295" y="95" width="40" height="40" fill="#063a8e"/>
<rect x="375" y="95" width="40" height="40" fill="#063a8e"/>
<rect x="455" y="95" width="40" height="40" fill="#063a8e"/>
<rect x="535" y="95" width="40" height="40" fill="#063a8e"/>
<rect x="575" y="95" width="40" height="40" fill="#063a8e"/>
<rect x="775" y="95" width="40" height="40" fill="#063a8e"/>
<rect x="815" y="95" width="40" height="40" fill="#063a8e"/>
<rect x="1015" y="95" width="40" height="40" fill="#063a8e"/>
<rect x="1055" y="95" width="40" height="40" fill="#063a8e"/>
<rect x="1095" y="95" width="40" height="40" fill="#063a8e"/>
<rect x="1135" y="95" width="40" height="40" fill="#063a8e"/>
<rect x="1255" y="95" width="40" height="40" fill="#063a8e"/>
<rect x="1495" y="95" width="40" height="40" fill="#063a8e"/>
<rect x="55" y="135" width="40" height="40" fill="#063a8e"/>
<rect x="135" y="135" width="40" height="40" fill="#063a8e"/>
<rect x="175" y="135" width="40" height="40" fill="#063a8e"/>
<rect x="215" y="135" width="40" height="40" fill="#063a8e"/>
<rect x="295" y="135" width="40" height="40" fill="#063a8e"/>
<rect x="375" y="135" width="40" height="40" fill="#063a8e"/>
<rect x="415" y="135" width="40" height="40" fill="#063a8e"/>
<rect x="495" y="135" width="40" height="40" fill="#063a8e"/>
<rect x="535" y="135" width="40" height="40" fill="#063a8e"/>
<rect x="655" y="135" width="40" height="40" fill="#063a8e"/>
<rect x="735" y="135" width="40" height="40" fill="#063a8e"/>
<rect x="815" y="135" width="40" height="40" fill="#063a8e"/>
<rect x="855" y="135" width="40" height="40" fill="#063a8e"/>
<rect x="975" y="135" width="40" height="40" fill="#063a8e"/>
<rect x="1055" y="135" width="40" height="40" fill="#063a8e"/>
<rect x="1255" y="135" width="40" height="40" fill="#063a8e"/>
<rect x="1335" y="135" width="40" height="40" fill="#063a8e"/>
<rect x="1375" y="135" width="40" height="40" fill="#063a8e"/>
<rect x="1415" y="135" width="40" height="40" fill="#063a8e"/>
<rect x="1495" y="135" width="40" height="40" fill="#063a8e"/>
<rect x="55" y="175" width="40" height="40" fill="#063a8e"/>
<rect x="135" y="175" width="40" height="40" fill="#063a8e"/>
<rect x="175" y="175" width="40" height="40" fill="#063a8e"/>
<rect x="215" y="175" width="40" height="40" fill="#063a8e"/>
<rect x="295" y="175" width="40" height="40" fill="#063a8e"/>
<rect x="375" y="175" width="40" height="40" fill="#063a8e"/>
<rect x="455" y="175" width="40" height="40" fill="#063a8e"/>
<rect x="535" y="175" width="40" height="40" fill="#063a8e"/>
<rect x="615" y="175" width="40" height="40" fill="#063a8e"/>
<rect x="775" y="175" width="40" height="40" fill="#063a8e"/>
<rect x="815" y="175" width="40" height="40" fill="#063a8e"/>
<rect x="895" y="175" width="40" height="40" fill="#063a8e"/>
<rect x="935" y="175" width="40" height="40" fill="#063a8e"/>
<rect x="1055" y="175" width="40" height="40" fill="#063a8e"/>
<rect x="1255" y="175" width="40" height="40" fill="#063a8e"/>
<rect x="1335" y="175" width="40" height="40" fill="#063a8e"/>
<rect x="1375" y="175" width="40" height="40" fill="#063a8e"/>
<rect x="1415" y="175" width="40" height="40" fill="#063a8e"/>
<rect x="1495" y="175" width="40" height="40" fill="#063a8e"/>
<rect x="55" y="215" width="40" height="40" fill="#063a8e"/>
<rect x="135" y="215" width="40" height="40" fill="#063a8e"/>
<rect x="175" y="215" width="40" height="40" fill="#063a8e"/>
<rect x="215" y="215" width="40" height="40" fill="#063a8e"/>
<rect x="295" y="215" width="40" height="40" fill="#063a8e"/>
<rect x="375" y="215" width="40" height="40" fill="#063a8e"/>
<rect x="415" y="215" width="40" height="40" fill="#063a8e"/>
<rect x="455" y="215" width="40" height="40" fill="#063a8e"/>
<rect x="575" y="215" width="40" height="40" fill="#063a8e"/>
<rect x="655" y="215" width="40" height="40" fill="#063a8e"/>
<rect x="695" y="215" width="40" height="40" fill="#063a8e"/>
<rect x="735" y="215" width="40" height="40" fill="#063a8e"/>
<rect x="895" y="215" width="40" height="40" fill="#063a8e"/>
<rect x="1015" y="215" width="40" height="40" fill="#063a8e"/>
<rect x="1055" y="215" width="40" height="40" fill="#063a8e"/>
<rect x="1095" y="215" width="40" height="40" fill="#063a8e"/>
<rect x="1175" y="215" width="40" height="40" fill="#063a8e"/>
<rect x="1255" y="215" width="40" height="40" fill="#063a8e"/>
<rect x="1335" y="215" width="40" height="40" fill="#063a8e"/>
<rect x="1375" y="215" width="40" height="40" fill="#063a8e"/>
<rect x="1415" y="215" width="40" height="40" fill="#063a8e"/>
<rect x="1495" y="215" width="40" height="40" fill="#063a8e"/>
<rect x="55" y="255" width="40" height="40" fill="#063a8e"/>
<rect x="295" y="255" width="40" height="40" fill="#063a8e"/>
<rect x="375" y="255" width="40" height="40" fill="#063a8e"/>
<rect x="415" y="255" width="40" height="40" fill="#063a8e"/>
<rect x="495" y="255" width="40" height="40" fill="#063a8e"/>
<rect x="575" y="255" width="40" height="40" fill="#063a8e"/>
<rect x="615" y="255" width="40" height="40" fill="#063a8e"/>
<rect x="655" y="255" width="40" height="40" fill="#063a8e"/>
<rect x="735" y="255" width="40" height="40" fill="#063a8e"/>
<rect x="775" y="255" width="40" height="40" fill="#063a8e"/>
<rect x="895" y="255" width="40" height="40" fill="#063a8e"/>
<rect x="935" y="255" width="40" height="40" fill="#063a8e"/>
<rect x="1135" y="255" width="40" height="40" fill="#063a8e"/>
<rect x="1175" y="255" width="40" height="40" fill="#063a8e"/>
<rect x="1255" y="255" width="40" height="40" fill="#063a8e"/>
<rect x="1495" y="255" width="40" height="40" fill="#063a8e"/>
<rect x="55" y="295" width="40" height="40" fill="#063a8e"/>
<rect x="95" y="295" width="40" height="40" fill="#063a8e"/>
<rect x="135" y="295" width="40" height="40" fill="#063a8e"/>
<rect x="175" y="295" width="40" height="40" fill="#063a8e"/>
<rect x="215" y="295" width="40" height="40" fill="#063a8e"/>
<rect x="255" y="295" width="40" height="40" fill="#063a8e"/>
<rect x="295" y="295" width="40" height="40" fill="#063a8e"/>
<rect x="375" y="295" width="40" height="40" fill="#063a8e"/>
<rect x="455" y="295" width="40" height="40" fill="#063a8e"/>
<rect x="535" y="295" width="40" height="40" fill="#063a8e"/>
<rect x="615" y="295" width="40" height="40" fill="#063a8e"/>
<rect x="695" y="295" width="40" height="40" fill="#063a8e"/>
<rect x="775" y="295" width="40" height="40" fill="#063a8e"/>
<rect x="855" y="295" width="40" height="40" fill="#063a8e"/>
<rect x="935" y="295" width="40" height="40" fill="#063a8e"/>
<rect x="1015" y="295" width="40" height="40" fill="#063a8e"/>
<rect x="1095" y="295" width="40" height="40" fill="#063a8e"/>
<rect x="1175" y="295" width="40" height="40" fill="#063a8e"/>
<rect x="1255" y="295" width="40" height="40" fill="#063a8e"/>
<rect x="1295" y="295" width="40" height="40" fill="#063a8e"/>
<rect x="1335" y="295" width="40" height="40" fill="#063a8e"/>
<rect x="1375" y="295" width="40" height="40" fill="#063a8e"/>
<rect x="1415" y="295" width="40" height="40" fill="#063a8e"/>
<rect x="1455" y="295" width="40" height="40" fill="#063a8e"/>
<rect x="1495" y="295" width="40" height="40" fill="#063a8e"/>
<rect x="455" y="335" width="40" height="40" fill="#063a8e"/>
<rect x="535" y="335" width="40" height="40" fill="#063a8e"/>
<rect x="575" y="335" width="40" height="40" fill="#063a8e"/>
<rect x="615" y="335" width="40" height="40" fill="#063a8e"/>
<rect x="655" y="335" width="40" height="40" fill="#063a8e"/>
<rect x="735" y="335" width="40" height="40" fill="#063a8e"/>
<rect x="775" y="335" width="40" height="40" fill="#063a8e"/>
<rect x="855" y="335" width="40" height="40" fill="#063a8e"/>
<rect x="895" y="335" width="40" height="40" fill="#063a8e"/>
<rect x="935" y="335" width="40" height="40" fill="#063a8e"/>
<rect x="1015" y="335" width="40" height="40" fill="#063a8e"/>
<rect x="1135" y="335" width="40" height="40" fill="#063a8e"/>
<rect x="135" y="375" width="40" height="40" fill="#063a8e"/>
<rect x="255" y="375" width="40" height="40" fill="#063a8e"/>
<rect x="295" y="375" width="40" height="40" fill="#063a8e"/>
<rect x="335" y="375" width="40" height="40" fill="#063a8e"/>
<rect x="375" y="375" width="40" height="40" fill="#063a8e"/>
<rect x="415" y="375" width="40" height="40" fill="#063a8e"/>
<rect x="495" y="375" width="40" height="40" fill="#063a8e"/>
<rect x="615" y="375" width="40" height="40" fill="#063a8e"/>
<rect x="655" y="375" width="40" height="40" fill="#063a8e"/>
<rect x="775" y="375" width="40" height="40" fill="#063a8e"/>
<rect x="855" y="375" width="40" height="40" fill="#063a8e"/>
<rect x="975" y="375" width="40" height="40" fill="#063a8e"/>
<rect x="1055" y="375" width="40" height="40" fill="#063a8e"/>
<rect x="1095" y="375" width="40" height="40" fill="#063a8e"/>
<rect x="1135" y="375" width="40" height="40" fill="#063a8e"/>
<rect x="1175" y="375" width="40" height="40" fill="#063a8e"/>
<rect x="1215" y="375" width="40" height="40" fill="#063a8e"/>
<rect x="1295" y="375" width="40" height="40" fill="#063a8e"/>
<rect x="1335" y="375" width="40" height="40" fill="#063a8e"/>
<rect x="1375" y="375" width="40" height="40" fill="#063a8e"/>
<rect x="1415" y="375" width="40" height="40" fill="#063a8e"/>
<rect x="1455" y="375" width="40" height="40" fill="#063a8e"/>
<rect x="95" y="415" width="40" height="40" fill="#063a8e"/>
<rect x="175" y="415" width="40" height="40" fill="#063a8e"/>
<rect x="215" y="415" width="40" height="40" fill="#063a8e"/>
<rect x="255" y="415" width="40" height="40" fill="#063a8e"/>
<rect x="335" y="415" width="40" height="40" fill="#063a8e"/>
<rect x="375" y="415" width="40" height="40" fill="#063a8e"/>
<rect x="415" y="415" width="40" height="40" fill="#063a8e"/>
<rect x="455" y="415" width="40" height="40" fill="#063a8e"/>
<rect x="495" y="415" width="40" height="40" fill="#063a8e"/>
<rect x="535" y="415" width="40" height="40" fill="#063a8e"/>
<rect x="575" y="415" width="40" height="40" fill="#063a8e"/>
<rect x="695" y="415" width="40" height="40" fill="#063a8e"/>
<rect x="735" y="415" width="40" height="40" fill="#063a8e"/>
<rect x="895" y="415" width="40" height="40" fill="#063a8e"/>
<rect x="935" y="415" width="40" height="40" fill="#063a8e"/>
<rect x="975" y="415" width="40" height="40" fill="#063a8e"/>
<rect x="1135" y="415" width="40" height="40" fill="#063a8e"/>
<rect x="1335" y="415" width="40" height="40" fill="#063a8e"/>
<rect x="1375" y="415" width="40" height="40" fill="#063a8e"/>
<rect x="1455" y="415" width="40" height="40" fill="#063a8e"/>
<rect x="1495" y="415" width="40" height="40" fill="#063a8e"/>
<rect x="55" y="455" width="40" height="40" fill="#063a8e"/>
<rect x="95" y="455" width="40" height="40" fill="#063a8e"/>
<rect x="135" y="455" width="40" height="40" fill="#063a8e"/>
<rect x="175" y="455" width="40" height="40" fill="#063a8e"/>
<rect x="295" y="455" width="40" height="40" fill="#063a8e"/>
<rect x="335" y="455" width="40" height="40" fill="#063a8e"/>
<rect x="455" y="455" width="40" height="40" fill="#063a8e"/>
<rect x="495" y="455" width="40" height="40" fill="#063a8e"/>
<rect x="575" y="455" width="40" height="40" fill="#063a8e"/>
<rect x="655" y="455" width="40" height="40" fill="#063a8e"/>
<rect x="695" y="455" width="40" height="40" fill="#063a8e"/>
<rect x="815" y="455" width="40" height="40" fill="#063a8e"/>
<rect x="895" y="455" width="40" height="40" fill="#063a8e"/>
<rect x="975" y="455" width="40" height="40" fill="#063a8e"/>
<rect x="1015" y="455" width="40" height="40" fill="#063a8e"/>
<rect x="1095" y="455" width="40" height="40" fill="#063a8e"/>
<rect x="1135" y="455" width="40" height="40" fill="#063a8e"/>
<rect x="1175" y="455" width="40" height="40" fill="#063a8e"/>
<rect x="1255" y="455" width="40" height="40" fill="#063a8e"/>
<rect x="1375" y="455" width="40" height="40" fill="#063a8e"/>
<rect x="1455" y="455" width="40" height="40" fill="#063a8e"/>
<rect x="175" y="495" width="40" height="40" fill="#063a8e"/>
<rect x="215" y="495" width="40" height="40" fill="#063a8e"/>
<rect x="335" y="495" width="40" height="40" fill="#063a8e"/>
<rect x="375" y="495" width="40" height="40" fill="#063a8e"/>
<rect x="415" y="495" width="40" height="40" fill="#063a8e"/>
<rect x="455" y="495" width="40" height="40" fill="#063a8e"/>
<rect x="495" y="495" width="40" height="40" fill="#063a8e"/>
<rect x="535" y="495" width="40" height="40" fill="#063a8e"/>
<rect x="735" y="495" width="40" height="40" fill="#063a8e"/>
<rect x="775" y="495" width="40" height="40" fill="#063a8e"/>
<rect x="815" y="495" width="40" height="40" fill="#063a8e"/>
<rect x="975" y="495" width="40" height="40" fill="#063a8e"/>
<rect x="1015" y="495" width="40" height="40" fill="#063a8e"/>
<rect x="1055" y="495" width="40" height="40" fill="#063a8e"/>
<rect x="1175" y="495" width="40" height="40" fill="#063a8e"/>
<rect x="1215" y="495" width="40" height="40" fill="#063a8e"/>
<rect x="1255" y="495" width="40" height="40" fill="#063a8e"/>
<rect x="1295" y="495" width="40" height="40" fill="#063a8e"/>
<rect x="1415" y="495" width="40" height="40" fill="#063a8e"/>
<rect x="1495" y="495" width="40" height="40" fill="#063a8e"/>
<rect x="55" y="535" width="40" height="40" fill="#063a8e"/>
<rect x="175" y="535" width="40" height="40" fill="#063a8e"/>
<rect x="255" y="535" width="40" height="40" fill="#063a8e"/>
<rect x="295" y="535" width="40" height="40" fill="#063a8e"/>
<rect x="415" y="535" width="40" height="40" fill="#063a8e"/>
<rect x="455" y="535" width="40" height="40" fill="#063a8e"/>
<rect x="575" y="535" width="40" height="40" fill="#063a8e"/>
<rect x="615" y="535" width="40" height="40" fill="#063a8e"/>
<rect x="735" y="535" width="40" height="40" fill="#063a8e"/>
<rect x="775" y="535" width="40" height="40" fill="#063a8e"/>
<rect x="855" y="535" width="40" height="40" fill="#063a8e"/>
<rect x="1135" y="535" width="40" height="40" fill="#063a8e"/>
<rect x="1255" y="535" width="40" height="40" fill="#063a8e"/>
<rect x="1335" y="535" width="40" height="40" fill="#063a8e"/>
<rect x="1375" y="535" width="40" height="40" fill="#063a8e"/>
<rect x="1495" y="535" width="40" height="40" fill="#063a8e"/>
<rect x="55" y="575" width="40" height="40" fill="#063a8e"/>
<rect x="215" y="575" width="40" height="40" fill="#063a8e"/>
<rect x="335" y="575" width="40" height="40" fill="#063a8e"/>
<rect x="415" y="575" width="40" height="40" fill="#063a8e"/>
<rect x="455" y="575" width="40" height="40" fill="#063a8e"/>
<rect x="495" y="575" width="40" height="40" fill="#063a8e"/>
<rect x="535" y="575" width="40" height="40" fill="#063a8e"/>
<rect x="695" y="575" width="40" height="40" fill="#063a8e"/>
<rect x="815" y="575" width="40" height="40" fill="#063a8e"/>
<rect x="855" y="575" width="40" height="40" fill="#063a8e"/>
<rect x="1015" y="575" width="40" height="40" fill="#063a8e"/>
<rect x="1095" y="575" width="40" height="40" fill="#063a8e"/>
<rect x="1455" y="575" width="40" height="40" fill="#063a8e"/>
<rect x="55" y="615" width="40" height="40" fill="#063a8e"/>
<rect x="135" y="615" width="40" height="40" fill="#063a8e"/>
<rect x="215" y="615" width="40" height="40" fill="#063a8e"/>
<rect x="255" y="615" width="40" height="40" fill="#063a8e"/>
<rect x="295" y="615" width="40" height="40" fill="#063a8e"/>
<rect x="455" y="615" width="40" height="40" fill="#063a8e"/>
<rect x="695" y="615" width="40" height="40" fill="#063a8e"/>
<rect x="855" y="615" width="40" height="40" fill="#063a8e"/>
<rect x="895" y="615" width="40" height="40" fill="#063a8e"/>
<rect x="1135" y="615" width="40" height="40" fill="#063a8e"/>
<rect x="1175" y="615" width="40" height="40" fill="#063a8e"/>
<rect x="1255" y="615" width="40" height="40" fill="#063a8e"/>
<rect x="1295" y="615" width="40" height="40" fill="#063a8e"/>
<rect x="1375" y="615" width="40" height="40" fill="#063a8e"/>
<rect x="1495" y="615" width="40" height="40" fill="#063a8e"/>
<rect x="135" y="655" width="40" height="40" fill="#063a8e"/>
<rect x="215" y="655" width="40" height="40" fill="#063a8e"/>
<rect x="255" y="655" width="40" height="40" fill="#063a8e"/>
<rect x="335" y="655" width="40" height="40" fill="#063a8e"/>
<rect x="415" y="655" width="40" height="40" fill="#063a8e"/>
<rect x="535" y="655" width="40" height="40" fill="#063a8e"/>
<rect x="575" y="655" width="40" height="40" fill="#063a8e"/>
<rect x="615" y="655" width="40" height="40" fill="#063a8e"/>
<rect x="655" y="655" width="40" height="40" fill="#063a8e"/>
<rect x="735" y="655" width="40" height="40" fill="#063a8e"/>
<rect x="775" y="655" width="40" height="40" fill="#063a8e"/>
<rect x="855" y="655" width="40" height="40" fill="#063a8e"/>
<rect x="1015" y="655" width="40" height="40" fill="#063a8e"/>
<rect x="1135" y="655" width="40" height="40" fill="#063a8e"/>
<rect x="1175" y="655" width="40" height="40" fill="#063a8e"/>
<rect x="1255" y="655" width="40" height="40" fill="#063a8e"/>
<rect x="1295" y="655" width="40" height="40" fill="#063a8e"/>
<rect x="1375" y="655" width="40" height="40" fill="#063a8e"/>
<rect x="1495" y="655" width="40" height="40" fill="#063a8e"/>
<rect x="55" y="695" width="40" height="40" fill="#063a8e"/>
<rect x="135" y="695" width="40" height="40" fill="#063a8e"/>
<rect x="295" y="695" width="40" height="40" fill="#063a8e"/>
<rect x="495" y="695" width="40" height="40" fill="#063a8e"/>
<rect x="575" y="695" width="40" height="40" fill="#063a8e"/>
<rect x="655" y="695" width="40" height="40" fill="#063a8e"/>
<rect x="695" y="695" width="40" height="40" fill="#063a8e"/>
<rect x="735" y="695" width="40" height="40" fill="#063a8e"/>
<rect x="815" y="695" width="40" height="40" fill="#063a8e"/>
<rect x="935" y="695" width="40" height="40" fill="#063a8e"/>
<rect x="1015" y="695" width="40" height="40" fill="#063a8e"/>
<rect x="1095" y="695" width="40" height="40" fill="#063a8e"/>
<rect x="1135" y="695" width="40" height="40" fill="#063a8e"/>
<rect x="1175" y="695" width="40" height="40" fill="#063a8e"/>
<rect x="1295" y="695" width="40" height="40" fill="#063a8e"/>
<rect x="1495" y="695" width="40" height="40" fill="#063a8e"/>
<rect x="95" y="735" width="40" height="40" fill="#063a8e"/>
<rect x="135" y="735" width="40" height="40" fill="#063a8e"/>
<rect x="375" y="735" width="40" height="40" fill="#063a8e"/>
<rect x="455" y="735" width="40" height="40" fill="#063a8e"/>
<rect x="535" y="735" width="40" height="40" fill="#063a8e"/>
<rect x="575" y="735" width="40" height="40" fill="#063a8e"/>
<rect x="615" y="735" width="40" height="40" fill="#063a8e"/>
<rect x="735" y="735" width="40" height="40" fill="#063a8e"/>
<rect x="775" y="735" width="40" height="40" fill="#063a8e"/>
<rect x="855" y="735" width="40" height="40" fill="#063a8e"/>
<rect x="895" y="735" width="40" height="40" fill="#063a8e"/>
<rect x="1015" y="735" width="40" height="40" fill="#063a8e"/>
<rect x="1135" y="735" width="40" height="40" fill="#063a8e"/>
<rect x="1175" y="735" width="40" height="40" fill="#063a8e"/>
<rect x="1215" y="735" width="40" height="40" fill="#063a8e"/>
<rect x="1295" y="735" width="40" height="40" fill="#063a8e"/>
<rect x="1335" y="735" width="40" height="40" fill="#063a8e"/>
<rect x="1375" y="735" width="40" height="40" fill="#063a8e"/>
<rect x="95" y="775" width="40" height="40" fill="#063a8e"/>
<rect x="135" y="775" width="40" height="40" fill="#063a8e"/>
<rect x="175" y="775" width="40" height="40" fill="#063a8e"/>
<rect x="295" y="775" width="40" height="40" fill="#063a8e"/>
<rect x="415" y="775" width="40" height="40" fill="#063a8e"/>
<rect x="495" y="775" width="40" height="40" fill="#063a8e"/>
<rect x="575" y="775" width="40" height="40" fill="#063a8e"/>
<rect x="695" y="775" width="40" height="40" fill="#063a8e"/>
<rect x="935" y="775" width="40" height="40" fill="#063a8e"/>
<rect x="975" y="775" width="40" height="40" fill="#063a8e"/>
<rect x="1095" y="775" width="40" height="40" fill="#063a8e"/>
<rect x="1175" y="775" width="40" height="40" fill="#063a8e"/>
<rect x="1215" y="775" width="40" height="40" fill="#063a8e"/>
<rect x="1255" y="775" width="40" height="40" fill="#063a8e"/>
<rect x="1295" y="775" width="40" height="40" fill="#063a8e"/>
<rect x="1375" y="775" width="40" height="40" fill="#063a8e"/>
<rect x="1495" y="775" width="40" height="40" fill="#063a8e"/>
<rect x="55" y="815" width="40" height="40" fill="#063a8e"/>
<rect x="135" y="815" width="40" height="40" fill="#063a8e"/>
<rect x="175" y="815" width="40" height="40" fill="#063a8e"/>
<rect x="215" y="815" width="40" height="40" fill="#063a8e"/>
<rect x="255" y="815" width="40" height="40" fill="#063a8e"/>
<rect x="335" y="815" width="40" height="40" fill="#063a8e"/>
<rect x="375" y="815" width="40" height="40" fill="#063a8e"/>
<rect x="455" y="815" width="40" height="40" fill="#063a8e"/>
<rect x="535" y="815" width="40" height="40" fill="#063a8e"/>
<rect x="575" y="815" width="40" height="40" fill="#063a8e"/>
<rect x="695" y="815" width="40" height="40" fill="#063a8e"/>
<rect x="815" y="815" width="40" height="40" fill="#063a8e"/>
<rect x="855" y="815" width="40" height="40" fill="#063a8e"/>
<rect x="935" y="815" width="40" height="40" fill="#063a8e"/>
<rect x="1055" y="815" width="40" height="40" fill="#063a8e"/>
<rect x="1135" y="815" width="40" height="40" fill="#063a8e"/>
<rect x="1175" y="815" width="40" height="40" fill="#063a8e"/>
<rect x="1255" y="815" width="40" height="40" fill="#063a8e"/>
<rect x="1375" y="815" width="40" height="40" fill="#063a8e"/>
<rect x="1415" y="815" width="40" height="40" fill="#063a8e"/>
<rect x="1495" y="815" width="40" height="40" fill="#063a8e"/>
<rect x="55" y="855" width="40" height="40" fill="#063a8e"/>
<rect x="295" y="855" width="40" height="40" fill="#063a8e"/>
<rect x="415" y="855" width="40" height="40" fill="#063a8e"/>
<rect x="535" y="855" width="40" height="40" fill="#063a8e"/>
<rect x="575" y="855" width="40" height="40" fill="#063a8e"/>
<rect x="615" y="855" width="40" height="40" fill="#063a8e"/>
<rect x="695" y="855" width="40" height="40" fill="#063a8e"/>
<rect x="775" y="855" width="40" height="40" fill="#063a8e"/>
<rect x="895" y="855" width="40" height="40" fill="#063a8e"/>
<rect x="935" y="855" width="40" height="40" fill="#063a8e"/>
<rect x="975" y="855" width="40" height="40" fill="#063a8e"/>
<rect x="1135" y="855" width="40" height="40" fill="#063a8e"/>
<rect x="1295" y="855" width="40" height="40" fill="#063a8e"/>
<rect x="1335" y="855" width="40" height="40" fill="#063a8e"/>
<rect x="1375" y="855" width="40" height="40" fill="#063a8e"/>
<rect x="1455" y="855" width="40" height="40" fill="#063a8e"/>
<rect x="135" y="895" width="40" height="40" fill="#063a8e"/>
<rect x="175" y="895" width="40" height="40" fill="#063a8e"/>
<rect x="255" y="895" width="40" height="40" fill="#063a8e"/>
<rect x="375" y="895" width="40" height="40" fill="#063a8e"/>
<rect x="655" y="895" width="40" height="40" fill="#063a8e"/>
<rect x="695" y="895" width="40" height="40" fill="#063a8e"/>
<rect x="775" y="895" width="40" height="40" fill="#063a8e"/>
<rect x="815" y="895" width="40" height="40" fill="#063a8e"/>
<rect x="855" y="895" width="40" height="40" fill="#063a8e"/>
<rect x="895" y="895" width="40" height="40" fill="#063a8e"/>
<rect x="1015" y="895" width="40" height="40" fill="#063a8e"/>
<rect x="1055" y="895" width="40" height="40" fill="#063a8e"/>
<rect x="1095" y="895" width="40" height="40" fill="#063a8e"/>
<rect x="1135" y="895" width="40" height="40" fill="#063a8e"/>
<rect x="1215" y="895" width="40" height="40" fill="#063a8e"/>
<rect x="1255" y="895" width="40" height="40" fill="#063a8e"/>
<rect x="1295" y="895" width="40" height="40" fill="#063a8e"/>
<rect x="1455" y="895" width="40" height="40" fill="#063a8e"/>
<rect x="1495" y="895" width="40" height="40" fill="#063a8e"/>
<rect x="175" y="935" width="40" height="40" fill="#063a8e"/>
<rect x="215" y="935" width="40" height="40" fill="#063a8e"/>
<rect x="255" y="935" width="40" height="40" fill="#063a8e"/>
<rect x="295" y="935" width="40" height="40" fill="#063a8e"/>
<rect x="335" y="935" width="40" height="40" fill="#063a8e"/>
<rect x="455" y="935" width="40" height="40" fill="#063a8e"/>
<rect x="495" y="935" width="40" height="40" fill="#063a8e"/>
<rect x="615" y="935" width="40" height="40" fill="#063a8e"/>
<rect x="655" y="935" width="40" height="40" fill="#063a8e"/>
<rect x="895" y="935" width="40" height="40" fill="#063a8e"/>
<rect x="1135" y="935" width="40" height="40" fill="#063a8e"/>
<rect x="1255" y="935" width="40" height="40" fill="#063a8e"/>
<rect x="1375" y="935" width="40" height="40" fill="#063a8e"/>
<rect x="1495" y="935" width="40" height="40" fill="#063a8e"/>
<rect x="135" y="975" width="40" height="40" fill="#063a8e"/>
<rect x="175" y="975" width="40" height="40" fill="#063a8e"/>
<rect x="255" y="975" width="40" height="40" fill="#063a8e"/>
<rect x="415" y="975" width="40" height="40" fill="#063a8e"/>
<rect x="455" y="975" width="40" height="40" fill="#063a8e"/>
<rect x="695" y="975" width="40" height="40" fill="#063a8e"/>
<rect x="735" y="975" width="40" height="40" fill="#063a8e"/>
<rect x="855" y="975" width="40" height="40" fill="#063a8e"/>
<rect x="1055" y="975" width="40" height="40" fill="#063a8e"/>
<rect x="1135" y="975" width="40" height="40" fill="#063a8e"/>
<rect x="1175" y="975" width="40" height="40" fill="#063a8e"/>
<rect x="1255" y="975" width="40" height="40" fill="#063a8e"/>
<rect x="1295" y="975" width="40" height="40" fill="#063a8e"/>
<rect x="1375" y="975" width="40" height="40" fill="#063a8e"/>
<rect x="1415" y="975" width="40" height="40" fill="#063a8e"/>
<rect x="95" y="1015" width="40" height="40" fill="#063a8e"/>
<rect x="135" y="1015" width="40" height="40" fill="#063a8e"/>
<rect x="175" y="1015" width="40" height="40" fill="#063a8e"/>
<rect x="295" y="1015" width="40" height="40" fill="#063a8e"/>
<rect x="335" y="1015" width="40" height="40" fill="#063a8e"/>
<rect x="535" y="1015" width="40" height="40" fill="#063a8e"/>
<rect x="615" y="1015" width="40" height="40" fill="#063a8e"/>
<rect x="695" y="1015" width="40" height="40" fill="#063a8e"/>
<rect x="1015" y="1015" width="40" height="40" fill="#063a8e"/>
<rect x="1055" y="1015" width="40" height="40" fill="#063a8e"/>
<rect x="1135" y="1015" width="40" height="40" fill="#063a8e"/>
<rect x="1375" y="1015" width="40" height="40" fill="#063a8e"/>
<rect x="1495" y="1015" width="40" height="40" fill="#063a8e"/>
<rect x="95" y="1055" width="40" height="40" fill="#063a8e"/>
<rect x="375" y="1055" width="40" height="40" fill="#063a8e"/>
<rect x="535" y="1055" width="40" height="40" fill="#063a8e"/>
<rect x="575" y="1055" width="40" height="40" fill="#063a8e"/>
<rect x="655" y="1055" width="40" height="40" fill="#063a8e"/>
<rect x="695" y="1055" width="40" height="40" fill="#063a8e"/>
<rect x="815" y="1055" width="40" height="40" fill="#063a8e"/>
<rect x="855" y="1055" width="40" height="40" fill="#063a8e"/>
<rect x="1015" y="1055" width="40" height="40" fill="#063a8e"/>
<rect x="1215" y="1055" width="40" height="40" fill="#063a8e"/>
<rect x="1255" y="1055" width="40" height="40" fill="#063a8e"/>
<rect x="1295" y="1055" width="40" height="40" fill="#063a8e"/>
<rect x="1375" y="1055" width="40" height="40" fill="#063a8e"/>
<rect x="1495" y="1055" width="40" height="40" fill="#063a8e"/>
<rect x="55" y="1095" width="40" height="40" fill="#063a8e"/>
<rect x="95" y="1095" width="40" height="40" fill="#063a8e"/>
<rect x="175" y="1095" width="40" height="40" fill="#063a8e"/>
<rect x="215" y="1095" width="40" height="40" fill="#063a8e"/>
<rect x="255" y="1095" width="40" height="40" fill="#063a8e"/>
<rect x="295" y="1095" width="40" height="40" fill="#063a8e"/>
<rect x="335" y="1095" width="40" height="40" fill="#063a8e"/>
<rect x="415" y="1095" width="40" height="40" fill="#063a8e"/>
<rect x="535" y="1095" width="40" height="40" fill="#063a8e"/>
<rect x="575" y="1095" width="40" height="40" fill="#063a8e"/>
<rect x="615" y="1095" width="40" height="40" fill="#063a8e"/>
<rect x="695" y="1095" width="40" height="40" fill="#063a8e"/>
<rect x="735" y="1095" width="40" height="40" fill="#063a8e"/>
<rect x="1015" y="1095" width="40" height="40" fill="#063a8e"/>
<rect x="1095" y="1095" width="40" height="40" fill="#063a8e"/>
<rect x="1135" y="1095" width="40" height="40" fill="#063a8e"/>
<rect x="1255" y="1095" width="40" height="40" fill="#063a8e"/>
<rect x="135" y="1135" width="40" height="40" fill="#063a8e"/>
<rect x="255" y="1135" width="40" height="40" fill="#063a8e"/>
<rect x="375" y="1135" width="40" height="40" fill="#063a8e"/>
<rect x="415" y="1135" width="40" height="40" fill="#063a8e"/>
<rect x="455" y="1135" width="40" height="40" fill="#063a8e"/>
<rect x="535" y="1135" width="40" height="40" fill="#063a8e"/>
<rect x="695" y="1135" width="40" height="40" fill="#063a8e"/>
<rect x="735" y="1135" width="40" height="40" fill="#063a8e"/>
<rect x="895" y="1135" width="40" height="40" fill="#063a8e"/>
<rect x="935" y="1135" width="40" height="40" fill="#063a8e"/>
<rect x="975" y="1135" width="40" height="40" fill="#063a8e"/>
<rect x="1015" y="1135" width="40" height="40" fill="#063a8e"/>
<rect x="1055" y="1135" width="40" height="40" fill="#063a8e"/>
<rect x="1135" y="1135" width="40" height="40" fill="#063a8e"/>
<rect x="1215" y="1135" width="40" height="40" fill="#063a8e"/>
<rect x="1255" y="1135" width="40" height="40" fill="#063a8e"/>
<rect x="1295" y="1135" width="40" height="40" fill="#063a8e"/>
<rect x="1375" y="1135" width="40" height="40" fill="#063a8e"/>
<rect x="1495" y="1135" width="40" height="40" fill="#063a8e"/>
<rect x="55" y="1175" width="40" height="40" fill="#063a8e"/>
<rect x="95" y="1175" width="40" height="40" fill="#063a8e"/>
<rect x="215" y="1175" width="40" height="40" fill="#063a8e"/>
<rect x="295" y="1175" width="40" height="40" fill="#063a8e"/>
<rect x="335" y="1175" width="40" height="40" fill="#063a8e"/>
<rect x="375" y="1175" width="40" height="40" fill="#063a8e"/>
<rect x="415" y="1175" width="40" height="40" fill="#063a8e"/>
<rect x="495" y="1175" width="40" height="40" fill="#063a8e"/>
<rect x="775" y="1175" width="40" height="40" fill="#063a8e"/>
<rect x="855" y="1175" width="40" height="40" fill="#063a8e"/>
<rect x="1135" y="1175" width="40" height="40" fill="#063a8e"/>
<rect x="1175" y="1175" width="40" height="40" fill="#063a8e"/>
<rect x="1215" y="1175" width="40" height="40" fill="#063a8e"/>
<rect x="1255" y="1175" width="40" height="40" fill="#063a8e"/>
<rect x="1295" y="1175" width="40" height="40" fill="#063a8e"/>
<rect x="1335" y="1175" width="40" height="40" fill="#063a8e"/>
<rect x="1495" y="1175" width="40" height="40" fill="#063a8e"/>
<rect x="375" y="1215" width="40" height="40" fill="#063a8e"/>
<rect x="455" y="1215" width="40" height="40" fill="#063a8e"/>
<rect x="495" y="1215" width="40" height="40" fill="#063a8e"/>
<rect x="535" y="1215" width="40" height="40" fill="#063a8e"/>
<rect x="655" y="1215" width="40" height="40" fill="#063a8e"/>
<rect x="695" y="1215" width="40" height="40" fill="#063a8e"/>
<rect x="855" y="1215" width="40" height="40" fill="#063a8e"/>
<rect x="1015" y="1215" width="40" height="40" fill="#063a8e"/>
<rect x="1095" y="1215" width="40" height="40" fill="#063a8e"/>
<rect x="1175" y="1215" width="40" height="40" fill="#063a8e"/>
<rect x="1335" y="1215" width="40" height="40" fill="#063a8e"/>
<rect x="1375" y="1215" width="40" height="40" fill="#063a8e"/>
<rect x="1455" y="1215" width="40" height="40" fill="#063a8e"/>
<rect x="1495" y="1215" width="40" height="40" fill="#063a8e"/>
<rect x="55" y="1255" width="40" height="40" fill="#063a8e"/>
<rect x="95" y="1255" width="40" height="40" fill="#063a8e"/>
<rect x="135" y="1255" width="40" height="40" fill="#063a8e"/>
<rect x="175" y="1255" width="40" height="40" fill="#063a8e"/>
<rect x="215" y="1255" width="40" height="40" fill="#063a8e"/>
<rect x="255" y="1255" width="40" height="40" fill="#063a8e"/>
<rect x="295" y="1255" width="40" height="40" fill="#063a8e"/>
<rect x="375" y="1255" width="40" height="40" fill="#063a8e"/>
<rect x="455" y="1255" width="40" height="40" fill="#063a8e"/>
<rect x="535" y="1255" width="40" height="40" fill="#063a8e"/>
<rect x="695" y="1255" width="40" height="40" fill="#063a8e"/>
<rect x="735" y="1255" width="40" height="40" fill="#063a8e"/>
<rect x="815" y="1255" width="40" height="40" fill="#063a8e"/>
<rect x="855" y="1255" width="40" height="40" fill="#063a8e"/>
<rect x="1015" y="1255" width="40" height="40" fill="#063a8e"/>
<rect x="1175" y="1255" width="40" height="40" fill="#063a8e"/>
<rect x="1255" y="1255" width="40" height="40" fill="#063a8e"/>
<rect x="1335" y="1255" width="40" height="40" fill="#063a8e"/>
<rect x="1375" y="1255" width="40" height="40" fill="#063a8e"/>
<rect x="1455" y="1255" width="40" height="40" fill="#063a8e"/>
<rect x="1495" y="1255" width="40" height="40" fill="#063a8e"/>
<rect x="55" y="1295" width="40" height="40" fill="#063a8e"/>
<rect x="295" y="1295" width="40" height="40" fill="#063a8e"/>
<rect x="375" y="1295" width="40" height="40" fill="#063a8e"/>
<rect x="415" y="1295" width="40" height="40" fill="#063a8e"/>
<rect x="535" y="1295" width="40" height="40" fill="#063a8e"/>
<rect x="575" y="1295" width="40" height="40" fill="#063a8e"/>
<rect x="615" y="1295" width="40" height="40" fill="#063a8e"/>
<rect x="655" y="1295" width="40" height="40" fill="#063a8e"/>
<rect x="735" y="1295" width="40" height="40" fill="#063a8e"/>
<rect x="815" y="1295" width="40" height="40" fill="#063a8e"/>
<rect x="855" y="1295" width="40" height="40" fill="#063a8e"/>
<rect x="935" y="1295" width="40" height="40" fill="#063a8e"/>
<rect x="1015" y="1295" width="40" height="40" fill="#063a8e"/>
<rect x="1175" y="1295" width="40" height="40" fill="#063a8e"/>
<rect x="1335" y="1295" width="40" height="40" fill="#063a8e"/>
<rect x="1415" y="1295" width="40" height="40" fill="#063a8e"/>
<rect x="1455" y="1295" width="40" height="40" fill="#063a8e"/>
<rect x="1495" y="1295" width="40" height="40" fill="#063a8e"/>
<rect x="55" y="1335" width="40" height="40" fill="#063a8e"/>
<rect x="135" y="1335" width="40" height="40" fill="#063a8e"/>
<rect x="175" y="1335" width="40" height="40" fill="#063a8e"/>
<rect x="215" y="1335" width="40" height="40" fill="#063a8e"/>
<rect x="295" y="1335" width="40" height="40" fill="#063a8e"/>
<rect x="455" y="1335" width="40" height="40" fill="#063a8e"/>
<rect x="495" y="1335" width="40" height="40" fill="#063a8e"/>
<rect x="655" y="1335" width="40" height="40" fill="#063a8e"/>
<rect x="695" y="1335" width="40" height="40" fill="#063a8e"/>
<rect x="735" y="1335" width="40" height="40" fill="#063a8e"/>
<rect x="775" y="1335" width="40" height="40" fill="#063a8e"/>
<rect x="855" y="1335" width="40" height="40" fill="#063a8e"/>
<rect x="935" y="1335" width="40" height="40" fill="#063a8e"/>
<rect x="975" y="1335" width="40" height="40" fill="#063a8e"/>
<rect x="1055" y="1335" width="40" height="40" fill="#063a8e"/>
<rect x="1095" y="1335" width="40" height="40" fill="#063a8e"/>
<rect x="1175" y="1335" width="40" height="40" fill="#063a8e"/>
<rect x="1215" y="1335" width="40" height="40" fill="#063a8e"/>
<rect x="1255" y="1335" width="40" height="40" fill="#063a8e"/>
<rect x="1295" y="1335" width="40" height="40" fill="#063a8e"/>
<rect x="1335" y="1335" width="40" height="40" fill="#063a8e"/>
<rect x="1375" y="1335" width="40" height="40" fill="#063a8e"/>
<rect x="1415" y="1335" width="40" height="40" fill="#063a8e"/>
<rect x="1495" y="1335" width="40" height="40" fill="#063a8e"/>
<rect x="55" y="1375" width="40" height="40" fill="#063a8e"/>
<rect x="135" y="1375" width="40" height="40" fill="#063a8e"/>
<rect x="175" y="1375" width="40" height="40" fill="#063a8e"/>
<rect x="215" y="1375" width="40" height="40" fill="#063a8e"/>
<rect x="295" y="1375" width="40" height="40" fill="#063a8e"/>
<rect x="495" y="1375" width="40" height="40" fill="#063a8e"/>
<rect x="575" y="1375" width="40" height="40" fill="#063a8e"/>
<rect x="615" y="1375" width="40" height="40" fill="#063a8e"/>
<rect x="655" y="1375" width="40" height="40" fill="#063a8e"/>
<rect x="735" y="1375" width="40" height="40" fill="#063a8e"/>
<rect x="815" y="1375" width="40" height="40" fill="#063a8e"/>
<rect x="895" y="1375" width="40" height="40" fill="#063a8e"/>
<rect x="1095" y="1375" width="40" height="40" fill="#063a8e"/>
<rect x="1175" y="1375" width="40" height="40" fill="#063a8e"/>
<rect x="1295" y="1375" width="40" height="40" fill="#063a8e"/>
<rect x="1375" y="1375" width="40" height="40" fill="#063a8e"/>
<rect x="1455" y="1375" width="40" height="40" fill="#063a8e"/>
<rect x="55" y="1415" width="40" height="40" fill="#063a8e"/>
<rect x="135" y="1415" width="40" height="40" fill="#063a8e"/>
<rect x="175" y="1415" width="40" height="40" fill="#063a8e"/>
<rect x="215" y="1415" width="40" height="40" fill="#063a8e"/>
<rect x="295" y="1415" width="40" height="40" fill="#063a8e"/>
<rect x="375" y="1415" width="40" height="40" fill="#063a8e"/>
<rect x="415" y="1415" width="40" height="40" fill="#063a8e"/>
<rect x="455" y="1415" width="40" height="40" fill="#063a8e"/>
<rect x="535" y="1415" width="40" height="40" fill="#063a8e"/>
<rect x="575" y="1415" width="40" height="40" fill="#063a8e"/>
<rect x="615" y="1415" width="40" height="40" fill="#063a8e"/>
<rect x="655" y="1415" width="40" height="40" fill="#063a8e"/>
<rect x="735" y="1415" width="40" height="40" fill="#063a8e"/>
<rect x="815" y="1415" width="40" height="40" fill="#063a8e"/>
<rect x="895" y="1415" width="40" height="40" fill="#063a8e"/>
<rect x="975" y="1415" width="40" height="40" fill="#063a8e"/>
<rect x="1095" y="1415" width="40" height="40" fill="#063a8e"/>
<rect x="1175" y="1415" width="40" height="40" fill="#063a8e"/>
<rect x="1215" y="1415" width="40" height="40" fill="#063a8e"/>
<rect x="1255" y="1415" width="40" height="40" fill="#063a8e"/>
<rect x="1335" y="1415" width="40" height="40" fill="#063a8e"/>
<rect x="1375" y="1415" width="40" height="40" fill="#063a8e"/>
<rect x="1455" y="1415" width="40" height="40" fill="#063a8e"/>
<rect x="1495" y="1415" width="40" height="40" fill="#063a8e"/>
<rect x="55" y="1455" width="40" height="40" fill="#063a8e"/>
<rect x="295" y="1455" width="40" height="40" fill="#063a8e"/>
<rect x="415" y="1455" width="40" height="40" fill="#063a8e"/>
<rect x="695" y="1455" width="40" height="40" fill="#063a8e"/>
<rect x="775" y="1455" width="40" height="40" fill="#063a8e"/>
<rect x="815" y="1455" width="40" height="40" fill="#063a8e"/>
<rect x="855" y="1455" width="40" height="40" fill="#063a8e"/>
<rect x="895" y="1455" width="40" height="40" fill="#063a8e"/>
<rect x="935" y="1455" width="40" height="40" fill="#063a8e"/>
<rect x="1095" y="1455" width="40" height="40" fill="#063a8e"/>
<rect x="1135" y="1455" width="40" height="40" fill="#063a8e"/>
<rect x="1175" y="1455" width="40" height="40" fill="#063a8e"/>
<rect x="1215" y="1455" width="40" height="40" fill="#063a8e"/>
<rect x="1295" y="1455" width="40" height="40" fill="#063a8e"/>
<rect x="1335" y="1455" width="40" height="40" fill="#063a8e"/>
<rect x="1375" y="1455" width="40" height="40" fill="#063a8e"/>
<rect x="1455" y="1455" width="40" height="40" fill="#063a8e"/>
<rect x="1495" y="1455" width="40" height="40" fill="#063a8e"/>
<rect x="55" y="1495" width="40" height="40" fill="#063a8e"/>
<rect x="95" y="1495" width="40" height="40" fill="#063a8e"/>
<rect x="135" y="1495" width="40" height="40" fill="#063a8e"/>
<rect x="175" y="1495" width="40" height="40" fill="#063a8e"/>
<rect x="215" y="1495" width="40" height="40" fill="#063a8e"/>
<rect x="255" y="1495" width="40" height="40" fill="#063a8e"/>
<rect x="295" y="1495" width="40" height="40" fill="#063a8e"/>
<rect x="415" y="1495" width="40" height="40" fill="#063a8e"/>
<rect x="615" y="1495" width="40" height="40" fill="#063a8e"/>
<rect x="775" y="1495" width="40" height="40" fill="#063a8e"/>
<rect x="855" y="1495" width="40" height="40" fill="#063a8e"/>
<rect x="895" y="1495" width="40" height="40" fill="#063a8e"/>
<rect x="935" y="1495" width="40" height="40" fill="#063a8e"/>
<rect x="975" y="1495" width="40" height="40" fill="#063a8e"/>
<rect x="1095" y="1495" width="40" height="40" fill="#063a8e"/>
<rect x="1215" y="1495" width="40" height="40" fill="#063a8e"/>
<rect x="1335" y="1495" width="40" height="40" fill="#063a8e"/>
<rect x="1375" y="1495" width="40" height="40" fill="#063a8e"/>
<rect x="1415" y="1495" width="40" height="40" fill="#063a8e"/>
<rect x="1495" y="1495" width="40" height="40" fill="#063a8e"/>
</g>
</svg>

